{
  "accessors": [
    {
      "bufferView": 3,
      "componentType": 5126,
      "count": 1566,
      "max": [
        2.821082353591919,
        12.650510787963867,
        2.057251214981079
      ],
      "min": [
        -2.8203039169311523,
        6.8293538093566895,
        -5.263943195343018
      ],
      "type": "VEC3"
    },
    {
      "bufferView": 3,
      "byteOffset": 18792,
      "componentType": 5126,
      "count": 1566,
      "max": [
        0.9997357130050659,
        0.9984340667724609,
        0.9994875192642212
      ],
      "min": [
        -0.9997027516365051,
        -0.9967858195304871,
        -0.998650074005127
      ],
      "type": "VEC3"
    },
    {
      "bufferView": 2,
      "componentType": 5126,
      "count": 1566,
      "max": [
        0.8503014445304871,
        0.9974778294563293
      ],
      "min": [
        0.003444881644099951,
        0.00390625
      ],
      "type": "VEC2"
    },
    {
      "bufferView": 1,
      "componentType": 5125,
      "count": 7224,
      "type": "SCALAR"
    },
    {
      "bufferView": 3,
      "byteOffset": 37584,
      "componentType": 5126,
      "count": 272,
      "max": [
        2.155895471572876,
        10.516500473022461,
        2.0675909519195557
      ],
      "min": [
        -2.155895471572876,
        8.10700798034668,
        0.39010053873062134
      ],
      "type": "VEC3"
    },
    {
      "bufferView": 3,
      "byteOffset": 40848,
      "componentType": 5126,
      "count": 272,
      "max": [
        0.9976921677589417,
        0.9622071385383606,
        0.9993542432785034
      ],
      "min": [
        -0.9976921677589417,
        -0.9350743889808655,
        -0.1874820590019226
      ],
      "type": "VEC3"
    },
    {
      "bufferView": 2,
      "byteOffset": 12528,
      "componentType": 5126,
      "count": 272,
      "max": [
        0.63807213306427,
        0.7436946630477905
      ],
      "min": [
        0.501937747001648,
        0.611035943031311
      ],
      "type": "VEC2"
    },
    {
      "bufferView": 1,
      "byteOffset": 28896,
      "componentType": 5125,
      "count": 1446,
      "type": "SCALAR"
    },
    {
      "bufferView": 3,
      "byteOffset": 44112,
      "componentType": 5126,
      "count": 1798,
      "max": [
        4.924498558044434,
        7.291101932525635,
        0.9914487600326538
      ],
      "min": [
        -4.924498558044434,
        3.1219067573547363,
        -1.095951795578003
      ],
      "type": "VEC3"
    },
    {
      "bufferView": 3,
      "byteOffset": 65688,
      "componentType": 5126,
      "count": 1798,
      "max": [
        0.99322909116745,
        0.9979437589645386,
        0.999971866607666
      ],
      "min": [
        -0.99322909116745,
        -0.9999277591705322,
        -0.9999881982803345
      ],
      "type": "VEC3"
    },
    {
      "bufferView": 2,
      "byteOffset": 14704,
      "componentType": 5126,
      "count": 1798,
      "max": [
        0.9995079040527344,
        0.8611589670181274
      ],
      "min": [
        0.43866878747940063,
        0.0019377459539100528
      ],
      "type": "VEC2"
    },
    {
      "bufferView": 1,
      "byteOffset": 34680,
      "componentType": 5125,
      "count": 8586,
      "type": "SCALAR"
    },
    {
      "bufferView": 3,
      "byteOffset": 87264,
      "componentType": 5126,
      "count": 304,
      "max": [
        0.28863969445228577,
        6.646071910858154,
        1.048875093460083
      ],
      "min": [
        -0.27719223499298096,
        5.6274518966674805,
        0.28680098056793213
      ],
      "type": "VEC3"
    },
    {
      "bufferView": 3,
      "byteOffset": 90912,
      "componentType": 5126,
      "count": 304,
      "max": [
        0.9999971985816956,
        0.950397789478302,
        0.957064688205719
      ],
      "min": [
        -0.9999971389770508,
        -0.9755792617797852,
        -0.9722082614898682
      ],
      "type": "VEC3"
    },
    {
      "bufferView": 2,
      "byteOffset": 29088,
      "componentType": 5126,
      "count": 304,
      "max": [
        0.4258119761943817,
        0.4100947380065918
      ],
      "min": [
        0.2149975299835205,
        0.3212659955024719
      ],
      "type": "VEC2"
    },
    {
      "bufferView": 1,
      "byteOffset": 69024,
      "componentType": 5125,
      "count": 324,
      "type": "SCALAR"
    },
    {
      "bufferView": 3,
      "byteOffset": 94560,
      "componentType": 5126,
      "count": 662,
      "max": [
        3.9621005058288574,
        5.83590030670166,
        0.5340129733085632
      ],
      "min": [
        2.0231430530548096,
        3.9534847736358643,
        -1.287013292312622
      ],
      "type": "VEC3"
    },
    {
      "bufferView": 3,
      "byteOffset": 102504,
      "componentType": 5126,
      "count": 662,
      "max": [
        0.9853306412696838,
        0.9980557560920715,
        0.9944733381271362
      ],
      "min": [
        -0.9975190162658691,
        -0.9969099164009094,
        -0.9868013262748718
      ],
      "type": "VEC3"
    },
    {
      "bufferView": 2,
      "byteOffset": 31520,
      "componentType": 5126,
      "count": 662,
      "max": [
        0.9963090419769287,
        0.5098117589950562
      ],
      "min": [
        0.006705216597765684,
        0.27888163924217224
      ],
      "type": "VEC2"
    },
    {
      "bufferView": 1,
      "byteOffset": 70320,
      "componentType": 5125,
      "count": 2400,
      "type": "SCALAR"
    },
    {
      "bufferView": 3,
      "byteOffset": 110448,
      "componentType": 5126,
      "count": 257,
      "max": [
        3.7782225608825684,
        5.829698085784912,
        0.47104594111442566
      ],
      "min": [
        2.836132287979126,
        5.010255336761475,
        -0.34678295254707336
      ],
      "type": "VEC3"
    },
    {
      "bufferView": 3,
      "byteOffset": 113532,
      "componentType": 5126,
      "count": 257,
      "max": [
        0.9911367893218994,
        0.9735256433486938,
        0.9965856075286865
      ],
      "min": [
        -0.9969816207885742,
        -0.9977321624755859,
        -0.9940645098686218
      ],
      "type": "VEC3"
    },
    {
      "bufferView": 2,
      "byteOffset": 36816,
      "componentType": 5126,
      "count": 257,
      "max": [
        0.8686023950576782,
        0.47520914673805237
      ],
      "min": [
        0.001999261789023876,
        0.003567913081496954
      ],
      "type": "VEC2"
    },
    {
      "bufferView": 1,
      "byteOffset": 79920,
      "componentType": 5125,
      "count": 804,
      "type": "SCALAR"
    },
    {
      "bufferView": 3,
      "byteOffset": 116616,
      "componentType": 5126,
      "count": 760,
      "max": [
        -2.0224251747131348,
        5.83590030670166,
        0.5340129733085632
      ],
      "min": [
        -3.961562156677246,
        3.9534847736358643,
        -1.287013292312622
      ],
      "type": "VEC3"
    },
    {
      "bufferView": 3,
      "byteOffset": 125736,
      "componentType": 5126,
      "count": 760,
      "max": [
        0.9975153207778931,
        0.9982808828353882,
        0.9771144986152649
      ],
      "min": [
        -0.9996882677078247,
        -0.9969168901443481,
        -0.9897193908691406
      ],
      "type": "VEC3"
    },
    {
      "bufferView": 2,
      "byteOffset": 38872,
      "componentType": 5126,
      "count": 760,
      "max": [
        0.28371062874794006,
        0.5106114745140076
      ],
      "min": [
        0.006705216597765684,
        0.31459152698516846
      ],
      "type": "VEC2"
    },
    {
      "bufferView": 1,
      "byteOffset": 83136,
      "componentType": 5125,
      "count": 2622,
      "type": "SCALAR"
    },
    {
      "bufferView": 3,
      "byteOffset": 134856,
      "componentType": 5126,
      "count": 345,
      "max": [
        1.3383023738861084,
        4.304598808288574,
        0.6344630122184753
      ],
      "min": [
        -1.3377727270126343,
        1.317383050918579,
        -0.8862873911857605
      ],
      "type": "VEC3"
    },
    {
      "bufferView": 3,
      "byteOffset": 138996,
      "componentType": 5126,
      "count": 345,
      "max": [
        0.9981539845466614,
        0.673647403717041,
        0.9764960408210754
      ],
      "min": [
        -0.9981369972229004,
        -0.9994208812713623,
        -0.9955841898918152
      ],
      "type": "VEC3"
    },
    {
      "bufferView": 2,
      "byteOffset": 44952,
      "componentType": 5126,
      "count": 345,
      "max": [
        0.9947711229324341,
        0.7756213545799255
      ],
      "min": [
        0.7427719235420227,
        0.5408157110214233
      ],
      "type": "VEC2"
    },
    {
      "bufferView": 1,
      "byteOffset": 93624,
      "componentType": 5125,
      "count": 1806,
      "type": "SCALAR"
    },
    {
      "bufferView": 3,
      "byteOffset": 143136,
      "componentType": 5126,
      "count": 530,
      "max": [
        1.5266000032424927,
        1.521669864654541,
        0.7249847650527954
      ],
      "min": [
        -1.5266000032424927,
        -0.0013148572761565447,
        -1.0391602516174316
      ],
      "type": "VEC3"
    },
    {
      "bufferView": 3,
      "byteOffset": 149496,
      "componentType": 5126,
      "count": 530,
      "max": [
        0.9999501705169678,
        0.998667299747467,
        0.9888872504234314
      ],
      "min": [
        -0.9999501705169678,
        -1.0,
        -0.9737623333930969
      ],
      "type": "VEC3"
    },
    {
      "bufferView": 2,
      "byteOffset": 47712,
      "componentType": 5126,
      "count": 530,
      "max": [
        0.9962783455848694,
        0.9983083605766296
      ],
      "min": [
        0.16150960326194763,
        0.6997109055519104
      ],
      "type": "VEC2"
    },
    {
      "bufferView": 1,
      "byteOffset": 100848,
      "componentType": 5125,
      "count": 2268,
      "type": "SCALAR"
    },
    {
      "bufferView": 5,
      "componentType": 5126,
      "count": 61,
      "max": [
        100.0,
        3.2864230542668793e-13,
        0.9998583197593689,
        0.0,
        1.6289760651488905e-07,
        100.0,
        1.6292067073209182e-07,
        0.0,
        1.0,
        1.6292071336465597e-07,
        100.0,
        0.0,
        3.0489251613616943,
        0.0,
        3.5465378761291504,
        1.0
      ],
      "min": [
        -1.0,
        -1.1383093903236108e-12,
        -1.0,
        0.0,
        -1.6291240001464757e-07,
        1.0,
        -1.6292068494294654e-07,
        0.0,
        -0.9998583197593689,
        -1.201271832889784e-21,
        -1.0,
        0.0,
        -3.3348302841186523,
        -7.424034595489502,
        -4.526985168457031,
        1.0
      ],
      "type": "MAT4"
    },
    {
      "bufferView": 0,
      "componentType": 5123,
      "count": 1566,
      "type": "VEC4"
    },
    {
      "bufferView": 4,
      "componentType": 5126,
      "count": 1566,
      "max": [
        1.0,
        0.48767054080963135,
        0.0,
        0.0
      ],
      "min": [
        0.5123295187950134,
        0.0,
        0.0,
        0.0
      ],
      "type": "VEC4"
    },
    {
      "bufferView": 0,
      "byteOffset": 12528,
      "componentType": 5123,
      "count": 272,
      "type": "VEC4"
    },
    {
      "bufferView": 4,
      "byteOffset": 25056,
      "componentType": 5126,
      "count": 272,
      "max": [
        1.0,
        0.0,
        0.0,
        0.0
      ],
      "min": [
        1.0,
        0.0,
        0.0,
        0.0
      ],
      "type": "VEC4"
    },
    {
      "bufferView": 0,
      "byteOffset": 14704,
      "componentType": 5123,
      "count": 1798,
      "type": "VEC4"
    },
    {
      "bufferView": 4,
      "byteOffset": 29408,
      "componentType": 5126,
      "count": 1798,
      "max": [
        1.0,
        0.49957275390625,
        0.2978804409503937,
        0.12959882616996765
      ],
      "min": [
        0.3272854685783386,
        0.0,
        0.0,
        0.0
      ],
      "type": "VEC4"
    },
    {
      "bufferView": 0,
      "byteOffset": 29088,
      "componentType": 5123,
      "count": 304,
      "type": "VEC4"
    },
    {
      "bufferView": 4,
      "byteOffset": 58176,
      "componentType": 5126,
      "count": 304,
      "max": [
        1.0,
        0.0,
        0.0,
        0.0
      ],
      "min": [
        1.0,
        0.0,
        0.0,
        0.0
      ],
      "type": "VEC4"
    },
    {
      "bufferView": 0,
      "byteOffset": 31520,
      "componentType": 5123,
      "count": 662,
      "type": "VEC4"
    },
    {
      "bufferView": 4,
      "byteOffset": 63040,
      "componentType": 5126,
      "count": 662,
      "max": [
        1.0,
        0.0,
        0.0,
        0.0
      ],
      "min": [
        1.0,
        0.0,
        0.0,
        0.0
      ],
      "type": "VEC4"
    },
    {
      "bufferView": 0,
      "byteOffset": 36816,
      "componentType": 5123,
      "count": 257,
      "type": "VEC4"
    },
    {
      "bufferView": 4,
      "byteOffset": 73632,
      "componentType": 5126,
      "count": 257,
      "max": [
        1.0,
        0.0,
        0.0,
        0.0
      ],
      "min": [
        1.0,
        0.0,
        0.0,
        0.0
      ],
      "type": "VEC4"
    },
    {
      "bufferView": 0,
      "byteOffset": 38872,
      "componentType": 5123,
      "count": 760,
      "type": "VEC4"
    },
    {
      "bufferView": 4,
      "byteOffset": 77744,
      "componentType": 5126,
      "count": 760,
      "max": [
        1.0,
        0.0,
        0.0,
        0.0
      ],
      "min": [
        1.0,
        0.0,
        0.0,
        0.0
      ],
      "type": "VEC4"
    },
    {
      "bufferView": 0,
      "byteOffset": 44952,
      "componentType": 5123,
      "count": 345,
      "type": "VEC4"
    },
    {
      "bufferView": 4,
      "byteOffset": 89904,
      "componentType": 5126,
      "count": 345,
      "max": [
        1.0,
        0.4938505291938782,
        0.14119604229927063,
        0.0
      ],
      "min": [
        0.47345611453056335,
        0.0,
        0.0,
        0.0
      ],
      "type": "VEC4"
    },
    {
      "bufferView": 0,
      "byteOffset": 47712,
      "componentType": 5123,
      "count": 530,
      "type": "VEC4"
    },
    {
      "bufferView": 4,
      "byteOffset": 95424,
      "componentType": 5126,
      "count": 530,
      "max": [
        1.0,
        0.4675588011741638,
        0.16217783093452454,
        0.0
      ],
      "min": [
        0.5020142793655396,
        0.0,
        0.0,
        0.0
      ],
      "type": "VEC4"
    },
    {
      "bufferView": 6,
      "componentType": 5126,
      "count": 30,
      "max": [
        1.100000023841858
      ],
      "min": [
        0.0
      ],
      "type": "SCALAR"
    },
    {
      "bufferView": 7,
      "componentType": 5126,
      "count": 30,
      "max": [
        2.220446049250313e-16,
        0.6121845245361328,
        0.03007398545742035
      ],
      "min": [
        -4.440892098500626e-16,
        0.6121845245361328,
        0.03007398545742035
      ],
      "type": "VEC3"
    },
    {
      "bufferView": 6,
      "byteOffset": 120,
      "componentType": 5126,
      "count": 34,
      "max": [
        1.100000023841858
      ],
      "min": [
        0.0
      ],
      "type": "SCALAR"
    },
    {
      "bufferView": 8,
      "componentType": 5126,
      "count": 34,
      "max": [
        0.0029622402507811785,
        0.012613851577043533,
        0.006249941885471344,
        0.9999831318855286
      ],
      "min": [
        -0.006061320658773184,
        -0.016161814332008362,
        0.0015996795846149325,
        0.9998549222946167
      ],
      "type": "VEC4"
    },
    {
      "bufferView": 6,
      "byteOffset": 256,
      "componentType": 5126,
      "count": 31,
      "max": [
        1.100000023841858
      ],
      "min": [
        0.0
      ],
      "type": "SCALAR"
    },
    {
      "bufferView": 7,
      "byteOffset": 360,
      "componentType": 5126,
      "count": 31,
      "max": [
        4.440892098500626e-16,
        1.2641606330871582,
        -0.1416029930114746
      ],
      "min": [
        -4.440892098500626e-16,
        1.2641606330871582,
        -0.1416029930114746
      ],
      "type": "VEC3"
    },
    {
      "bufferView": 6,
      "byteOffset": 380,
      "componentType": 5126,
      "count": 34,
      "max": [
        1.100000023841858
      ],
      "min": [
        0.0
      ],
      "type": "SCALAR"
    },
    {
      "bufferView": 8,
      "byteOffset": 544,
      "componentType": 5126,
      "count": 34,
      "max": [
        0.0026884612161666155,
        0.011707513593137264,
        0.0094896350055933,
        0.9999829530715942
      ],
      "min": [
        -0.006046581082046032,
        -0.016265349462628365,
        0.0008164542377926409,
        0.9998553991317749
      ],
      "type": "VEC4"
    },
    {
      "bufferView": 6,
      "byteOffset": 516,
      "componentType": 5126,
      "count": 34,
      "max": [
        1.100000023841858
      ],
      "min": [
        0.0
      ],
      "type": "SCALAR"
    },
    {
      "bufferView": 8,
      "byteOffset": 1088,
      "componentType": 5126,
      "count": 34,
      "max": [
        0.922733724117279,
        -0.02649284154176712,
        -0.1993199735879898,
        0.33044734597206116
      ],
      "min": [
        0.9220503568649292,
        -0.02814585715532303,
        -0.19981451332569122,
        0.3286972641944885
      ],
      "type": "VEC4"
    },
    {
      "bufferView": 6,
      "byteOffset": 652,
      "componentType": 5126,
      "count": 34,
      "max": [
        1.100000023841858
      ],
      "min": [
        0.0
      ],
      "type": "SCALAR"
    },
    {
      "bufferView": 8,
      "byteOffset": 1632,
      "componentType": 5126,
      "count": 34,
      "max": [
        -0.014387699775397778,
        0.9994106888771057,
        -0.0008690586546435952,
        0.03194112703204155
      ],
      "min": [
        -0.015764864161610603,
        0.9993647336959839,
        -0.0011427117278799415,
        0.031145984306931496
      ],
      "type": "VEC4"
    },
    {
      "bufferView": 6,
      "byteOffset": 788,
      "componentType": 5126,
      "count": 34,
      "max": [
        1.100000023841858
      ],
      "min": [
        0.0
      ],
      "type": "SCALAR"
    },
    {
      "bufferView": 8,
      "byteOffset": 2176,
      "componentType": 5126,
      "count": 34,
      "max": [
        0.9031391739845276,
        -0.02391103468835354,
        -0.21522460877895355,
        0.37212875485420227
      ],
      "min": [
        0.9023594856262207,
        -0.02636745758354664,
        -0.21609210968017578,
        0.3705708682537079
      ],
      "type": "VEC4"
    },
    {
      "bufferView": 6,
      "byteOffset": 924,
      "componentType": 5126,
      "count": 34,
      "max": [
        1.100000023841858
      ],
      "min": [
        0.0
      ],
      "type": "SCALAR"
    },
    {
      "bufferView": 8,
      "byteOffset": 2720,
      "componentType": 5126,
      "count": 34,
      "max": [
        0.05555308610200882,
        0.9875028133392334,
        -0.05159977823495865,
        0.13855181634426117
      ],
      "min": [
        0.0550822913646698,
        0.9874374270439148,
        -0.052447568625211716,
        0.13816474378108978
      ],
      "type": "VEC4"
    },
    {
      "bufferView": 6,
      "byteOffset": 1060,
      "componentType": 5126,
      "count": 34,
      "max": [
        1.100000023841858
      ],
      "min": [
        0.0
      ],
      "type": "SCALAR"
    },
    {
      "bufferView": 8,
      "byteOffset": 3264,
      "componentType": 5126,
      "count": 34,
      "max": [
        0.7447106242179871,
        0.26582789421081543,
        -0.47267448902130127,
        0.38972368836402893
      ],
      "min": [
        0.7444169521331787,
        0.26290082931518555,
        -0.4738014340400696,
        0.3889499306678772
      ],
      "type": "VEC4"
    },
    {
      "bufferView": 6,
      "byteOffset": 1196,
      "componentType": 5126,
      "count": 34,
      "max": [
        1.100000023841858
      ],
      "min": [
        0.0
      ],
      "type": "SCALAR"
    },
    {
      "bufferView": 8,
      "byteOffset": 3808,
      "componentType": 5126,
      "count": 34,
      "max": [
        0.06822188198566437,
        0.5964421629905701,
        -0.17590036988258362,
        0.7804074883460999
      ],
      "min": [
        0.06530937552452087,
        0.5957915186882019,
        -0.17784900963306427,
        0.7801676392555237
      ],
      "type": "VEC4"
    },
    {
      "bufferView": 6,
      "byteOffset": 1332,
      "componentType": 5126,
      "count": 32,
      "max": [
        1.100000023841858
      ],
      "min": [
        0.0
      ],
      "type": "SCALAR"
    },
    {
      "bufferView": 7,
      "byteOffset": 732,
      "componentType": 5126,
      "count": 32,
      "max": [
        4.440892098500626e-16,
        0.3259127140045166,
        -0.35450005531311035
      ],
      "min": [
        -8.881784197001252e-16,
        0.3259127140045166,
        -0.35450005531311035
      ],
      "type": "VEC3"
    },
    {
      "bufferView": 6,
      "byteOffset": 1460,
      "componentType": 5126,
      "count": 34,
      "max": [
        1.100000023841858
      ],
      "min": [
        0.0
      ],
      "type": "SCALAR"
    },
    {
      "bufferView": 8,
      "byteOffset": 4352,
      "componentType": 5126,
      "count": 34,
      "max": [
        0.027187801897525787,
        0.03423687443137169,
        0.9426556825637817,
        -0.3309079706668854
      ],
      "min": [
        0.026982633396983147,
        0.03399691358208656,
        0.9419016242027283,
        -0.3330560624599457
      ],
      "type": "VEC4"
    },
    {
      "bufferView": 6,
      "byteOffset": 1596,
      "componentType": 5126,
      "count": 34,
      "max": [
        1.100000023841858
      ],
      "min": [
        0.0
      ],
      "type": "SCALAR"
    },
    {
      "bufferView": 8,
      "byteOffset": 4896,
      "componentType": 5126,
      "count": 34,
      "max": [
        0.27758508920669556,
        -0.16856791079044342,
        -0.18923889100551605,
        0.931124746799469
      ],
      "min": [
        0.2128697633743286,
        -0.40334171056747437,
        -0.25510159134864807,
        0.8428390026092529
      ],
      "type": "VEC4"
    },
    {
      "bufferView": 6,
      "byteOffset": 1732,
      "componentType": 5126,
      "count": 34,
      "max": [
        1.100000023841858
      ],
      "min": [
        0.0
      ],
      "type": "SCALAR"
    },
    {
      "bufferView": 8,
      "byteOffset": 5440,
      "componentType": 5126,
      "count": 34,
      "max": [
        -0.010602214373648167,
        -0.27056872844696045,
        0.6531273126602173,
        0.905074954032898
      ],
      "min": [
        -0.01232479140162468,
        -0.44226205348968506,
        0.3279016315937042,
        0.6145544052124023
      ],
      "type": "VEC4"
    },
    {
      "bufferView": 6,
      "byteOffset": 1868,
      "componentType": 5126,
      "count": 34,
      "max": [
        1.100000023841858
      ],
      "min": [
        0.0
      ],
      "type": "SCALAR"
    },
    {
      "bufferView": 8,
      "byteOffset": 5984,
      "componentType": 5126,
      "count": 34,
      "max": [
        -0.017189867794513702,
        -0.593229353427887,
        0.3177879750728607,
        0.7741486430168152
      ],
      "min": [
        -0.06515547633171082,
        -0.6970726251602173,
        0.13200631737709045,
        0.6935932636260986
      ],
      "type": "VEC4"
    },
    {
      "bufferView": 6,
      "byteOffset": 2004,
      "componentType": 5126,
      "count": 34,
      "max": [
        1.100000023841858
      ],
      "min": [
        0.0
      ],
      "type": "SCALAR"
    },
    {
      "bufferView": 8,
      "byteOffset": 6528,
      "componentType": 5126,
      "count": 34,
      "max": [
        0.005222202278673649,
        0.01037562545388937,
        0.043183617293834686,
        0.9997891783714294
      ],
      "min": [
        0.004155292641371489,
        -0.03443928807973862,
        0.012585359625518322,
        0.9989168047904968
      ],
      "type": "VEC4"
    },
    {
      "bufferView": 6,
      "byteOffset": 2140,
      "componentType": 5126,
      "count": 34,
      "max": [
        1.100000023841858
      ],
      "min": [
        0.0
      ],
      "type": "SCALAR"
    },
    {
      "bufferView": 8,
      "byteOffset": 7072,
      "componentType": 5126,
      "count": 34,
      "max": [
        0.9262768030166626,
        0.017687998712062836,
        -0.16969600319862366,
        0.3603013753890991
      ],
      "min": [
        0.9171004891395569,
        0.017132047563791275,
        -0.17166303098201752,
        0.3350367546081543
      ],
      "type": "VEC4"
    },
    {
      "bufferView": 6,
      "byteOffset": 2276,
      "componentType": 5126,
      "count": 34,
      "max": [
        1.100000023841858
      ],
      "min": [
        0.0
      ],
      "type": "SCALAR"
    },
    {
      "bufferView": 8,
      "byteOffset": 7616,
      "componentType": 5126,
      "count": 34,
      "max": [
        0.011467819102108479,
        0.9735202193260193,
        0.0058711315505206585,
        0.22915734350681305
      ],
      "min": [
        0.006525328848510981,
        0.9730310440063477,
        -0.035780590027570724,
        0.22759363055229187
      ],
      "type": "VEC4"
    },
    {
      "bufferView": 6,
      "byteOffset": 2412,
      "componentType": 5126,
      "count": 34,
      "max": [
        1.100000023841858
      ],
      "min": [
        0.0
      ],
      "type": "SCALAR"
    },
    {
      "bufferView": 8,
      "byteOffset": 8160,
      "componentType": 5126,
      "count": 34,
      "max": [
        0.9247843623161316,
        0.03560303524136543,
        -0.24467211961746216,
        0.39417463541030884
      ],
      "min": [
        0.8858587741851807,
        0.0040138838812708855,
        -0.27006179094314575,
        0.2656555771827698
      ],
      "type": "VEC4"
    },
    {
      "bufferView": 6,
      "byteOffset": 2548,
      "componentType": 5126,
      "count": 34,
      "max": [
        1.100000023841858
      ],
      "min": [
        0.0
      ],
      "type": "SCALAR"
    },
    {
      "bufferView": 8,
      "byteOffset": 8704,
      "componentType": 5126,
      "count": 34,
      "max": [
        -0.05705368518829346,
        0.9858225584030151,
        0.005230882205069065,
        0.16058263182640076
      ],
      "min": [
        -0.059716176241636276,
        0.9852185249328613,
        -0.01483106054365635,
        0.15709471702575684
      ],
      "type": "VEC4"
    },
    {
      "bufferView": 6,
      "byteOffset": 2684,
      "componentType": 5126,
      "count": 34,
      "max": [
        1.100000023841858
      ],
      "min": [
        0.0
      ],
      "type": "SCALAR"
    },
    {
      "bufferView": 8,
      "byteOffset": 9248,
      "componentType": 5126,
      "count": 34,
      "max": [
        -0.5957300662994385,
        0.06716054677963257,
        0.7171692848205566,
        -0.32356783747673035
      ],
      "min": [
        -0.6135646104812622,
        0.06344632804393768,
        0.7013782858848572,
        -0.3861978054046631
      ],
      "type": "VEC4"
    },
    {
      "bufferView": 6,
      "byteOffset": 2820,
      "componentType": 5126,
      "count": 34,
      "max": [
        1.100000023841858
      ],
      "min": [
        0.0
      ],
      "type": "SCALAR"
    },
    {
      "bufferView": 8,
      "byteOffset": 9792,
      "componentType": 5126,
      "count": 34,
      "max": [
        -0.3085418939590454,
        0.9204274415969849,
        0.032629892230033875,
        -0.23227092623710632
      ],
      "min": [
        -0.3221362829208374,
        0.9171770215034485,
        0.019976388663053513,
        -0.23919901251792908
      ],
      "type": "VEC4"
    },
    {
      "bufferView": 6,
      "byteOffset": 2956,
      "componentType": 5126,
      "count": 34,
      "max": [
        1.100000023841858
      ],
      "min": [
        0.0
      ],
      "type": "SCALAR"
    },
    {
      "bufferView": 8,
      "byteOffset": 10336,
      "componentType": 5126,
      "count": 34,
      "max": [
        0.35871848464012146,
        0.13867586851119995,
        -0.06505735963582993,
        0.9687318801879883
      ],
      "min": [
        0.22287757694721222,
        -0.1049736738204956,
        -0.1362571120262146,
        0.9218508005142212
      ],
      "type": "VEC4"
    },
    {
      "bufferView": 6,
      "byteOffset": 3092,
      "componentType": 5126,
      "count": 34,
      "max": [
        1.100000023841858
      ],
      "min": [
        0.0
      ],
      "type": "SCALAR"
    },
    {
      "bufferView": 8,
      "byteOffset": 10880,
      "componentType": 5126,
      "count": 34,
      "max": [
        -0.0061333500780165195,
        0.3848007023334503,
        -0.2487303614616394,
        0.9565145969390869
      ],
      "min": [
        -0.007529347203671932,
        0.15217190980911255,
        -0.6390304565429688,
        0.665981113910675
      ],
      "type": "VEC4"
    },
    {
      "bufferView": 6,
      "byteOffset": 3228,
      "componentType": 5126,
      "count": 34,
      "max": [
        1.100000023841858
      ],
      "min": [
        0.0
      ],
      "type": "SCALAR"
    },
    {
      "bufferView": 8,
      "byteOffset": 11424,
      "componentType": 5126,
      "count": 34,
      "max": [
        0.2863554060459137,
        -0.5863766074180603,
        0.06606680899858475,
        0.7928957343101501
      ],
      "min": [
        0.1411992907524109,
        -0.7874557375907898,
        -0.08684234321117401,
        0.5852440595626831
      ],
      "type": "VEC4"
    },
    {
      "bufferView": 6,
      "byteOffset": 3364,
      "componentType": 5126,
      "count": 34,
      "max": [
        1.100000023841858
      ],
      "min": [
        0.0
      ],
      "type": "SCALAR"
    },
    {
      "bufferView": 8,
      "byteOffset": 11968,
      "componentType": 5126,
      "count": 34,
      "max": [
        0.042210422456264496,
        0.9990404844284058,
        0.005608802195638418,
        -0.015743710100650787
      ],
      "min": [
        0.02013467438519001,
        0.9981323480606079,
        0.0036747038830071688,
        -0.05430558696389198
      ],
      "type": "VEC4"
    },
    {
      "bufferView": 6,
      "byteOffset": 3500,
      "componentType": 5126,
      "count": 26,
      "max": [
        1.100000023841858
      ],
      "min": [
        0.0
      ],
      "type": "SCALAR"
    },
    {
      "bufferView": 7,
      "byteOffset": 1116,
      "componentType": 5126,
      "count": 26,
      "max": [
        4.440892098500626e-16,
        0.3478374481201172,
        -0.0011833757162094116
      ],
      "min": [
        -2.220446049250313e-16,
        0.3478374481201172,
        -0.0011833757162094116
      ],
      "type": "VEC3"
    },
    {
      "bufferView": 6,
      "byteOffset": 3604,
      "componentType": 5126,
      "count": 34,
      "max": [
        1.100000023841858
      ],
      "min": [
        0.0
      ],
      "type": "SCALAR"
    },
    {
      "bufferView": 8,
      "byteOffset": 12512,
      "componentType": 5126,
      "count": 34,
      "max": [
        0.03376888483762741,
        0.014776605181396008,
        0.003413270926102996,
        0.9996474981307983
      ],
      "min": [
        0.024409031495451927,
        -0.033658649772405624,
        -0.011283385567367077,
        0.9990419149398804
      ],
      "type": "VEC4"
    },
    {
      "bufferView": 6,
      "byteOffset": 3740,
      "componentType": 5126,
      "count": 31,
      "max": [
        1.100000023841858
      ],
      "min": [
        0.0
      ],
      "type": "SCALAR"
    },
    {
      "bufferView": 7,
      "byteOffset": 1428,
      "componentType": 5126,
      "count": 31,
      "max": [
        4.440892098500626e-16,
        0.33629512786865234,
        -0.0021593496203422546
      ],
      "min": [
        -2.220446049250313e-16,
        0.33629512786865234,
        -0.0021593496203422546
      ],
      "type": "VEC3"
    },
    {
      "bufferView": 6,
      "byteOffset": 3864,
      "componentType": 5126,
      "count": 34,
      "max": [
        1.100000023841858
      ],
      "min": [
        0.0
      ],
      "type": "SCALAR"
    },
    {
      "bufferView": 8,
      "byteOffset": 13056,
      "componentType": 5126,
      "count": 34,
      "max": [
        0.03376888856291771,
        0.014776860363781452,
        0.0034132867585867643,
        0.9996474981307983
      ],
      "min": [
        0.024409068748354912,
        -0.03365888446569443,
        -0.011283393017947674,
        0.9990419149398804
      ],
      "type": "VEC4"
    },
    {
      "bufferView": 6,
      "byteOffset": 4000,
      "componentType": 5126,
      "count": 30,
      "max": [
        1.100000023841858
      ],
      "min": [
        0.0
      ],
      "type": "SCALAR"
    },
    {
      "bufferView": 7,
      "byteOffset": 1800,
      "componentType": 5126,
      "count": 30,
      "max": [
        4.440892098500626e-16,
        0.30947446823120117,
        0.021864905953407288
      ],
      "min": [
        -4.440892098500626e-16,
        0.30947446823120117,
        0.021864905953407288
      ],
      "type": "VEC3"
    },
    {
      "bufferView": 6,
      "byteOffset": 4120,
      "componentType": 5126,
      "count": 34,
      "max": [
        1.100000023841858
      ],
      "min": [
        0.0
      ],
      "type": "SCALAR"
    },
    {
      "bufferView": 8,
      "byteOffset": 13600,
      "componentType": 5126,
      "count": 34,
      "max": [
        0.033768896013498306,
        0.014776845462620258,
        0.0034132753498852253,
        0.9996474981307983
      ],
      "min": [
        0.024409055709838867,
        -0.033658549189567566,
        -0.011283395811915398,
        0.9990419149398804
      ],
      "type": "VEC4"
    },
    {
      "bufferView": 6,
      "byteOffset": 4256,
      "componentType": 5126,
      "count": 32,
      "max": [
        1.100000023841858
      ],
      "min": [
        0.0
      ],
      "type": "SCALAR"
    },
    {
      "bufferView": 7,
      "byteOffset": 2160,
      "componentType": 5126,
      "count": 32,
      "max": [
        2.220446049250313e-16,
        0.3013300895690918,
        0.03986181318759918
      ],
      "min": [
        -4.440892098500626e-16,
        0.3013300895690918,
        0.03986181318759918
      ],
      "type": "VEC3"
    },
    {
      "bufferView": 6,
      "byteOffset": 4384,
      "componentType": 5126,
      "count": 34,
      "max": [
        1.100000023841858
      ],
      "min": [
        0.0
      ],
      "type": "SCALAR"
    },
    {
      "bufferView": 8,
      "byteOffset": 14144,
      "componentType": 5126,
      "count": 34,
      "max": [
        0.016874782741069794,
        0.007354460656642914,
        0.002153246896341443,
        0.9999113082885742
      ],
      "min": [
        0.012209880165755749,
        -0.01707742176949978,
        -0.006277719512581825,
        0.9997613430023193
      ],
      "type": "VEC4"
    },
    {
      "bufferView": 6,
      "byteOffset": 4520,
      "componentType": 5126,
      "count": 106,
      "max": [
        1.100000023841858
      ],
      "min": [
        0.0
      ],
      "type": "SCALAR"
    },
    {
      "bufferView": 8,
      "byteOffset": 14688,
      "componentType": 5126,
      "count": 106,
      "max": [
        0.8312889933586121,
        0.9995650053024292,
        0.9675056338310242,
        0.425311803817749
      ],
      "min": [
        -0.6515717506408691,
        -0.6851529479026794,
        -0.5757297873497009,
        -0.0833958089351654
      ],
      "type": "VEC4"
    },
    {
      "bufferView": 6,
      "byteOffset": 4944,
      "componentType": 5126,
      "count": 34,
      "max": [
        1.100000023841858
      ],
      "min": [
        0.0
      ],
      "type": "SCALAR"
    },
    {
      "bufferView": 8,
      "byteOffset": 16384,
      "componentType": 5126,
      "count": 34,
      "max": [
        0.007620466873049736,
        0.9975647926330566,
        0.123740553855896,
        0.13739658892154694
      ],
      "min": [
        -0.15302599966526031,
        0.9760578274726868,
        -0.19823969900608063,
        -0.06684207171201706
      ],
      "type": "VEC4"
    },
    {
      "bufferView": 6,
      "byteOffset": 5080,
      "componentType": 5126,
      "count": 34,
      "max": [
        1.100000023841858
      ],
      "min": [
        0.0
      ],
      "type": "SCALAR"
    },
    {
      "bufferView": 8,
      "byteOffset": 16928,
      "componentType": 5126,
      "count": 34,
      "max": [
        -0.2010832577943802,
        0.07346931844949722,
        0.039295755326747894,
        0.976795494556427
      ],
      "min": [
        -0.43978047370910645,
        -0.08112884312868118,
        -0.04266868531703949,
        0.894332766532898
      ],
      "type": "VEC4"
    },
    {
      "bufferView": 6,
      "byteOffset": 5216,
      "componentType": 5126,
      "count": 34,
      "max": [
        1.100000023841858
      ],
      "min": [
        0.0
      ],
      "type": "SCALAR"
    },
    {
      "bufferView": 8,
      "byteOffset": 17472,
      "componentType": 5126,
      "count": 34,
      "max": [
        0.01639496721327305,
        0.97483229637146,
        -0.1994369775056839,
        -0.003986644092947245
      ],
      "min": [
        -0.13036276400089264,
        0.9418197274208069,
        -0.3220718204975128,
        -0.11140795797109604
      ],
      "type": "VEC4"
    },
    {
      "bufferView": 6,
      "byteOffset": 5352,
      "componentType": 5126,
      "count": 34,
      "max": [
        1.100000023841858
      ],
      "min": [
        0.0
      ],
      "type": "SCALAR"
    },
    {
      "bufferView": 8,
      "byteOffset": 18016,
      "componentType": 5126,
      "count": 34,
      "max": [
        0.15364976227283478,
        -0.026257671415805817,
        0.009492112323641777,
        0.9972836971282959
      ],
      "min": [
        0.06869873404502869,
        -0.027887264266610146,
        -0.004027985036373138,
        0.9877678155899048
      ],
      "type": "VEC4"
    },
    {
      "bufferView": 6,
      "byteOffset": 5488,
      "componentType": 5126,
      "count": 34,
      "max": [
        1.100000023841858
      ],
      "min": [
        0.0
      ],
      "type": "SCALAR"
    },
    {
      "bufferView": 8,
      "byteOffset": 18560,
      "componentType": 5126,
      "count": 34,
      "max": [
        0.16609284281730652,
        0.024247217923402786,
        0.12626126408576965,
        0.9989049434661865
      ],
      "min": [
        0.002514846622943878,
        -0.010147159919142723,
        -0.09849342703819275,
        0.9839181900024414
      ],
      "type": "VEC4"
    },
    {
      "bufferView": 6,
      "byteOffset": 5624,
      "componentType": 5126,
      "count": 34,
      "max": [
        1.100000023841858
      ],
      "min": [
        0.0
      ],
      "type": "SCALAR"
    },
    {
      "bufferView": 8,
      "byteOffset": 19104,
      "componentType": 5126,
      "count": 34,
      "max": [
        -0.26631960272789,
        0.03304503113031387,
        0.01628955453634262,
        0.9633862376213074
      ],
      "min": [
        -0.508263349533081,
        -0.031651437282562256,
        -0.052107974886894226,
        0.8594960570335388
      ],
      "type": "VEC4"
    },
    {
      "bufferView": 6,
      "byteOffset": 5760,
      "componentType": 5126,
      "count": 34,
      "max": [
        1.100000023841858
      ],
      "min": [
        0.0
      ],
      "type": "SCALAR"
    },
    {
      "bufferView": 8,
      "byteOffset": 19648,
      "componentType": 5126,
      "count": 34,
      "max": [
        0.2128368318080902,
        0.9924365282058716,
        -0.10449996590614319,
        0.12757056951522827
      ],
      "min": [
        -0.06347095966339111,
        0.9105753898620605,
        -0.3305732309818268,
        0.00359646650031209
      ],
      "type": "VEC4"
    },
    {
      "bufferView": 6,
      "byteOffset": 5896,
      "componentType": 5126,
      "count": 97,
      "max": [
        1.100000023841858
      ],
      "min": [
        0.0
      ],
      "type": "SCALAR"
    },
    {
      "bufferView": 7,
      "byteOffset": 2544,
      "componentType": 5126,
      "count": 97,
      "max": [
        -4.996833801269531,
        -8.39083194732666,
        220.9627227783203
      ],
      "min": [
        -77.19100189208984,
        -56.201629638671875,
        50.03200912475586
      ],
      "type": "VEC3"
    },
    {
      "bufferView": 6,
      "byteOffset": 6284,
      "componentType": 5126,
      "count": 97,
      "max": [
        1.100000023841858
      ],
      "min": [
        0.0
      ],
      "type": "SCALAR"
    },
    {
      "bufferView": 8,
      "byteOffset": 20192,
      "componentType": 5126,
      "count": 97,
      "max": [
        0.04715103283524513,
        0.9991192817687988,
        0.041665513068437576,
        0.9973387718200684
      ],
      "min": [
        -0.06901954114437103,
        -0.8578839898109436,
        -0.009235267527401447,
        -0.4976702034473419
      ],
      "type": "VEC4"
    }
  ],
  "animations": [
    {
      "channels": [
        {
          "sampler": 0,
          "target": {
            "node": 34,
            "path": "translation"
          }
        },
        {
          "sampler": 1,
          "target": {
            "node": 34,
            "path": "rotation"
          }
        },
        {
          "sampler": 2,
          "target": {
            "node": 33,
            "path": "translation"
          }
        },
        {
          "sampler": 3,
          "target": {
            "node": 33,
            "path": "rotation"
          }
        },
        {
          "sampler": 4,
          "target": {
            "node": 43,
            "path": "rotation"
          }
        },
        {
          "sampler": 5,
          "target": {
            "node": 42,
            "path": "rotation"
          }
        },
        {
          "sampler": 6,
          "target": {
            "node": 46,
            "path": "rotation"
          }
        },
        {
          "sampler": 7,
          "target": {
            "node": 45,
            "path": "rotation"
          }
        },
        {
          "sampler": 8,
          "target": {
            "node": 49,
            "path": "rotation"
          }
        },
        {
          "sampler": 9,
          "target": {
            "node": 48,
            "path": "rotation"
          }
        },
        {
          "sampler": 10,
          "target": {
            "node": 52,
            "path": "translation"
          }
        },
        {
          "sampler": 11,
          "target": {
            "node": 52,
            "path": "rotation"
          }
        },
        {
          "sampler": 12,
          "target": {
            "node": 41,
            "path": "rotation"
          }
        },
        {
          "sampler": 13,
          "target": {
            "node": 38,
            "path": "rotation"
          }
        },
        {
          "sampler": 14,
          "target": {
            "node": 37,
            "path": "rotation"
          }
        },
        {
          "sampler": 15,
          "target": {
            "node": 36,
            "path": "rotation"
          }
        },
        {
          "sampler": 16,
          "target": {
            "node": 65,
            "path": "rotation"
          }
        },
        {
          "sampler": 17,
          "target": {
            "node": 64,
            "path": "rotation"
          }
        },
        {
          "sampler": 18,
          "target": {
            "node": 68,
            "path": "rotation"
          }
        },
        {
          "sampler": 19,
          "target": {
            "node": 67,
            "path": "rotation"
          }
        },
        {
          "sampler": 20,
          "target": {
            "node": 71,
            "path": "rotation"
          }
        },
        {
          "sampler": 21,
          "target": {
            "node": 70,
            "path": "rotation"
          }
        },
        {
          "sampler": 22,
          "target": {
            "node": 63,
            "path": "rotation"
          }
        },
        {
          "sampler": 23,
          "target": {
            "node": 60,
            "path": "rotation"
          }
        },
        {
          "sampler": 24,
          "target": {
            "node": 59,
            "path": "rotation"
          }
        },
        {
          "sampler": 25,
          "target": {
            "node": 58,
            "path": "rotation"
          }
        },
        {
          "sampler": 26,
          "target": {
            "node": 32,
            "path": "translation"
          }
        },
        {
          "sampler": 27,
          "target": {
            "node": 32,
            "path": "rotation"
          }
        },
        {
          "sampler": 28,
          "target": {
            "node": 31,
            "path": "translation"
          }
        },
        {
          "sampler": 29,
          "target": {
            "node": 31,
            "path": "rotation"
          }
        },
        {
          "sampler": 30,
          "target": {
            "node": 30,
            "path": "translation"
          }
        },
        {
          "sampler": 31,
          "target": {
            "node": 30,
            "path": "rotation"
          }
        },
        {
          "sampler": 32,
          "target": {
            "node": 29,
            "path": "translation"
          }
        },
        {
          "sampler": 33,
          "target": {
            "node": 29,
            "path": "rotation"
          }
        },
        {
          "sampler": 34,
          "target": {
            "node": 80,
            "path": "rotation"
          }
        },
        {
          "sampler": 35,
          "target": {
            "node": 79,
            "path": "rotation"
          }
        },
        {
          "sampler": 36,
          "target": {
            "node": 78,
            "path": "rotation"
          }
        },
        {
          "sampler": 37,
          "target": {
            "node": 77,
            "path": "rotation"
          }
        },
        {
          "sampler": 38,
          "target": {
            "node": 85,
            "path": "rotation"
          }
        },
        {
          "sampler": 39,
          "target": {
            "node": 84,
            "path": "rotation"
          }
        },
        {
          "sampler": 40,
          "target": {
            "node": 83,
            "path": "rotation"
          }
        },
        {
          "sampler": 41,
          "target": {
            "node": 82,
            "path": "rotation"
          }
        },
        {
          "sampler": 42,
          "target": {
            "node": 6,
            "path": "translation"
          }
        },
        {
          "sampler": 43,
          "target": {
            "node": 6,
            "path": "rotation"
          }
        }
      ],
      "name": "mixamo.com",
      "samplers": [
        {
          "input": 55,
          "interpolation": "LINEAR",
          "output": 56
        },
        {
          "input": 57,
          "interpolation": "LINEAR",
          "output": 58
        },
        {
          "input": 59,
          "interpolation": "LINEAR",
          "output": 60
        },
        {
          "input": 61,
          "interpolation": "LINEAR",
          "output": 62
        },
        {
          "input": 63,
          "interpolation": "LINEAR",
          "output": 64
        },
        {
          "input": 65,
          "interpolation": "LINEAR",
          "output": 66
        },
        {
          "input": 67,
          "interpolation": "LINEAR",
          "output": 68
        },
        {
          "input": 69,
          "interpolation": "LINEAR",
          "output": 70
        },
        {
          "input": 71,
          "interpolation": "LINEAR",
          "output": 72
        },
        {
          "input": 73,
          "interpolation": "LINEAR",
          "output": 74
        },
        {
          "input": 75,
          "interpolation": "LINEAR",
          "output": 76
        },
        {
          "input": 77,
          "interpolation": "LINEAR",
          "output": 78
        },
        {
          "input": 79,
          "interpolation": "LINEAR",
          "output": 80
        },
        {
          "input": 81,
          "interpolation": "LINEAR",
          "output": 82
        },
        {
          "input": 83,
          "interpolation": "LINEAR",
          "output": 84
        },
        {
          "input": 85,
          "interpolation": "LINEAR",
          "output": 86
        },
        {
          "input": 87,
          "interpolation": "LINEAR",
          "output": 88
        },
        {
          "input": 89,
          "interpolation": "LINEAR",
          "output": 90
        },
        {
          "input": 91,
          "interpolation": "LINEAR",
          "output": 92
        },
        {
          "input": 93,
          "interpolation": "LINEAR",
          "output": 94
        },
        {
          "input": 95,
          "interpolation": "LINEAR",
          "output": 96
        },
        {
          "input": 97,
          "interpolation": "LINEAR",
          "output": 98
        },
        {
          "input": 99,
          "interpolation": "LINEAR",
          "output": 100
        },
        {
          "input": 101,
          "interpolation": "LINEAR",
          "output": 102
        },
        {
          "input": 103,
          "interpolation": "LINEAR",
          "output": 104
        },
        {
          "input": 105,
          "interpolation": "LINEAR",
          "output": 106
        },
        {
          "input": 107,
          "interpolation": "LINEAR",
          "output": 108
        },
        {
          "input": 109,
          "interpolation": "LINEAR",
          "output": 110
        },
        {
          "input": 111,
          "interpolation": "LINEAR",
          "output": 112
        },
        {
          "input": 113,
          "interpolation": "LINEAR",
          "output": 114
        },
        {
          "input": 115,
          "interpolation": "LINEAR",
          "output": 116
        },
        {
          "input": 117,
          "interpolation": "LINEAR",
          "output": 118
        },
        {
          "input": 119,
          "interpolation": "LINEAR",
          "output": 120
        },
        {
          "input": 121,
          "interpolation": "LINEAR",
          "output": 122
        },
        {
          "input": 123,
          "interpolation": "LINEAR",
          "output": 124
        },
        {
          "input": 125,
          "interpolation": "LINEAR",
          "output": 126
        },
        {
          "input": 127,
          "interpolation": "LINEAR",
          "output": 128
        },
        {
          "input": 129,
          "interpolation": "LINEAR",
          "output": 130
        },
        {
          "input": 131,
          "interpolation": "LINEAR",
          "output": 132
        },
        {
          "input": 133,
          "interpolation": "LINEAR",
          "output": 134
        },
        {
          "input": 135,
          "interpolation": "LINEAR",
          "output": 136
        },
        {
          "input": 137,
          "interpolation": "LINEAR",
          "output": 138
        },
        {
          "input": 139,
          "interpolation": "LINEAR",
          "output": 140
        },
        {
          "input": 141,
          "interpolation": "LINEAR",
          "output": 142
        }
      ]
    }
  ],
  "asset": {
    "extras": {
      "author": "3D by Renato (https://sketchfab.com/3dbyrenato)",
      "license": "CC-BY-4.0 (http://creativecommons.org/licenses/by/4.0/)",
      "source": "https://sketchfab.com/3d-models/max-brawl-stars-nothern-soul-spin-8e0cff56be2943d6822ad1d2908d7c2e",
      "title": "Max Brawl Stars Nothern Soul Spin"
    },
    "generator": "Sketchfab-16.65.0",
    "version": "2.0"
  },
  "bufferViews": [
    {
      "buffer": 0,
      "byteLength": 51952,
      "byteStride": 8,
      "name": "shortBufferViews",
      "target": 34962
    },
    {
      "buffer": 0,
      "byteLength": 109920,
      "byteOffset": 51952,
      "name": "floatBufferViews",
      "target": 34963
    },
    {
      "buffer": 0,
      "byteLength": 51952,
      "byteOffset": 161872,
      "byteStride": 8,
      "name": "floatBufferViews",
      "target": 34962
    },
    {
      "buffer": 0,
      "byteLength": 155856,
      "byteOffset": 213824,
      "byteStride": 12,
      "name": "floatBufferViews",
      "target": 34962
    },
    {
      "buffer": 0,
      "byteLength": 103904,
      "byteOffset": 369680,
      "byteStride": 16,
      "name": "floatBufferViews",
      "target": 34962
    },
    {
      "buffer": 0,
      "byteLength": 3904,
      "byteOffset": 473584,
      "name": "floatBufferViews"
    },
    {
      "buffer": 0,
      "byteLength": 6672,
      "byteOffset": 477488,
      "name": "floatBufferViews"
    },
    {
      "buffer": 0,
      "byteLength": 3708,
      "byteOffset": 484160,
      "byteStride": 12,
      "name": "floatBufferViews"
    },
    {
      "buffer": 0,
      "byteLength": 21744,
      "byteOffset": 487868,
      "byteStride": 16,
      "name": "floatBufferViews"
    }
  ],
  "buffers": [
    {
      "byteLength": 509612,
      "uri": "scene.bin"
    }
  ],
  "images": [
    {
      "uri": "textures/character_mat_baseColor.png"
    }
  ],
  "materials": [
    {
      "doubleSided": true,
      "name": "character_mat",
      "pbrMetallicRoughness": {
        "baseColorTexture": {
          "index": 0
        },
        "metallicFactor": 0.0,
        "roughnessFactor": 0.8211145618000169
      }
    },
    {
      "doubleSided": true,
      "name": "character_opac_mat",
      "pbrMetallicRoughness": {
        "baseColorTexture": {
          "index": 0
        },
        "metallicFactor": 0.0,
        "roughnessFactor": 0.8211145618000169
      }
    },
    {
      "doubleSided": true,
      "name": "character_metal_mat",
      "pbrMetallicRoughness": {
        "baseColorTexture": {
          "index": 0
        },
        "metallicFactor": 0.0,
        "roughnessFactor": 0.8211145618000169
      }
    }
  ],
  "meshes": [
    {
      "name": "head_GEO_character_mat_0",
      "primitives": [
        {
          "attributes": {
            "JOINTS_0": 37,
            "NORMAL": 1,
            "POSITION": 0,
            "TEXCOORD_0": 2,
            "WEIGHTS_0": 38
          },
          "indices": 3,
          "material": 0,
          "mode": 4
        }
      ]
    },
    {
      "name": "head_glass_GEO_character_opac_mat_0",
      "primitives": [
        {
          "attributes": {
            "JOINTS_0": 39,
            "NORMAL": 5,
            "POSITION": 4,
            "TEXCOORD_0": 6,
            "WEIGHTS_0": 40
          },
          "indices": 7,
          "material": 1,
          "mode": 4
        }
      ]
    },
    {
      "name": "body_GEO_character_mat_0",
      "primitives": [
        {
          "attributes": {
            "JOINTS_0": 41,
            "NORMAL": 9,
            "POSITION": 8,
            "TEXCOORD_0": 10,
            "WEIGHTS_0": 42
          },
          "indices": 11,
          "material": 0,
          "mode": 4
        }
      ]
    },
    {
      "name": "zip_GEO_character_metal_mat_0",
      "primitives": [
        {
          "attributes": {
            "JOINTS_0": 43,
            "NORMAL": 13,
            "POSITION": 12,
            "TEXCOORD_0": 14,
            "WEIGHTS_0": 44
          },
          "indices": 15,
          "material": 2,
          "mode": 4
        }
      ]
    },
    {
      "name": "wrist_L_GEO_character_mat_0",
      "primitives": [
        {
          "attributes": {
            "JOINTS_0": 45,
            "NORMAL": 17,
            "POSITION": 16,
            "TEXCOORD_0": 18,
            "WEIGHTS_0": 46
          },
          "indices": 19,
          "material": 0,
          "mode": 4
        }
      ]
    },
    {
      "name": "wrist_L_panel_GEO_character_mat_0",
      "primitives": [
        {
          "attributes": {
            "JOINTS_0": 47,
            "NORMAL": 21,
            "POSITION": 20,
            "TEXCOORD_0": 22,
            "WEIGHTS_0": 48
          },
          "indices": 23,
          "material": 0,
          "mode": 4
        }
      ]
    },
    {
      "name": "wrist_R_GEO_character_mat_0",
      "primitives": [
        {
          "attributes": {
            "JOINTS_0": 49,
            "NORMAL": 25,
            "POSITION": 24,
            "TEXCOORD_0": 26,
            "WEIGHTS_0": 50
          },
          "indices": 27,
          "material": 0,
          "mode": 4
        }
      ]
    },
    {
      "name": "pants_GEO_character_mat_0",
      "primitives": [
        {
          "attributes": {
            "JOINTS_0": 51,
            "NORMAL": 29,
            "POSITION": 28,
            "TEXCOORD_0": 30,
            "WEIGHTS_0": 52
          },
          "indices": 31,
          "material": 0,
          "mode": 4
        }
      ]
    },
    {
      "name": "boots_GEO_character_mat_0",
      "primitives": [
        {
          "attributes": {
            "JOINTS_0": 53,
            "NORMAL": 33,
            "POSITION": 32,
            "TEXCOORD_0": 34,
            "WEIGHTS_0": 54
          },
          "indices": 35,
          "material": 0,
          "mode": 4
        }
      ]
    }
  ],
  "nodes": [
    {
      "children": [
        1
      ],
      "matrix": [
        0.20727844536304474,
        0.0,
        0.0,
        0.0,
        0.0,
        4.6025060510111957e-17,
        -0.20727844536304474,
        0.0,
        0.0,
        0.20727844536304474,
        4.6025060510111957e-17,
        0.0,
        0.0,
        0.0,
        0.0,
        1.0
      ],
      "name": "Sketchfab_model"
    },
    {
      "children": [
        2
      ],
      "matrix": [
        0.009999999776482582,
        0.0,
        0.0,
        0.0,
        0.0,
        0.0,
        0.009999999776482582,
        0.0,
        0.0,
        -0.009999999776482582,
        0.0,
        0.0,
        0.0,
        0.0,
        0.0,
        1.0
      ],
      "name": "Northern Soul Spin 4.fbx"
    },
    {
      "children": [
        3
      ],
      "name": "Object_2"
    },
    {
      "children": [
        4,
        6
      ],
      "name": "RootNode"
    },
    {
      "children": [
        5
      ],
      "name": "Camera",
      "rotation": [
        -0.2125573456287384,
        0.9047969579696655,
        -0.08438929170370102,
        0.35922181606292725
      ],
      "scale": [
        100.0,
        100.00000762939453,
        99.99999237060547
      ],
      "translation": [
        735.88916015625,
        495.8309326171875,
        692.5791015625
      ]
    },
    {
      "name": "Object_5"
    },
    {
      "children": [
        7
      ],
      "name": "CHARACTER",
      "rotation": [
        8.146033536604591e-08,
        0.0,
        0.0,
        1.0
      ],
      "scale": [
        100.0,
        100.0,
        100.0
      ]
    },
    {
      "children": [
        8,
        10,
        12,
        14,
        16,
        18,
        20,
        22,
        24,
        26,
        9,
        11,
        13,
        15,
        17,
        19,
        21,
        23,
        25,
        87
      ],
      "name": "Object_7"
    },
    {
      "children": [
        27
      ],
      "name": "_rootJoint"
    },
    {
      "matrix": [
        100.0,
        0.0,
        0.0,
        0.0,
        0.0,
        99.99999999999997,
        1.6292067812173624e-05,
        0.0,
        0.0,
        -1.6292067812173624e-05,
        99.99999999999997,
        0.0,
        0.0,
        0.0,
        0.0,
        1.0
      ],
      "name": "Object_9"
    },
    {
      "mesh": 0,
      "name": "Object_10",
      "skin": 0
    },
    {
      "matrix": [
        100.0,
        0.0,
        0.0,
        0.0,
        0.0,
        99.99999999999997,
        1.6292067812173624e-05,
        0.0,
        0.0,
        -1.6292067812173624e-05,
        99.99999999999997,
        0.0,
        0.0,
        0.0,
        0.0,
        1.0
      ],
      "name": "Object_11"
    },
    {
      "mesh": 1,
      "name": "Object_12",
      "skin": 0
    },
    {
      "matrix": [
        100.0,
        0.0,
        0.0,
        0.0,
        0.0,
        99.99999999999997,
        1.6292067812173624e-05,
        0.0,
        0.0,
        -1.6292067812173624e-05,
        99.99999999999997,
        0.0,
        0.0,
        0.0,
        0.0,
        1.0
      ],
      "name": "Object_13"
    },
    {
      "mesh": 2,
      "name": "Object_14",
      "skin": 0
    },
    {
      "matrix": [
        100.0,
        0.0,
        0.0,
        0.0,
        0.0,
        99.99999999999997,
        1.6292067812173624e-05,
        0.0,
        0.0,
        -1.6292067812173624e-05,
        99.99999999999997,
        0.0,
        0.0,
        0.0,
        0.0,
        1.0
      ],
      "name": "Object_15"
    },
    {
      "mesh": 3,
      "name": "Object_16",
      "skin": 0
    },
    {
      "matrix": [
        100.0,
        0.0,
        0.0,
        0.0,
        0.0,
        99.99999999999997,
        1.6292067812173624e-05,
        0.0,
        0.0,
        -1.6292067812173624e-05,
        99.99999999999997,
        0.0,
        0.0,
        0.0,
        0.0,
        1.0
      ],
      "name": "Object_17"
    },
    {
      "mesh": 4,
      "name": "Object_18",
      "skin": 0
    },
    {
      "matrix": [
        100.0,
        0.0,
        0.0,
        0.0,
        0.0,
        99.99999999999997,
        1.6292067812173624e-05,
        0.0,
        0.0,
        -1.6292067812173624e-05,
        99.99999999999997,
        0.0,
        0.0,
        0.0,
        0.0,
        1.0
      ],
      "name": "Object_19"
    },
    {
      "mesh": 5,
      "name": "Object_20",
      "skin": 0
    },
    {
      "matrix": [
        100.0,
        0.0,
        0.0,
        0.0,
        0.0,
        99.99999999999997,
        1.6292067812173624e-05,
        0.0,
        0.0,
        -1.6292067812173624e-05,
        99.99999999999997,
        0.0,
        0.0,
        0.0,
        0.0,
        1.0
      ],
      "name": "Object_21"
    },
    {
      "mesh": 6,
      "name": "Object_22",
      "skin": 0
    },
    {
      "matrix": [
        100.0,
        0.0,
        0.0,
        0.0,
        0.0,
        99.99999999999997,
        1.6292067812173624e-05,
        0.0,
        0.0,
        -1.6292067812173624e-05,
        99.99999999999997,
        0.0,
        0.0,
        0.0,
        0.0,
        1.0
      ],
      "name": "Object_23"
    },
    {
      "mesh": 7,
      "name": "Object_24",
      "skin": 0
    },
    {
      "matrix": [
        100.0,
        0.0,
        0.0,
        0.0,
        0.0,
        99.99999999999997,
        1.6292067812173624e-05,
        0.0,
        0.0,
        -1.6292067812173624e-05,
        99.99999999999997,
        0.0,
        0.0,
        0.0,
        0.0,
        1.0
      ],
      "name": "Object_25"
    },
    {
      "mesh": 8,
      "name": "Object_26",
      "skin": 0
    },
    {
      "children": [
        28
      ],
      "name": "Root_01"
    },
    {
      "children": [
        29,
        77,
        82
      ],
      "name": "hips_s_02",
      "rotation": [
        2.6469779601696886e-23,
        0.0,
        0.0,
        1.0
      ],
      "translation": [
        0.0,
        4.25275182723999,
        -0.15853899717330933
      ]
    },
    {
      "children": [
        30
      ],
      "name": "spine_lower_s_03",
      "translation": [
        0.0,
        0.3013300895690918,
        0.03986181318759918
      ]
    },
    {
      "children": [
        31
      ],
      "name": "chest_s_04",
      "rotation": [
        1.3234889800848443e-23,
        0.0,
        0.0,
        1.0
      ],
      "translation": [
        0.0,
        0.30947446823120117,
        0.021864905953407288
      ]
    },
    {
      "children": [
        32
      ],
      "name": "spine_upper_s_05",
      "translation": [
        0.0,
        0.33629512786865234,
        -0.0021593496203422546
      ]
    },
    {
      "children": [
        33,
        36,
        58,
        75
      ],
      "name": "chest_top_s_06",
      "translation": [
        0.0,
        0.3478374481201172,
        -0.0011833757162094116
      ]
    },
    {
      "children": [
        34
      ],
      "name": "neck_s_07",
      "translation": [
        0.0,
        1.2641606330871582,
        -0.1416029930114746
      ]
    },
    {
      "children": [
        35
      ],
      "name": "head_s_08",
      "translation": [
        0.0,
        0.6121845245361328,
        0.03007398545742035
      ]
    },
    {
      "name": "head_s_end_045",
      "rotation": [
        1.3234889800848443e-23,
        0.0,
        0.0,
        1.0
      ],
      "translation": [
        0.0,
        0.03999948501586914,
        -2.7755575615628914e-17
      ]
    },
    {
      "children": [
        37
      ],
      "name": "L_clavicle_s_09",
      "translation": [
        0.09933400899171829,
        0.7521977424621582,
        0.3857960104942322
      ]
    },
    {
      "children": [
        38,
        56
      ],
      "name": "L_shoulder_s_010",
      "rotation": [
        7.769473385037468e-23,
        -0.6658018231391907,
        8.706834515767077e-23,
        0.7461286187171936
      ],
      "translation": [
        1.1940733194351196,
        4.76837158203125e-07,
        -0.541576623916626
      ]
    },
    {
      "children": [
        39,
        41,
        54
      ],
      "name": "L_elbow_s_011",
      "rotation": [
        1.3379212100673853e-24,
        -0.09910470247268677,
        1.343361806236991e-23,
        0.9950770139694214
      ],
      "translation": [
        0.04993449151515961,
        -0.9585390090942383,
        -1.142372965812683
      ]
    },
    {
      "children": [
        40
      ],
      "name": "L_forearm_twist_s_012",
      "rotation": [
        3.308722450212111e-24,
        -7.450580596923828e-09,
        1.3234889800848443e-23,
        1.0
      ],
      "translation": [
        -0.013397186994552612,
        -0.32062435150146484,
        -0.3936346769332886
      ]
    },
    {
      "name": "L_forearm_twist_s_end_046",
      "rotation": [
        8.271806125530277e-25,
        6.938893903907228e-18,
        1.3234889800848443e-23,
        1.0
      ],
      "translation": [
        0.0,
        0.03999948501586914,
        0.0
      ]
    },
    {
      "children": [
        42,
        45,
        48,
        51
      ],
      "name": "L_wrist_s_013",
      "rotation": [
        3.311457430970512e-24,
        -0.023460935801267624,
        7.771127325602497e-26,
        0.9997248649597168
      ],
      "translation": [
        -0.04019567370414734,
        -0.9618735313415527,
        -1.1809042692184448
      ]
    },
    {
      "children": [
        43
      ],
      "name": "L_middle_01_s_014",
      "rotation": [
        -6.230310477115114e-17,
        0.9998443722724915,
        6.230310477115114e-17,
        0.017642611637711525
      ],
      "translation": [
        -0.10898047685623169,
        -0.5896925926208496,
        -0.6153339743614197
      ]
    },
    {
      "children": [
        44
      ],
      "name": "L_middle_02_s_015",
      "rotation": [
        1.9255092843095267e-24,
        0.0068255760706961155,
        -3.971873637020723e-23,
        0.9999766945838928
      ],
      "translation": [
        0.05251145362854004,
        -0.2510101795196533,
        0.22218498587608337
      ]
    },
    {
      "name": "L_middle_02_s_end_047",
      "rotation": [
        -3.6734198463196485e-40,
        2.7755575615628914e-17,
        1.3234889800848443e-23,
        1.0
      ],
      "translation": [
        0.0,
        0.03999972343444824,
        0.0
      ]
    },
    {
      "children": [
        46
      ],
      "name": "L_index_01_s_016",
      "rotation": [
        4.7226771960416744e-17,
        0.9783289432525635,
        4.7226771960416744e-17,
        0.20705723762512207
      ],
      "translation": [
        0.3631414771080017,
        -0.47492265701293945,
        -0.6625959277153015
      ]
    },
    {
      "children": [
        47
      ],
      "name": "L_index_02_s_017",
      "rotation": [
        -7.59189578600547e-25,
        0.028634337708353996,
        2.650238480063148e-23,
        0.9995899796485901
      ],
      "translation": [
        0.08629097044467926,
        -0.2973916530609131,
        0.3005121946334839
      ]
    },
    {
      "name": "L_index_02_s_end_048",
      "rotation": [
        -6.617444900424222e-24,
        -5.551115123125783e-17,
        -1.3234889800848443e-23,
        1.0
      ],
      "translation": [
        -2.220446049250313e-16,
        0.03999972343444824,
        0.0
      ]
    },
    {
      "children": [
        49
      ],
      "name": "L_thumb_01_s_018",
      "rotation": [
        0.0,
        0.3262050151824951,
        0.0,
        0.9452990293502808
      ],
      "translation": [
        0.3698183000087738,
        -0.16397476196289063,
        -0.22859162092208862
      ]
    },
    {
      "children": [
        50
      ],
      "name": "L_thumb_02_s_019",
      "rotation": [
        8.653442043119003e-24,
        0.13467341661453247,
        -1.4532671697298307e-23,
        0.9908901453018188
      ],
      "translation": [
        0.39550405740737915,
        -0.2428278923034668,
        0.36769264936447144
      ]
    },
    {
      "name": "L_thumb_02_s_end_049",
      "rotation": [
        1.9852334701272664e-23,
        8.326672684688674e-17,
        -6.617444900424222e-24,
        1.0
      ],
      "translation": [
        0.0,
        0.03999948501586914,
        4.440892098500626e-16
      ]
    },
    {
      "children": [
        52
      ],
      "name": "bottle_s_020",
      "rotation": [
        5.702571562411997e-18,
        0.7521369457244873,
        5.702571562411997e-18,
        0.6590068936347961
      ],
      "translation": [
        -1.5553598403930664,
        -0.4584228992462158,
        3.851947069168091
      ]
    },
    {
      "children": [
        53
      ],
      "name": "bottle_cap_s_021",
      "rotation": [
        -1.3234889800848443e-23,
        -6.617444900424222e-24,
        -0.0,
        1.0
      ],
      "translation": [
        0.0,
        0.3259127140045166,
        -0.35450005531311035
      ]
    },
    {
      "name": "bottle_cap_s_end_050",
      "rotation": [
        1.3234889800848443e-23,
        -6.617444900424222e-24,
        -1.5777218104420236e-30,
        1.0
      ],
      "translation": [
        0.0,
        0.03999948501586914,
        0.0
      ]
    },
    {
      "children": [
        55
      ],
      "name": "L_panel_s_022",
      "rotation": [
        1.8362118075603187e-23,
        0.6834583282470703,
        -1.719167568419591e-23,
        0.7299895286560059
      ],
      "translation": [
        -0.009108245372772217,
        0.17092609405517578,
        -0.9814901947975159
      ]
    },
    {
      "name": "L_panel_s_end_051",
      "rotation": [
        0.0,
        -0.0,
        -1.6543612251060553e-24,
        1.0
      ],
      "translation": [
        0.0,
        0.03999948501586914,
        0.0
      ]
    },
    {
      "children": [
        57
      ],
      "name": "L_shoulder_twist_s_023",
      "rotation": [
        -1.6543612251060553e-24,
        -1.3877787807814457e-17,
        1.3234889800848443e-23,
        1.0
      ],
      "translation": [
        0.0013386309146881104,
        -0.025696277618408203,
        -0.030624937266111374
      ]
    },
    {
      "name": "L_shoulder_twist_s_end_00",
      "rotation": [
        3.308722450212111e-24,
        6.938893903907228e-18,
        1.3234889800848443e-23,
        1.0
      ],
      "translation": [
        -5.551115123125783e-17,
        0.03999948501586914,
        0.0
      ]
    },
    {
      "children": [
        59
      ],
      "name": "R_clavicle_s_024",
      "rotation": [
        6.123234262925839e-17,
        1.0,
        6.123234262925839e-17,
        -7.549790126404332e-08
      ],
      "translation": [
        -0.09933400899171829,
        0.7522010803222656,
        0.3857960104942322
      ]
    },
    {
      "children": [
        60,
        73
      ],
      "name": "R_shoulder_s_025",
      "rotation": [
        -1.1384308926735621e-18,
        -0.7163416743278503,
        1.1384308926735621e-18,
        0.697749674320221
      ],
      "translation": [
        1.1940778493881226,
        -1.430511474609375e-06,
        0.5415814518928528
      ]
    },
    {
      "children": [
        61,
        63
      ],
      "name": "R_elbow_s_026",
      "rotation": [
        2.8561663102183984e-25,
        0.021560518071055412,
        -1.324412578432677e-23,
        0.999767541885376
      ],
      "translation": [
        0.049934111535549164,
        -0.9585404396057129,
        -1.1423653364181519
      ]
    },
    {
      "children": [
        62
      ],
      "name": "R_forearm_twist_s_027",
      "rotation": [
        2.2958874039497803e-41,
        -1.734723475976807e-18,
        1.3234889800848443e-23,
        1.0
      ],
      "translation": [
        -0.013397995382547379,
        -0.32062768936157227,
        -0.39363449811935425
      ]
    },
    {
      "name": "R_forearm_twist_s_end_052",
      "rotation": [
        -4.1359030627651384e-25,
        -1.734723475976807e-18,
        2.6469779601696886e-23,
        1.0
      ],
      "translation": [
        0.0,
        0.03999948501586914,
        0.0
      ]
    },
    {
      "children": [
        64,
        67,
        70
      ],
      "name": "R_wrist_s_028",
      "rotation": [
        0.0,
        0.07213259488344193,
        0.0,
        0.9973950386047363
      ],
      "translation": [
        -0.04019520431756973,
        -0.9618782997131348,
        -1.1809066534042358
      ]
    },
    {
      "children": [
        65
      ],
      "name": "R_middle_01_s_029",
      "rotation": [
        7.354059823814533e-17,
        0.973859965801239,
        -7.354059823814533e-17,
        0.2271491438150406
      ],
      "scale": [
        1.0,
        0.9999999403953552,
        1.0
      ],
      "translation": [
        0.1270357072353363,
        -0.5896892547607422,
        -0.611856997013092
      ]
    },
    {
      "children": [
        66
      ],
      "name": "R_middle_02_s_030",
      "rotation": [
        6.520780448896381e-25,
        0.04903271421790123,
        -1.3282839922111397e-23,
        0.9987971782684326
      ],
      "scale": [
        1.0,
        0.9999999403953552,
        1.0
      ],
      "translation": [
        0.05251303315162659,
        -0.2510111331939697,
        0.2221907079219818
      ]
    },
    {
      "name": "R_middle_02_s_end_053",
      "rotation": [
        -3.308722450212111e-24,
        1.3877787807814457e-17,
        -2.6469779601696886e-23,
        1.0
      ],
      "translation": [
        1.1102230246251565e-16,
        0.03999972343444824,
        0.0
      ]
    },
    {
      "children": [
        68
      ],
      "name": "R_index_01_s_031",
      "rotation": [
        5.576230973500853e-17,
        0.9963246583938599,
        5.576230973500853e-17,
        0.08565700799226761
      ],
      "translation": [
        -0.3434893786907196,
        -0.47492051124572754,
        -0.672993004322052
      ]
    },
    {
      "children": [
        69
      ],
      "name": "R_index_02_s_032",
      "rotation": [
        -1.0341367426197563e-25,
        0.010182416066527367,
        1.0530555453531807e-27,
        0.999948263168335
      ],
      "translation": [
        0.08629517257213593,
        -0.2973904609680176,
        0.30052119493484497
      ]
    },
    {
      "name": "R_index_02_s_end_054",
      "rotation": [
        1.0339757656912846e-25,
        8.673617379884035e-19,
        -8.96831017167883e-44,
        1.0
      ],
      "translation": [
        0.0,
        0.03999972343444824,
        0.0
      ]
    },
    {
      "children": [
        71
      ],
      "name": "R_thumb_01_s_033",
      "rotation": [
        3.239495043003058e-17,
        0.9202889800071716,
        -3.239495043003058e-17,
        -0.39123931527137756
      ],
      "translation": [
        -0.3629313111305237,
        -0.163970947265625,
        -0.2393701821565628
      ]
    },
    {
      "children": [
        72
      ],
      "name": "R_thumb_02_s_034",
      "rotation": [
        -2.6246240086984407e-23,
        -0.046735990792512894,
        5.3966980323823574e-24,
        0.9989072680473328
      ],
      "translation": [
        0.39550042152404785,
        -0.24283194541931152,
        0.36769843101501465
      ]
    },
    {
      "name": "R_thumb_02_s_end_055",
      "rotation": [
        1.3234889800848443e-23,
        -5.551115123125783e-17,
        1.3234889800848443e-23,
        1.0
      ],
      "translation": [
        4.440892098500626e-16,
        0.03999972343444824,
        4.440892098500626e-16
      ]
    },
    {
      "children": [
        74
      ],
      "name": "R_shoulder_twist_s_035",
      "rotation": [
        3.697785493223493e-31,
        2.7939677238464355e-08,
        -1.3234889800848443e-23,
        1.0
      ],
      "translation": [
        0.0013378113508224487,
        -0.02570486068725586,
        -0.030619855970144272
      ]
    },
    {
      "name": "R_shoulder_twist_s_end_056",
      "rotation": [
        4.1359030627651384e-25,
        -0.0,
        -2.6469779601696886e-23,
        1.0
      ],
      "translation": [
        -2.7755575615628914e-17,
        0.03999948501586914,
        0.0
      ]
    },
    {
      "children": [
        76
      ],
      "name": "zipper_s_036",
      "rotation": [
        -0.0,
        -0.7071067690849304,
        0.0,
        0.7071068286895752
      ],
      "scale": [
        1.0,
        0.9999999403953552,
        1.0
      ],
      "translation": [
        0.0,
        0.7813072204589844,
        0.8290645480155945
      ]
    },
    {
      "name": "zipper_s_end_057",
      "rotation": [
        1.5777218104420236e-30,
        0.0,
        1.3234889800848443e-23,
        1.0
      ],
      "translation": [
        1.1102230246251565e-16,
        0.03999948501586914,
        0.0
      ]
    },
    {
      "children": [
        78
      ],
      "name": "L_upperLeg_s_037",
      "rotation": [
        -6.123233601181349e-17,
        1.0,
        6.123233601181349e-17,
        -7.549790126404332e-08
      ],
      "translation": [
        0.7474240660667419,
        -0.03183889389038086,
        0.1084207072854042
      ]
    },
    {
      "children": [
        79
      ],
      "name": "L_lowerLeg_s_038",
      "rotation": [
        -5.015027480219314e-38,
        -3.178651297730539e-08,
        -1.5777218104420236e-30,
        1.0
      ],
      "translation": [
        4.56063418141639e-08,
        -1.488236665725708,
        0.04258829355239868
      ]
    },
    {
      "children": [
        80
      ],
      "name": "L_ankle_s_039",
      "rotation": [
        6.123233601181349e-17,
        1.0,
        6.123233601181349e-17,
        7.549790126404332e-08
      ],
      "translation": [
        6.692243914585561e-07,
        -2.2187325954437256,
        0.4338304102420807
      ]
    },
    {
      "children": [
        81
      ],
      "name": "L_toes_s_040",
      "rotation": [
        6.030922891798392e-17,
        0.9998880624771118,
        6.030922891798392e-17,
        0.014963620342314243
      ],
      "translation": [
        -0.018438491970300674,
        -0.44344308972358704,
        0.9491012096405029
      ]
    },
    {
      "name": "L_toes_s_end_058",
      "rotation": [
        0.0,
        0.0,
        8.271806125530277e-25,
        1.0
      ],
      "translation": [
        -1.1102230246251565e-16,
        0.03999966382980347,
        0.0
      ]
    },
    {
      "children": [
        83
      ],
      "name": "R_upperLeg_s_041",
      "rotation": [
        -6.123233601181349e-17,
        1.0,
        6.123233601181349e-17,
        -7.549790126404332e-08
      ],
      "translation": [
        -0.7474240660667419,
        -0.031842708587646484,
        0.10841960459947586
      ]
    },
    {
      "children": [
        84
      ],
      "name": "R_lowerLeg_s_042",
      "rotation": [
        -5.015027480219314e-38,
        -3.178651297730539e-08,
        -1.5777218104420236e-30,
        1.0
      ],
      "translation": [
        -7.360306142345507e-08,
        -1.4882278442382813,
        0.04258793592453003
      ]
    },
    {
      "children": [
        85
      ],
      "name": "R_ankle_s_043",
      "rotation": [
        1.3234889800848443e-23,
        -0.0,
        -1.5777218104420236e-30,
        1.0
      ],
      "translation": [
        -4.0365918607676576e-07,
        -2.218738555908203,
        0.433829665184021
      ]
    },
    {
      "children": [
        86
      ],
      "name": "R_toes_s_044",
      "rotation": [
        1.3226913628235753e-23,
        -0.02656552381813526,
        -4.759686934959601e-25,
        0.9996470808982849
      ],
      "translation": [
        -0.018439196050167084,
        -0.44344204664230347,
        -0.9491027593612671
      ]
    },
    {
      "name": "R_toes_s_end_059",
      "translation": [
        0.0,
        0.03999966382980347,
        0.0
      ]
    },
    {
      "children": [
        88,
        89,
        90,
        91,
        92,
        93,
        94,
        95,
        96
      ],
      "name": "GEO"
    },
    {
      "name": "head_GEO",
      "rotation": [
        8.146033536604591e-08,
        0.0,
        0.0,
        1.0
      ],
      "scale": [
        100.0,
        100.0,
        100.0
      ]
    },
    {
      "name": "head_glass_GEO",
      "rotation": [
        8.146033536604591e-08,
        0.0,
        0.0,
        1.0
      ],
      "scale": [
        100.0,
        100.0,
        100.0
      ]
    },
    {
      "name": "body_GEO",
      "rotation": [
        8.146033536604591e-08,
        0.0,
        0.0,
        1.0
      ],
      "scale": [
        100.0,
        100.0,
        100.0
      ]
    },
    {
      "name": "zip_GEO",
      "rotation": [
        8.146033536604591e-08,
        0.0,
        0.0,
        1.0
      ],
      "scale": [
        100.0,
        100.0,
        100.0
      ]
    },
    {
      "name": "wrist_L_GEO",
      "rotation": [
        8.146033536604591e-08,
        0.0,
        0.0,
        1.0
      ],
      "scale": [
        100.0,
        100.0,
        100.0
      ]
    },
    {
      "name": "wrist_L_panel_GEO",
      "rotation": [
        8.146033536604591e-08,
        0.0,
        0.0,
        1.0
      ],
      "scale": [
        100.0,
        100.0,
        100.0
      ]
    },
    {
      "name": "wrist_R_GEO",
      "rotation": [
        8.146033536604591e-08,
        0.0,
        0.0,
        1.0
      ],
      "scale": [
        100.0,
        100.0,
        100.0
      ]
    },
    {
      "name": "pants_GEO",
      "rotation": [
        8.146033536604591e-08,
        0.0,
        0.0,
        1.0
      ],
      "scale": [
        100.0,
        100.0,
        100.0
      ]
    },
    {
      "name": "boots_GEO",
      "rotation": [
        8.146033536604591e-08,
        0.0,
        0.0,
        1.0
      ],
      "scale": [
        100.0,
        100.0,
        100.0
      ]
    }
  ],
  "samplers": [
    {
      "magFilter": 9729,
      "minFilter": 9987,
      "wrapS": 10497,
      "wrapT": 10497
    }
  ],
  "scene": 0,
  "scenes": [
    {
      "name": "Sketchfab_Scene",
      "nodes": [
        0
      ]
    }
  ],
  "skins": [
    {
      "inverseBindMatrices": 36,
      "joints": [
        8,
        27,
        28,
        29,
        30,
        31,
        32,
        33,
        34,
        35,
        36,
        37,
        38,
        39,
        40,
        41,
        42,
        43,
        44,
        45,
        46,
        47,
        48,
        49,
        50,
        51,
        52,
        53,
        54,
        55,
        56,
        57,
        58,
        59,
        60,
        61,
        62,
        63,
        64,
        65,
        66,
        67,
        68,
        69,
        70,
        71,
        72,
        73,
        74,
        75,
        76,
        77,
        78,
        79,
        80,
        81,
        82,
        83,
        84,
        85,
        86
      ],
      "skeleton": 8
    }
  ],
  "textures": [
    {
      "sampler": 0,
      "source": 0
    }
  ]
}
