{
  "accessors": [
    {
      "bufferView": 3,
      "componentType": 5126,
      "count": 12405,
      "max": [
        0.5495929718017578,
        1.828623652458191,
        2.1302883625030518
      ],
      "min": [
        -0.5493620038032532,
        -0.011776993982493877,
        -3.5605921745300293
      ],
      "type": "VEC3"
    },
    {
      "bufferView": 3,
      "byteOffset": 148860,
      "componentType": 5126,
      "count": 12405,
      "max": [
        0.9999621510505676,
        1.0,
        0.9998564720153809
      ],
      "min": [
        -0.9999966025352478,
        -0.9998956918716431,
        -0.9996181726455688
      ],
      "type": "VEC3"
    },
    {
      "bufferView": 2,
      "componentType": 5126,
      "count": 12405,
      "max": [
        0.993896484375,
        0.995361328125
      ],
      "min": [
        0.006103515625,
        0.006591796875
      ],
      "type": "VEC2"
    },
    {
      "bufferView": 2,
      "byteOffset": 99240,
      "componentType": 5126,
      "count": 12405,
      "max": [
        0.0,
        1.0
      ],
      "min": [
        0.0,
        1.0
      ],
      "type": "VEC2"
    },
    {
      "bufferView": 2,
      "byteOffset": 198480,
      "componentType": 5126,
      "count": 12405,
      "max": [
        0.993896484375,
        0.995361328125
      ],
      "min": [
        0.006103515625,
        0.006591796875
      ],
      "type": "VEC2"
    },
    {
      "bufferView": 2,
      "byteOffset": 297720,
      "componentType": 5126,
      "count": 12405,
      "max": [
        0.993896484375,
        0.995361328125
      ],
      "min": [
        0.006103515625,
        0.006591796875
      ],
      "type": "VEC2"
    },
    {
      "bufferView": 2,
      "byteOffset": 396960,
      "componentType": 5126,
      "count": 12405,
      "max": [
        0.993896484375,
        0.995361328125
      ],
      "min": [
        0.006103515625,
        0.006591796875
      ],
      "type": "VEC2"
    },
    {
      "bufferView": 2,
      "byteOffset": 496200,
      "componentType": 5126,
      "count": 12405,
      "max": [
        0.993896484375,
        0.995361328125
      ],
      "min": [
        0.006103515625,
        0.006591796875
      ],
      "type": "VEC2"
    },
    {
      "bufferView": 2,
      "byteOffset": 595440,
      "componentType": 5126,
      "count": 12405,
      "max": [
        0.993896484375,
        0.995361328125
      ],
      "min": [
        0.006103515625,
        0.006591796875
      ],
      "type": "VEC2"
    },
    {
      "bufferView": 2,
      "byteOffset": 694680,
      "componentType": 5126,
      "count": 12405,
      "max": [
        0.993896484375,
        0.995361328125
      ],
      "min": [
        0.006103515625,
        0.006591796875
      ],
      "type": "VEC2"
    },
    {
      "bufferView": 3,
      "byteOffset": 297720,
      "componentType": 5126,
      "count": 12405,
      "max": [
        0.015004254877567291,
        0.01686084270477295,
        0.004546999931335449
      ],
      "min": [
        -0.008009769022464752,
        -0.021167516708374023,
        -0.0038421154022216797
      ],
      "type": "VEC3"
    },
    {
      "bufferView": 3,
      "byteOffset": 446580,
      "componentType": 5126,
      "count": 12405,
      "max": [
        0.9206950664520264,
        0.7681148648262024,
        0.7542045712471008
      ],
      "min": [
        -0.8656299710273743,
        -1.0,
        -1.072361707687378
      ],
      "type": "VEC3"
    },
    {
      "bufferView": 1,
      "componentType": 5125,
      "count": 58065,
      "type": "SCALAR"
    },
    {
      "bufferView": 5,
      "componentType": 5126,
      "count": 53,
      "max": [
        1.0,
        0.40975216031074524,
        0.7979789972305298,
        0.0,
        0.42965155839920044,
        1.0,
        0.9999983906745911,
        0.0,
        0.783835232257843,
        0.9854061007499695,
        1.0,
        0.0,
        0.5055195689201355,
        1.3510020971298218,
        2.304198980331421,
        1.0
      ],
      "min": [
        -0.9805692434310913,
        -0.4097515642642975,
        -0.7979788184165955,
        0.0,
        -0.42965131998062134,
        -0.9999451041221619,
        -0.9854061603546143,
        0.0,
        -0.7838351130485535,
        -0.9999984502792358,
        -0.9573695063591003,
        0.0,
        -0.5055195093154907,
        -3.0280656814575195,
        -1.4102064371109009,
        1.0
      ],
      "type": "MAT4"
    },
    {
      "bufferView": 0,
      "componentType": 5123,
      "count": 12405,
      "type": "VEC4"
    },
    {
      "bufferView": 4,
      "componentType": 5126,
      "count": 12405,
      "max": [
        1.0,
        0.4998987913131714,
        0.331248939037323,
        0.22374826669692993
      ],
      "min": [
        0.2765803337097168,
        0.0,
        0.0,
        0.0
      ],
      "type": "VEC4"
    },
    {
      "bufferView": 6,
      "componentType": 5126,
      "count": 150,
      "max": [
        6.25
      ],
      "min": [
        0.0416666679084301
      ],
      "type": "SCALAR"
    },
    {
      "bufferView": 7,
      "componentType": 5126,
      "count": 150,
      "max": [
        6.16988737878188e-10,
        0.7364351749420166,
        0.0031367274932563305
      ],
      "min": [
        -8.590093155021183e-15,
        0.7068462371826172,
        5.905900479774573e-08
      ],
      "type": "VEC3"
    },
    {
      "bufferView": 6,
      "byteOffset": 600,
      "componentType": 5126,
      "count": 150,
      "max": [
        6.25
      ],
      "min": [
        0.0416666679084301
      ],
      "type": "SCALAR"
    },
    {
      "bufferView": 8,
      "componentType": 5126,
      "count": 150,
      "max": [
        0.24411773681640625,
        1.494149955760804e-06,
        5.06107483033702e-07,
        0.9750967025756836
      ],
      "min": [
        0.22178034484386444,
        1.4830089867245988e-06,
        4.7197033836710034e-07,
        0.9697456359863281
      ],
      "type": "VEC4"
    },
    {
      "bufferView": 6,
      "byteOffset": 1200,
      "componentType": 5126,
      "count": 150,
      "max": [
        6.25
      ],
      "min": [
        0.0416666679084301
      ],
      "type": "SCALAR"
    },
    {
      "bufferView": 8,
      "byteOffset": 2400,
      "componentType": 5126,
      "count": 150,
      "max": [
        -0.3266618251800537,
        2.258659570486543e-08,
        -1.24555674574367e-06,
        0.9451413154602051
      ],
      "min": [
        -0.33675456047058105,
        9.259596644994872e-09,
        -1.245727048626577e-06,
        0.9415924549102783
      ],
      "type": "VEC4"
    },
    {
      "bufferView": 6,
      "byteOffset": 1800,
      "componentType": 5126,
      "count": 150,
      "max": [
        6.25
      ],
      "min": [
        0.0416666679084301
      ],
      "type": "SCALAR"
    },
    {
      "bufferView": 8,
      "byteOffset": 4800,
      "componentType": 5126,
      "count": 150,
      "max": [
        0.051601774990558624,
        0.01565137691795826,
        0.030921652913093567,
        0.9989970326423645
      ],
      "min": [
        0.0433662049472332,
        -0.026783712208271027,
        -0.06524519622325897,
        0.996566653251648
      ],
      "type": "VEC4"
    },
    {
      "bufferView": 6,
      "byteOffset": 2400,
      "componentType": 5126,
      "count": 150,
      "max": [
        6.25
      ],
      "min": [
        0.0416666679084301
      ],
      "type": "SCALAR"
    },
    {
      "bufferView": 8,
      "byteOffset": 7200,
      "componentType": 5126,
      "count": 150,
      "max": [
        -0.15141256153583527,
        1.958724027417702e-08,
        -5.658872623826028e-07,
        0.9884706735610962
      ],
      "min": [
        -0.16225630044937134,
        3.99174782117484e-09,
        -5.867271966053522e-07,
        0.9867486357688904
      ],
      "type": "VEC4"
    },
    {
      "bufferView": 6,
      "byteOffset": 3000,
      "componentType": 5126,
      "count": 1,
      "max": [
        0.0416666679084301
      ],
      "min": [
        0.0416666679084301
      ],
      "type": "SCALAR"
    },
    {
      "bufferView": 8,
      "byteOffset": 9600,
      "componentType": 5126,
      "count": 1,
      "max": [
        -0.3035554587841034,
        9.742902484788374e-09,
        -1.1604253131736186e-06,
        0.9528138041496277
      ],
      "min": [
        -0.3035554587841034,
        9.742902484788374e-09,
        -1.1604253131736186e-06,
        0.9528138041496277
      ],
      "type": "VEC4"
    },
    {
      "bufferView": 6,
      "byteOffset": 3004,
      "componentType": 5126,
      "count": 150,
      "max": [
        6.25
      ],
      "min": [
        0.0416666679084301
      ],
      "type": "SCALAR"
    },
    {
      "bufferView": 8,
      "byteOffset": 9616,
      "componentType": 5126,
      "count": 150,
      "max": [
        0.7226418256759644,
        -4.24226936956984e-06,
        7.363458109921339e-08,
        0.7404589056968689
      ],
      "min": [
        0.6721016764640808,
        -4.341852218203712e-06,
        -2.2863162030262174e-07,
        0.6912226676940918
      ],
      "type": "VEC4"
    },
    {
      "bufferView": 6,
      "byteOffset": 3604,
      "componentType": 5126,
      "count": 150,
      "max": [
        6.25
      ],
      "min": [
        0.0416666679084301
      ],
      "type": "SCALAR"
    },
    {
      "bufferView": 8,
      "byteOffset": 12016,
      "componentType": 5126,
      "count": 150,
      "max": [
        0.08749059587717056,
        0.001949928468093276,
        0.0028119615744799376,
        0.9999045133590698
      ],
      "min": [
        0.013501521199941635,
        -0.0008917886298149824,
        -0.002638866426423192,
        0.9961622953414917
      ],
      "type": "VEC4"
    },
    {
      "bufferView": 6,
      "byteOffset": 4204,
      "componentType": 5126,
      "count": 150,
      "max": [
        6.25
      ],
      "min": [
        0.0416666679084301
      ],
      "type": "SCALAR"
    },
    {
      "bufferView": 8,
      "byteOffset": 14416,
      "componentType": 5126,
      "count": 150,
      "max": [
        0.6693550944328308,
        2.3321291564570856e-08,
        2.5549413749104133e-06,
        0.8041027188301086
      ],
      "min": [
        0.5944903492927551,
        -2.9751197061500534e-08,
        2.269168817292666e-06,
        0.7429426908493042
      ],
      "type": "VEC4"
    },
    {
      "bufferView": 6,
      "byteOffset": 4804,
      "componentType": 5126,
      "count": 150,
      "max": [
        6.25
      ],
      "min": [
        0.0416666679084301
      ],
      "type": "SCALAR"
    },
    {
      "bufferView": 8,
      "byteOffset": 16816,
      "componentType": 5126,
      "count": 150,
      "max": [
        0.07394178956747055,
        0.05215119197964668,
        0.048808470368385315,
        0.9972646236419678
      ],
      "min": [
        0.07375355809926987,
        -0.052151430398225784,
        -0.0488085076212883,
        0.9947152137756348
      ],
      "type": "VEC4"
    },
    {
      "bufferView": 6,
      "byteOffset": 5404,
      "componentType": 5126,
      "count": 150,
      "max": [
        6.25
      ],
      "min": [
        0.0416666679084301
      ],
      "type": "SCALAR"
    },
    {
      "bufferView": 8,
      "byteOffset": 19216,
      "componentType": 5126,
      "count": 150,
      "max": [
        0.035688694566488266,
        0.047813497483730316,
        0.05306408181786537,
        0.9993637204170227
      ],
      "min": [
        0.035597559064626694,
        -0.04781445115804672,
        -0.05306520313024521,
        0.9968094825744629
      ],
      "type": "VEC4"
    },
    {
      "bufferView": 6,
      "byteOffset": 6004,
      "componentType": 5126,
      "count": 150,
      "max": [
        6.25
      ],
      "min": [
        0.0416666679084301
      ],
      "type": "SCALAR"
    },
    {
      "bufferView": 8,
      "byteOffset": 21616,
      "componentType": 5126,
      "count": 150,
      "max": [
        0.0357268825173378,
        0.042934611439704895,
        0.0570845790207386,
        0.999792218208313
      ],
      "min": [
        0.019600262865424156,
        -0.042934589087963104,
        -0.05708463117480278,
        0.9968056678771973
      ],
      "type": "VEC4"
    },
    {
      "bufferView": 6,
      "byteOffset": 6604,
      "componentType": 5126,
      "count": 150,
      "max": [
        6.25
      ],
      "min": [
        0.0416666679084301
      ],
      "type": "SCALAR"
    },
    {
      "bufferView": 8,
      "byteOffset": 24016,
      "componentType": 5126,
      "count": 150,
      "max": [
        -0.002298654755577445,
        0.03548429533839226,
        0.061991140246391296,
        0.9998390674591064
      ],
      "min": [
        -0.01845303177833557,
        -0.035484250634908676,
        -0.06199111044406891,
        0.9974430799484253
      ],
      "type": "VEC4"
    },
    {
      "bufferView": 6,
      "byteOffset": 7204,
      "componentType": 5126,
      "count": 150,
      "max": [
        6.25
      ],
      "min": [
        0.0416666679084301
      ],
      "type": "SCALAR"
    },
    {
      "bufferView": 8,
      "byteOffset": 26416,
      "componentType": 5126,
      "count": 150,
      "max": [
        -0.012960980646312237,
        0.00807584822177887,
        0.022795801982283592,
        0.9996733665466309
      ],
      "min": [
        -0.029055152088403702,
        -0.008075874298810959,
        -0.022795798256993294,
        0.9995538592338562
      ],
      "type": "VEC4"
    },
    {
      "bufferView": 6,
      "byteOffset": 7804,
      "componentType": 5126,
      "count": 150,
      "max": [
        6.25
      ],
      "min": [
        0.0416666679084301
      ],
      "type": "SCALAR"
    },
    {
      "bufferView": 8,
      "byteOffset": 28816,
      "componentType": 5126,
      "count": 150,
      "max": [
        -0.04091182351112366,
        0.009455010294914246,
        0.09162691980600357,
        0.9991539716720581
      ],
      "min": [
        -0.05681031942367554,
        -0.009455052204430103,
        -0.09162690490484238,
        0.9949076771736145
      ],
      "type": "VEC4"
    },
    {
      "bufferView": 6,
      "byteOffset": 8404,
      "componentType": 5126,
      "count": 150,
      "max": [
        6.25
      ],
      "min": [
        0.0416666679084301
      ],
      "type": "SCALAR"
    },
    {
      "bufferView": 8,
      "byteOffset": 31216,
      "componentType": 5126,
      "count": 150,
      "max": [
        0.05961185693740845,
        0.005842795595526695,
        0.09192788600921631,
        0.9982263445854187
      ],
      "min": [
        0.04435471445322037,
        -0.005842758808284998,
        -0.09192788600921631,
        0.9939776659011841
      ],
      "type": "VEC4"
    },
    {
      "bufferView": 6,
      "byteOffset": 9004,
      "componentType": 5126,
      "count": 150,
      "max": [
        6.25
      ],
      "min": [
        0.0416666679084301
      ],
      "type": "SCALAR"
    },
    {
      "bufferView": 8,
      "byteOffset": 33616,
      "componentType": 5126,
      "count": 150,
      "max": [
        0.0002682353078853339,
        0.007451939396560192,
        0.09210816025733948,
        0.9999988675117493
      ],
      "min": [
        -0.013889690861105919,
        -0.007451936136931181,
        -0.09210813790559769,
        0.9957485198974609
      ],
      "type": "VEC4"
    },
    {
      "bufferView": 6,
      "byteOffset": 9604,
      "componentType": 5126,
      "count": 150,
      "max": [
        6.25
      ],
      "min": [
        0.0416666679084301
      ],
      "type": "SCALAR"
    },
    {
      "bufferView": 8,
      "byteOffset": 36016,
      "componentType": 5126,
      "count": 150,
      "max": [
        -0.033534035086631775,
        0.006073209922760725,
        0.09191304445266724,
        0.9994310736656189
      ],
      "min": [
        -0.04650295153260231,
        -0.006073221564292908,
        -0.09191298484802246,
        0.9951834678649902
      ],
      "type": "VEC4"
    },
    {
      "bufferView": 6,
      "byteOffset": 10204,
      "componentType": 5126,
      "count": 1,
      "max": [
        0.0416666679084301
      ],
      "min": [
        0.0416666679084301
      ],
      "type": "SCALAR"
    },
    {
      "bufferView": 8,
      "byteOffset": 38416,
      "componentType": 5126,
      "count": 1,
      "max": [
        -0.24768587946891785,
        0.10174860060214996,
        -0.9415332078933716,
        0.20448517799377441
      ],
      "min": [
        -0.24768587946891785,
        0.10174860060214996,
        -0.9415332078933716,
        0.20448517799377441
      ],
      "type": "VEC4"
    },
    {
      "bufferView": 6,
      "byteOffset": 10208,
      "componentType": 5126,
      "count": 1,
      "max": [
        0.0416666679084301
      ],
      "min": [
        0.0416666679084301
      ],
      "type": "SCALAR"
    },
    {
      "bufferView": 8,
      "byteOffset": 38432,
      "componentType": 5126,
      "count": 1,
      "max": [
        -0.6006830930709839,
        -0.1771303117275238,
        -0.7544572353363037,
        0.1964663863182068
      ],
      "min": [
        -0.6006830930709839,
        -0.1771303117275238,
        -0.7544572353363037,
        0.1964663863182068
      ],
      "type": "VEC4"
    },
    {
      "bufferView": 6,
      "byteOffset": 10212,
      "componentType": 5126,
      "count": 150,
      "max": [
        6.25
      ],
      "min": [
        0.0416666679084301
      ],
      "type": "SCALAR"
    },
    {
      "bufferView": 8,
      "byteOffset": 38448,
      "componentType": 5126,
      "count": 150,
      "max": [
        -0.45241543650627136,
        -0.007963529787957668,
        0.16728241741657257,
        0.8793876767158508
      ],
      "min": [
        -0.4928295314311981,
        -0.01040730718523264,
        0.14810220897197723,
        0.8538352251052856
      ],
      "type": "VEC4"
    },
    {
      "bufferView": 6,
      "byteOffset": 10812,
      "componentType": 5126,
      "count": 150,
      "max": [
        6.25
      ],
      "min": [
        0.0416666679084301
      ],
      "type": "SCALAR"
    },
    {
      "bufferView": 8,
      "byteOffset": 40848,
      "componentType": 5126,
      "count": 150,
      "max": [
        0.40402862429618835,
        -0.04391913115978241,
        -0.12027349323034286,
        0.9333763718605042
      ],
      "min": [
        0.33432433009147644,
        -0.05069585517048836,
        -0.1576240509748459,
        0.8999933004379272
      ],
      "type": "VEC4"
    },
    {
      "bufferView": 6,
      "byteOffset": 11412,
      "componentType": 5126,
      "count": 150,
      "max": [
        6.25
      ],
      "min": [
        0.0416666679084301
      ],
      "type": "SCALAR"
    },
    {
      "bufferView": 8,
      "byteOffset": 43248,
      "componentType": 5126,
      "count": 150,
      "max": [
        0.7751791477203369,
        0.1490246206521988,
        -0.007278910372406244,
        0.6440862417221069
      ],
      "min": [
        0.7502881288528442,
        0.1292659044265747,
        -0.022637175396084785,
        0.617960512638092
      ],
      "type": "VEC4"
    },
    {
      "bufferView": 6,
      "byteOffset": 12012,
      "componentType": 5126,
      "count": 1,
      "max": [
        0.0416666679084301
      ],
      "min": [
        0.0416666679084301
      ],
      "type": "SCALAR"
    },
    {
      "bufferView": 8,
      "byteOffset": 45648,
      "componentType": 5126,
      "count": 1,
      "max": [
        -0.4559049606323242,
        -0.23447391390800476,
        -0.2620559334754944,
        0.8176180720329285
      ],
      "min": [
        -0.4559049606323242,
        -0.23447391390800476,
        -0.2620559334754944,
        0.8176180720329285
      ],
      "type": "VEC4"
    },
    {
      "bufferView": 6,
      "byteOffset": 12016,
      "componentType": 5126,
      "count": 1,
      "max": [
        0.0416666679084301
      ],
      "min": [
        0.0416666679084301
      ],
      "type": "SCALAR"
    },
    {
      "bufferView": 8,
      "byteOffset": 45664,
      "componentType": 5126,
      "count": 1,
      "max": [
        -0.43499401211738586,
        -0.10248912125825882,
        0.24822354316711426,
        0.8594540357589722
      ],
      "min": [
        -0.43499401211738586,
        -0.10248912125825882,
        0.24822354316711426,
        0.8594540357589722
      ],
      "type": "VEC4"
    },
    {
      "bufferView": 6,
      "byteOffset": 12020,
      "componentType": 5126,
      "count": 1,
      "max": [
        0.0416666679084301
      ],
      "min": [
        0.0416666679084301
      ],
      "type": "SCALAR"
    },
    {
      "bufferView": 8,
      "byteOffset": 45680,
      "componentType": 5126,
      "count": 1,
      "max": [
        -0.24768589437007904,
        -0.10174855589866638,
        0.9415332078933716,
        0.20448514819145203
      ],
      "min": [
        -0.24768589437007904,
        -0.10174855589866638,
        0.9415332078933716,
        0.20448514819145203
      ],
      "type": "VEC4"
    },
    {
      "bufferView": 6,
      "byteOffset": 12024,
      "componentType": 5126,
      "count": 1,
      "max": [
        0.0416666679084301
      ],
      "min": [
        0.0416666679084301
      ],
      "type": "SCALAR"
    },
    {
      "bufferView": 8,
      "byteOffset": 45696,
      "componentType": 5126,
      "count": 1,
      "max": [
        -0.6006829142570496,
        0.17713038623332977,
        0.7544572949409485,
        0.1964661031961441
      ],
      "min": [
        -0.6006829142570496,
        0.17713038623332977,
        0.7544572949409485,
        0.1964661031961441
      ],
      "type": "VEC4"
    },
    {
      "bufferView": 6,
      "byteOffset": 12028,
      "componentType": 5126,
      "count": 150,
      "max": [
        6.25
      ],
      "min": [
        0.0416666679084301
      ],
      "type": "SCALAR"
    },
    {
      "bufferView": 8,
      "byteOffset": 45712,
      "componentType": 5126,
      "count": 150,
      "max": [
        -0.45241549611091614,
        0.01040735375136137,
        -0.14810211956501007,
        0.879387617111206
      ],
      "min": [
        -0.4928295612335205,
        0.007963593117892742,
        -0.1672823578119278,
        0.8538351058959961
      ],
      "type": "VEC4"
    },
    {
      "bufferView": 6,
      "byteOffset": 12628,
      "componentType": 5126,
      "count": 150,
      "max": [
        6.25
      ],
      "min": [
        0.0416666679084301
      ],
      "type": "SCALAR"
    },
    {
      "bufferView": 8,
      "byteOffset": 48112,
      "componentType": 5126,
      "count": 150,
      "max": [
        0.40853849053382874,
        0.05070030689239502,
        0.16005608439445496,
        0.9333763718605042
      ],
      "min": [
        0.33432433009147644,
        0.04346167668700218,
        0.12027156352996826,
        0.897547721862793
      ],
      "type": "VEC4"
    },
    {
      "bufferView": 6,
      "byteOffset": 13228,
      "componentType": 5126,
      "count": 150,
      "max": [
        6.25
      ],
      "min": [
        0.0416666679084301
      ],
      "type": "SCALAR"
    },
    {
      "bufferView": 8,
      "byteOffset": 50512,
      "componentType": 5126,
      "count": 150,
      "max": [
        0.7751791477203369,
        -0.1292659044265747,
        0.022637059912085533,
        0.6440862417221069
      ],
      "min": [
        0.7502881288528442,
        -0.14902476966381073,
        0.007278896402567625,
        0.6179605722427368
      ],
      "type": "VEC4"
    },
    {
      "bufferView": 6,
      "byteOffset": 13828,
      "componentType": 5126,
      "count": 1,
      "max": [
        0.0416666679084301
      ],
      "min": [
        0.0416666679084301
      ],
      "type": "SCALAR"
    },
    {
      "bufferView": 8,
      "byteOffset": 52912,
      "componentType": 5126,
      "count": 1,
      "max": [
        -0.45590507984161377,
        0.23447398841381073,
        0.26205578446388245,
        0.8176180720329285
      ],
      "min": [
        -0.45590507984161377,
        0.23447398841381073,
        0.26205578446388245,
        0.8176180720329285
      ],
      "type": "VEC4"
    },
    {
      "bufferView": 6,
      "byteOffset": 13832,
      "componentType": 5126,
      "count": 1,
      "max": [
        0.0416666679084301
      ],
      "min": [
        0.0416666679084301
      ],
      "type": "SCALAR"
    },
    {
      "bufferView": 8,
      "byteOffset": 52928,
      "componentType": 5126,
      "count": 1,
      "max": [
        -0.4349937438964844,
        0.10248915106058121,
        -0.24822351336479187,
        0.8594542145729065
      ],
      "min": [
        -0.4349937438964844,
        0.10248915106058121,
        -0.24822351336479187,
        0.8594542145729065
      ],
      "type": "VEC4"
    },
    {
      "bufferView": 6,
      "byteOffset": 13836,
      "componentType": 5126,
      "count": 16,
      "max": [
        4.041666507720947
      ],
      "min": [
        1.6666666269302368
      ],
      "type": "SCALAR"
    },
    {
      "bufferView": 6,
      "byteOffset": 13900,
      "componentType": 5126,
      "count": 16,
      "max": [
        1.0
      ],
      "min": [
        0.0
      ],
      "type": "SCALAR"
    }
  ],
  "animations": [
    {
      "channels": [
        {
          "sampler": 0,
          "target": {
            "node": 10,
            "path": "translation"
          }
        },
        {
          "sampler": 1,
          "target": {
            "node": 12,
            "path": "rotation"
          }
        },
        {
          "sampler": 2,
          "target": {
            "node": 13,
            "path": "rotation"
          }
        },
        {
          "sampler": 3,
          "target": {
            "node": 14,
            "path": "rotation"
          }
        },
        {
          "sampler": 4,
          "target": {
            "node": 15,
            "path": "rotation"
          }
        },
        {
          "sampler": 5,
          "target": {
            "node": 16,
            "path": "rotation"
          }
        },
        {
          "sampler": 6,
          "target": {
            "node": 17,
            "path": "rotation"
          }
        },
        {
          "sampler": 7,
          "target": {
            "node": 18,
            "path": "rotation"
          }
        },
        {
          "sampler": 8,
          "target": {
            "node": 24,
            "path": "rotation"
          }
        },
        {
          "sampler": 9,
          "target": {
            "node": 27,
            "path": "rotation"
          }
        },
        {
          "sampler": 10,
          "target": {
            "node": 28,
            "path": "rotation"
          }
        },
        {
          "sampler": 11,
          "target": {
            "node": 29,
            "path": "rotation"
          }
        },
        {
          "sampler": 12,
          "target": {
            "node": 30,
            "path": "rotation"
          }
        },
        {
          "sampler": 13,
          "target": {
            "node": 31,
            "path": "rotation"
          }
        },
        {
          "sampler": 14,
          "target": {
            "node": 32,
            "path": "rotation"
          }
        },
        {
          "sampler": 15,
          "target": {
            "node": 33,
            "path": "rotation"
          }
        },
        {
          "sampler": 16,
          "target": {
            "node": 34,
            "path": "rotation"
          }
        },
        {
          "sampler": 17,
          "target": {
            "node": 35,
            "path": "rotation"
          }
        },
        {
          "sampler": 18,
          "target": {
            "node": 36,
            "path": "rotation"
          }
        },
        {
          "sampler": 19,
          "target": {
            "node": 38,
            "path": "rotation"
          }
        },
        {
          "sampler": 20,
          "target": {
            "node": 39,
            "path": "rotation"
          }
        },
        {
          "sampler": 21,
          "target": {
            "node": 40,
            "path": "rotation"
          }
        },
        {
          "sampler": 22,
          "target": {
            "node": 41,
            "path": "rotation"
          }
        },
        {
          "sampler": 23,
          "target": {
            "node": 44,
            "path": "rotation"
          }
        },
        {
          "sampler": 24,
          "target": {
            "node": 46,
            "path": "rotation"
          }
        },
        {
          "sampler": 25,
          "target": {
            "node": 48,
            "path": "rotation"
          }
        },
        {
          "sampler": 26,
          "target": {
            "node": 50,
            "path": "rotation"
          }
        },
        {
          "sampler": 27,
          "target": {
            "node": 51,
            "path": "rotation"
          }
        },
        {
          "sampler": 28,
          "target": {
            "node": 52,
            "path": "rotation"
          }
        },
        {
          "sampler": 29,
          "target": {
            "node": 53,
            "path": "rotation"
          }
        },
        {
          "sampler": 30,
          "target": {
            "node": 56,
            "path": "rotation"
          }
        },
        {
          "sampler": 31,
          "target": {
            "node": 58,
            "path": "rotation"
          }
        },
        {
          "sampler": 32,
          "target": {
            "node": 7,
            "path": "weights"
          }
        }
      ],
      "name": "Animation",
      "samplers": [
        {
          "input": 16,
          "interpolation": "LINEAR",
          "output": 17
        },
        {
          "input": 18,
          "interpolation": "LINEAR",
          "output": 19
        },
        {
          "input": 20,
          "interpolation": "LINEAR",
          "output": 21
        },
        {
          "input": 22,
          "interpolation": "LINEAR",
          "output": 23
        },
        {
          "input": 24,
          "interpolation": "LINEAR",
          "output": 25
        },
        {
          "input": 26,
          "interpolation": "LINEAR",
          "output": 27
        },
        {
          "input": 28,
          "interpolation": "LINEAR",
          "output": 29
        },
        {
          "input": 30,
          "interpolation": "LINEAR",
          "output": 31
        },
        {
          "input": 32,
          "interpolation": "LINEAR",
          "output": 33
        },
        {
          "input": 34,
          "interpolation": "LINEAR",
          "output": 35
        },
        {
          "input": 36,
          "interpolation": "LINEAR",
          "output": 37
        },
        {
          "input": 38,
          "interpolation": "LINEAR",
          "output": 39
        },
        {
          "input": 40,
          "interpolation": "LINEAR",
          "output": 41
        },
        {
          "input": 42,
          "interpolation": "LINEAR",
          "output": 43
        },
        {
          "input": 44,
          "interpolation": "LINEAR",
          "output": 45
        },
        {
          "input": 46,
          "interpolation": "LINEAR",
          "output": 47
        },
        {
          "input": 48,
          "interpolation": "LINEAR",
          "output": 49
        },
        {
          "input": 50,
          "interpolation": "LINEAR",
          "output": 51
        },
        {
          "input": 52,
          "interpolation": "LINEAR",
          "output": 53
        },
        {
          "input": 54,
          "interpolation": "LINEAR",
          "output": 55
        },
        {
          "input": 56,
          "interpolation": "LINEAR",
          "output": 57
        },
        {
          "input": 58,
          "interpolation": "LINEAR",
          "output": 59
        },
        {
          "input": 60,
          "interpolation": "LINEAR",
          "output": 61
        },
        {
          "input": 62,
          "interpolation": "LINEAR",
          "output": 63
        },
        {
          "input": 64,
          "interpolation": "LINEAR",
          "output": 65
        },
        {
          "input": 66,
          "interpolation": "LINEAR",
          "output": 67
        },
        {
          "input": 68,
          "interpolation": "LINEAR",
          "output": 69
        },
        {
          "input": 70,
          "interpolation": "LINEAR",
          "output": 71
        },
        {
          "input": 72,
          "interpolation": "LINEAR",
          "output": 73
        },
        {
          "input": 74,
          "interpolation": "LINEAR",
          "output": 75
        },
        {
          "input": 76,
          "interpolation": "LINEAR",
          "output": 77
        },
        {
          "input": 78,
          "interpolation": "LINEAR",
          "output": 79
        },
        {
          "input": 80,
          "interpolation": "LINEAR",
          "output": 81
        }
      ]
    }
  ],
  "asset": {
    "extras": {
      "author": "kenchoo (https://sketchfab.com/kenchoo)",
      "license": "CC-BY-NC-SA-4.0 (http://creativecommons.org/licenses/by-nc-sa/4.0/)",
      "source": "https://sketchfab.com/3d-models/veterupristisaurus-a82655fe8e7a43be89d91c38b609b322",
      "title": "Veterupristisaurus"
    },
    "generator": "Sketchfab-16.65.0",
    "version": "2.0"
  },
  "bufferViews": [
    {
      "buffer": 0,
      "byteLength": 99240,
      "byteStride": 8,
      "name": "shortBufferViews",
      "target": 34962
    },
    {
      "buffer": 0,
      "byteLength": 232260,
      "byteOffset": 99240,
      "name": "floatBufferViews",
      "target": 34963
    },
    {
      "buffer": 0,
      "byteLength": 793920,
      "byteOffset": 331500,
      "byteStride": 8,
      "name": "floatBufferViews",
      "target": 34962
    },
    {
      "buffer": 0,
      "byteLength": 595440,
      "byteOffset": 1125420,
      "byteStride": 12,
      "name": "floatBufferViews",
      "target": 34962
    },
    {
      "buffer": 0,
      "byteLength": 198480,
      "byteOffset": 1720860,
      "byteStride": 16,
      "name": "floatBufferViews",
      "target": 34962
    },
    {
      "buffer": 0,
      "byteLength": 3392,
      "byteOffset": 1919340,
      "name": "floatBufferViews"
    },
    {
      "buffer": 0,
      "byteLength": 13964,
      "byteOffset": 1922732,
      "name": "floatBufferViews"
    },
    {
      "buffer": 0,
      "byteLength": 1800,
      "byteOffset": 1936696,
      "byteStride": 12,
      "name": "floatBufferViews"
    },
    {
      "buffer": 0,
      "byteLength": 52944,
      "byteOffset": 1938496,
      "byteStride": 16,
      "name": "floatBufferViews"
    }
  ],
  "buffers": [
    {
      "byteLength": 1991440,
      "uri": "scene.bin"
    }
  ],
  "images": [
    {
      "uri": "textures/material_0_baseColor.png"
    }
  ],
  "materials": [
    {
      "doubleSided": true,
      "name": "material_0",
      "pbrMetallicRoughness": {
        "baseColorTexture": {
          "index": 0
        },
        "metallicFactor": 0.0,
        "roughnessFactor": 0.6
      }
    }
  ],
  "meshes": [
    {
      "name": "mesh_0",
      "primitives": [
        {
          "attributes": {
            "JOINTS_0": 14,
            "NORMAL": 1,
            "POSITION": 0,
            "TEXCOORD_0": 2,
            "TEXCOORD_1": 3,
            "TEXCOORD_2": 4,
            "TEXCOORD_3": 5,
            "TEXCOORD_4": 6,
            "TEXCOORD_5": 7,
            "TEXCOORD_6": 8,
            "TEXCOORD_7": 9,
            "WEIGHTS_0": 15
          },
          "indices": 12,
          "material": 0,
          "mode": 4,
          "targets": [
            {
              "NORMAL": 11,
              "POSITION": 10
            }
          ]
        }
      ],
      "weights": [
        0.0
      ]
    }
  ],
  "nodes": [
    {
      "children": [
        1
      ],
      "matrix": [
        1.0,
        0.0,
        0.0,
        0.0,
        0.0,
        2.220446049250313e-16,
        -1.0,
        0.0,
        0.0,
        1.0,
        2.220446049250313e-16,
        0.0,
        0.0,
        0.0,
        0.0,
        1.0
      ],
      "name": "Sketchfab_model"
    },
    {
      "children": [
        2
      ],
      "name": "root"
    },
    {
      "children": [
        3
      ],
      "matrix": [
        1.0,
        0.0,
        0.0,
        0.0,
        0.0,
        2.220446049250313e-16,
        1.0,
        0.0,
        0.0,
        -1.0,
        2.220446049250313e-16,
        0.0,
        0.0,
        0.0,
        0.0,
        1.0
      ],
      "name": "GLTF_SceneRootNode"
    },
    {
      "children": [
        4
      ],
      "name": "GLTF_created_0_53"
    },
    {
      "children": [
        5,
        7,
        6
      ],
      "name": "GLTF_created_0"
    },
    {
      "children": [
        8
      ],
      "name": "GLTF_created_0_rootJoint"
    },
    {
      "name": "Object_5_52"
    },
    {
      "mesh": 0,
      "name": "Object_7",
      "skin": 0
    },
    {
      "children": [
        9,
        10
      ],
      "name": "GLTF_created_0_rootJoint_51",
      "rotation": [
        0.04240351915359497,
        -3.5112698526518216e-08,
        -1.4902428180363358e-09,
        0.9991005659103394
      ]
    },
    {
      "name": "Root_0_0",
      "rotation": [
        -1.4901162614933128e-07,
        -1.8582595018301618e-08,
        1.3473432913520093e-14,
        1.0
      ],
      "scale": [
        1.0,
        0.9999998807907104,
        0.9999999403953552
      ],
      "translation": [
        4.440892098500626e-16,
        0.0,
        1.3805065841367707e-30
      ]
    },
    {
      "children": [
        11,
        26,
        36,
        48
      ],
      "name": "Pelvis_61_50",
      "rotation": [
        -0.1528722643852234,
        1.8028410986303811e-09,
        1.0466285615962079e-08,
        0.988245964050293
      ],
      "scale": [
        1.0,
        1.0,
        0.9999999403953552
      ],
      "translation": [
        -8.43769498715119e-15,
        0.7364351749420166,
        -1.2293457984924316e-07
      ]
    },
    {
      "children": [
        12,
        25
      ],
      "name": "Spine1_26_15",
      "rotation": [
        0.6890461444854736,
        2.9736727924500883e-07,
        2.380345733854483e-07,
        0.7247174978256226
      ],
      "scale": [
        1.0,
        1.0,
        0.9999999403953552
      ],
      "translation": [
        4.871136046608049e-14,
        0.6759259700775146,
        5.21540641784668e-08
      ]
    },
    {
      "children": [
        13
      ],
      "name": "Spine2_24_13",
      "rotation": [
        0.21999630331993103,
        1.4836351738267695e-06,
        5.020106641495659e-07,
        0.9755007028579712
      ],
      "translation": [
        5.821718662701869e-10,
        0.32868915796279907,
        -2.0489096641540527e-07
      ]
    },
    {
      "children": [
        14,
        24
      ],
      "name": "Spine3_12_12",
      "rotation": [
        -0.3266618251800537,
        9.259641942094277e-09,
        -1.2457268212529016e-06,
        0.9451413154602051
      ],
      "scale": [
        1.0,
        0.9999999403953552,
        1.0
      ],
      "translation": [
        -2.456006775730657e-08,
        0.5636861324310303,
        0.0070415884256362915
      ]
    },
    {
      "children": [
        15
      ],
      "name": "Neck1_10_10",
      "rotation": [
        0.045542117208242416,
        -3.5645122964389486e-10,
        1.738288375463526e-07,
        0.9989624619483948
      ],
      "translation": [
        1.4353709193448694e-13,
        0.20714986324310303,
        0.0
      ]
    },
    {
      "children": [
        16
      ],
      "name": "Neck2_9_9",
      "rotation": [
        -0.015619193203747272,
        4.831882005618127e-09,
        -5.969312155684747e-08,
        0.9998780488967896
      ],
      "translation": [
        2.489848062968425e-13,
        0.08436846733093262,
        -8.940696716308594e-08
      ]
    },
    {
      "children": [
        17
      ],
      "name": "Neck3_8_8",
      "rotation": [
        -0.1779976487159729,
        9.344159224156101e-09,
        -6.826963954154053e-07,
        0.9840309619903564
      ],
      "scale": [
        1.0,
        1.0,
        0.9999999403953552
      ],
      "translation": [
        5.124682145654647e-13,
        0.08873003721237183,
        -8.940696716308594e-08
      ]
    },
    {
      "children": [
        18,
        23
      ],
      "name": "Head_7_7",
      "rotation": [
        0.5652733445167542,
        -5.187470833334373e-06,
        -1.381319066240394e-06,
        0.824903666973114
      ],
      "scale": [
        1.0,
        1.0000001192092896,
        1.0
      ],
      "translation": [
        -1.622833811776303e-15,
        0.15441089868545532,
        -5.960464477539063e-08
      ]
    },
    {
      "children": [
        19
      ],
      "name": "BottomJaw_1_5",
      "rotation": [
        0.1755499541759491,
        6.003791895636823e-06,
        -8.909328812478634e-07,
        0.984470546245575
      ],
      "scale": [
        1.0,
        1.0,
        0.9999998807907104
      ],
      "translation": [
        3.222507416467124e-07,
        0.2780075669288635,
        0.03690385818481445
      ]
    },
    {
      "children": [
        20
      ],
      "name": "TongueBase_5_4",
      "rotation": [
        -0.07026016712188721,
        5.100883413433621e-07,
        1.4999235986579151e-07,
        0.9975287318229675
      ],
      "translation": [
        1.770397943801072e-07,
        0.2078189253807068,
        -0.1063300371170044
      ]
    },
    {
      "children": [
        21
      ],
      "name": "Tongue1_4_3",
      "rotation": [
        0.12199964374303818,
        -4.506947703930564e-08,
        5.308365302880702e-07,
        0.9925301671028137
      ],
      "translation": [
        -3.399604816406443e-13,
        0.06764119863510132,
        1.1920928955078125e-07
      ]
    },
    {
      "children": [
        22
      ],
      "name": "Tongue2_3_2",
      "rotation": [
        0.08679617941379547,
        -2.898696838116166e-09,
        3.734629103746556e-07,
        0.9962261319160461
      ],
      "scale": [
        1.0,
        0.9999999403953552,
        0.9999999403953552
      ],
      "translation": [
        3.905897144346887e-13,
        0.06554150581359863,
        5.960464477539063e-08
      ]
    },
    {
      "name": "Tongue3_2_1",
      "rotation": [
        0.02611527405679226,
        -3.106187973500596e-09,
        1.1221272444572605e-07,
        0.9996589422225952
      ],
      "scale": [
        1.0,
        0.9999999403953552,
        1.0
      ],
      "translation": [
        3.4684028652615106e-13,
        0.06012037396430969,
        0.0
      ]
    },
    {
      "name": "TopJaw_6_6",
      "rotation": [
        0.07318805903196335,
        6.101153303461615e-06,
        -8.57870077197731e-07,
        0.9973182082176208
      ],
      "scale": [
        1.0,
        0.9999999403953552,
        0.9999999403953552
      ],
      "translation": [
        -1.7665688574197702e-06,
        0.3117743134498596,
        -0.20230495929718018
      ]
    },
    {
      "name": "Throat_11_11",
      "rotation": [
        0.6693550944328308,
        8.416229518859453e-12,
        2.5549413749104133e-06,
        0.7429426908493042
      ],
      "translation": [
        6.166172173555085e-14,
        0.20714998245239258,
        -8.940696716308594e-08
      ]
    },
    {
      "name": "Stomach_25_14",
      "rotation": [
        0.6997320652008057,
        0.012573354877531528,
        -0.016284780576825142,
        0.7141090631484985
      ],
      "scale": [
        1.0,
        1.0000001192092896,
        1.0000001192092896
      ],
      "translation": [
        -5.817770709626302e-10,
        0.3286890387535095,
        -1.0803341865539551e-07
      ]
    },
    {
      "children": [
        27
      ],
      "name": "SpineTail_36_25",
      "rotation": [
        -0.7199265956878662,
        -6.02554308670733e-08,
        1.1047784909123948e-07,
        0.6940502524375916
      ],
      "translation": [
        -1.5359431391678835e-14,
        0.6759257316589355,
        -2.2351741790771484e-08
      ]
    },
    {
      "children": [
        28
      ],
      "name": "Tail1_35_24",
      "rotation": [
        0.07394248992204666,
        -1.1795747667520118e-07,
        -2.6512486428487136e-08,
        0.9972625374794006
      ],
      "scale": [
        1.0,
        0.9999999403953552,
        0.9999999403953552
      ],
      "translation": [
        -2.9152881823001076e-14,
        0.39924904704093933,
        -1.2665987014770508e-07
      ]
    },
    {
      "children": [
        29
      ],
      "name": "Tail2_34_23",
      "rotation": [
        0.03568858280777931,
        1.1546574540943766e-07,
        -1.2893982770378898e-08,
        0.9993630051612854
      ],
      "scale": [
        1.0,
        1.0,
        1.0000001192092896
      ],
      "translation": [
        7.916898473597778e-14,
        0.558502733707428,
        1.4901161193847656e-07
      ]
    },
    {
      "children": [
        30
      ],
      "name": "Tail3_33_22",
      "rotation": [
        0.03581828996539116,
        3.6672760383993364e-09,
        -8.671400486548464e-09,
        0.9993583559989929
      ],
      "scale": [
        1.0,
        1.0,
        0.9999999403953552
      ],
      "translation": [
        -1.8568480086855743e-14,
        0.2695315182209015,
        1.862645149230957e-08
      ]
    },
    {
      "children": [
        31
      ],
      "name": "Tail4_32_21",
      "rotation": [
        -0.0023045740090310574,
        -3.725118213893097e-09,
        5.579695039337196e-10,
        0.9999973773956299
      ],
      "scale": [
        1.0,
        0.9999999403953552,
        1.0
      ],
      "translation": [
        8.976313073914832e-16,
        0.3253248333930969,
        -1.043081283569336e-07
      ]
    },
    {
      "children": [
        32
      ],
      "name": "Tail5_31_20",
      "rotation": [
        -0.012964753434062004,
        -2.8544324564595824e-13,
        3.1876490336202323e-09,
        0.9999159574508667
      ],
      "translation": [
        3.679616832584498e-14,
        0.2908409833908081,
        -5.587935447692871e-08
      ]
    },
    {
      "children": [
        33
      ],
      "name": "Tail6_30_19",
      "rotation": [
        -0.04108646139502525,
        -1.0388486515466866e-08,
        1.052928144673615e-08,
        0.999155580997467
      ],
      "translation": [
        3.1920551813759135e-14,
        0.28430619835853577,
        -3.67872416973114e-08
      ]
    },
    {
      "children": [
        34
      ],
      "name": "Tail7_29_18",
      "rotation": [
        0.05961299315094948,
        1.408327143792576e-08,
        -1.5055681146236566e-08,
        0.9982216358184814
      ],
      "translation": [
        -5.6472716585508065e-14,
        0.30782121419906616,
        -1.9371509552001953e-07
      ]
    },
    {
      "children": [
        35
      ],
      "name": "Tail8_28_17",
      "rotation": [
        0.00026710331439971924,
        1.4523598469706744e-11,
        -6.36895258754322e-11,
        1.0
      ],
      "scale": [
        1.0,
        1.0,
        0.9999999403953552
      ],
      "translation": [
        7.669622451239935e-15,
        0.2921808362007141,
        -5.960464477539063e-08
      ]
    },
    {
      "name": "Tail9_27_16",
      "rotation": [
        -0.03368297219276428,
        -4.912749758867116e-14,
        8.030644593759462e-09,
        0.9994326829910278
      ],
      "scale": [
        1.0,
        0.9999999403953552,
        1.0
      ],
      "translation": [
        -1.9028139456342234e-14,
        0.2681097090244293,
        1.4901161193847656e-08
      ]
    },
    {
      "children": [
        37
      ],
      "name": "Hip.L_48_37",
      "rotation": [
        -0.24768581986427307,
        0.101747065782547,
        -0.9415331482887268,
        0.2044861763715744
      ],
      "scale": [
        1.0000001192092896,
        1.0,
        1.0
      ],
      "translation": [
        3.096653244938352e-08,
        0.6759259700775146,
        5.215406062575312e-08
      ]
    },
    {
      "children": [
        38
      ],
      "name": "Hip.L.001_47_36",
      "rotation": [
        0.6662044525146484,
        -0.011105175130069256,
        0.6776586771011353,
        0.3111705780029297
      ],
      "translation": [
        2.2351741790771484e-08,
        0.5122371912002563,
        7.450580596923828e-09
      ]
    },
    {
      "children": [
        39
      ],
      "name": "UpperLeg.L_46_35",
      "rotation": [
        -0.5476722717285156,
        -0.1681259125471115,
        -0.7969311475753784,
        0.1915452629327774
      ],
      "scale": [
        0.9999985098838806,
        0.9999995827674866,
        0.9999998211860657
      ],
      "translation": [
        -2.2351741790771484e-08,
        0.44887301325798035,
        -1.862645149230957e-08
      ]
    },
    {
      "children": [
        40
      ],
      "name": "LowerLeg.L_45_34",
      "rotation": [
        -0.4524156153202057,
        -0.007963556796312332,
        0.14810214936733246,
        0.8793876767158508
      ],
      "scale": [
        1.0,
        0.9999999403953552,
        1.0
      ],
      "translation": [
        2.0489096641540527e-08,
        0.6109628677368164,
        3.725290298461914e-08
      ]
    },
    {
      "children": [
        41
      ],
      "name": "Ankle.L_44_33",
      "rotation": [
        0.34059643745422363,
        0.001087312470190227,
        -0.10101082921028137,
        0.9347671866416931
      ],
      "scale": [
        1.0,
        0.9999998807907104,
        1.0
      ],
      "translation": [
        -5.587935447692871e-08,
        0.4630054235458374,
        0.0
      ]
    },
    {
      "children": [
        42,
        44,
        46
      ],
      "name": "Foot.L_43_32",
      "rotation": [
        0.7751791477203369,
        0.1292658895254135,
        -0.022637205198407173,
        0.6179605722427368
      ],
      "scale": [
        1.0000001192092896,
        0.9999999403953552,
        1.0
      ],
      "translation": [
        -4.97384462505579e-08,
        0.25058093667030334,
        -1.6763806343078613e-08
      ]
    },
    {
      "children": [
        43
      ],
      "name": "ToeM1.L_38_27",
      "rotation": [
        -0.43357762694358826,
        -0.19486169517040253,
        0.008632906712591648,
        0.8797527551651001
      ],
      "scale": [
        0.9999999403953552,
        0.9999999403953552,
        1.0
      ],
      "translation": [
        -0.0015109870582818985,
        0.10400330275297165,
        0.040439143776893616
      ]
    },
    {
      "name": "ToeM2.L_37_26",
      "rotation": [
        0.10902421921491623,
        -0.006675517186522484,
        -0.005013791378587484,
        0.9940040707588196
      ],
      "scale": [
        0.9999999403953552,
        1.0000001192092896,
        1.0
      ],
      "translation": [
        -2.3283064365386963e-09,
        0.18159356713294983,
        -7.450580596923828e-09
      ]
    },
    {
      "children": [
        45
      ],
      "name": "ToeF1.L_40_29",
      "rotation": [
        -0.4470982253551483,
        -0.27651748061180115,
        -0.13613258302211761,
        0.8397078514099121
      ],
      "scale": [
        0.9999999403953552,
        1.0,
        1.0
      ],
      "translation": [
        0.05835180729627609,
        0.12420113384723663,
        -0.010687315836548805
      ]
    },
    {
      "name": "ToeF2.L_39_28",
      "rotation": [
        0.09664042294025421,
        0.04659333825111389,
        0.013326114974915981,
        0.9941388964653015
      ],
      "scale": [
        0.9999998211860657,
        0.9999999403953552,
        1.0000001192092896
      ],
      "translation": [
        1.4551915228366852e-08,
        0.12846669554710388,
        3.725290298461914e-09
      ]
    },
    {
      "children": [
        47
      ],
      "name": "ToeP1.L_42_31",
      "rotation": [
        -0.43351173400878906,
        -0.08558257669210434,
        0.17447590827941895,
        0.8799439668655396
      ],
      "scale": [
        1.0,
        0.9999998807907104,
        0.9999999403953552
      ],
      "translation": [
        -0.056840866804122925,
        0.12283097952604294,
        -0.029751798138022423
      ]
    },
    {
      "name": "ToeP2.L_41_30",
      "rotation": [
        0.06839349120855331,
        -0.0618942454457283,
        -0.06515217572450638,
        0.9936028718948364
      ],
      "scale": [
        1.0,
        1.0000001192092896,
        1.0
      ],
      "translation": [
        -3.3760443329811096e-09,
        0.13243205845355988,
        -1.5832483768463135e-08
      ]
    },
    {
      "children": [
        49
      ],
      "name": "Hip.R_60_49",
      "rotation": [
        -0.2476857602596283,
        -0.10174701362848282,
        0.9415332078933716,
        0.2044862061738968
      ],
      "scale": [
        0.9999998807907104,
        0.9999999403953552,
        0.9999999403953552
      ],
      "translation": [
        -3.096655731837927e-08,
        0.6759259700775146,
        5.2154067731180476e-08
      ]
    },
    {
      "children": [
        50
      ],
      "name": "Hip.R.001_59_48",
      "rotation": [
        0.6662043929100037,
        0.011105088517069817,
        -0.6776586174964905,
        0.3111705780029297
      ],
      "scale": [
        1.000000238418579,
        1.0000001192092896,
        1.000000238418579
      ],
      "translation": [
        -5.960464477539063e-08,
        0.5122371315956116,
        7.450580596923828e-09
      ]
    },
    {
      "children": [
        51
      ],
      "name": "UpperLeg.R_58_47",
      "rotation": [
        -0.5476723313331604,
        0.1681259274482727,
        0.7969311475753784,
        0.1915450096130371
      ],
      "scale": [
        0.9999998211860657,
        0.9999999403953552,
        0.9999999403953552
      ],
      "translation": [
        -7.450580596923828e-09,
        0.44887322187423706,
        -4.0978193283081055e-08
      ]
    },
    {
      "children": [
        52
      ],
      "name": "LowerLeg.R_57_46",
      "rotation": [
        -0.4524156153202057,
        0.007963567040860653,
        -0.1481020450592041,
        0.8793875575065613
      ],
      "scale": [
        1.0,
        1.0000001192092896,
        1.0
      ],
      "translation": [
        -1.862645149230957e-09,
        0.6109628081321716,
        -2.9802322387695313e-08
      ]
    },
    {
      "children": [
        53
      ],
      "name": "Ankle.R_56_45",
      "rotation": [
        0.340596467256546,
        -0.0010873522842302918,
        0.1010107547044754,
        0.9347671866416931
      ],
      "scale": [
        1.0,
        0.9999998807907104,
        1.0000001192092896
      ],
      "translation": [
        1.862645149230957e-08,
        0.4630052149295807,
        4.470348358154297e-08
      ]
    },
    {
      "children": [
        54,
        56,
        58
      ],
      "name": "Foot.R_55_44",
      "rotation": [
        0.7751791477203369,
        -0.1292659044265747,
        0.02263711765408516,
        0.6179605722427368
      ],
      "scale": [
        1.0,
        0.9999999403953552,
        1.0
      ],
      "translation": [
        -1.4260876923799515e-08,
        0.2505808174610138,
        2.9103830456733704e-08
      ]
    },
    {
      "children": [
        55
      ],
      "name": "ToeM1.R_50_39",
      "rotation": [
        -0.4335775375366211,
        0.19486179947853088,
        -0.008632936514914036,
        0.8797527551651001
      ],
      "scale": [
        1.0,
        0.9999998807907104,
        0.9999999403953552
      ],
      "translation": [
        0.0015109647065401077,
        0.10400325804948807,
        0.04043913632631302
      ]
    },
    {
      "name": "ToeM2.R_49_38",
      "rotation": [
        0.10902433842420578,
        0.00667537609115243,
        0.0050138323567807674,
        0.9940041303634644
      ],
      "scale": [
        0.9999998807907104,
        0.9999999403953552,
        0.9999999403953552
      ],
      "translation": [
        1.5832483768463135e-08,
        0.18159350752830505,
        1.6763806343078613e-08
      ]
    },
    {
      "children": [
        57
      ],
      "name": "ToeF1.R_52_41",
      "rotation": [
        -0.4470982551574707,
        0.27651748061180115,
        0.13613247871398926,
        0.8397078514099121
      ],
      "scale": [
        0.9999999403953552,
        0.9999999403953552,
        0.9999999403953552
      ],
      "translation": [
        -0.05835181102156639,
        0.12420107424259186,
        -0.010687354020774364
      ]
    },
    {
      "name": "ToeF2.R_51_40",
      "rotation": [
        0.09664037823677063,
        -0.04659333452582359,
        -0.013326098211109638,
        0.9941388964653015
      ],
      "scale": [
        0.9999998211860657,
        0.9999999403953552,
        1.0000001192092896
      ],
      "translation": [
        -1.6429112292826176e-08,
        0.1284666657447815,
        4.6566128730773926e-09
      ]
    },
    {
      "children": [
        59
      ],
      "name": "ToeP1.R_54_43",
      "rotation": [
        -0.4335116147994995,
        0.08558263629674911,
        -0.17447586357593536,
        0.8799441456794739
      ],
      "scale": [
        1.0,
        0.9999997615814209,
        0.9999999403953552
      ],
      "translation": [
        0.056840818375349045,
        0.12283097952604294,
        -0.029751736670732498
      ]
    },
    {
      "name": "ToeP2.R_53_42",
      "rotation": [
        0.06839343160390854,
        0.061894241720438004,
        0.06515216827392578,
        0.9936028718948364
      ],
      "scale": [
        1.0,
        1.0000001192092896,
        1.0
      ],
      "translation": [
        1.280568540096283e-09,
        0.1324319690465927,
        -5.122274160385132e-09
      ]
    }
  ],
  "samplers": [
    {
      "magFilter": 9729,
      "minFilter": 9987,
      "wrapS": 10497,
      "wrapT": 10497
    }
  ],
  "scene": 0,
  "scenes": [
    {
      "name": "Sketchfab_Scene",
      "nodes": [
        0
      ]
    }
  ],
  "skins": [
    {
      "inverseBindMatrices": 13,
      "joints": [
        5,
        8,
        9,
        10,
        11,
        12,
        13,
        14,
        15,
        16,
        17,
        18,
        19,
        20,
        21,
        22,
        23,
        24,
        25,
        26,
        27,
        28,
        29,
        30,
        31,
        32,
        33,
        34,
        35,
        36,
        37,
        38,
        39,
        40,
        41,
        42,
        43,
        44,
        45,
        46,
        47,
        48,
        49,
        50,
        51,
        52,
        53,
        54,
        55,
        56,
        57,
        58,
        59
      ],
      "skeleton": 5
    }
  ],
  "textures": [
    {
      "sampler": 0,
      "source": 0
    }
  ]
}
