{
  "accessors": [
    {
      "bufferView": 3,
      "componentType": 5126,
      "count": 2323,
      "max": [
        0.5964360237121582,
        1.7463610172271729,
        0.45638519525527954
      ],
      "min": [
        -0.5961779952049255,
        0.0028539991471916437,
        -0.4722498059272766
      ],
      "type": "VEC3"
    },
    {
      "bufferView": 3,
      "byteOffset": 27876,
      "componentType": 5126,
      "count": 2323,
      "max": [
        0.9995659589767456,
        0.999994158744812,
        0.9994405508041382
      ],
      "min": [
        -0.9997824430465698,
        -0.9999591112136841,
        -0.9994759559631348
      ],
      "type": "VEC3"
    },
    {
      "bufferView": 2,
      "componentType": 5126,
      "count": 2323,
      "max": [
        0.9983540177345276,
        0.9917029738426208
      ],
      "min": [
        0.00322599895298481,
        0.004646002780646086
      ],
      "type": "VEC2"
    },
    {
      "bufferView": 1,
      "componentType": 5125,
      "count": 10068,
      "type": "SCALAR"
    },
    {
      "bufferView": 5,
      "componentType": 5126,
      "count": 58,
      "max": [
        100.0,
        98.39134979248047,
        91.2930908203125,
        0.0,
        60.66448211669922,
        100.0,
        99.26288604736328,
        0.0,
        99.9895248413086,
        99.95396423339844,
        100.0,
        0.0,
        18.968828201293945,
        59.44591522216797,
        88.13143920898438,
        1.0
      ],
      "min": [
        -99.94438171386719,
        -98.39134979248047,
        -91.5285873413086,
        0.0,
        -58.94949722290039,
        -99.67095184326172,
        -97.90631866455078,
        0.0,
        -99.98515319824219,
        -35.7857666015625,
        -55.350494384765625,
        0.0,
        -18.591703414916992,
        -95.68138885498047,
        -17.59125518798828,
        1.0
      ],
      "type": "MAT4"
    },
    {
      "bufferView": 0,
      "componentType": 5123,
      "count": 2323,
      "type": "VEC4"
    },
    {
      "bufferView": 4,
      "componentType": 5126,
      "count": 2323,
      "max": [
        1.0,
        0.49747881293296814,
        0.30871281027793884,
        0.19323627650737762
      ],
      "min": [
        0.3196452856063843,
        0.0,
        0.0,
        0.0
      ],
      "type": "VEC4"
    },
    {
      "bufferView": 6,
      "componentType": 5126,
      "count": 432,
      "max": [
        15.199999809265137
      ],
      "min": [
        0.0
      ],
      "type": "SCALAR"
    },
    {
      "bufferView": 7,
      "componentType": 5126,
      "count": 432,
      "max": [
        5.3290705182007514e-15,
        5.776283264160156,
        -0.5172885656356812
      ],
      "min": [
        -5.3290705182007514e-15,
        5.776283264160156,
        -0.5172885656356812
      ],
      "type": "VEC3"
    },
    {
      "bufferView": 6,
      "byteOffset": 1728,
      "componentType": 5126,
      "count": 457,
      "max": [
        15.199999809265137
      ],
      "min": [
        0.0
      ],
      "type": "SCALAR"
    },
    {
      "bufferView": 8,
      "componentType": 5126,
      "count": 457,
      "max": [
        0.20214435458183289,
        0.2720315754413605,
        0.3151736557483673,
        0.9997947216033936
      ],
      "min": [
        -0.4544014036655426,
        -0.6020824909210205,
        -0.08236587047576904,
        0.7446910738945007
      ],
      "type": "VEC4"
    },
    {
      "bufferView": 6,
      "byteOffset": 3556,
      "componentType": 5126,
      "count": 452,
      "max": [
        15.199999809265137
      ],
      "min": [
        0.0
      ],
      "type": "SCALAR"
    },
    {
      "bufferView": 7,
      "byteOffset": 5184,
      "componentType": 5126,
      "count": 452,
      "max": [
        5.3290705182007514e-15,
        9.920601844787598,
        1.1844498715163354e-07
      ],
      "min": [
        -3.552713678800501e-15,
        9.920601844787598,
        1.1844496583535147e-07
      ],
      "type": "VEC3"
    },
    {
      "bufferView": 6,
      "byteOffset": 5364,
      "componentType": 5126,
      "count": 457,
      "max": [
        15.199999809265137
      ],
      "min": [
        0.0
      ],
      "type": "SCALAR"
    },
    {
      "bufferView": 8,
      "byteOffset": 7312,
      "componentType": 5126,
      "count": 457,
      "max": [
        0.1235661655664444,
        0.06070868298411369,
        0.1201244667172432,
        0.9999917149543762
      ],
      "min": [
        -0.11835026741027832,
        -0.14364497363567352,
        -0.040429916232824326,
        0.9864934086799622
      ],
      "type": "VEC4"
    },
    {
      "bufferView": 6,
      "byteOffset": 7192,
      "componentType": 5126,
      "count": 311,
      "max": [
        15.199999809265137
      ],
      "min": [
        0.0
      ],
      "type": "SCALAR"
    },
    {
      "bufferView": 7,
      "byteOffset": 10608,
      "componentType": 5126,
      "count": 311,
      "max": [
        -1.1975231170654297,
        6.732936382293701,
        -1.2376240476896783e-07
      ],
      "min": [
        -1.1975231170654297,
        6.732936382293701,
        -1.2376244740153197e-07
      ],
      "type": "VEC3"
    },
    {
      "bufferView": 6,
      "byteOffset": 8436,
      "componentType": 5126,
      "count": 457,
      "max": [
        15.199999809265137
      ],
      "min": [
        0.0
      ],
      "type": "SCALAR"
    },
    {
      "bufferView": 8,
      "byteOffset": 14624,
      "componentType": 5126,
      "count": 457,
      "max": [
        -0.14182645082473755,
        0.006016637664288282,
        0.3056327700614929,
        0.9648303389549255
      ],
      "min": [
        -0.1620304137468338,
        -0.009822120890021324,
        0.22124971449375153,
        0.9382103085517883
      ],
      "type": "VEC4"
    },
    {
      "bufferView": 6,
      "byteOffset": 10264,
      "componentType": 5126,
      "count": 8,
      "max": [
        15.199999809265137
      ],
      "min": [
        0.0
      ],
      "type": "SCALAR"
    },
    {
      "bufferView": 7,
      "byteOffset": 14340,
      "componentType": 5126,
      "count": 8,
      "max": [
        -0.0025479127652943134,
        4.917226314544678,
        2.8106705940444954e-07
      ],
      "min": [
        -0.0025479127652943134,
        4.917226314544678,
        2.810670309827401e-07
      ],
      "type": "VEC3"
    },
    {
      "bufferView": 6,
      "byteOffset": 10296,
      "componentType": 5126,
      "count": 457,
      "max": [
        15.199999809265137
      ],
      "min": [
        0.0
      ],
      "type": "SCALAR"
    },
    {
      "bufferView": 8,
      "byteOffset": 21936,
      "componentType": 5126,
      "count": 457,
      "max": [
        0.04851958528161049,
        0.005504624918103218,
        -0.08502162247896194,
        0.9962548613548279
      ],
      "min": [
        0.008556053973734379,
        -0.034806858748197556,
        -0.23536799848079681,
        0.9706788659095764
      ],
      "type": "VEC4"
    },
    {
      "bufferView": 6,
      "byteOffset": 12124,
      "componentType": 5126,
      "count": 457,
      "max": [
        15.199999809265137
      ],
      "min": [
        0.0
      ],
      "type": "SCALAR"
    },
    {
      "bufferView": 8,
      "byteOffset": 29248,
      "componentType": 5126,
      "count": 457,
      "max": [
        0.13558641076087952,
        0.30326443910598755,
        0.4449038803577423,
        0.9610534310340881
      ],
      "min": [
        -0.06925186514854431,
        0.21227598190307617,
        0.08799182623624802,
        0.8411363363265991
      ],
      "type": "VEC4"
    },
    {
      "bufferView": 6,
      "byteOffset": 13952,
      "componentType": 5126,
      "count": 214,
      "max": [
        15.199999809265137
      ],
      "min": [
        0.0
      ],
      "type": "SCALAR"
    },
    {
      "bufferView": 7,
      "byteOffset": 14436,
      "componentType": 5126,
      "count": 214,
      "max": [
        0.024241480976343155,
        5.402369022369385,
        -6.657093365447508e-08
      ],
      "min": [
        0.024241480976343155,
        5.402369022369385,
        -6.657097628703923e-08
      ],
      "type": "VEC3"
    },
    {
      "bufferView": 6,
      "byteOffset": 14808,
      "componentType": 5126,
      "count": 457,
      "max": [
        15.199999809265137
      ],
      "min": [
        0.0
      ],
      "type": "SCALAR"
    },
    {
      "bufferView": 8,
      "byteOffset": 36560,
      "componentType": 5126,
      "count": 457,
      "max": [
        0.7675541639328003,
        0.0003262492537032813,
        0.0018442173022776842,
        0.9992808103561401
      ],
      "min": [
        0.0378732830286026,
        -0.007473453413695097,
        -0.07742270082235336,
        0.6362471580505371
      ],
      "type": "VEC4"
    },
    {
      "bufferView": 6,
      "byteOffset": 16636,
      "componentType": 5126,
      "count": 407,
      "max": [
        15.199999809265137
      ],
      "min": [
        0.0
      ],
      "type": "SCALAR"
    },
    {
      "bufferView": 7,
      "byteOffset": 17004,
      "componentType": 5126,
      "count": 407,
      "max": [
        -0.0737135261297226,
        5.721346378326416,
        1.0082970902658417e-08
      ],
      "min": [
        -0.0737135261297226,
        5.721346378326416,
        1.0082942480948986e-08
      ],
      "type": "VEC3"
    },
    {
      "bufferView": 6,
      "byteOffset": 18264,
      "componentType": 5126,
      "count": 457,
      "max": [
        15.199999809265137
      ],
      "min": [
        0.0
      ],
      "type": "SCALAR"
    },
    {
      "bufferView": 8,
      "byteOffset": 43872,
      "componentType": 5126,
      "count": 457,
      "max": [
        0.7611651420593262,
        0.0029887091368436813,
        0.0057044620625674725,
        0.9995912909507751
      ],
      "min": [
        0.028011562302708626,
        -0.00020690009114332497,
        -0.07517974823713303,
        0.644179105758667
      ],
      "type": "VEC4"
    },
    {
      "bufferView": 6,
      "byteOffset": 20092,
      "componentType": 5126,
      "count": 457,
      "max": [
        15.199999809265137
      ],
      "min": [
        0.0
      ],
      "type": "SCALAR"
    },
    {
      "bufferView": 8,
      "byteOffset": 51184,
      "componentType": 5126,
      "count": 457,
      "max": [
        0.5748106837272644,
        0.09109204262495041,
        0.24318557977676392,
        0.9994453191757202
      ],
      "min": [
        -0.2149064689874649,
        0.028219811618328094,
        -0.0765005499124527,
        0.814368486404419
      ],
      "type": "VEC4"
    },
    {
      "bufferView": 6,
      "byteOffset": 21920,
      "componentType": 5126,
      "count": 101,
      "max": [
        15.199999809265137
      ],
      "min": [
        0.0
      ],
      "type": "SCALAR"
    },
    {
      "bufferView": 7,
      "byteOffset": 21888,
      "componentType": 5126,
      "count": 101,
      "max": [
        -0.00581081910058856,
        6.234376907348633,
        -3.1630031571694417e-07
      ],
      "min": [
        -0.00581081910058856,
        6.234376907348633,
        -3.1630037256036303e-07
      ],
      "type": "VEC3"
    },
    {
      "bufferView": 6,
      "byteOffset": 22324,
      "componentType": 5126,
      "count": 457,
      "max": [
        15.199999809265137
      ],
      "min": [
        0.0
      ],
      "type": "SCALAR"
    },
    {
      "bufferView": 8,
      "byteOffset": 58496,
      "componentType": 5126,
      "count": 457,
      "max": [
        0.8062245845794678,
        0.0001886034879134968,
        -0.00755643006414175,
        0.9951830506324768
      ],
      "min": [
        0.09774218499660492,
        -0.001388370874337852,
        -0.08468636125326157,
        0.5855153203010559
      ],
      "type": "VEC4"
    },
    {
      "bufferView": 6,
      "byteOffset": 24152,
      "componentType": 5126,
      "count": 388,
      "max": [
        15.199999809265137
      ],
      "min": [
        0.0
      ],
      "type": "SCALAR"
    },
    {
      "bufferView": 7,
      "byteOffset": 23100,
      "componentType": 5126,
      "count": 388,
      "max": [
        -0.011314290575683117,
        5.904048919677734,
        1.1188589610355848e-08
      ],
      "min": [
        -0.011314290575683117,
        5.904048919677734,
        1.1188546977791702e-08
      ],
      "type": "VEC3"
    },
    {
      "bufferView": 6,
      "byteOffset": 25704,
      "componentType": 5126,
      "count": 457,
      "max": [
        15.199999809265137
      ],
      "min": [
        0.0
      ],
      "type": "SCALAR"
    },
    {
      "bufferView": 8,
      "byteOffset": 65808,
      "componentType": 5126,
      "count": 457,
      "max": [
        0.7756256461143494,
        0.0010169768938794732,
        -0.0027447075117379427,
        0.9995422959327698
      ],
      "min": [
        0.030127087607979774,
        -9.456020052311942e-05,
        -0.08301112800836563,
        0.6257099509239197
      ],
      "type": "VEC4"
    },
    {
      "bufferView": 6,
      "byteOffset": 27532,
      "componentType": 5126,
      "count": 457,
      "max": [
        15.199999809265137
      ],
      "min": [
        0.0
      ],
      "type": "SCALAR"
    },
    {
      "bufferView": 8,
      "byteOffset": 73120,
      "componentType": 5126,
      "count": 457,
      "max": [
        0.6186608672142029,
        0.02768058516085148,
        0.2237643301486969,
        0.9999725222587585
      ],
      "min": [
        -0.1173132061958313,
        -0.009760821238160133,
        -0.07685592770576477,
        0.7818443179130554
      ],
      "type": "VEC4"
    },
    {
      "bufferView": 6,
      "byteOffset": 29360,
      "componentType": 5126,
      "count": 101,
      "max": [
        15.199999809265137
      ],
      "min": [
        0.0
      ],
      "type": "SCALAR"
    },
    {
      "bufferView": 7,
      "byteOffset": 27756,
      "componentType": 5126,
      "count": 101,
      "max": [
        -0.0020147114992141724,
        5.080672264099121,
        3.7780114325869363e-07
      ],
      "min": [
        -0.0020147114992141724,
        5.080672264099121,
        3.7780108641527477e-07
      ],
      "type": "VEC3"
    },
    {
      "bufferView": 6,
      "byteOffset": 29764,
      "componentType": 5126,
      "count": 457,
      "max": [
        15.199999809265137
      ],
      "min": [
        0.0
      ],
      "type": "SCALAR"
    },
    {
      "bufferView": 8,
      "byteOffset": 80432,
      "componentType": 5126,
      "count": 457,
      "max": [
        0.8304154872894287,
        0.0030819782987236977,
        -0.015392395667731762,
        0.992221474647522
      ],
      "min": [
        0.1235286220908165,
        0.0005700483452528715,
        -0.08367010205984116,
        0.5508175492286682
      ],
      "type": "VEC4"
    },
    {
      "bufferView": 6,
      "byteOffset": 31592,
      "componentType": 5126,
      "count": 207,
      "max": [
        15.199999809265137
      ],
      "min": [
        0.0
      ],
      "type": "SCALAR"
    },
    {
      "bufferView": 7,
      "byteOffset": 28968,
      "componentType": 5126,
      "count": 207,
      "max": [
        0.02139315940439701,
        5.276926517486572,
        2.1541455907936324e-07
      ],
      "min": [
        0.02139315940439701,
        5.276926517486572,
        2.1541453065765381e-07
      ],
      "type": "VEC3"
    },
    {
      "bufferView": 6,
      "byteOffset": 32420,
      "componentType": 5126,
      "count": 457,
      "max": [
        15.199999809265137
      ],
      "min": [
        0.0
      ],
      "type": "SCALAR"
    },
    {
      "bufferView": 8,
      "byteOffset": 87744,
      "componentType": 5126,
      "count": 457,
      "max": [
        0.7676483988761902,
        8.713976421859115e-05,
        -0.004891743417829275,
        0.9996238946914673
      ],
      "min": [
        0.02698439173400402,
        -0.0013184669660404325,
        -0.0773133710026741,
        0.6361892819404602
      ],
      "type": "VEC4"
    },
    {
      "bufferView": 6,
      "byteOffset": 34248,
      "componentType": 5126,
      "count": 457,
      "max": [
        15.199999809265137
      ],
      "min": [
        0.0
      ],
      "type": "SCALAR"
    },
    {
      "bufferView": 8,
      "byteOffset": 95056,
      "componentType": 5126,
      "count": 457,
      "max": [
        0.7128422856330872,
        0.02381737343966961,
        0.1921955794095993,
        0.999026358127594
      ],
      "min": [
        -0.07729880511760712,
        -0.018913758918642998,
        -0.07082270085811615,
        0.6974828243255615
      ],
      "type": "VEC4"
    },
    {
      "bufferView": 6,
      "byteOffset": 36076,
      "componentType": 5126,
      "count": 430,
      "max": [
        15.199999809265137
      ],
      "min": [
        0.0
      ],
      "type": "SCALAR"
    },
    {
      "bufferView": 7,
      "byteOffset": 31452,
      "componentType": 5126,
      "count": 430,
      "max": [
        1.1572183211683296e-07,
        13.844375610351563,
        2.6406425490677066e-07
      ],
      "min": [
        1.1572180369512353e-07,
        13.844375610351563,
        2.640642264850612e-07
      ],
      "type": "VEC3"
    },
    {
      "bufferView": 6,
      "byteOffset": 37796,
      "componentType": 5126,
      "count": 457,
      "max": [
        15.199999809265137
      ],
      "min": [
        0.0
      ],
      "type": "SCALAR"
    },
    {
      "bufferView": 8,
      "byteOffset": 102368,
      "componentType": 5126,
      "count": 457,
      "max": [
        0.20435303449630737,
        0.4328139126300812,
        0.5251690745353699,
        0.9978728890419006
      ],
      "min": [
        -0.46175432205200195,
        -0.37183642387390137,
        -0.26813703775405884,
        0.7882029414176941
      ],
      "type": "VEC4"
    },
    {
      "bufferView": 6,
      "byteOffset": 39624,
      "componentType": 5126,
      "count": 437,
      "max": [
        15.199999809265137
      ],
      "min": [
        0.0
      ],
      "type": "SCALAR"
    },
    {
      "bufferView": 7,
      "byteOffset": 36612,
      "componentType": 5126,
      "count": 437,
      "max": [
        -2.5704949280225264e-08,
        13.006258964538574,
        -1.870814401172538e-07
      ],
      "min": [
        -2.5704977701934695e-08,
        13.006258964538574,
        -1.8708146853896324e-07
      ],
      "type": "VEC3"
    },
    {
      "bufferView": 6,
      "byteOffset": 41372,
      "componentType": 5126,
      "count": 457,
      "max": [
        15.199999809265137
      ],
      "min": [
        0.0
      ],
      "type": "SCALAR"
    },
    {
      "bufferView": 8,
      "byteOffset": 109680,
      "componentType": 5126,
      "count": 457,
      "max": [
        -0.021286576986312866,
        -0.0027756085619330406,
        0.9409909248352051,
        0.9641138911247253
      ],
      "min": [
        -0.07572603970766068,
        -0.008113631047308445,
        0.26450979709625244,
        0.32983919978141785
      ],
      "type": "VEC4"
    },
    {
      "bufferView": 6,
      "byteOffset": 43200,
      "componentType": 5126,
      "count": 457,
      "max": [
        15.199999809265137
      ],
      "min": [
        0.0
      ],
      "type": "SCALAR"
    },
    {
      "bufferView": 7,
      "byteOffset": 41856,
      "componentType": 5126,
      "count": 457,
      "max": [
        -7.978897542670893e-10,
        12.072032928466797,
        1.781597802619217e-08
      ],
      "min": [
        -7.979181759765197e-10,
        12.072032928466797,
        1.781592118277331e-08
      ],
      "type": "VEC3"
    },
    {
      "bufferView": 6,
      "byteOffset": 45028,
      "componentType": 5126,
      "count": 457,
      "max": [
        15.199999809265137
      ],
      "min": [
        0.0
      ],
      "type": "SCALAR"
    },
    {
      "bufferView": 8,
      "byteOffset": 116992,
      "componentType": 5126,
      "count": 457,
      "max": [
        0.6274461150169373,
        0.7010722756385803,
        0.4964749813079834,
        0.9806577563285828
      ],
      "min": [
        -0.2537786066532135,
        -0.31100502610206604,
        -0.2423144280910492,
        0.5578470230102539
      ],
      "type": "VEC4"
    },
    {
      "bufferView": 6,
      "byteOffset": 46856,
      "componentType": 5126,
      "count": 457,
      "max": [
        15.199999809265137
      ],
      "min": [
        0.0
      ],
      "type": "SCALAR"
    },
    {
      "bufferView": 8,
      "byteOffset": 124304,
      "componentType": 5126,
      "count": 457,
      "max": [
        0.5832511186599731,
        0.6557303071022034,
        0.6995296478271484,
        0.5065876245498657
      ],
      "min": [
        -0.5772272944450378,
        -0.6141411066055298,
        -0.6221358776092529,
        -0.48050636053085327
      ],
      "type": "VEC4"
    },
    {
      "bufferView": 6,
      "byteOffset": 48684,
      "componentType": 5126,
      "count": 326,
      "max": [
        15.199999809265137
      ],
      "min": [
        0.0
      ],
      "type": "SCALAR"
    },
    {
      "bufferView": 7,
      "byteOffset": 47340,
      "componentType": 5126,
      "count": 326,
      "max": [
        1.1745524406433105,
        6.961111068725586,
        -2.7611554287432227e-07
      ],
      "min": [
        1.1745524406433105,
        6.961111068725586,
        -2.7611559971774113e-07
      ],
      "type": "VEC3"
    },
    {
      "bufferView": 6,
      "byteOffset": 49988,
      "componentType": 5126,
      "count": 457,
      "max": [
        15.199999809265137
      ],
      "min": [
        0.0
      ],
      "type": "SCALAR"
    },
    {
      "bufferView": 8,
      "byteOffset": 131616,
      "componentType": 5126,
      "count": 457,
      "max": [
        -0.06738708168268204,
        0.022253893315792084,
        0.10873381793498993,
        0.9953330755233765
      ],
      "min": [
        -0.15672184526920319,
        -0.044706620275974274,
        -0.2728796601295471,
        0.9489361047744751
      ],
      "type": "VEC4"
    },
    {
      "bufferView": 6,
      "byteOffset": 51816,
      "componentType": 5126,
      "count": 338,
      "max": [
        15.199999809265137
      ],
      "min": [
        0.0
      ],
      "type": "SCALAR"
    },
    {
      "bufferView": 7,
      "byteOffset": 51252,
      "componentType": 5126,
      "count": 338,
      "max": [
        -0.19176678359508514,
        5.037045001983643,
        -1.4630761313583207e-07
      ],
      "min": [
        -0.19176678359508514,
        5.037045001983643,
        -1.4630766997925093e-07
      ],
      "type": "VEC3"
    },
    {
      "bufferView": 6,
      "byteOffset": 53168,
      "componentType": 5126,
      "count": 457,
      "max": [
        15.199999809265137
      ],
      "min": [
        0.0
      ],
      "type": "SCALAR"
    },
    {
      "bufferView": 8,
      "byteOffset": 138928,
      "componentType": 5126,
      "count": 457,
      "max": [
        0.03381941467523575,
        0.02822612226009369,
        0.21161317825317383,
        0.9947584867477417
      ],
      "min": [
        0.002036101883277297,
        -0.001075532753020525,
        0.10178028047084808,
        0.9768593907356262
      ],
      "type": "VEC4"
    },
    {
      "bufferView": 6,
      "byteOffset": 54996,
      "componentType": 5126,
      "count": 457,
      "max": [
        15.199999809265137
      ],
      "min": [
        0.0
      ],
      "type": "SCALAR"
    },
    {
      "bufferView": 8,
      "byteOffset": 146240,
      "componentType": 5126,
      "count": 457,
      "max": [
        0.2606329619884491,
        -0.172820046544075,
        -0.12506115436553955,
        0.9622581601142883
      ],
      "min": [
        -0.13404203951358795,
        -0.26326024532318115,
        -0.34845608472824097,
        0.9056760668754578
      ],
      "type": "VEC4"
    },
    {
      "bufferView": 6,
      "byteOffset": 56824,
      "componentType": 5126,
      "count": 225,
      "max": [
        15.199999809265137
      ],
      "min": [
        0.0
      ],
      "type": "SCALAR"
    },
    {
      "bufferView": 7,
      "byteOffset": 55308,
      "componentType": 5126,
      "count": 225,
      "max": [
        -0.05142633244395256,
        5.74001407623291,
        -6.079680758830364e-08
      ],
      "min": [
        -0.05142633244395256,
        5.74001407623291,
        -6.07968644317225e-08
      ],
      "type": "VEC3"
    },
    {
      "bufferView": 6,
      "byteOffset": 57724,
      "componentType": 5126,
      "count": 457,
      "max": [
        15.199999809265137
      ],
      "min": [
        0.0
      ],
      "type": "SCALAR"
    },
    {
      "bufferView": 8,
      "byteOffset": 153552,
      "componentType": 5126,
      "count": 457,
      "max": [
        0.6839409470558167,
        0.017397699877619743,
        0.04564541578292847,
        0.9997691512107849
      ],
      "min": [
        -0.03844001516699791,
        -0.005521325394511223,
        -0.024538254365324974,
        0.7279000878334045
      ],
      "type": "VEC4"
    },
    {
      "bufferView": 6,
      "byteOffset": 59552,
      "componentType": 5126,
      "count": 126,
      "max": [
        15.199999809265137
      ],
      "min": [
        0.0
      ],
      "type": "SCALAR"
    },
    {
      "bufferView": 7,
      "byteOffset": 58008,
      "componentType": 5126,
      "count": 126,
      "max": [
        0.19498661160469055,
        5.4620184898376465,
        1.2672674642999482e-07
      ],
      "min": [
        0.19498661160469055,
        5.4620184898376465,
        1.2672668958657596e-07
      ],
      "type": "VEC3"
    },
    {
      "bufferView": 6,
      "byteOffset": 60056,
      "componentType": 5126,
      "count": 457,
      "max": [
        15.199999809265137
      ],
      "min": [
        0.0
      ],
      "type": "SCALAR"
    },
    {
      "bufferView": 8,
      "byteOffset": 160864,
      "componentType": 5126,
      "count": 457,
      "max": [
        0.6512218117713928,
        0.0018461073050275445,
        0.04282720014452934,
        0.9997510313987732
      ],
      "min": [
        2.4314958864124492e-05,
        -0.007307755295187235,
        -0.022318385541439056,
        0.7576427459716797
      ],
      "type": "VEC4"
    },
    {
      "bufferView": 6,
      "byteOffset": 61884,
      "componentType": 5126,
      "count": 457,
      "max": [
        15.199999809265137
      ],
      "min": [
        0.0
      ],
      "type": "SCALAR"
    },
    {
      "bufferView": 8,
      "byteOffset": 168176,
      "componentType": 5126,
      "count": 457,
      "max": [
        0.45704585313796997,
        0.006296885199844837,
        0.07016174495220184,
        0.9999797940254211
      ],
      "min": [
        -0.22616690397262573,
        -0.10324965417385101,
        -0.16747494041919708,
        0.8866605162620544
      ],
      "type": "VEC4"
    },
    {
      "bufferView": 6,
      "byteOffset": 63712,
      "componentType": 5126,
      "count": 157,
      "max": [
        15.199999809265137
      ],
      "min": [
        0.0
      ],
      "type": "SCALAR"
    },
    {
      "bufferView": 7,
      "byteOffset": 59520,
      "componentType": 5126,
      "count": 157,
      "max": [
        0.004605934955179691,
        6.629952907562256,
        1.465532193378749e-07
      ],
      "min": [
        0.004605934955179691,
        6.629952907562256,
        1.4655316249445605e-07
      ],
      "type": "VEC3"
    },
    {
      "bufferView": 6,
      "byteOffset": 64340,
      "componentType": 5126,
      "count": 457,
      "max": [
        15.199999809265137
      ],
      "min": [
        0.0
      ],
      "type": "SCALAR"
    },
    {
      "bufferView": 8,
      "byteOffset": 175488,
      "componentType": 5126,
      "count": 457,
      "max": [
        0.7770032286643982,
        0.000288511102553457,
        0.05822059139609337,
        0.9999978542327881
      ],
      "min": [
        -0.1301528960466385,
        -0.00011757996981032193,
        -0.01097588986158371,
        0.6267984509468079
      ],
      "type": "VEC4"
    },
    {
      "bufferView": 6,
      "byteOffset": 66168,
      "componentType": 5126,
      "count": 232,
      "max": [
        15.199999809265137
      ],
      "min": [
        0.0
      ],
      "type": "SCALAR"
    },
    {
      "bufferView": 7,
      "byteOffset": 61404,
      "componentType": 5126,
      "count": 232,
      "max": [
        0.0012411295901983976,
        5.26223611831665,
        7.430827508869697e-08
      ],
      "min": [
        0.0012411295901983976,
        5.26223611831665,
        7.430824666698754e-08
      ],
      "type": "VEC3"
    },
    {
      "bufferView": 6,
      "byteOffset": 67096,
      "componentType": 5126,
      "count": 457,
      "max": [
        15.199999809265137
      ],
      "min": [
        0.0
      ],
      "type": "SCALAR"
    },
    {
      "bufferView": 8,
      "byteOffset": 182800,
      "componentType": 5126,
      "count": 457,
      "max": [
        0.5893768668174744,
        6.426679465221241e-05,
        0.04487911984324455,
        0.9999985694885254
      ],
      "min": [
        0.0016617097426205873,
        -0.00021905578614678234,
        0.0003589620755519718,
        0.806610643863678
      ],
      "type": "VEC4"
    },
    {
      "bufferView": 6,
      "byteOffset": 68924,
      "componentType": 5126,
      "count": 457,
      "max": [
        15.199999809265137
      ],
      "min": [
        0.0
      ],
      "type": "SCALAR"
    },
    {
      "bufferView": 8,
      "byteOffset": 190112,
      "componentType": 5126,
      "count": 457,
      "max": [
        0.5413414239883423,
        0.03803609311580658,
        0.027035877108573914,
        0.9999808073043823
      ],
      "min": [
        -0.1747107356786728,
        -0.0025821258313953876,
        -0.10739941149950027,
        0.8403221964836121
      ],
      "type": "VEC4"
    },
    {
      "bufferView": 6,
      "byteOffset": 70752,
      "componentType": 5126,
      "count": 299,
      "max": [
        15.199999809265137
      ],
      "min": [
        0.0
      ],
      "type": "SCALAR"
    },
    {
      "bufferView": 7,
      "byteOffset": 64188,
      "componentType": 5126,
      "count": 299,
      "max": [
        0.014528302475810051,
        5.151744842529297,
        4.081164206581889e-08
      ],
      "min": [
        0.014528302475810051,
        5.151744842529297,
        4.0811585222400026e-08
      ],
      "type": "VEC3"
    },
    {
      "bufferView": 6,
      "byteOffset": 71948,
      "componentType": 5126,
      "count": 457,
      "max": [
        15.199999809265137
      ],
      "min": [
        0.0
      ],
      "type": "SCALAR"
    },
    {
      "bufferView": 8,
      "byteOffset": 197424,
      "componentType": 5126,
      "count": 457,
      "max": [
        0.7484660744667053,
        0.00047210161574184895,
        0.04840761423110962,
        0.9986051321029663
      ],
      "min": [
        0.04977338761091232,
        -0.012489616870880127,
        0.017612164840102196,
        0.6612860560417175
      ],
      "type": "VEC4"
    },
    {
      "bufferView": 6,
      "byteOffset": 73776,
      "componentType": 5126,
      "count": 404,
      "max": [
        15.199999809265137
      ],
      "min": [
        0.0
      ],
      "type": "SCALAR"
    },
    {
      "bufferView": 7,
      "byteOffset": 67776,
      "componentType": 5126,
      "count": 404,
      "max": [
        -0.09346923977136612,
        4.8541460037231445,
        1.0644306769336254e-08
      ],
      "min": [
        -0.09346923977136612,
        4.8541460037231445,
        1.064425703134475e-08
      ],
      "type": "VEC3"
    },
    {
      "bufferView": 6,
      "byteOffset": 75392,
      "componentType": 5126,
      "count": 457,
      "max": [
        15.199999809265137
      ],
      "min": [
        0.0
      ],
      "type": "SCALAR"
    },
    {
      "bufferView": 8,
      "byteOffset": 204736,
      "componentType": 5126,
      "count": 457,
      "max": [
        0.686668872833252,
        0.004704116843640804,
        0.04322076588869095,
        0.999468982219696
      ],
      "min": [
        0.030044080689549446,
        -0.001049827435053885,
        0.012571756727993488,
        0.7256691455841064
      ],
      "type": "VEC4"
    },
    {
      "bufferView": 6,
      "byteOffset": 77220,
      "componentType": 5126,
      "count": 457,
      "max": [
        15.199999809265137
      ],
      "min": [
        0.0
      ],
      "type": "SCALAR"
    },
    {
      "bufferView": 8,
      "byteOffset": 212048,
      "componentType": 5126,
      "count": 457,
      "max": [
        0.6154049038887024,
        0.057514071464538574,
        0.1108265221118927,
        0.9980685710906982
      ],
      "min": [
        -0.06680856645107269,
        -0.023137355223298073,
        -0.05935794487595558,
        0.7853440642356873
      ],
      "type": "VEC4"
    },
    {
      "bufferView": 6,
      "byteOffset": 79048,
      "componentType": 5126,
      "count": 434,
      "max": [
        15.199999809265137
      ],
      "min": [
        0.0
      ],
      "type": "SCALAR"
    },
    {
      "bufferView": 7,
      "byteOffset": 72624,
      "componentType": 5126,
      "count": 434,
      "max": [
        -2.0823115676193993e-08,
        13.712575912475586,
        3.04340119328117e-07
      ],
      "min": [
        -2.0823144097903423e-08,
        13.712575912475586,
        3.04340119328117e-07
      ],
      "type": "VEC3"
    },
    {
      "bufferView": 6,
      "byteOffset": 80784,
      "componentType": 5126,
      "count": 457,
      "max": [
        15.199999809265137
      ],
      "min": [
        0.0
      ],
      "type": "SCALAR"
    },
    {
      "bufferView": 8,
      "byteOffset": 219360,
      "componentType": 5126,
      "count": 457,
      "max": [
        0.33371955156326294,
        0.1703415960073471,
        0.2663837671279907,
        0.9999266862869263
      ],
      "min": [
        -0.35084283351898193,
        -0.5688287615776062,
        -0.4929218888282776,
        0.7264313101768494
      ],
      "type": "VEC4"
    },
    {
      "bufferView": 6,
      "byteOffset": 82612,
      "componentType": 5126,
      "count": 394,
      "max": [
        15.199999809265137
      ],
      "min": [
        0.0
      ],
      "type": "SCALAR"
    },
    {
      "bufferView": 7,
      "byteOffset": 77832,
      "componentType": 5126,
      "count": 394,
      "max": [
        6.520183148950309e-08,
        12.972861289978027,
        2.854822014342062e-07
      ],
      "min": [
        6.520181017322102e-08,
        12.972861289978027,
        2.8548214459078736e-07
      ],
      "type": "VEC3"
    },
    {
      "bufferView": 6,
      "byteOffset": 84188,
      "componentType": 5126,
      "count": 457,
      "max": [
        15.199999809265137
      ],
      "min": [
        0.0
      ],
      "type": "SCALAR"
    },
    {
      "bufferView": 8,
      "byteOffset": 226672,
      "componentType": 5126,
      "count": 457,
      "max": [
        0.06430080533027649,
        0.003491525538265705,
        0.9507687091827393,
        0.9477527737617493
      ],
      "min": [
        -0.05840006098151207,
        -0.001839854521676898,
        -0.8635178208351135,
        -0.49948790669441223
      ],
      "type": "VEC4"
    },
    {
      "bufferView": 6,
      "byteOffset": 86016,
      "componentType": 5126,
      "count": 457,
      "max": [
        15.199999809265137
      ],
      "min": [
        0.0
      ],
      "type": "SCALAR"
    },
    {
      "bufferView": 7,
      "byteOffset": 82560,
      "componentType": 5126,
      "count": 457,
      "max": [
        -3.774800916289678e-09,
        12.072032928466797,
        1.7358217974106083e-08
      ],
      "min": [
        -3.774829337999108e-09,
        12.072032928466797,
        1.7358161130687222e-08
      ],
      "type": "VEC3"
    },
    {
      "bufferView": 6,
      "byteOffset": 87844,
      "componentType": 5126,
      "count": 457,
      "max": [
        15.199999809265137
      ],
      "min": [
        0.0
      ],
      "type": "SCALAR"
    },
    {
      "bufferView": 8,
      "byteOffset": 233984,
      "componentType": 5126,
      "count": 457,
      "max": [
        0.5476503968238831,
        0.2777707874774933,
        0.10940151661634445,
        0.9545310139656067
      ],
      "min": [
        0.02057506889104843,
        -0.6160646080970764,
        -0.6618983149528503,
        0.5365946292877197
      ],
      "type": "VEC4"
    },
    {
      "bufferView": 6,
      "byteOffset": 89672,
      "componentType": 5126,
      "count": 457,
      "max": [
        15.199999809265137
      ],
      "min": [
        0.0
      ],
      "type": "SCALAR"
    },
    {
      "bufferView": 8,
      "byteOffset": 241296,
      "componentType": 5126,
      "count": 457,
      "max": [
        0.7537418007850647,
        0.5871890783309937,
        0.7067451477050781,
        0.4924856722354889
      ],
      "min": [
        -0.5140196681022644,
        -0.5804239511489868,
        -0.5805354118347168,
        -0.4826876223087311
      ],
      "type": "VEC4"
    },
    {
      "bufferView": 6,
      "byteOffset": 91500,
      "componentType": 5126,
      "count": 451,
      "max": [
        15.199999809265137
      ],
      "min": [
        0.0
      ],
      "type": "SCALAR"
    },
    {
      "bufferView": 7,
      "byteOffset": 88044,
      "componentType": 5126,
      "count": 451,
      "max": [
        3.552713678800501e-15,
        8.818315505981445,
        -5.7155176591550116e-08
      ],
      "min": [
        -3.552713678800501e-15,
        8.818315505981445,
        -5.715519790783219e-08
      ],
      "type": "VEC3"
    },
    {
      "bufferView": 6,
      "byteOffset": 93304,
      "componentType": 5126,
      "count": 457,
      "max": [
        15.199999809265137
      ],
      "min": [
        0.0
      ],
      "type": "SCALAR"
    },
    {
      "bufferView": 8,
      "byteOffset": 248608,
      "componentType": 5126,
      "count": 457,
      "max": [
        0.15420565009117126,
        0.04774289205670357,
        0.08654049038887024,
        0.9999589920043945
      ],
      "min": [
        -0.05909685790538788,
        -0.06936100870370865,
        -0.09337346255779266,
        0.9876353740692139
      ],
      "type": "VEC4"
    },
    {
      "bufferView": 6,
      "byteOffset": 95132,
      "componentType": 5126,
      "count": 447,
      "max": [
        15.199999809265137
      ],
      "min": [
        0.0
      ],
      "type": "SCALAR"
    },
    {
      "bufferView": 7,
      "byteOffset": 93456,
      "componentType": 5126,
      "count": 447,
      "max": [
        7.105427357601002e-15,
        7.716021537780762,
        3.211249577361741e-08
      ],
      "min": [
        -3.552713678800501e-15,
        7.716021537780762,
        3.211247445733534e-08
      ],
      "type": "VEC3"
    },
    {
      "bufferView": 6,
      "byteOffset": 96920,
      "componentType": 5126,
      "count": 457,
      "max": [
        15.199999809265137
      ],
      "min": [
        0.0
      ],
      "type": "SCALAR"
    },
    {
      "bufferView": 8,
      "byteOffset": 255920,
      "componentType": 5126,
      "count": 457,
      "max": [
        0.15416021645069122,
        0.05001910403370857,
        0.08760415017604828,
        0.9999697208404541
      ],
      "min": [
        -0.057946305721998215,
        -0.07062451541423798,
        -0.09255857020616531,
        0.9875351786613464
      ],
      "type": "VEC4"
    },
    {
      "bufferView": 6,
      "byteOffset": 98748,
      "componentType": 5126,
      "count": 438,
      "max": [
        15.199999809265137
      ],
      "min": [
        0.0
      ],
      "type": "SCALAR"
    },
    {
      "bufferView": 7,
      "byteOffset": 98820,
      "componentType": 5126,
      "count": 438,
      "max": [
        3.552713678800501e-15,
        6.5818328857421875,
        -0.6488170623779297
      ],
      "min": [
        -3.552713678800501e-15,
        6.5818328857421875,
        -0.6488170623779297
      ],
      "type": "VEC3"
    },
    {
      "bufferView": 6,
      "byteOffset": 100500,
      "componentType": 5126,
      "count": 457,
      "max": [
        15.199999809265137
      ],
      "min": [
        0.0
      ],
      "type": "SCALAR"
    },
    {
      "bufferView": 8,
      "byteOffset": 263232,
      "componentType": 5126,
      "count": 457,
      "max": [
        0.2971295118331909,
        0.02393067628145218,
        0.13046228885650635,
        0.9999787211418152
      ],
      "min": [
        -0.11128633469343185,
        -0.045787569135427475,
        -0.0841626301407814,
        0.9535912871360779
      ],
      "type": "VEC4"
    },
    {
      "bufferView": 6,
      "byteOffset": 102328,
      "componentType": 5126,
      "count": 431,
      "max": [
        15.199999809265137
      ],
      "min": [
        0.0
      ],
      "type": "SCALAR"
    },
    {
      "bufferView": 7,
      "byteOffset": 104076,
      "componentType": 5126,
      "count": 431,
      "max": [
        4.2813077527625865e-08,
        31.14098358154297,
        3.6052901464245224e-07
      ],
      "min": [
        4.2813049105916434e-08,
        31.14098358154297,
        3.605289862207428e-07
      ],
      "type": "VEC3"
    },
    {
      "bufferView": 6,
      "byteOffset": 104052,
      "componentType": 5126,
      "count": 457,
      "max": [
        15.199999809265137
      ],
      "min": [
        0.0
      ],
      "type": "SCALAR"
    },
    {
      "bufferView": 8,
      "byteOffset": 270544,
      "componentType": 5126,
      "count": 457,
      "max": [
        0.4923536479473114,
        0.08223947137594223,
        -0.018410369753837585,
        0.96300208568573
      ],
      "min": [
        0.254867821931839,
        0.032845642417669296,
        -0.038343507796525955,
        0.8673029541969299
      ],
      "type": "VEC4"
    },
    {
      "bufferView": 6,
      "byteOffset": 105880,
      "componentType": 5126,
      "count": 441,
      "max": [
        15.199999809265137
      ],
      "min": [
        0.0
      ],
      "type": "SCALAR"
    },
    {
      "bufferView": 7,
      "byteOffset": 109248,
      "componentType": 5126,
      "count": 441,
      "max": [
        1.4255206792768149e-08,
        12.120830535888672,
        -8.515654315033316e-08
      ],
      "min": [
        1.4255178371058719e-08,
        12.120830535888672,
        -8.515655736118788e-08
      ],
      "type": "VEC3"
    },
    {
      "bufferView": 6,
      "byteOffset": 107644,
      "componentType": 5126,
      "count": 457,
      "max": [
        15.199999809265137
      ],
      "min": [
        0.0
      ],
      "type": "SCALAR"
    },
    {
      "bufferView": 8,
      "byteOffset": 277856,
      "componentType": 5126,
      "count": 457,
      "max": [
        0.9681562781333923,
        0.0902310311794281,
        0.0568799190223217,
        0.8837025165557861
      ],
      "min": [
        0.425736665725708,
        -0.3012830913066864,
        -0.39903149008750916,
        0.23992891609668732
      ],
      "type": "VEC4"
    },
    {
      "bufferView": 6,
      "byteOffset": 109472,
      "componentType": 5126,
      "count": 443,
      "max": [
        15.199999809265137
      ],
      "min": [
        0.0
      ],
      "type": "SCALAR"
    },
    {
      "bufferView": 7,
      "byteOffset": 114540,
      "componentType": 5126,
      "count": 443,
      "max": [
        9.14779860750059e-08,
        20.721118927001953,
        -1.519846293263072e-08
      ],
      "min": [
        9.147795765329647e-08,
        20.721118927001953,
        -1.5198477143485434e-08
      ],
      "type": "VEC3"
    },
    {
      "bufferView": 6,
      "byteOffset": 111244,
      "componentType": 5126,
      "count": 457,
      "max": [
        15.199999809265137
      ],
      "min": [
        0.0
      ],
      "type": "SCALAR"
    },
    {
      "bufferView": 8,
      "byteOffset": 285168,
      "componentType": 5126,
      "count": 457,
      "max": [
        -0.2575259208679199,
        0.30614393949508667,
        0.16811971366405487,
        0.9607724547386169
      ],
      "min": [
        -0.8539836406707764,
        -0.056858308613300323,
        -0.2792453467845917,
        0.5160043239593506
      ],
      "type": "VEC4"
    },
    {
      "bufferView": 6,
      "byteOffset": 113072,
      "componentType": 5126,
      "count": 457,
      "max": [
        15.199999809265137
      ],
      "min": [
        0.0
      ],
      "type": "SCALAR"
    },
    {
      "bufferView": 8,
      "byteOffset": 292480,
      "componentType": 5126,
      "count": 457,
      "max": [
        0.2802974283695221,
        0.5215335488319397,
        0.9824753999710083,
        0.7178950905799866
      ],
      "min": [
        -0.332191526889801,
        -0.5198912024497986,
        -0.8554719090461731,
        -0.4991929829120636
      ],
      "type": "VEC4"
    },
    {
      "bufferView": 6,
      "byteOffset": 114900,
      "componentType": 5126,
      "count": 441,
      "max": [
        15.199999809265137
      ],
      "min": [
        0.0
      ],
      "type": "SCALAR"
    },
    {
      "bufferView": 7,
      "byteOffset": 119856,
      "componentType": 5126,
      "count": 441,
      "max": [
        -5.094388910720227e-08,
        30.685455322265625,
        1.078920377040049e-06
      ],
      "min": [
        -5.094391042348434e-08,
        30.685455322265625,
        1.0789202633532113e-06
      ],
      "type": "VEC3"
    },
    {
      "bufferView": 6,
      "byteOffset": 116664,
      "componentType": 5126,
      "count": 457,
      "max": [
        15.199999809265137
      ],
      "min": [
        0.0
      ],
      "type": "SCALAR"
    },
    {
      "bufferView": 8,
      "byteOffset": 299792,
      "componentType": 5126,
      "count": 457,
      "max": [
        0.5161636471748352,
        -0.04638901352882385,
        0.03710230812430382,
        0.9413428902626038
      ],
      "min": [
        0.3262527883052826,
        -0.08887556940317154,
        0.018940642476081848,
        0.853318989276886
      ],
      "type": "VEC4"
    },
    {
      "bufferView": 6,
      "byteOffset": 118492,
      "componentType": 5126,
      "count": 457,
      "max": [
        15.199999809265137
      ],
      "min": [
        0.0
      ],
      "type": "SCALAR"
    },
    {
      "bufferView": 7,
      "byteOffset": 125148,
      "componentType": 5126,
      "count": 457,
      "max": [
        -6.509566219392582e-09,
        11.98638916015625,
        -3.33745031610988e-09
      ],
      "min": [
        -6.509587535674655e-09,
        11.98638916015625,
        -3.3374605301617066e-09
      ],
      "type": "VEC3"
    },
    {
      "bufferView": 6,
      "byteOffset": 120320,
      "componentType": 5126,
      "count": 457,
      "max": [
        15.199999809265137
      ],
      "min": [
        0.0
      ],
      "type": "SCALAR"
    },
    {
      "bufferView": 8,
      "byteOffset": 307104,
      "componentType": 5126,
      "count": 457,
      "max": [
        0.9234992265701294,
        0.20147161185741425,
        0.3745969235897064,
        0.9228033423423767
      ],
      "min": [
        0.32088667154312134,
        -0.22219468653202057,
        -0.13176244497299194,
        0.3374212086200714
      ],
      "type": "VEC4"
    },
    {
      "bufferView": 6,
      "byteOffset": 122148,
      "componentType": 5126,
      "count": 457,
      "max": [
        15.199999809265137
      ],
      "min": [
        0.0
      ],
      "type": "SCALAR"
    },
    {
      "bufferView": 7,
      "byteOffset": 130632,
      "componentType": 5126,
      "count": 457,
      "max": [
        -1.742456845477136e-09,
        20.715272903442383,
        -8.363535641819908e-09
      ],
      "min": [
        -1.7424781617592089e-09,
        20.715272903442383,
        -8.363553405388302e-09
      ],
      "type": "VEC3"
    },
    {
      "bufferView": 6,
      "byteOffset": 123976,
      "componentType": 5126,
      "count": 457,
      "max": [
        15.199999809265137
      ],
      "min": [
        0.0
      ],
      "type": "SCALAR"
    },
    {
      "bufferView": 8,
      "byteOffset": 314416,
      "componentType": 5126,
      "count": 457,
      "max": [
        -0.28851550817489624,
        0.08876212686300278,
        0.30860406160354614,
        0.9499227404594421
      ],
      "min": [
        -0.8470427989959717,
        -0.2690984010696411,
        -0.20247018337249756,
        0.519126296043396
      ],
      "type": "VEC4"
    },
    {
      "bufferView": 6,
      "byteOffset": 125804,
      "componentType": 5126,
      "count": 457,
      "max": [
        15.199999809265137
      ],
      "min": [
        0.0
      ],
      "type": "SCALAR"
    },
    {
      "bufferView": 8,
      "byteOffset": 321728,
      "componentType": 5126,
      "count": 457,
      "max": [
        0.07699619978666306,
        0.6149365901947021,
        0.9991098642349243,
        0.6299595236778259
      ],
      "min": [
        -0.18706078827381134,
        -0.2326129972934723,
        0.6224200129508972,
        -0.10691279172897339
      ],
      "type": "VEC4"
    },
    {
      "bufferView": 6,
      "byteOffset": 127632,
      "componentType": 5126,
      "count": 457,
      "max": [
        15.199999809265137
      ],
      "min": [
        0.0
      ],
      "type": "SCALAR"
    },
    {
      "bufferView": 7,
      "byteOffset": 136116,
      "componentType": 5126,
      "count": 457,
      "max": [
        10.068839073181152,
        54.628231048583984,
        3.901686668395996
      ],
      "min": [
        -6.54463005065918,
        32.945106506347656,
        -14.254697799682617
      ],
      "type": "VEC3"
    },
    {
      "bufferView": 6,
      "byteOffset": 129460,
      "componentType": 5126,
      "count": 457,
      "max": [
        15.199999809265137
      ],
      "min": [
        0.0
      ],
      "type": "SCALAR"
    },
    {
      "bufferView": 8,
      "byteOffset": 329040,
      "componentType": 5126,
      "count": 457,
      "max": [
        0.2948037087917328,
        0.18642538785934448,
        0.09932797402143478,
        0.9998565316200256
      ],
      "min": [
        -0.18492412567138672,
        -0.5120609998703003,
        -0.16404466331005096,
        0.8565568923950195
      ],
      "type": "VEC4"
    }
  ],
  "animations": [
    {
      "channels": [
        {
          "sampler": 0,
          "target": {
            "node": 13,
            "path": "translation"
          }
        },
        {
          "sampler": 1,
          "target": {
            "node": 13,
            "path": "rotation"
          }
        },
        {
          "sampler": 2,
          "target": {
            "node": 12,
            "path": "translation"
          }
        },
        {
          "sampler": 3,
          "target": {
            "node": 12,
            "path": "rotation"
          }
        },
        {
          "sampler": 4,
          "target": {
            "node": 21,
            "path": "translation"
          }
        },
        {
          "sampler": 5,
          "target": {
            "node": 21,
            "path": "rotation"
          }
        },
        {
          "sampler": 6,
          "target": {
            "node": 20,
            "path": "translation"
          }
        },
        {
          "sampler": 7,
          "target": {
            "node": 20,
            "path": "rotation"
          }
        },
        {
          "sampler": 8,
          "target": {
            "node": 19,
            "path": "rotation"
          }
        },
        {
          "sampler": 9,
          "target": {
            "node": 25,
            "path": "translation"
          }
        },
        {
          "sampler": 10,
          "target": {
            "node": 25,
            "path": "rotation"
          }
        },
        {
          "sampler": 11,
          "target": {
            "node": 24,
            "path": "translation"
          }
        },
        {
          "sampler": 12,
          "target": {
            "node": 24,
            "path": "rotation"
          }
        },
        {
          "sampler": 13,
          "target": {
            "node": 23,
            "path": "rotation"
          }
        },
        {
          "sampler": 14,
          "target": {
            "node": 29,
            "path": "translation"
          }
        },
        {
          "sampler": 15,
          "target": {
            "node": 29,
            "path": "rotation"
          }
        },
        {
          "sampler": 16,
          "target": {
            "node": 28,
            "path": "translation"
          }
        },
        {
          "sampler": 17,
          "target": {
            "node": 28,
            "path": "rotation"
          }
        },
        {
          "sampler": 18,
          "target": {
            "node": 27,
            "path": "rotation"
          }
        },
        {
          "sampler": 19,
          "target": {
            "node": 33,
            "path": "translation"
          }
        },
        {
          "sampler": 20,
          "target": {
            "node": 33,
            "path": "rotation"
          }
        },
        {
          "sampler": 21,
          "target": {
            "node": 32,
            "path": "translation"
          }
        },
        {
          "sampler": 22,
          "target": {
            "node": 32,
            "path": "rotation"
          }
        },
        {
          "sampler": 23,
          "target": {
            "node": 31,
            "path": "rotation"
          }
        },
        {
          "sampler": 24,
          "target": {
            "node": 18,
            "path": "translation"
          }
        },
        {
          "sampler": 25,
          "target": {
            "node": 18,
            "path": "rotation"
          }
        },
        {
          "sampler": 26,
          "target": {
            "node": 17,
            "path": "translation"
          }
        },
        {
          "sampler": 27,
          "target": {
            "node": 17,
            "path": "rotation"
          }
        },
        {
          "sampler": 28,
          "target": {
            "node": 16,
            "path": "translation"
          }
        },
        {
          "sampler": 29,
          "target": {
            "node": 16,
            "path": "rotation"
          }
        },
        {
          "sampler": 30,
          "target": {
            "node": 15,
            "path": "rotation"
          }
        },
        {
          "sampler": 31,
          "target": {
            "node": 41,
            "path": "translation"
          }
        },
        {
          "sampler": 32,
          "target": {
            "node": 41,
            "path": "rotation"
          }
        },
        {
          "sampler": 33,
          "target": {
            "node": 40,
            "path": "translation"
          }
        },
        {
          "sampler": 34,
          "target": {
            "node": 40,
            "path": "rotation"
          }
        },
        {
          "sampler": 35,
          "target": {
            "node": 39,
            "path": "rotation"
          }
        },
        {
          "sampler": 36,
          "target": {
            "node": 45,
            "path": "translation"
          }
        },
        {
          "sampler": 37,
          "target": {
            "node": 45,
            "path": "rotation"
          }
        },
        {
          "sampler": 38,
          "target": {
            "node": 44,
            "path": "translation"
          }
        },
        {
          "sampler": 39,
          "target": {
            "node": 44,
            "path": "rotation"
          }
        },
        {
          "sampler": 40,
          "target": {
            "node": 43,
            "path": "rotation"
          }
        },
        {
          "sampler": 41,
          "target": {
            "node": 49,
            "path": "translation"
          }
        },
        {
          "sampler": 42,
          "target": {
            "node": 49,
            "path": "rotation"
          }
        },
        {
          "sampler": 43,
          "target": {
            "node": 48,
            "path": "translation"
          }
        },
        {
          "sampler": 44,
          "target": {
            "node": 48,
            "path": "rotation"
          }
        },
        {
          "sampler": 45,
          "target": {
            "node": 47,
            "path": "rotation"
          }
        },
        {
          "sampler": 46,
          "target": {
            "node": 53,
            "path": "translation"
          }
        },
        {
          "sampler": 47,
          "target": {
            "node": 53,
            "path": "rotation"
          }
        },
        {
          "sampler": 48,
          "target": {
            "node": 52,
            "path": "translation"
          }
        },
        {
          "sampler": 49,
          "target": {
            "node": 52,
            "path": "rotation"
          }
        },
        {
          "sampler": 50,
          "target": {
            "node": 51,
            "path": "rotation"
          }
        },
        {
          "sampler": 51,
          "target": {
            "node": 38,
            "path": "translation"
          }
        },
        {
          "sampler": 52,
          "target": {
            "node": 38,
            "path": "rotation"
          }
        },
        {
          "sampler": 53,
          "target": {
            "node": 37,
            "path": "translation"
          }
        },
        {
          "sampler": 54,
          "target": {
            "node": 37,
            "path": "rotation"
          }
        },
        {
          "sampler": 55,
          "target": {
            "node": 36,
            "path": "translation"
          }
        },
        {
          "sampler": 56,
          "target": {
            "node": 36,
            "path": "rotation"
          }
        },
        {
          "sampler": 57,
          "target": {
            "node": 35,
            "path": "rotation"
          }
        },
        {
          "sampler": 58,
          "target": {
            "node": 11,
            "path": "translation"
          }
        },
        {
          "sampler": 59,
          "target": {
            "node": 11,
            "path": "rotation"
          }
        },
        {
          "sampler": 60,
          "target": {
            "node": 10,
            "path": "translation"
          }
        },
        {
          "sampler": 61,
          "target": {
            "node": 10,
            "path": "rotation"
          }
        },
        {
          "sampler": 62,
          "target": {
            "node": 9,
            "path": "translation"
          }
        },
        {
          "sampler": 63,
          "target": {
            "node": 9,
            "path": "rotation"
          }
        },
        {
          "sampler": 64,
          "target": {
            "node": 58,
            "path": "translation"
          }
        },
        {
          "sampler": 65,
          "target": {
            "node": 58,
            "path": "rotation"
          }
        },
        {
          "sampler": 66,
          "target": {
            "node": 57,
            "path": "translation"
          }
        },
        {
          "sampler": 67,
          "target": {
            "node": 57,
            "path": "rotation"
          }
        },
        {
          "sampler": 68,
          "target": {
            "node": 56,
            "path": "translation"
          }
        },
        {
          "sampler": 69,
          "target": {
            "node": 56,
            "path": "rotation"
          }
        },
        {
          "sampler": 70,
          "target": {
            "node": 55,
            "path": "rotation"
          }
        },
        {
          "sampler": 71,
          "target": {
            "node": 63,
            "path": "translation"
          }
        },
        {
          "sampler": 72,
          "target": {
            "node": 63,
            "path": "rotation"
          }
        },
        {
          "sampler": 73,
          "target": {
            "node": 62,
            "path": "translation"
          }
        },
        {
          "sampler": 74,
          "target": {
            "node": 62,
            "path": "rotation"
          }
        },
        {
          "sampler": 75,
          "target": {
            "node": 61,
            "path": "translation"
          }
        },
        {
          "sampler": 76,
          "target": {
            "node": 61,
            "path": "rotation"
          }
        },
        {
          "sampler": 77,
          "target": {
            "node": 60,
            "path": "rotation"
          }
        },
        {
          "sampler": 78,
          "target": {
            "node": 8,
            "path": "translation"
          }
        },
        {
          "sampler": 79,
          "target": {
            "node": 8,
            "path": "rotation"
          }
        }
      ],
      "name": "mixamo.com",
      "samplers": [
        {
          "input": 7,
          "interpolation": "LINEAR",
          "output": 8
        },
        {
          "input": 9,
          "interpolation": "LINEAR",
          "output": 10
        },
        {
          "input": 11,
          "interpolation": "LINEAR",
          "output": 12
        },
        {
          "input": 13,
          "interpolation": "LINEAR",
          "output": 14
        },
        {
          "input": 15,
          "interpolation": "LINEAR",
          "output": 16
        },
        {
          "input": 17,
          "interpolation": "LINEAR",
          "output": 18
        },
        {
          "input": 19,
          "interpolation": "LINEAR",
          "output": 20
        },
        {
          "input": 21,
          "interpolation": "LINEAR",
          "output": 22
        },
        {
          "input": 23,
          "interpolation": "LINEAR",
          "output": 24
        },
        {
          "input": 25,
          "interpolation": "LINEAR",
          "output": 26
        },
        {
          "input": 27,
          "interpolation": "LINEAR",
          "output": 28
        },
        {
          "input": 29,
          "interpolation": "LINEAR",
          "output": 30
        },
        {
          "input": 31,
          "interpolation": "LINEAR",
          "output": 32
        },
        {
          "input": 33,
          "interpolation": "LINEAR",
          "output": 34
        },
        {
          "input": 35,
          "interpolation": "LINEAR",
          "output": 36
        },
        {
          "input": 37,
          "interpolation": "LINEAR",
          "output": 38
        },
        {
          "input": 39,
          "interpolation": "LINEAR",
          "output": 40
        },
        {
          "input": 41,
          "interpolation": "LINEAR",
          "output": 42
        },
        {
          "input": 43,
          "interpolation": "LINEAR",
          "output": 44
        },
        {
          "input": 45,
          "interpolation": "LINEAR",
          "output": 46
        },
        {
          "input": 47,
          "interpolation": "LINEAR",
          "output": 48
        },
        {
          "input": 49,
          "interpolation": "LINEAR",
          "output": 50
        },
        {
          "input": 51,
          "interpolation": "LINEAR",
          "output": 52
        },
        {
          "input": 53,
          "interpolation": "LINEAR",
          "output": 54
        },
        {
          "input": 55,
          "interpolation": "LINEAR",
          "output": 56
        },
        {
          "input": 57,
          "interpolation": "LINEAR",
          "output": 58
        },
        {
          "input": 59,
          "interpolation": "LINEAR",
          "output": 60
        },
        {
          "input": 61,
          "interpolation": "LINEAR",
          "output": 62
        },
        {
          "input": 63,
          "interpolation": "LINEAR",
          "output": 64
        },
        {
          "input": 65,
          "interpolation": "LINEAR",
          "output": 66
        },
        {
          "input": 67,
          "interpolation": "LINEAR",
          "output": 68
        },
        {
          "input": 69,
          "interpolation": "LINEAR",
          "output": 70
        },
        {
          "input": 71,
          "interpolation": "LINEAR",
          "output": 72
        },
        {
          "input": 73,
          "interpolation": "LINEAR",
          "output": 74
        },
        {
          "input": 75,
          "interpolation": "LINEAR",
          "output": 76
        },
        {
          "input": 77,
          "interpolation": "LINEAR",
          "output": 78
        },
        {
          "input": 79,
          "interpolation": "LINEAR",
          "output": 80
        },
        {
          "input": 81,
          "interpolation": "LINEAR",
          "output": 82
        },
        {
          "input": 83,
          "interpolation": "LINEAR",
          "output": 84
        },
        {
          "input": 85,
          "interpolation": "LINEAR",
          "output": 86
        },
        {
          "input": 87,
          "interpolation": "LINEAR",
          "output": 88
        },
        {
          "input": 89,
          "interpolation": "LINEAR",
          "output": 90
        },
        {
          "input": 91,
          "interpolation": "LINEAR",
          "output": 92
        },
        {
          "input": 93,
          "interpolation": "LINEAR",
          "output": 94
        },
        {
          "input": 95,
          "interpolation": "LINEAR",
          "output": 96
        },
        {
          "input": 97,
          "interpolation": "LINEAR",
          "output": 98
        },
        {
          "input": 99,
          "interpolation": "LINEAR",
          "output": 100
        },
        {
          "input": 101,
          "interpolation": "LINEAR",
          "output": 102
        },
        {
          "input": 103,
          "interpolation": "LINEAR",
          "output": 104
        },
        {
          "input": 105,
          "interpolation": "LINEAR",
          "output": 106
        },
        {
          "input": 107,
          "interpolation": "LINEAR",
          "output": 108
        },
        {
          "input": 109,
          "interpolation": "LINEAR",
          "output": 110
        },
        {
          "input": 111,
          "interpolation": "LINEAR",
          "output": 112
        },
        {
          "input": 113,
          "interpolation": "LINEAR",
          "output": 114
        },
        {
          "input": 115,
          "interpolation": "LINEAR",
          "output": 116
        },
        {
          "input": 117,
          "interpolation": "LINEAR",
          "output": 118
        },
        {
          "input": 119,
          "interpolation": "LINEAR",
          "output": 120
        },
        {
          "input": 121,
          "interpolation": "LINEAR",
          "output": 122
        },
        {
          "input": 123,
          "interpolation": "LINEAR",
          "output": 124
        },
        {
          "input": 125,
          "interpolation": "LINEAR",
          "output": 126
        },
        {
          "input": 127,
          "interpolation": "LINEAR",
          "output": 128
        },
        {
          "input": 129,
          "interpolation": "LINEAR",
          "output": 130
        },
        {
          "input": 131,
          "interpolation": "LINEAR",
          "output": 132
        },
        {
          "input": 133,
          "interpolation": "LINEAR",
          "output": 134
        },
        {
          "input": 135,
          "interpolation": "LINEAR",
          "output": 136
        },
        {
          "input": 137,
          "interpolation": "LINEAR",
          "output": 138
        },
        {
          "input": 139,
          "interpolation": "LINEAR",
          "output": 140
        },
        {
          "input": 141,
          "interpolation": "LINEAR",
          "output": 142
        },
        {
          "input": 143,
          "interpolation": "LINEAR",
          "output": 144
        },
        {
          "input": 145,
          "interpolation": "LINEAR",
          "output": 146
        },
        {
          "input": 147,
          "interpolation": "LINEAR",
          "output": 148
        },
        {
          "input": 149,
          "interpolation": "LINEAR",
          "output": 150
        },
        {
          "input": 151,
          "interpolation": "LINEAR",
          "output": 152
        },
        {
          "input": 153,
          "interpolation": "LINEAR",
          "output": 154
        },
        {
          "input": 155,
          "interpolation": "LINEAR",
          "output": 156
        },
        {
          "input": 157,
          "interpolation": "LINEAR",
          "output": 158
        },
        {
          "input": 159,
          "interpolation": "LINEAR",
          "output": 160
        },
        {
          "input": 161,
          "interpolation": "LINEAR",
          "output": 162
        },
        {
          "input": 163,
          "interpolation": "LINEAR",
          "output": 164
        },
        {
          "input": 165,
          "interpolation": "LINEAR",
          "output": 166
        }
      ]
    }
  ],
  "asset": {
    "extras": {
      "author": "3D by Renato (https://sketchfab.com/3dbyrenato)",
      "license": "CC-BY-4.0 (http://creativecommons.org/licenses/by/4.0/)",
      "source": "https://sketchfab.com/3d-models/papa-smurf-dancing-twerk-f226e802adb844598ca29a6e2a72de03",
      "title": "Papa Smurf Dancing Twerk"
    },
    "generator": "Sketchfab-16.65.0",
    "version": "2.0"
  },
  "bufferViews": [
    {
      "buffer": 0,
      "byteLength": 18584,
      "byteStride": 8,
      "name": "shortBufferViews",
      "target": 34962
    },
    {
      "buffer": 0,
      "byteLength": 40272,
      "byteOffset": 18584,
      "name": "floatBufferViews",
      "target": 34963
    },
    {
      "buffer": 0,
      "byteLength": 18584,
      "byteOffset": 58856,
      "byteStride": 8,
      "name": "floatBufferViews",
      "target": 34962
    },
    {
      "buffer": 0,
      "byteLength": 55752,
      "byteOffset": 77440,
      "byteStride": 12,
      "name": "floatBufferViews",
      "target": 34962
    },
    {
      "buffer": 0,
      "byteLength": 37168,
      "byteOffset": 133192,
      "byteStride": 16,
      "name": "floatBufferViews",
      "target": 34962
    },
    {
      "buffer": 0,
      "byteLength": 3712,
      "byteOffset": 170360,
      "name": "floatBufferViews"
    },
    {
      "buffer": 0,
      "byteLength": 131288,
      "byteOffset": 174072,
      "name": "floatBufferViews"
    },
    {
      "buffer": 0,
      "byteLength": 141600,
      "byteOffset": 305360,
      "byteStride": 12,
      "name": "floatBufferViews"
    },
    {
      "buffer": 0,
      "byteLength": 336352,
      "byteOffset": 446960,
      "byteStride": 16,
      "name": "floatBufferViews"
    }
  ],
  "buffers": [
    {
      "byteLength": 783312,
      "uri": "scene.bin"
    }
  ],
  "images": [
    {
      "uri": "textures/PapaSmurf_baseColor.png"
    }
  ],
  "materials": [
    {
      "doubleSided": true,
      "name": "PapaSmurf",
      "pbrMetallicRoughness": {
        "baseColorTexture": {
          "index": 0
        },
        "metallicFactor": 0.0
      }
    }
  ],
  "meshes": [
    {
      "name": "PapaSmurf_PapaSmurf_0",
      "primitives": [
        {
          "attributes": {
            "JOINTS_0": 5,
            "NORMAL": 1,
            "POSITION": 0,
            "TEXCOORD_0": 2,
            "WEIGHTS_0": 6
          },
          "indices": 3,
          "material": 0,
          "mode": 4
        }
      ]
    }
  ],
  "nodes": [
    {
      "children": [
        1
      ],
      "matrix": [
        1.0,
        0.0,
        0.0,
        0.0,
        0.0,
        2.220446049250313e-16,
        -1.0,
        0.0,
        0.0,
        1.0,
        2.220446049250313e-16,
        0.0,
        0.0,
        0.0,
        0.0,
        1.0
      ],
      "name": "Sketchfab_model"
    },
    {
      "children": [
        2
      ],
      "matrix": [
        0.009999999776482582,
        0.0,
        0.0,
        0.0,
        0.0,
        0.0,
        0.009999999776482582,
        0.0,
        0.0,
        -0.009999999776482582,
        0.0,
        0.0,
        0.0,
        0.0,
        0.0,
        1.0
      ],
      "name": "3de8ee4f301a4a599ea3f95802c28fb7.fbx"
    },
    {
      "children": [
        3
      ],
      "name": "Object_2"
    },
    {
      "children": [
        4
      ],
      "name": "RootNode"
    },
    {
      "children": [
        5,
        7,
        6,
        65
      ],
      "name": "Object_4"
    },
    {
      "children": [
        8
      ],
      "name": "_rootJoint"
    },
    {
      "matrix": [
        100.0,
        0.0,
        0.0,
        0.0,
        0.0,
        99.99999999999868,
        1.6292067073209125e-05,
        0.0,
        0.0,
        -1.6292067073209125e-05,
        99.99999999999868,
        0.0,
        0.0,
        0.0,
        0.0,
        1.0
      ],
      "name": "Object_6"
    },
    {
      "mesh": 0,
      "name": "Object_7",
      "skin": 0
    },
    {
      "children": [
        9,
        55,
        60
      ],
      "name": "mixamorig:Hips_01",
      "translation": [
        0.19161033630371094,
        56.995941162109375,
        2.708979368209839
      ]
    },
    {
      "children": [
        10
      ],
      "name": "mixamorig:Spine_02",
      "rotation": [
        -0.04911002144217491,
        -0.0,
        0.0,
        0.9987934827804565
      ],
      "translation": [
        0.0,
        6.5818328857421875,
        -0.6488170623779297
      ]
    },
    {
      "children": [
        11
      ],
      "name": "mixamorig:Spine1_03",
      "rotation": [
        2.1460257570993235e-08,
        0.0,
        0.0,
        1.0
      ],
      "translation": [
        0.0,
        7.716021537780762,
        3.2112488668190053e-08
      ]
    },
    {
      "children": [
        12,
        15,
        35
      ],
      "name": "mixamorig:Spine2_04",
      "rotation": [
        6.938893903907228e-18,
        0.0,
        0.0,
        1.0
      ],
      "translation": [
        0.0,
        8.818315505981445,
        -5.715519080240483e-08
      ]
    },
    {
      "children": [
        13
      ],
      "name": "mixamorig:Neck_00",
      "rotation": [
        0.04911000281572342,
        0.0,
        0.0,
        0.9987934827804565
      ],
      "translation": [
        0.0,
        9.920601844787598,
        1.1844498004620618e-07
      ]
    },
    {
      "children": [
        14
      ],
      "name": "mixamorig:Head_05",
      "translation": [
        0.0,
        5.776283264160156,
        -0.5172885656356812
      ]
    },
    {
      "name": "mixamorig:HeadTop_End_06",
      "translation": [
        0.0,
        77.97388458251953,
        -6.982863426208496
      ]
    },
    {
      "children": [
        16
      ],
      "name": "mixamorig:LeftShoulder_07",
      "rotation": [
        -0.5357669591903687,
        -0.4592343866825104,
        0.5490390658378601,
        -0.44789913296699524
      ],
      "translation": [
        6.004773139953613,
        8.86174488067627,
        -0.14596675336360931
      ]
    },
    {
      "children": [
        17
      ],
      "name": "mixamorig:LeftArm_08",
      "rotation": [
        0.37039563059806824,
        0.10457754135131836,
        -0.04201146587729454,
        0.9220117330551147
      ],
      "translation": [
        -7.979021887649651e-10,
        12.072032928466797,
        1.7815935393628024e-08
      ]
    },
    {
      "children": [
        18
      ],
      "name": "mixamorig:LeftForeArm_09",
      "rotation": [
        -0.0712754875421524,
        -0.008336997590959072,
        0.115877166390419,
        0.9906679391860962
      ],
      "translation": [
        -2.57049599383663e-08,
        13.006258964538574,
        -1.8708145432810852e-07
      ]
    },
    {
      "children": [
        19,
        23,
        27,
        31
      ],
      "name": "mixamorig:LeftHand_010",
      "rotation": [
        -0.02870727702975273,
        -0.022966790944337845,
        -0.1135212779045105,
        0.9928552508354187
      ],
      "translation": [
        1.157218250114056e-07,
        13.844375610351563,
        2.640642264850612e-07
      ]
    },
    {
      "children": [
        20
      ],
      "name": "mixamorig:LeftHandThumb1_011",
      "rotation": [
        0.18134805560112,
        0.11574561893939972,
        0.525409460067749,
        0.8232015371322632
      ],
      "translation": [
        -5.060276985168457,
        2.3457956314086914,
        2.5827744007110596
      ]
    },
    {
      "children": [
        21
      ],
      "name": "mixamorig:LeftHandThumb2_012",
      "rotation": [
        0.11322591453790665,
        1.2095424022510516e-16,
        -4.171901301278956e-17,
        0.9935692548751831
      ],
      "translation": [
        -0.0025479127652943134,
        4.917226314544678,
        2.8106705940444954e-07
      ]
    },
    {
      "children": [
        22
      ],
      "name": "mixamorig:LeftHandThumb3_013",
      "rotation": [
        -0.03679462522268295,
        -5.445230710763075e-17,
        -2.97792928365746e-17,
        0.9993228316307068
      ],
      "translation": [
        -1.1975231170654297,
        6.732936382293701,
        -1.2376241897982254e-07
      ]
    },
    {
      "name": "mixamorig:LeftHandThumb4_014",
      "rotation": [
        -1.6741125152819336e-09,
        -1.3877787807814457e-17,
        2.7755575615628914e-17,
        1.0
      ],
      "translation": [
        1.2000714540481567,
        4.444682598114014,
        -1.1116061671145872e-07
      ]
    },
    {
      "children": [
        24
      ],
      "name": "mixamorig:LeftHandIndex1_015",
      "rotation": [
        -0.020399045199155807,
        -0.004249502904713154,
        0.20389634370803833,
        0.9787707328796387
      ],
      "translation": [
        -7.0533366203308105,
        14.510918617248535,
        0.06074969097971916
      ]
    },
    {
      "children": [
        25
      ],
      "name": "mixamorig:LeftHandIndex2_016",
      "rotation": [
        0.07704776525497437,
        -2.0994451097165456e-17,
        2.9460725730345725e-17,
        0.9970273971557617
      ],
      "translation": [
        -0.0737135261297226,
        5.721346378326416,
        1.0082956691803702e-08
      ]
    },
    {
      "children": [
        26
      ],
      "name": "mixamorig:LeftHandIndex3_017",
      "rotation": [
        0.06932540982961655,
        -3.461099706956219e-17,
        2.4052083699617708e-18,
        0.9975941181182861
      ],
      "translation": [
        0.024241480976343155,
        5.402369022369385,
        -6.657096207618451e-08
      ]
    },
    {
      "name": "mixamorig:LeftHandIndex4_018",
      "rotation": [
        -2.1209901390761843e-08,
        -2.081668005736046e-17,
        -8.326672684688674e-17,
        1.0
      ],
      "translation": [
        0.04947251081466675,
        3.0585548877716064,
        -1.7667957763478626e-08
      ]
    },
    {
      "children": [
        28
      ],
      "name": "mixamorig:LeftHandMiddle1_019",
      "rotation": [
        -0.08338741958141327,
        -0.0028299298137426376,
        0.03379933908581734,
        0.9959398508071899
      ],
      "translation": [
        -0.1834045946598053,
        15.911938667297363,
        0.4510069191455841
      ]
    },
    {
      "children": [
        29
      ],
      "name": "mixamorig:LeftHandMiddle2_020",
      "rotation": [
        0.09620165824890137,
        -2.0860409374033382e-19,
        -2.158347069493283e-18,
        0.995361864566803
      ],
      "translation": [
        -0.011314290575683117,
        5.904048919677734,
        1.1188575399501133e-08
      ]
    },
    {
      "children": [
        30
      ],
      "name": "mixamorig:LeftHandMiddle3_021",
      "rotation": [
        0.18937361240386963,
        -2.935249576463806e-18,
        -6.058990867061602e-18,
        0.9819051027297974
      ],
      "translation": [
        -0.00581081910058856,
        6.234376907348633,
        -3.163003441386536e-07
      ]
    },
    {
      "name": "mixamorig:LeftHandMiddle4_022",
      "rotation": [
        1.8254961986485796e-08,
        1.6479873021779667e-17,
        -1.6479873021779667e-17,
        1.0
      ],
      "translation": [
        0.017125103622674942,
        3.4647648334503174,
        2.534660836772673e-08
      ]
    },
    {
      "children": [
        32
      ],
      "name": "mixamorig:LeftHandRing1_023",
      "rotation": [
        -0.028953280299901962,
        0.004259580746293068,
        -0.14549027383327484,
        0.9889267683029175
      ],
      "translation": [
        7.236741065979004,
        14.108969688415527,
        0.07026489078998566
      ]
    },
    {
      "children": [
        33
      ],
      "name": "mixamorig:LeftHandRing2_024",
      "rotation": [
        0.07441089302301407,
        1.244480244850413e-17,
        2.6904133795709706e-17,
        0.997227668762207
      ],
      "translation": [
        0.02139315940439701,
        5.276926517486572,
        2.1541455907936324e-07
      ]
    },
    {
      "children": [
        34
      ],
      "name": "mixamorig:LeftHandRing3_025",
      "rotation": [
        -0.033741213381290436,
        -1.3142296857440482e-17,
        5.509909286347576e-17,
        0.9994307160377502
      ],
      "translation": [
        -0.0020147114992141724,
        5.080672264099121,
        3.778011148369842e-07
      ]
    },
    {
      "name": "mixamorig:LeftHandRing4_026",
      "rotation": [
        1.0018879947892856e-08,
        4.336808689942018e-17,
        1.3877787807814457e-16,
        1.0
      ],
      "translation": [
        -0.019378721714019775,
        2.8251569271087646,
        2.8647178851315402e-08
      ]
    },
    {
      "children": [
        36
      ],
      "name": "mixamorig:RightShoulder_027",
      "rotation": [
        0.5398433208465576,
        -0.45572417974472046,
        0.5456482172012329,
        0.4507245719432831
      ],
      "translation": [
        -6.004773139953613,
        8.85362434387207,
        -0.0635913833975792
      ]
    },
    {
      "children": [
        37
      ],
      "name": "mixamorig:RightArm_028",
      "rotation": [
        0.37056535482406616,
        -0.08701467514038086,
        0.03489440679550171,
        0.9240628480911255
      ],
      "translation": [
        -3.7748169035012324e-09,
        12.072032928466797,
        1.7358189552396652e-08
      ]
    },
    {
      "children": [
        38
      ],
      "name": "mixamorig:RightForeArm_029",
      "rotation": [
        -0.06612540036439896,
        0.0036702966317534447,
        -0.055298127233982086,
        0.9962711930274963
      ],
      "translation": [
        6.520182438407573e-08,
        12.972861289978027,
        2.854821730124968e-07
      ]
    },
    {
      "children": [
        39,
        43,
        47,
        51
      ],
      "name": "mixamorig:RightHand_030",
      "rotation": [
        -0.030907675623893738,
        0.028655467554926872,
        0.049550361931324005,
        0.9978819489479065
      ],
      "translation": [
        -2.0823133439762387e-08,
        13.712575912475586,
        3.04340119328117e-07
      ]
    },
    {
      "children": [
        40
      ],
      "name": "mixamorig:RightHandThumb1_031",
      "rotation": [
        0.16022880375385284,
        -0.10211775451898575,
        -0.5276616811752319,
        0.8279322981834412
      ],
      "translation": [
        5.1940412521362305,
        2.6841769218444824,
        2.3490517139434814
      ]
    },
    {
      "children": [
        41
      ],
      "name": "mixamorig:RightHandThumb2_032",
      "rotation": [
        0.14148713648319244,
        -4.709860197886288e-17,
        6.280683129441633e-17,
        0.9899401068687439
      ],
      "translation": [
        -0.19176678359508514,
        5.037045001983643,
        -1.4630765576839622e-07
      ]
    },
    {
      "children": [
        42
      ],
      "name": "mixamorig:RightHandThumb3_033",
      "rotation": [
        -0.132808655500412,
        3.686180680151696e-18,
        -2.7509707759076102e-17,
        0.991141676902771
      ],
      "translation": [
        1.1745524406433105,
        6.961111068725586,
        -2.761155712960317e-07
      ]
    },
    {
      "name": "mixamorig:RightHandThumb4_034",
      "rotation": [
        -7.642525723383642e-09,
        4.163336342344337e-17,
        -1.1102230246251565e-16,
        1.0
      ],
      "translation": [
        -0.982785701751709,
        4.770838737487793,
        -8.548190066903771e-08
      ]
    },
    {
      "children": [
        44
      ],
      "name": "mixamorig:RightHandIndex1_035",
      "rotation": [
        -0.06126422435045242,
        0.010610410012304783,
        -0.17032022774219513,
        0.9834251999855042
      ],
      "translation": [
        6.893360137939453,
        14.955389022827148,
        0.38587072491645813
      ]
    },
    {
      "children": [
        45
      ],
      "name": "mixamorig:RightHandIndex2_036",
      "rotation": [
        0.13681571185588837,
        -1.7544687735068154e-17,
        -2.5595876519424413e-17,
        0.9905965328216553
      ],
      "translation": [
        0.19498661160469055,
        5.4620184898376465,
        1.267267180082854e-07
      ]
    },
    {
      "children": [
        46
      ],
      "name": "mixamorig:RightHandIndex3_037",
      "rotation": [
        0.1436893790960312,
        1.0300331747376731e-17,
        -1.49556798329971e-18,
        0.9896228313446045
      ],
      "translation": [
        -0.05142633244395256,
        5.74001407623291,
        -6.079683601001307e-08
      ]
    },
    {
      "name": "mixamorig:RightHandIndex4_038",
      "rotation": [
        -2.1497941204984272e-08,
        -1.193375465390571e-24,
        5.551115123125783e-17,
        1.0
      ],
      "translation": [
        -0.1435605138540268,
        2.8030264377593994,
        -1.2632054335881548e-07
      ]
    },
    {
      "children": [
        48
      ],
      "name": "mixamorig:RightHandMiddle1_039",
      "rotation": [
        -0.12392953038215637,
        0.0012658140622079372,
        -0.010134703479707241,
        0.992238461971283
      ],
      "translation": [
        0.377732515335083,
        16.218839645385742,
        0.3877664804458618
      ]
    },
    {
      "children": [
        49
      ],
      "name": "mixamorig:RightHandMiddle2_040",
      "rotation": [
        0.13971881568431854,
        7.234391770032609e-18,
        1.607067897366372e-18,
        0.9901912212371826
      ],
      "translation": [
        0.0012411295901983976,
        5.26223611831665,
        7.430827508869697e-08
      ]
    },
    {
      "children": [
        50
      ],
      "name": "mixamorig:RightHandMiddle3_041",
      "rotation": [
        0.14768297970294952,
        9.174340410345048e-18,
        5.645908863271502e-18,
        0.9890347719192505
      ],
      "translation": [
        0.004605934955179691,
        6.629952907562256,
        1.4655319091616548e-07
      ]
    },
    {
      "name": "mixamorig:RightHandMiddle4_042",
      "rotation": [
        -2.5614639298510156e-08,
        5.2041691871595025e-18,
        4.7704895589362195e-17,
        1.0
      ],
      "translation": [
        -0.005847062915563583,
        3.770453691482544,
        -2.2638063512658846e-07
      ]
    },
    {
      "children": [
        52
      ],
      "name": "mixamorig:RightHandRing1_043",
      "rotation": [
        -0.0980982854962349,
        -0.01314563862979412,
        0.1321653425693512,
        0.9862739443778992
      ],
      "translation": [
        -7.271092414855957,
        14.731480598449707,
        0.442094624042511
      ]
    },
    {
      "children": [
        53
      ],
      "name": "mixamorig:RightHandRing2_044",
      "rotation": [
        0.1558540165424347,
        5.955333969370438e-18,
        -2.903858568525786e-17,
        0.9877800941467285
      ],
      "translation": [
        -0.09346923977136612,
        4.8541460037231445,
        1.0644271242199466e-08
      ]
    },
    {
      "children": [
        54
      ],
      "name": "mixamorig:RightHandRing3_045",
      "rotation": [
        0.07602381706237793,
        -1.9026735658050838e-17,
        1.4506833021062045e-18,
        0.9971060156822205
      ],
      "translation": [
        0.014528302475810051,
        5.151744842529297,
        4.081159943325474e-08
      ]
    },
    {
      "name": "mixamorig:RightHandRing4_046",
      "rotation": [
        -2.2857301829048993e-08,
        2.0816681711721685e-17,
        -2.7755575615628914e-17,
        1.0
      ],
      "translation": [
        0.07894110679626465,
        2.3923161029815674,
        -5.868041341727803e-08
      ]
    },
    {
      "children": [
        56
      ],
      "name": "mixamorig:LeftUpLeg_047",
      "rotation": [
        0.0005282341153360903,
        0.013140152208507061,
        0.9991066455841064,
        -0.04016409069299698
      ],
      "translation": [
        14.54954719543457,
        -3.6617355346679688,
        -0.6088416576385498
      ]
    },
    {
      "children": [
        57
      ],
      "name": "mixamorig:LeftLeg_048",
      "rotation": [
        -0.14161552488803864,
        0.008071971125900745,
        -0.05633143335580826,
        0.988284707069397
      ],
      "translation": [
        9.147797186415119e-08,
        20.721118927001953,
        -1.5198470038058076e-08
      ]
    },
    {
      "children": [
        58
      ],
      "name": "mixamorig:LeftFoot_049",
      "rotation": [
        0.5609604716300964,
        -0.03219147399067879,
        0.02183762565255165,
        0.8269281387329102
      ],
      "translation": [
        1.4255194358270273e-08,
        12.120830535888672,
        -8.515655025576052e-08
      ]
    },
    {
      "children": [
        59
      ],
      "name": "mixamorig:LeftToeBase_050",
      "rotation": [
        0.3209890127182007,
        0.07971501350402832,
        -0.027124738320708275,
        0.943332314491272
      ],
      "translation": [
        4.281306331677115e-08,
        31.14098358154297,
        3.605289862207428e-07
      ]
    },
    {
      "name": "mixamorig:LeftToe_End_051",
      "rotation": [
        -1.5627584296074026e-11,
        -1.634434775021898e-17,
        1.734723475976807e-18,
        1.0
      ],
      "translation": [
        1.2641105939792396e-08,
        14.234904289245605,
        8.989505140277743e-09
      ]
    },
    {
      "children": [
        61
      ],
      "name": "mixamorig:RightUpLeg_052",
      "rotation": [
        -0.0002236713480670005,
        0.0055623892694711685,
        0.9991770386695862,
        0.04017828777432442
      ],
      "translation": [
        -14.54954719543457,
        -3.6617355346679688,
        -0.5041162967681885
      ]
    },
    {
      "children": [
        62
      ],
      "name": "mixamorig:RightLeg_053",
      "rotation": [
        -0.11092102527618408,
        -0.006314560305327177,
        0.05648454278707504,
        0.9922026991844177
      ],
      "translation": [
        -1.7424639509044937e-09,
        20.715272903442383,
        -8.363546299960944e-09
      ]
    },
    {
      "children": [
        63
      ],
      "name": "mixamorig:RightFoot_054",
      "rotation": [
        0.5368840098381042,
        0.03389256075024605,
        -0.02159298211336136,
        0.8426985144615173
      ],
      "translation": [
        -6.509578653890458e-09,
        11.98638916015625,
        -3.3374556451803983e-09
      ]
    },
    {
      "children": [
        64
      ],
      "name": "mixamorig:RightToeBase_055",
      "rotation": [
        0.32617834210395813,
        -0.08146548271179199,
        0.028227290138602257,
        0.9413682818412781
      ],
      "translation": [
        -5.094390331805698e-08,
        30.685455322265625,
        1.078920377040049e-06
      ]
    },
    {
      "name": "mixamorig:RightToe_End_056",
      "rotation": [
        2.909908147774587e-10,
        -7.060866648311848e-17,
        1.734723475976807e-18,
        1.0
      ],
      "translation": [
        -5.433363980955619e-09,
        14.211407661437988,
        4.838906608739535e-09
      ]
    },
    {
      "name": "PapaSmurf",
      "rotation": [
        8.146033536604591e-08,
        0.0,
        0.0,
        1.0
      ],
      "scale": [
        100.0,
        100.0,
        100.0
      ]
    }
  ],
  "samplers": [
    {
      "magFilter": 9729,
      "minFilter": 9987,
      "wrapS": 10497,
      "wrapT": 10497
    }
  ],
  "scene": 0,
  "scenes": [
    {
      "name": "Sketchfab_Scene",
      "nodes": [
        0
      ]
    }
  ],
  "skins": [
    {
      "inverseBindMatrices": 4,
      "joints": [
        5,
        8,
        9,
        10,
        11,
        12,
        13,
        14,
        15,
        16,
        17,
        18,
        19,
        20,
        21,
        22,
        23,
        24,
        25,
        26,
        27,
        28,
        29,
        30,
        31,
        32,
        33,
        34,
        35,
        36,
        37,
        38,
        39,
        40,
        41,
        42,
        43,
        44,
        45,
        46,
        47,
        48,
        49,
        50,
        51,
        52,
        53,
        54,
        55,
        56,
        57,
        58,
        59,
        60,
        61,
        62,
        63,
        64
      ],
      "skeleton": 5
    }
  ],
  "textures": [
    {
      "sampler": 0,
      "source": 0
    }
  ]
}
