{
  "accessors": [
    {
      "bufferView": 3,
      "componentType": 5126,
      "count": 1994,
      "max": [
        3.5,
        12.719317436218262,
        1.399999976158142
      ],
      "min": [
        -3.5,
        7.519317626953125,
        -1.6999999284744263
      ],
      "type": "VEC3"
    },
    {
      "bufferView": 3,
      "byteOffset": 23928,
      "componentType": 5126,
      "count": 1994,
      "max": [
        1.0,
        1.0,
        1.0
      ],
      "min": [
        -1.0,
        -1.0,
        -1.0
      ],
      "type": "VEC3"
    },
    {
      "bufferView": 2,
      "componentType": 5126,
      "count": 1994,
      "max": [
        1.0,
        1.0
      ],
      "min": [
        0.0,
        0.0
      ],
      "type": "VEC2"
    },
    {
      "bufferView": 1,
      "componentType": 5125,
      "count": 3678,
      "type": "SCALAR"
    },
    {
      "bufferView": 3,
      "byteOffset": 47856,
      "componentType": 5126,
      "count": 3177,
      "max": [
        3.9700000286102295,
        14.53011417388916,
        1.2000000476837158
      ],
      "min": [
        -3.9700000286102295,
        0.4393167495727539,
        -1.0
      ],
      "type": "VEC3"
    },
    {
      "bufferView": 3,
      "byteOffset": 85980,
      "componentType": 5126,
      "count": 3177,
      "max": [
        1.0,
        1.0,
        1.0
      ],
      "min": [
        -1.0,
        -1.0,
        -1.0
      ],
      "type": "VEC3"
    },
    {
      "bufferView": 2,
      "byteOffset": 15952,
      "componentType": 5126,
      "count": 3177,
      "max": [
        1.0,
        1.0
      ],
      "min": [
        0.0,
        0.0
      ],
      "type": "VEC2"
    },
    {
      "bufferView": 1,
      "byteOffset": 14712,
      "componentType": 5125,
      "count": 7650,
      "type": "SCALAR"
    },
    {
      "bufferView": 3,
      "byteOffset": 124104,
      "componentType": 5126,
      "count": 3158,
      "max": [
        2.9820001125335693,
        14.580775260925293,
        2.0
      ],
      "min": [
        -2.9820001125335693,
        0.019317626953125,
        -1.0129071474075317
      ],
      "type": "VEC3"
    },
    {
      "bufferView": 3,
      "byteOffset": 162000,
      "componentType": 5126,
      "count": 3158,
      "max": [
        1.0,
        1.0,
        1.0
      ],
      "min": [
        -1.0,
        -1.0,
        -1.0
      ],
      "type": "VEC3"
    },
    {
      "bufferView": 2,
      "byteOffset": 41368,
      "componentType": 5126,
      "count": 3158,
      "max": [
        1.0,
        1.0
      ],
      "min": [
        0.0,
        0.0
      ],
      "type": "VEC2"
    },
    {
      "bufferView": 1,
      "byteOffset": 45312,
      "componentType": 5125,
      "count": 6261,
      "type": "SCALAR"
    },
    {
      "bufferView": 3,
      "byteOffset": 199896,
      "componentType": 5126,
      "count": 118,
      "max": [
        1.6747967004776,
        12.603109359741211,
        1.1836436986923218
      ],
      "min": [
        -1.6747967004776,
        7.97614860534668,
        0.8200799226760864
      ],
      "type": "VEC3"
    },
    {
      "bufferView": 3,
      "byteOffset": 201312,
      "componentType": 5126,
      "count": 118,
      "max": [
        0.5583711266517639,
        0.5583711266517639,
        1.0
      ],
      "min": [
        -0.5583711266517639,
        -0.5583852529525757,
        0.8295817375183105
      ],
      "type": "VEC3"
    },
    {
      "bufferView": 2,
      "byteOffset": 66632,
      "componentType": 5126,
      "count": 118,
      "max": [
        1.0,
        1.0
      ],
      "min": [
        0.0,
        0.01000000536441803
      ],
      "type": "VEC2"
    },
    {
      "bufferView": 1,
      "byteOffset": 70356,
      "componentType": 5125,
      "count": 288,
      "type": "SCALAR"
    },
    {
      "bufferView": 3,
      "byteOffset": 202728,
      "componentType": 5126,
      "count": 18,
      "max": [
        0.4301724433898926,
        13.680290222167969,
        0.6421811580657959
      ],
      "min": [
        -0.4301724433898926,
        13.483899116516113,
        0.5198200345039368
      ],
      "type": "VEC3"
    },
    {
      "bufferView": 3,
      "byteOffset": 202944,
      "componentType": 5126,
      "count": 18,
      "max": [
        0.3583528399467468,
        0.05310371145606041,
        0.936731219291687
      ],
      "min": [
        -0.3583528399467468,
        -0.02838302217423916,
        0.9329320192337036
      ],
      "type": "VEC3"
    },
    {
      "bufferView": 2,
      "byteOffset": 67576,
      "componentType": 5126,
      "count": 18,
      "max": [
        0.574999988079071,
        0.949999988079071
      ],
      "min": [
        0.375,
        0.75
      ],
      "type": "VEC2"
    },
    {
      "bufferView": 1,
      "byteOffset": 71508,
      "componentType": 5125,
      "count": 48,
      "type": "SCALAR"
    },
    {
      "bufferView": 3,
      "byteOffset": 203160,
      "componentType": 5126,
      "count": 8,
      "max": [
        1.798945665359497,
        12.244831085205078,
        1.2160017490386963
      ],
      "min": [
        -1.798945665359497,
        10.893804550170898,
        0.8844412565231323
      ],
      "type": "VEC3"
    },
    {
      "bufferView": 3,
      "byteOffset": 203256,
      "componentType": 5126,
      "count": 8,
      "max": [
        0.1961161494255066,
        0.0,
        0.980580747127533
      ],
      "min": [
        -0.1961161494255066,
        0.0,
        0.980580747127533
      ],
      "type": "VEC3"
    },
    {
      "bufferView": 2,
      "byteOffset": 67720,
      "componentType": 5126,
      "count": 8,
      "max": [
        0.5993402004241943,
        0.8643063306808472
      ],
      "min": [
        0.40065982937812805,
        0.7606936693191528
      ],
      "type": "VEC2"
    },
    {
      "bufferView": 1,
      "byteOffset": 71700,
      "componentType": 5125,
      "count": 12,
      "type": "SCALAR"
    },
    {
      "bufferView": 3,
      "byteOffset": 203352,
      "componentType": 5126,
      "count": 396,
      "max": [
        3.200000047683716,
        13.079317092895508,
        0.7732886075973511
      ],
      "min": [
        -3.200000047683716,
        0.7379350662231445,
        -0.7732886075973511
      ],
      "type": "VEC3"
    },
    {
      "bufferView": 3,
      "byteOffset": 208104,
      "componentType": 5126,
      "count": 396,
      "max": [
        1.0,
        1.0,
        1.0
      ],
      "min": [
        -1.0,
        -1.0,
        -1.0
      ],
      "type": "VEC3"
    },
    {
      "bufferView": 2,
      "byteOffset": 67784,
      "componentType": 5126,
      "count": 396,
      "max": [
        1.0,
        1.0
      ],
      "min": [
        0.0,
        0.0
      ],
      "type": "VEC2"
    },
    {
      "bufferView": 1,
      "byteOffset": 71748,
      "componentType": 5125,
      "count": 1062,
      "type": "SCALAR"
    },
    {
      "bufferView": 3,
      "byteOffset": 212856,
      "componentType": 5126,
      "count": 132,
      "max": [
        10.0,
        1.0,
        10.0
      ],
      "min": [
        -10.0,
        -1.0,
        -10.0
      ],
      "type": "VEC3"
    },
    {
      "bufferView": 3,
      "byteOffset": 214440,
      "componentType": 5126,
      "count": 132,
      "max": [
        0.7278809547424316,
        1.0,
        0.7278809547424316
      ],
      "min": [
        -0.7278809547424316,
        -1.0,
        -0.7278809547424316
      ],
      "type": "VEC3"
    },
    {
      "bufferView": 2,
      "byteOffset": 70952,
      "componentType": 5126,
      "count": 132,
      "max": [
        1.0,
        1.0
      ],
      "min": [
        0.0,
        0.009999990463256836
      ],
      "type": "VEC2"
    },
    {
      "bufferView": 1,
      "byteOffset": 75996,
      "componentType": 5125,
      "count": 384,
      "type": "SCALAR"
    },
    {
      "bufferView": 5,
      "componentType": 5126,
      "count": 48,
      "max": [
        1.000000238418579,
        0.9940900206565857,
        1.0,
        0.0,
        1.0,
        1.0,
        1.0000001192092896,
        0.0,
        0.9996539354324341,
        1.0,
        1.0,
        0.0,
        2.805668592453003,
        11.662932395935059,
        9.569320678710938,
        1.0
      ],
      "min": [
        -1.000000238418579,
        -0.9940900206565857,
        -0.05809624865651131,
        0.0,
        -1.0,
        -1.000000238418579,
        -1.0,
        0.0,
        -0.9940899014472961,
        -1.000000238418579,
        -0.999973714351654,
        0.0,
        -4.519318103790283,
        -13.019317626953125,
        -11.78296184539795,
        1.0
      ],
      "type": "MAT4"
    },
    {
      "bufferView": 0,
      "componentType": 5123,
      "count": 1994,
      "type": "VEC4"
    },
    {
      "bufferView": 4,
      "componentType": 5126,
      "count": 1994,
      "max": [
        1.0,
        0.0,
        0.0,
        0.0
      ],
      "min": [
        1.0,
        0.0,
        0.0,
        0.0
      ],
      "type": "VEC4"
    },
    {
      "bufferView": 0,
      "byteOffset": 15952,
      "componentType": 5123,
      "count": 3177,
      "type": "VEC4"
    },
    {
      "bufferView": 4,
      "byteOffset": 31904,
      "componentType": 5126,
      "count": 3177,
      "max": [
        1.0,
        0.0,
        0.0,
        0.0
      ],
      "min": [
        1.0,
        0.0,
        0.0,
        0.0
      ],
      "type": "VEC4"
    },
    {
      "bufferView": 0,
      "byteOffset": 41368,
      "componentType": 5123,
      "count": 3158,
      "type": "VEC4"
    },
    {
      "bufferView": 4,
      "byteOffset": 82736,
      "componentType": 5126,
      "count": 3158,
      "max": [
        1.0,
        0.0,
        0.0,
        0.0
      ],
      "min": [
        1.0,
        0.0,
        0.0,
        0.0
      ],
      "type": "VEC4"
    },
    {
      "bufferView": 0,
      "byteOffset": 66632,
      "componentType": 5123,
      "count": 118,
      "type": "VEC4"
    },
    {
      "bufferView": 4,
      "byteOffset": 133264,
      "componentType": 5126,
      "count": 118,
      "max": [
        1.0,
        0.0,
        0.0,
        0.0
      ],
      "min": [
        1.0,
        0.0,
        0.0,
        0.0
      ],
      "type": "VEC4"
    },
    {
      "bufferView": 0,
      "byteOffset": 67576,
      "componentType": 5123,
      "count": 18,
      "type": "VEC4"
    },
    {
      "bufferView": 4,
      "byteOffset": 135152,
      "componentType": 5126,
      "count": 18,
      "max": [
        1.0,
        0.0,
        0.0,
        0.0
      ],
      "min": [
        1.0,
        0.0,
        0.0,
        0.0
      ],
      "type": "VEC4"
    },
    {
      "bufferView": 0,
      "byteOffset": 67720,
      "componentType": 5123,
      "count": 8,
      "type": "VEC4"
    },
    {
      "bufferView": 4,
      "byteOffset": 135440,
      "componentType": 5126,
      "count": 8,
      "max": [
        1.0,
        0.0,
        0.0,
        0.0
      ],
      "min": [
        1.0,
        0.0,
        0.0,
        0.0
      ],
      "type": "VEC4"
    },
    {
      "bufferView": 0,
      "byteOffset": 67784,
      "componentType": 5123,
      "count": 396,
      "type": "VEC4"
    },
    {
      "bufferView": 4,
      "byteOffset": 135568,
      "componentType": 5126,
      "count": 396,
      "max": [
        1.0,
        0.0,
        0.0,
        0.0
      ],
      "min": [
        1.0,
        0.0,
        0.0,
        0.0
      ],
      "type": "VEC4"
    }
  ],
  "asset": {
    "extras": {
      "author": "ZackXevious (https://sketchfab.com/yktg_zx)",
      "license": "CC-BY-SA-4.0 (http://creativecommons.org/licenses/by-sa/4.0/)",
      "source": "https://sketchfab.com/3d-models/generation-1-optimus-prime-speed-model-c9d9dcb5d3494eb0bba8c1b90d18a80c",
      "title": "Generation 1 Optimus Prime [Speed Model]"
    },
    "generator": "Sketchfab-12.67.0",
    "version": "2.0"
  },
  "bufferViews": [
    {
      "buffer": 0,
      "byteLength": 70952,
      "byteStride": 8,
      "name": "shortBufferViews",
      "target": 34962
    },
    {
      "buffer": 0,
      "byteLength": 77532,
      "byteOffset": 70952,
      "name": "floatBufferViews",
      "target": 34963
    },
    {
      "buffer": 0,
      "byteLength": 72008,
      "byteOffset": 148484,
      "byteStride": 8,
      "name": "floatBufferViews",
      "target": 34962
    },
    {
      "buffer": 0,
      "byteLength": 216024,
      "byteOffset": 220492,
      "byteStride": 12,
      "name": "floatBufferViews",
      "target": 34962
    },
    {
      "buffer": 0,
      "byteLength": 141904,
      "byteOffset": 436516,
      "byteStride": 16,
      "name": "floatBufferViews",
      "target": 34962
    },
    {
      "buffer": 0,
      "byteLength": 3072,
      "byteOffset": 578420,
      "name": "floatBufferViews"
    }
  ],
  "buffers": [
    {
      "byteLength": 581492,
      "uri": "scene.bin"
    }
  ],
  "materials": [
    {
      "doubleSided": true,
      "name": "material",
      "pbrMetallicRoughness": {
        "baseColorFactor": [
          1.0,
          0.0,
          0.0,
          1.0
        ],
        "roughnessFactor": 0.0
      }
    },
    {
      "doubleSided": true,
      "name": "Silver",
      "pbrMetallicRoughness": {
        "roughnessFactor": 0.0
      }
    },
    {
      "doubleSided": true,
      "name": "Blue",
      "pbrMetallicRoughness": {
        "baseColorFactor": [
          0.0,
          0.0034381442945739657,
          1.0,
          1.0
        ]
      }
    },
    {
      "doubleSided": true,
      "emissiveFactor": [
        1.0,
        0.402282,
        0.0
      ],
      "name": "GlowYellow",
      "pbrMetallicRoughness": {
        "baseColorFactor": [
          1.0,
          0.792676066466701,
          0.0,
          1.0
        ],
        "roughnessFactor": 0.0
      }
    },
    {
      "doubleSided": true,
      "emissiveFactor": [
        0.0,
        0.973062,
        1.0
      ],
      "name": "Glowblue"
    },
    {
      "doubleSided": true,
      "name": "Glass",
      "pbrMetallicRoughness": {
        "baseColorFactor": [
          0.0,
          1.0,
          0.7752096179657215,
          1.0
        ],
        "roughnessFactor": 0.0
      }
    },
    {
      "doubleSided": true,
      "name": "Rubber",
      "pbrMetallicRoughness": {
        "baseColorFactor": [
          0.0,
          0.0,
          0.0,
          1.0
        ],
        "metallicFactor": 0.0,
        "roughnessFactor": 0.5
      }
    },
    {
      "doubleSided": true,
      "name": "Material.001",
      "pbrMetallicRoughness": {
        "metallicFactor": 0.0,
        "roughnessFactor": 0.5
      }
    }
  ],
  "meshes": [
    {
      "name": "Object_0",
      "primitives": [
        {
          "attributes": {
            "JOINTS_0": 33,
            "NORMAL": 1,
            "POSITION": 0,
            "TEXCOORD_0": 2,
            "WEIGHTS_0": 34
          },
          "indices": 3,
          "material": 0,
          "mode": 4
        }
      ]
    },
    {
      "name": "Object_1",
      "primitives": [
        {
          "attributes": {
            "JOINTS_0": 35,
            "NORMAL": 5,
            "POSITION": 4,
            "TEXCOORD_0": 6,
            "WEIGHTS_0": 36
          },
          "indices": 7,
          "material": 1,
          "mode": 4
        }
      ]
    },
    {
      "name": "Object_2",
      "primitives": [
        {
          "attributes": {
            "JOINTS_0": 37,
            "NORMAL": 9,
            "POSITION": 8,
            "TEXCOORD_0": 10,
            "WEIGHTS_0": 38
          },
          "indices": 11,
          "material": 2,
          "mode": 4
        }
      ]
    },
    {
      "name": "Object_3",
      "primitives": [
        {
          "attributes": {
            "JOINTS_0": 39,
            "NORMAL": 13,
            "POSITION": 12,
            "TEXCOORD_0": 14,
            "WEIGHTS_0": 40
          },
          "indices": 15,
          "material": 3,
          "mode": 4
        }
      ]
    },
    {
      "name": "Object_4",
      "primitives": [
        {
          "attributes": {
            "JOINTS_0": 41,
            "NORMAL": 17,
            "POSITION": 16,
            "TEXCOORD_0": 18,
            "WEIGHTS_0": 42
          },
          "indices": 19,
          "material": 4,
          "mode": 4
        }
      ]
    },
    {
      "name": "Object_5",
      "primitives": [
        {
          "attributes": {
            "JOINTS_0": 43,
            "NORMAL": 21,
            "POSITION": 20,
            "TEXCOORD_0": 22,
            "WEIGHTS_0": 44
          },
          "indices": 23,
          "material": 5,
          "mode": 4
        }
      ]
    },
    {
      "name": "Object_6",
      "primitives": [
        {
          "attributes": {
            "JOINTS_0": 45,
            "NORMAL": 25,
            "POSITION": 24,
            "TEXCOORD_0": 26,
            "WEIGHTS_0": 46
          },
          "indices": 27,
          "material": 6,
          "mode": 4
        }
      ]
    },
    {
      "name": "Object_7",
      "primitives": [
        {
          "attributes": {
            "NORMAL": 29,
            "POSITION": 28,
            "TEXCOORD_0": 30
          },
          "indices": 31,
          "material": 7,
          "mode": 4
        }
      ]
    }
  ],
  "nodes": [
    {
      "children": [
        1
      ],
      "matrix": [
        1.0,
        0.0,
        0.0,
        0.0,
        0.0,
        2.220446049250313e-16,
        -1.0,
        0.0,
        0.0,
        1.0,
        2.220446049250313e-16,
        0.0,
        0.0,
        0.0,
        0.0,
        1.0
      ],
      "name": "Sketchfab_model"
    },
    {
      "children": [
        2
      ],
      "name": "root"
    },
    {
      "children": [
        3,
        61
      ],
      "matrix": [
        1.0,
        0.0,
        0.0,
        0.0,
        0.0,
        2.220446049250313e-16,
        1.0,
        0.0,
        0.0,
        -1.0,
        2.220446049250313e-16,
        0.0,
        0.0,
        0.0,
        0.0,
        1.0
      ],
      "name": "GLTF_SceneRootNode"
    },
    {
      "children": [
        4
      ],
      "matrix": [
        1.0,
        0.0,
        0.0,
        0.0,
        0.0,
        1.0,
        0.0,
        0.0,
        0.0,
        0.0,
        1.0,
        0.0,
        0.0,
        7.719317436218262,
        0.0,
        1.0
      ],
      "name": "Armature_48"
    },
    {
      "children": [
        5,
        7,
        8,
        9,
        10,
        11,
        12,
        13,
        6
      ],
      "name": "GLTF_created_0"
    },
    {
      "children": [
        14,
        17,
        20
      ],
      "name": "GLTF_created_0_rootJoint"
    },
    {
      "name": "Prime_47"
    },
    {
      "mesh": 0,
      "name": "Object_7",
      "skin": 0
    },
    {
      "mesh": 1,
      "name": "Object_8",
      "skin": 0
    },
    {
      "mesh": 2,
      "name": "Object_9",
      "skin": 0
    },
    {
      "mesh": 3,
      "name": "Object_10",
      "skin": 0
    },
    {
      "mesh": 4,
      "name": "Object_11",
      "skin": 0
    },
    {
      "mesh": 5,
      "name": "Object_12",
      "skin": 0
    },
    {
      "mesh": 6,
      "name": "Object_13",
      "skin": 0
    },
    {
      "children": [
        15,
        16
      ],
      "name": "FootIK.L_2",
      "rotation": [
        -0.6221638917922974,
        0.6221638917922974,
        -0.33602386713027954,
        0.3360239565372467
      ],
      "translation": [
        2.8947901725769043,
        -7.0,
        -1.9447458982467651
      ]
    },
    {
      "name": "Knee.L_0",
      "rotation": [
        2.384185791015625e-07,
        -4.341081619027544e-22,
        1.0,
        2.6645352591003757e-15
      ],
      "translation": [
        -3.8000001907348633,
        -3.0999999046325684,
        2.352439878450241e-07
      ]
    },
    {
      "name": "Foot.L_1",
      "rotation": [
        -2.814857111843594e-07,
        -2.281345667931589e-10,
        -0.9972302913665771,
        0.07437587529420853
      ],
      "scale": [
        1.0000046491622925,
        1.0,
        1.0
      ],
      "translation": [
        9.318160465454639e-08,
        -1.1789038723009071e-07,
        2.463750661263475e-07
      ]
    },
    {
      "children": [
        18,
        19
      ],
      "name": "FootIK.R_5",
      "rotation": [
        -0.44019874930381775,
        0.44019871950149536,
        -0.5533760190010071,
        0.5533760786056519
      ],
      "translation": [
        -1.848048448562622,
        -7.0,
        0.46597182750701904
      ]
    },
    {
      "name": "Knee.R_3",
      "rotation": [
        2.3841860752327193e-07,
        -4.2351642314005224e-22,
        1.0,
        1.7763568394002505e-15
      ],
      "translation": [
        -3.799999952316284,
        -3.0999999046325684,
        2.3524387415818637e-07
      ]
    },
    {
      "name": "Foot.R_4",
      "rotation": [
        -5.166363052921952e-07,
        -3.306384854795397e-08,
        -0.9972302913665771,
        0.07437608391046524
      ],
      "scale": [
        1.0000046491622925,
        0.9999999403953552,
        1.0
      ],
      "translation": [
        -5.781432932394637e-08,
        -1.1789040144094542e-07,
        -5.1648157750605606e-08
      ]
    },
    {
      "children": [
        21,
        23,
        25
      ],
      "name": "Waist.001_46",
      "rotation": [
        -0.6883902549743652,
        0.16161338984966278,
        0.16161338984966278,
        0.6883902549743652
      ],
      "translation": [
        0.6265710592269897,
        -0.10007071495056152,
        -0.28555217385292053
      ]
    },
    {
      "children": [
        22
      ],
      "name": "Thigh.L_7",
      "rotation": [
        -0.5245715379714966,
        0.30711793899536133,
        -0.437879353761673,
        0.6623933911323547
      ],
      "scale": [
        1.0000003576278687,
        1.0000003576278687,
        1.000000238418579
      ],
      "translation": [
        1.0000001192092896,
        3.7231536964554834e-08,
        -0.24909406900405884
      ]
    },
    {
      "name": "Calf.L_6",
      "rotation": [
        3.120049330007646e-09,
        -2.5834076211594947e-08,
        0.0028350031934678555,
        0.9999960660934448
      ],
      "scale": [
        0.9999995827674866,
        0.9999996423721313,
        0.9999999403953552
      ],
      "translation": [
        6.022887077961059e-09,
        2.9525997638702393,
        6.369322846921932e-10
      ]
    },
    {
      "children": [
        24
      ],
      "name": "Thigh.R_9",
      "rotation": [
        -0.29753783345222473,
        0.7110586762428284,
        -0.6173872351646423,
        0.15716207027435303
      ],
      "scale": [
        1.0000003576278687,
        1.000000238418579,
        1.000000238418579
      ],
      "translation": [
        -1.0000001192092896,
        -6.436956301314467e-09,
        -0.24909403920173645
      ]
    },
    {
      "name": "Calf.R_8",
      "rotation": [
        2.305376778366508e-09,
        1.2303009722103297e-09,
        0.002833347534760833,
        0.9999960064888
      ],
      "scale": [
        0.999999463558197,
        0.9999995827674866,
        0.9999998807907104
      ],
      "translation": [
        5.152983817424683e-09,
        2.9525997638702393,
        6.369322846921932e-10
      ]
    },
    {
      "children": [
        26
      ],
      "name": "Waist_45",
      "rotation": [
        0.7071068286895752,
        0.0,
        0.0,
        0.7071068286895752
      ],
      "translation": [
        0.0,
        0.0,
        7.450580596923828e-09
      ]
    },
    {
      "children": [
        27,
        29,
        45
      ],
      "name": "Chest_44",
      "rotation": [
        0.0,
        0.019748276099562645,
        0.0,
        0.9998049736022949
      ],
      "scale": [
        1.0000001192092896,
        1.0,
        1.0000001192092896
      ],
      "translation": [
        0.0,
        2.5999999046325684,
        0.0
      ]
    },
    {
      "children": [
        28
      ],
      "name": "Neck_11",
      "rotation": [
        0.0,
        -0.19711902737617493,
        0.0,
        0.980379581451416
      ],
      "scale": [
        0.9999997615814209,
        0.9999998807907104,
        0.9999997019767761
      ],
      "translation": [
        0.0,
        2.0,
        0.0
      ]
    },
    {
      "name": "Head_10",
      "rotation": [
        0.021047228947281837,
        -0.19707655906677246,
        0.004231906495988369,
        0.9801530241966248
      ],
      "scale": [
        1.0,
        0.9999998807907104,
        0.9999999403953552
      ],
      "translation": [
        0.0,
        0.6999998092651367,
        0.0
      ]
    },
    {
      "children": [
        30,
        43
      ],
      "name": "Shoulder.L_27",
      "rotation": [
        -0.6048819422721863,
        -0.40732038021087646,
        -0.4145871102809906,
        0.54435795545578
      ],
      "scale": [
        1.0,
        0.9999998211860657,
        1.0000001192092896
      ],
      "translation": [
        1.242228627204895,
        1.443985939025879,
        0.13838522136211395
      ]
    },
    {
      "children": [
        31
      ],
      "name": "UpperArm.L_24",
      "rotation": [
        -0.370714008808136,
        -0.4398671090602875,
        0.489025354385376,
        0.6556998491287231
      ],
      "scale": [
        1.0,
        1.0000003576278687,
        1.0
      ],
      "translation": [
        1.4636960088409978e-08,
        1.5727216005325317,
        7.166337923081301e-08
      ]
    },
    {
      "children": [
        32,
        41
      ],
      "name": "ForeArm.L_23",
      "rotation": [
        -0.3492041826248169,
        8.575552357115157e-08,
        6.688535592047629e-08,
        0.9370466470718384
      ],
      "scale": [
        0.9999998211860657,
        0.9999999403953552,
        0.9999995231628418
      ],
      "translation": [
        2.506212979369593e-07,
        2.094052314758301,
        1.1697416368861013e-09
      ]
    },
    {
      "children": [
        33,
        35,
        37,
        39
      ],
      "name": "Hand.L_20",
      "rotation": [
        -5.886370502139471e-09,
        0.9999934434890747,
        0.0036269286647439003,
        4.3128730453645403e-07
      ],
      "scale": [
        1.0000001192092896,
        1.0000001192092896,
        1.0
      ],
      "translation": [
        2.384185791015625e-07,
        2.300060272216797,
        -9.786287336055466e-10
      ]
    },
    {
      "children": [
        34
      ],
      "name": "Point1.L_13",
      "rotation": [
        0.08527036756277084,
        -0.01803019642829895,
        -0.2060861587524414,
        0.9746447801589966
      ],
      "scale": [
        1.0000001192092896,
        1.0000001192092896,
        1.0000001192092896
      ],
      "translation": [
        -1.8231159515380568e-07,
        0.7799999117851257,
        0.3399999439716339
      ]
    },
    {
      "name": "Point2.L_12",
      "rotation": [
        6.833835164421487e-10,
        -1.5086154547816477e-08,
        -0.20687338709831238,
        0.9783677458763123
      ],
      "scale": [
        0.9999998807907104,
        0.9999999403953552,
        1.0
      ],
      "translation": [
        -1.8231156673209625e-07,
        0.4580070674419403,
        1.448634545653249e-10
      ]
    },
    {
      "children": [
        36
      ],
      "name": "Middle1.L_15",
      "rotation": [
        0.02019518055021763,
        -0.004270215984433889,
        -0.20682929456233978,
        0.9781593680381775
      ],
      "scale": [
        1.0000001192092896,
        1.0000001192092896,
        1.0
      ],
      "translation": [
        -6.199680342433567e-07,
        0.7799999117851257,
        0.11000002920627594
      ]
    },
    {
      "name": "Middle2.L_14",
      "rotation": [
        -6.931932805542829e-09,
        -1.7593431156370798e-09,
        -0.20687337219715118,
        0.9783677458763123
      ],
      "scale": [
        1.0,
        1.000000238418579,
        1.000000238418579
      ],
      "translation": [
        -1.4313086182937695e-07,
        0.5499998927116394,
        2.7337598851318035e-10
      ]
    },
    {
      "children": [
        38
      ],
      "name": "Ring1.L_17",
      "rotation": [
        -0.04267580807209015,
        0.009023686870932579,
        -0.20667646825313568,
        0.9774365425109863
      ],
      "scale": [
        1.0000001192092896,
        1.0,
        1.0000001192092896
      ],
      "translation": [
        -9.528764621791197e-08,
        0.7800002694129944,
        -0.11000007390975952
      ]
    },
    {
      "name": "Ring2.L_16",
      "rotation": [
        -1.0739592326558522e-08,
        -1.7593454471054315e-09,
        -0.20687335729599,
        0.9783677458763123
      ],
      "scale": [
        1.0000001192092896,
        1.0,
        1.0
      ],
      "translation": [
        -3.3370622531947447e-07,
        0.4999999403953552,
        2.035269730527034e-10
      ]
    },
    {
      "children": [
        40
      ],
      "name": "Pink1.L_19",
      "rotation": [
        -0.04267577826976776,
        0.00902370736002922,
        -0.20667646825313568,
        0.9774365425109863
      ],
      "scale": [
        1.0,
        0.9999998807907104,
        0.9999999403953552
      ],
      "translation": [
        -2.94525477784191e-07,
        0.7800002694129944,
        -0.3400000035762787
      ]
    },
    {
      "name": "Pink2.L_18",
      "rotation": [
        6.833827392860314e-10,
        3.952143057261992e-09,
        -0.20687341690063477,
        0.9783677458763123
      ],
      "scale": [
        1.000000238418579,
        1.0000003576278687,
        1.000000238418579
      ],
      "translation": [
        -2.945255630493193e-07,
        0.43500009179115295,
        1.1272294209163647e-10
      ]
    },
    {
      "children": [
        42
      ],
      "name": "Thumb1.L_22",
      "rotation": [
        0.25166231393814087,
        -0.7194343209266663,
        0.5652363896369934,
        0.3155761659145355
      ],
      "scale": [
        1.0,
        1.0,
        0.9999998807907104
      ],
      "translation": [
        -0.04999971389770508,
        2.3735404014587402,
        -0.47947970032691956
      ]
    },
    {
      "name": "Thumb2.L_21",
      "rotation": [
        3.132551285034424e-08,
        -3.3477359551170593e-08,
        -0.40363627672195435,
        0.9149194955825806
      ],
      "scale": [
        1.0,
        1.0000001192092896,
        1.0
      ],
      "translation": [
        -3.455469936852751e-07,
        0.4200001060962677,
        1.9568506814948705e-08
      ]
    },
    {
      "children": [
        44
      ],
      "name": "ArmIK.L_26",
      "rotation": [
        -0.6739039421081543,
        0.737560510635376,
        0.04310471564531326,
        4.975064484824543e-07
      ],
      "scale": [
        0.9999997615814209,
        0.9999997615814209,
        1.0000001192092896
      ],
      "translation": [
        0.2059294432401657,
        2.4347214698791504,
        -4.02156925201416
      ]
    },
    {
      "name": "Elbow.L_25",
      "rotation": [
        -2.3283083794289894e-10,
        8.321137556777103e-09,
        3.168712403578411e-09,
        1.0
      ],
      "scale": [
        0.9999999403953552,
        0.9999998807907104,
        1.0
      ],
      "translation": [
        0.05344300717115402,
        8.645954132080078,
        -2.2344791889190674
      ]
    },
    {
      "children": [
        46,
        59
      ],
      "name": "Shoulder.R_43",
      "rotation": [
        -0.5896114110946655,
        0.42912742495536804,
        0.4341801404953003,
        0.5288625955581665
      ],
      "scale": [
        1.0,
        0.9999998211860657,
        1.0000001192092896
      ],
      "translation": [
        -1.2422287464141846,
        1.443985939025879,
        0.13838523626327515
      ]
    },
    {
      "children": [
        47
      ],
      "name": "UpperArm.R_40",
      "rotation": [
        -0.4223248362541199,
        0.4396679699420929,
        -0.44506239891052246,
        0.6559369564056396
      ],
      "scale": [
        1.0,
        1.0000003576278687,
        0.9999998807907104
      ],
      "translation": [
        -1.4636960088409978e-08,
        1.5727216005325317,
        7.166337923081301e-08
      ]
    },
    {
      "children": [
        48,
        57
      ],
      "name": "ForeArm.R_39",
      "rotation": [
        -1.1611898287355871e-07,
        0.9654284119606018,
        -0.26066824793815613,
        9.108568974625086e-07
      ],
      "scale": [
        1.0000003576278687,
        0.9999998807907104,
        0.9999997019767761
      ],
      "translation": [
        -2.506212979369593e-07,
        2.094052314758301,
        1.1697416368861013e-09
      ]
    },
    {
      "children": [
        49,
        51,
        53,
        55
      ],
      "name": "Hand.R_36",
      "rotation": [
        0.006890192627906799,
        -0.008573923259973526,
        -0.0618160143494606,
        0.998026967048645
      ],
      "scale": [
        0.9999999403953552,
        1.0,
        1.0
      ],
      "translation": [
        2.3302968088501075e-07,
        2.300060272216797,
        -1.0939960048972353e-09
      ]
    },
    {
      "children": [
        50
      ],
      "name": "Point1.R_29",
      "rotation": [
        0.08641006797552109,
        0.011376112699508667,
        0.13002952933311462,
        0.9876721501350403
      ],
      "scale": [
        0.9999997615814209,
        0.9999998807907104,
        0.9999999403953552
      ],
      "translation": [
        -6.591486112483835e-07,
        0.7800002098083496,
        0.3400000333786011
      ]
    },
    {
      "name": "Point2.R_28",
      "rotation": [
        7.745708074935465e-09,
        3.9618712754929675e-09,
        0.13052621483802795,
        0.9914448857307434
      ],
      "scale": [
        0.9999999403953552,
        1.0,
        0.9999999403953552
      ],
      "translation": [
        5.610701236946625e-08,
        0.4580073058605194,
        -4.456287783227708e-09
      ]
    },
    {
      "children": [
        52
      ],
      "name": "Middle1.R_31",
      "rotation": [
        0.04324621334671974,
        0.005693472921848297,
        0.13040198385715485,
        0.9905012249946594
      ],
      "scale": [
        0.9999998807907104,
        0.9999999403953552,
        1.0
      ],
      "translation": [
        9.528773148304026e-08,
        0.7800003290176392,
        0.11000032722949982
      ]
    },
    {
      "name": "Middle2.R_30",
      "rotation": [
        -2.2313773939686143e-08,
        3.683943461396666e-08,
        0.13052622973918915,
        0.9914448857307434
      ],
      "scale": [
        1.0,
        1.000000238418579,
        1.0000001192092896
      ],
      "translation": [
        9.528771016675819e-08,
        0.5500001311302185,
        1.0487711143980505e-08
      ]
    },
    {
      "children": [
        54
      ],
      "name": "Ring1.R_33",
      "rotation": [
        -0.04324621334671974,
        -0.005693479441106319,
        0.13040198385715485,
        0.9905012249946594
      ],
      "scale": [
        0.9999998807907104,
        1.0,
        1.0
      ],
      "translation": [
        -3.337062537411839e-07,
        0.7800002694129944,
        -0.1100001335144043
      ]
    },
    {
      "name": "Ring2.R_32",
      "rotation": [
        -1.855634224057212e-08,
        2.0831527614006973e-09,
        0.13052624464035034,
        0.9914448857307434
      ],
      "scale": [
        1.0,
        1.0,
        0.9999999403953552
      ],
      "translation": [
        -9.528766042876669e-08,
        0.5000001788139343,
        -4.43673364713959e-09
      ]
    },
    {
      "children": [
        56
      ],
      "name": "Pink1.R_35",
      "rotation": [
        -0.08583168685436249,
        -0.015134437941014767,
        0.17298737168312073,
        0.981060266494751
      ],
      "scale": [
        0.9999998211860657,
        1.0,
        0.9999999403953552
      ],
      "translation": [
        -2.945256198927382e-07,
        0.7800001502037048,
        -0.34000012278556824
      ]
    },
    {
      "name": "Pink2.R_34",
      "rotation": [
        -7.336231622190326e-09,
        -1.2225984669100853e-09,
        0.17364811897277832,
        0.9848077893257141
      ],
      "scale": [
        1.000000238418579,
        1.000000238418579,
        1.000000238418579
      ],
      "translation": [
        1.8231162357551511e-07,
        0.4350002110004425,
        -4.4665466880644544e-09
      ]
    },
    {
      "children": [
        58
      ],
      "name": "Thumb1.R_38",
      "rotation": [
        0.35645344853401184,
        -0.3155081570148468,
        0.13202959299087524,
        0.8694617748260498
      ],
      "scale": [
        1.0,
        1.0,
        0.9999999403953552
      ],
      "translation": [
        -0.04999964311718941,
        2.3735404014587402,
        0.4794796407222748
      ]
    },
    {
      "name": "Thumb2.R_37",
      "rotation": [
        -2.0066829975462497e-08,
        6.574962352345892e-09,
        0.3420201241970062,
        0.9396926164627075
      ],
      "translation": [
        3.2524346238460566e-07,
        0.4200001358985901,
        -6.019754295039093e-08
      ]
    },
    {
      "children": [
        60
      ],
      "name": "ArmIK.R_42",
      "rotation": [
        0.6739039421081543,
        0.7375605702400208,
        0.04310380667448044,
        4.975063916390354e-07
      ],
      "scale": [
        0.9999999403953552,
        0.9999999403953552,
        1.0
      ],
      "translation": [
        -0.23556286096572876,
        2.393018960952759,
        -4.15570068359375
      ]
    },
    {
      "name": "Elbow.R_41",
      "rotation": [
        -2.3283046324262813e-10,
        -6.347221415126114e-09,
        4.281881071932503e-09,
        1.0
      ],
      "scale": [
        1.0,
        1.0000001192092896,
        1.0
      ],
      "translation": [
        0.4945782423019409,
        7.950456619262695,
        -3.037771701812744
      ]
    },
    {
      "children": [
        62
      ],
      "matrix": [
        1.0,
        0.0,
        0.0,
        0.0,
        0.0,
        1.0,
        0.0,
        0.0,
        0.0,
        0.0,
        1.0,
        0.0,
        0.0,
        -1.0,
        0.0,
        1.0
      ],
      "name": "Cylinder_52"
    },
    {
      "mesh": 7,
      "name": "Object_62"
    }
  ],
  "scene": 0,
  "scenes": [
    {
      "name": "Sketchfab_Scene",
      "nodes": [
        0
      ]
    }
  ],
  "skins": [
    {
      "inverseBindMatrices": 32,
      "joints": [
        5,
        14,
        15,
        16,
        17,
        18,
        19,
        20,
        21,
        22,
        23,
        24,
        25,
        26,
        27,
        28,
        29,
        30,
        31,
        32,
        33,
        34,
        35,
        36,
        37,
        38,
        39,
        40,
        41,
        42,
        43,
        44,
        45,
        46,
        47,
        48,
        49,
        50,
        51,
        52,
        53,
        54,
        55,
        56,
        57,
        58,
        59,
        60
      ],
      "skeleton": 5
    }
  ]
}
