{
  "accessors": [
    {
      "bufferView": 2,
      "componentType": 5126,
      "count": 41838,
      "max": [
        2.104231357574463,
        0.9006990194320679,
        0.7771099805831909
      ],
      "min": [
        -2.104231357574463,
        -0.6267046928405762,
        -0.5664452910423279
      ],
      "type": "VEC3"
    },
    {
      "bufferView": 2,
      "byteOffset": 502056,
      "componentType": 5126,
      "count": 41838,
      "max": [
        0.9999330043792725,
        0.9999996423721313,
        0.9999910593032837
      ],
      "min": [
        -0.9999332427978516,
        -0.9998955726623535,
        -0.9999959468841553
      ],
      "type": "VEC3"
    },
    {
      "bufferView": 1,
      "componentType": 5126,
      "count": 41838,
      "max": [
        8.815855026245117,
        8.978373527526855
      ],
      "min": [
        -7.827016830444336,
        -7.9783735275268555
      ],
      "type": "VEC2"
    },
    {
      "bufferView": 1,
      "byteOffset": 334704,
      "componentType": 5126,
      "count": 41838,
      "max": [
        0.8750003576278687,
        1.0000004768371582
      ],
      "min": [
        0.1250000298023224,
        0.0
      ],
      "type": "VEC2"
    },
    {
      "bufferView": 0,
      "componentType": 5125,
      "count": 219648,
      "type": "SCALAR"
    },
    {
      "bufferView": 2,
      "byteOffset": 1004112,
      "componentType": 5126,
      "count": 1184,
      "max": [
        0.9059803485870361,
        0.22536824643611908,
        0.2256445735692978
      ],
      "min": [
        -0.2253681719303131,
        -0.2253682166337967,
        -0.22564446926116943
      ],
      "type": "VEC3"
    },
    {
      "bufferView": 2,
      "byteOffset": 1018320,
      "componentType": 5126,
      "count": 1184,
      "max": [
        0.9987770318984985,
        0.9987770318984985,
        1.0
      ],
      "min": [
        -0.9987770318984985,
        -0.9987770318984985,
        -1.0
      ],
      "type": "VEC3"
    },
    {
      "bufferView": 3,
      "componentType": 5126,
      "count": 1184,
      "max": [
        0.9992862939834595,
        0.06145765259861946,
        1.0,
        1.0
      ],
      "min": [
        -0.9992406964302063,
        -0.06019844859838486,
        -1.0,
        1.0
      ],
      "type": "VEC4"
    },
    {
      "bufferView": 1,
      "byteOffset": 669408,
      "componentType": 5126,
      "count": 1184,
      "max": [
        1.0432803630828857,
        1.0432803630828857
      ],
      "min": [
        -0.04328030347824097,
        -0.04328030347824097
      ],
      "type": "VEC2"
    },
    {
      "bufferView": 1,
      "byteOffset": 678880,
      "componentType": 5126,
      "count": 1184,
      "max": [
        1.000000238418579,
        1.0
      ],
      "min": [
        0.0,
        0.0
      ],
      "type": "VEC2"
    },
    {
      "bufferView": 0,
      "byteOffset": 878592,
      "componentType": 5125,
      "count": 5760,
      "type": "SCALAR"
    },
    {
      "bufferView": 2,
      "byteOffset": 1032528,
      "componentType": 5126,
      "count": 12171,
      "max": [
        0.9122920036315918,
        1.003626823425293,
        0.24853503704071045
      ],
      "min": [
        -0.8706508874893188,
        -0.8894966244697571,
        -0.5422700047492981
      ],
      "type": "VEC3"
    },
    {
      "bufferView": 2,
      "byteOffset": 1178580,
      "componentType": 5126,
      "count": 12171,
      "max": [
        0.9996883869171143,
        0.9993435144424438,
        0.9998421669006348
      ],
      "min": [
        -0.9999092817306519,
        -0.9999845027923584,
        -0.9990467429161072
      ],
      "type": "VEC3"
    },
    {
      "bufferView": 3,
      "byteOffset": 18944,
      "componentType": 5126,
      "count": 12171,
      "max": [
        0.9999947547912598,
        0.9998171329498291,
        0.9996852278709412,
        1.0
      ],
      "min": [
        -0.9999915361404419,
        -0.9999736547470093,
        -0.9999845027923584,
        -1.0
      ],
      "type": "VEC4"
    },
    {
      "bufferView": 1,
      "byteOffset": 688352,
      "componentType": 5126,
      "count": 12171,
      "max": [
        0.7065455913543701,
        0.776423454284668
      ],
      "min": [
        0.29745107889175415,
        0.3339478075504303
      ],
      "type": "VEC2"
    },
    {
      "bufferView": 1,
      "byteOffset": 785720,
      "componentType": 5126,
      "count": 12171,
      "max": [
        1.0000003576278687,
        1.0000003576278687
      ],
      "min": [
        0.0,
        0.012015916407108307
      ],
      "type": "VEC2"
    },
    {
      "bufferView": 1,
      "byteOffset": 883088,
      "componentType": 5126,
      "count": 12171,
      "max": [
        1.0000003576278687,
        1.0000003576278687
      ],
      "min": [
        0.0,
        0.012015916407108307
      ],
      "type": "VEC2"
    },
    {
      "bufferView": 2,
      "byteOffset": 1324632,
      "componentType": 5126,
      "count": 12171,
      "max": [
        0.0,
        0.0,
        0.0
      ],
      "min": [
        0.0,
        0.0,
        0.0
      ],
      "type": "VEC3"
    },
    {
      "bufferView": 2,
      "byteOffset": 1470684,
      "componentType": 5126,
      "count": 12171,
      "max": [
        0.0033561214804649353,
        0.00040966272354125977,
        0.0007343590259552002
      ],
      "min": [
        -0.004641830921173096,
        -0.00040149688720703125,
        -0.0005806237459182739
      ],
      "type": "VEC3"
    },
    {
      "bufferView": 0,
      "byteOffset": 901632,
      "componentType": 5125,
      "count": 53040,
      "type": "SCALAR"
    },
    {
      "bufferView": 2,
      "byteOffset": 1616736,
      "componentType": 5126,
      "count": 11781,
      "max": [
        1.338212490081787,
        1.015831470489502,
        0.501653254032135
      ],
      "min": [
        -1.3314813375473022,
        -1.0332778692245483,
        -1.7252764701843262
      ],
      "type": "VEC3"
    },
    {
      "bufferView": 2,
      "byteOffset": 1758108,
      "componentType": 5126,
      "count": 11781,
      "max": [
        0.9997650384902954,
        0.9999595880508423,
        0.9999895095825195
      ],
      "min": [
        -0.9999079704284668,
        -0.9999765157699585,
        -0.9998350143432617
      ],
      "type": "VEC3"
    },
    {
      "bufferView": 3,
      "byteOffset": 213680,
      "componentType": 5126,
      "count": 11781,
      "max": [
        0.9999999403953552,
        0.9999999403953552,
        0.9960950613021851,
        1.0
      ],
      "min": [
        -0.9117903709411621,
        -0.998660683631897,
        -0.9718294739723206,
        -1.0
      ],
      "type": "VEC4"
    },
    {
      "bufferView": 1,
      "byteOffset": 980456,
      "componentType": 5126,
      "count": 11781,
      "max": [
        0.0,
        0.0
      ],
      "min": [
        0.0,
        0.0
      ],
      "type": "VEC2"
    },
    {
      "bufferView": 1,
      "byteOffset": 1074704,
      "componentType": 5126,
      "count": 11781,
      "max": [
        0.8348737955093384,
        0.761572539806366
      ],
      "min": [
        0.18678414821624756,
        0.23039983212947845
      ],
      "type": "VEC2"
    },
    {
      "bufferView": 1,
      "byteOffset": 1168952,
      "componentType": 5126,
      "count": 11781,
      "max": [
        0.8348737955093384,
        0.761572539806366
      ],
      "min": [
        0.18678414821624756,
        0.23039983212947845
      ],
      "type": "VEC2"
    },
    {
      "bufferView": 0,
      "byteOffset": 1113792,
      "componentType": 5125,
      "count": 55536,
      "type": "SCALAR"
    },
    {
      "bufferView": 2,
      "byteOffset": 1899480,
      "componentType": 5126,
      "count": 12171,
      "max": [
        0.3306712806224823,
        0.387450635433197,
        0.18021561205387115
      ],
      "min": [
        -0.30585622787475586,
        -0.32107841968536377,
        -0.22749440371990204
      ],
      "type": "VEC3"
    },
    {
      "bufferView": 2,
      "byteOffset": 2045532,
      "componentType": 5126,
      "count": 12171,
      "max": [
        0.9999778270721436,
        0.9998515844345093,
        0.9999618530273438
      ],
      "min": [
        -0.999987006187439,
        -0.9998871088027954,
        -0.9999946355819702
      ],
      "type": "VEC3"
    },
    {
      "bufferView": 3,
      "byteOffset": 402176,
      "componentType": 5126,
      "count": 12171,
      "max": [
        0.9999459981918335,
        0.9981492757797241,
        0.9766986966133118,
        1.0
      ],
      "min": [
        -0.991544783115387,
        -0.9999209046363831,
        -0.9999648332595825,
        -1.0
      ],
      "type": "VEC4"
    },
    {
      "bufferView": 1,
      "byteOffset": 1263200,
      "componentType": 5126,
      "count": 12171,
      "max": [
        0.7065455913543701,
        0.776423454284668
      ],
      "min": [
        0.29745107889175415,
        0.3339478075504303
      ],
      "type": "VEC2"
    },
    {
      "bufferView": 1,
      "byteOffset": 1360568,
      "componentType": 5126,
      "count": 12171,
      "max": [
        1.0000003576278687,
        1.0000003576278687
      ],
      "min": [
        0.0,
        0.012015916407108307
      ],
      "type": "VEC2"
    },
    {
      "bufferView": 1,
      "byteOffset": 1457936,
      "componentType": 5126,
      "count": 12171,
      "max": [
        1.0000003576278687,
        1.0000003576278687
      ],
      "min": [
        0.0,
        0.012015916407108307
      ],
      "type": "VEC2"
    },
    {
      "bufferView": 0,
      "byteOffset": 1335936,
      "componentType": 5125,
      "count": 53040,
      "type": "SCALAR"
    },
    {
      "bufferView": 2,
      "byteOffset": 2191584,
      "componentType": 5126,
      "count": 12171,
      "max": [
        0.31793636083602905,
        0.3957640826702118,
        0.1627035140991211
      ],
      "min": [
        -0.27937647700309753,
        -0.31387102603912354,
        -0.20954497158527374
      ],
      "type": "VEC3"
    },
    {
      "bufferView": 2,
      "byteOffset": 2337636,
      "componentType": 5126,
      "count": 12171,
      "max": [
        0.9999212026596069,
        0.9997776746749878,
        0.9999023675918579
      ],
      "min": [
        -0.9999141693115234,
        -0.9998044967651367,
        -0.999826192855835
      ],
      "type": "VEC3"
    },
    {
      "bufferView": 3,
      "byteOffset": 596912,
      "componentType": 5126,
      "count": 12171,
      "max": [
        0.999855637550354,
        0.9998953938484192,
        0.9904143214225769,
        1.0
      ],
      "min": [
        -0.9872365593910217,
        -0.999829888343811,
        -0.9999927878379822,
        -1.0
      ],
      "type": "VEC4"
    },
    {
      "bufferView": 1,
      "byteOffset": 1555304,
      "componentType": 5126,
      "count": 12171,
      "max": [
        0.7065455913543701,
        0.776423454284668
      ],
      "min": [
        0.29745107889175415,
        0.3339478075504303
      ],
      "type": "VEC2"
    },
    {
      "bufferView": 1,
      "byteOffset": 1652672,
      "componentType": 5126,
      "count": 12171,
      "max": [
        1.0000003576278687,
        1.0000003576278687
      ],
      "min": [
        0.0,
        0.012015916407108307
      ],
      "type": "VEC2"
    },
    {
      "bufferView": 1,
      "byteOffset": 1750040,
      "componentType": 5126,
      "count": 12171,
      "max": [
        1.0000003576278687,
        1.0000003576278687
      ],
      "min": [
        0.0,
        0.012015916407108307
      ],
      "type": "VEC2"
    },
    {
      "bufferView": 0,
      "byteOffset": 1548096,
      "componentType": 5125,
      "count": 53040,
      "type": "SCALAR"
    },
    {
      "bufferView": 2,
      "byteOffset": 2483688,
      "componentType": 5126,
      "count": 10940,
      "max": [
        1.4181880950927734,
        2.545661449432373,
        1.4311691522598267
      ],
      "min": [
        -1.4181866645812988,
        -2.888394355773926,
        -1.5660991668701172
      ],
      "type": "VEC3"
    },
    {
      "bufferView": 2,
      "byteOffset": 2614968,
      "componentType": 5126,
      "count": 10940,
      "max": [
        0.9999998807907104,
        0.9646944403648376,
        0.9999676942825317
      ],
      "min": [
        -0.9999998807907104,
        -0.9998376369476318,
        -0.99993896484375
      ],
      "type": "VEC3"
    },
    {
      "bufferView": 1,
      "byteOffset": 1847408,
      "componentType": 5126,
      "count": 10940,
      "max": [
        0.0,
        0.0
      ],
      "min": [
        0.0,
        0.0
      ],
      "type": "VEC2"
    },
    {
      "bufferView": 1,
      "byteOffset": 1934928,
      "componentType": 5126,
      "count": 10940,
      "max": [
        0.8714698553085327,
        1.0000001192092896
      ],
      "min": [
        0.0,
        0.0
      ],
      "type": "VEC2"
    },
    {
      "bufferView": 0,
      "byteOffset": 1760256,
      "componentType": 5125,
      "count": 56064,
      "type": "SCALAR"
    },
    {
      "bufferView": 2,
      "byteOffset": 2746248,
      "componentType": 5126,
      "count": 2705,
      "max": [
        1.3660786151885986,
        -2.0046122074127197,
        0.4032496213912964
      ],
      "min": [
        -1.3660770654678345,
        -3.1134092807769775,
        -0.38940322399139404
      ],
      "type": "VEC3"
    },
    {
      "bufferView": 2,
      "byteOffset": 2778708,
      "componentType": 5126,
      "count": 2705,
      "max": [
        0.9986338019371033,
        0.5918897986412048,
        0.9999055862426758
      ],
      "min": [
        -0.9986338019371033,
        -0.9740691781044006,
        -0.9999706745147705
      ],
      "type": "VEC3"
    },
    {
      "bufferView": 1,
      "byteOffset": 2022448,
      "componentType": 5126,
      "count": 2705,
      "max": [
        0.6538991332054138,
        0.7857068777084351
      ],
      "min": [
        0.006571532227098942,
        0.4430873394012451
      ],
      "type": "VEC2"
    },
    {
      "bufferView": 0,
      "byteOffset": 1984512,
      "componentType": 5125,
      "count": 13248,
      "type": "SCALAR"
    },
    {
      "bufferView": 2,
      "byteOffset": 2811168,
      "componentType": 5126,
      "count": 10940,
      "max": [
        1.3832474946975708,
        2.8855226039886475,
        1.5836864709854126
      ],
      "min": [
        -1.5229816436767578,
        -2.908416986465454,
        -2.001568078994751
      ],
      "type": "VEC3"
    },
    {
      "bufferView": 2,
      "byteOffset": 2942448,
      "componentType": 5126,
      "count": 10940,
      "max": [
        0.9999963045120239,
        0.9335910081863403,
        0.9995476007461548
      ],
      "min": [
        -1.0,
        -0.998515784740448,
        -0.9999110698699951
      ],
      "type": "VEC3"
    },
    {
      "bufferView": 1,
      "byteOffset": 2044088,
      "componentType": 5126,
      "count": 10940,
      "max": [
        0.0,
        0.0
      ],
      "min": [
        0.0,
        0.0
      ],
      "type": "VEC2"
    },
    {
      "bufferView": 1,
      "byteOffset": 2131608,
      "componentType": 5126,
      "count": 10940,
      "max": [
        0.8714698553085327,
        1.0000001192092896
      ],
      "min": [
        0.0,
        0.0
      ],
      "type": "VEC2"
    },
    {
      "bufferView": 0,
      "byteOffset": 2037504,
      "componentType": 5125,
      "count": 56064,
      "type": "SCALAR"
    },
    {
      "bufferView": 2,
      "byteOffset": 3073728,
      "componentType": 5126,
      "count": 2705,
      "max": [
        1.332939624786377,
        -1.9512633085250854,
        -0.49644577503204346
      ],
      "min": [
        -1.4863390922546387,
        -3.1159422397613525,
        -1.0896596908569336
      ],
      "type": "VEC3"
    },
    {
      "bufferView": 2,
      "byteOffset": 3106188,
      "componentType": 5126,
      "count": 2705,
      "max": [
        0.9996073246002197,
        0.7946104407310486,
        0.9997615814208984
      ],
      "min": [
        -0.9989987015724182,
        -0.9992935657501221,
        -0.999675989151001
      ],
      "type": "VEC3"
    },
    {
      "bufferView": 1,
      "byteOffset": 2219128,
      "componentType": 5126,
      "count": 2705,
      "max": [
        0.6538991332054138,
        0.7857068777084351
      ],
      "min": [
        0.006571532227098942,
        0.4430873394012451
      ],
      "type": "VEC2"
    },
    {
      "bufferView": 0,
      "byteOffset": 2261760,
      "componentType": 5125,
      "count": 13248,
      "type": "SCALAR"
    },
    {
      "bufferView": 4,
      "componentType": 5126,
      "count": 1,
      "max": [
        0.0
      ],
      "min": [
        0.0
      ],
      "type": "SCALAR"
    },
    {
      "bufferView": 4,
      "byteOffset": 4,
      "componentType": 5126,
      "count": 1,
      "max": [
        0.0
      ],
      "min": [
        0.0
      ],
      "type": "SCALAR"
    },
    {
      "bufferView": 4,
      "byteOffset": 8,
      "componentType": 5126,
      "count": 1,
      "max": [
        0.0
      ],
      "min": [
        0.0
      ],
      "type": "SCALAR"
    },
    {
      "bufferView": 4,
      "byteOffset": 12,
      "componentType": 5126,
      "count": 1,
      "max": [
        0.0
      ],
      "min": [
        0.0
      ],
      "type": "SCALAR"
    },
    {
      "bufferView": 4,
      "byteOffset": 16,
      "componentType": 5126,
      "count": 1,
      "max": [
        0.0
      ],
      "min": [
        0.0
      ],
      "type": "SCALAR"
    },
    {
      "bufferView": 4,
      "byteOffset": 20,
      "componentType": 5126,
      "count": 1,
      "max": [
        0.0
      ],
      "min": [
        0.0
      ],
      "type": "SCALAR"
    }
  ],
  "animations": [
    {
      "channels": [
        {
          "sampler": 0,
          "target": {
            "node": 11,
            "path": "weights"
          }
        }
      ],
      "name": "Cube|CubeAction",
      "samplers": [
        {
          "input": 59,
          "interpolation": "LINEAR",
          "output": 60
        }
      ]
    },
    {
      "channels": [
        {
          "sampler": 0,
          "target": {
            "node": 11,
            "path": "weights"
          }
        }
      ],
      "name": "Cube.001|CubeAction",
      "samplers": [
        {
          "input": 61,
          "interpolation": "LINEAR",
          "output": 62
        }
      ]
    },
    {
      "channels": [
        {
          "sampler": 0,
          "target": {
            "node": 11,
            "path": "weights"
          }
        }
      ],
      "name": "Cube.001|CubeAction.001",
      "samplers": [
        {
          "input": 63,
          "interpolation": "LINEAR",
          "output": 64
        }
      ]
    }
  ],
  "asset": {
    "extras": {
      "author": "Cardoso Design (https://sketchfab.com/cardosodesign)",
      "license": "CC-BY-4.0 (http://creativecommons.org/licenses/by/4.0/)",
      "source": "https://sketchfab.com/3d-models/baby-yoda-grogu-7113b9751e104415bca86e4d555b9b42",
      "title": "Baby | Yoda Grogu"
    },
    "generator": "Sketchfab-12.68.0",
    "version": "2.0"
  },
  "bufferViews": [
    {
      "buffer": 0,
      "byteLength": 2314752,
      "name": "floatBufferViews",
      "target": 34963
    },
    {
      "buffer": 0,
      "byteLength": 2240768,
      "byteOffset": 2314752,
      "byteStride": 8,
      "name": "floatBufferViews",
      "target": 34962
    },
    {
      "buffer": 0,
      "byteLength": 3138648,
      "byteOffset": 4555520,
      "byteStride": 12,
      "name": "floatBufferViews",
      "target": 34962
    },
    {
      "buffer": 0,
      "byteLength": 791648,
      "byteOffset": 7694168,
      "byteStride": 16,
      "name": "floatBufferViews",
      "target": 34962
    },
    {
      "buffer": 0,
      "byteLength": 24,
      "byteOffset": 8485816,
      "name": "floatBufferViews"
    }
  ],
  "buffers": [
    {
      "byteLength": 8485840,
      "uri": "scene.bin"
    }
  ],
  "extensionsUsed": [
    "KHR_materials_clearcoat"
  ],
  "images": [
    {
      "uri": "textures/Skin_Base_02_baseColor.jpeg"
    },
    {
      "uri": "textures/Skin_Base_02_metallicRoughness.png"
    },
    {
      "uri": "textures/Skin_Base_02_clearcoat.png"
    },
    {
      "uri": "textures/Eyes_baseColor.jpeg"
    },
    {
      "uri": "textures/Eyes_metallicRoughness.png"
    },
    {
      "uri": "textures/Eyes_normal.png"
    },
    {
      "uri": "textures/Brown_Fabric_metallicRoughness.png"
    },
    {
      "uri": "textures/Brown_Fabric_normal.png"
    }
  ],
  "materials": [
    {
      "doubleSided": true,
      "extensions": {
        "KHR_materials_clearcoat": {
          "clearcoatFactor": 0.6705290967,
          "clearcoatRoughnessFactor": 0.04,
          "clearcoatTexture": {
            "index": 2
          }
        }
      },
      "name": "Skin_Base_02",
      "pbrMetallicRoughness": {
        "baseColorTexture": {
          "index": 0
        },
        "metallicRoughnessTexture": {
          "index": 1
        }
      }
    },
    {
      "doubleSided": true,
      "extensions": {
        "KHR_materials_clearcoat": {
          "clearcoatFactor": 1.0,
          "clearcoatRoughnessFactor": 0.04
        }
      },
      "name": "Eyes",
      "normalTexture": {
        "index": 5,
        "texCoord": 1
      },
      "pbrMetallicRoughness": {
        "baseColorTexture": {
          "index": 3
        },
        "metallicRoughnessTexture": {
          "index": 4
        },
        "roughnessFactor": 0.16530622792137117
      }
    },
    {
      "doubleSided": true,
      "name": "Brown_Fabric",
      "normalTexture": {
        "index": 7,
        "texCoord": 1
      },
      "pbrMetallicRoughness": {
        "baseColorFactor": [
          0.4404641729,
          0.3534467785,
          0.198283138,
          1.0
        ],
        "metallicRoughnessTexture": {
          "index": 6
        }
      }
    },
    {
      "doubleSided": true,
      "name": "Unha.001",
      "pbrMetallicRoughness": {
        "baseColorFactor": [
          0.114936,
          0.0832905,
          0.0159021,
          1.0
        ],
        "metallicFactor": 0.0,
        "roughnessFactor": 0.9791418867
      }
    }
  ],
  "meshes": [
    {
      "name": "Cube_Skin Base 02_0",
      "primitives": [
        {
          "attributes": {
            "NORMAL": 1,
            "POSITION": 0,
            "TEXCOORD_0": 2,
            "TEXCOORD_1": 3
          },
          "indices": 4,
          "material": 0,
          "mode": 4
        }
      ]
    },
    {
      "name": "Sphere_Eyes_0",
      "primitives": [
        {
          "attributes": {
            "NORMAL": 6,
            "POSITION": 5,
            "TANGENT": 7,
            "TEXCOORD_0": 8,
            "TEXCOORD_1": 9
          },
          "indices": 10,
          "material": 1,
          "mode": 4
        }
      ]
    },
    {
      "name": "0",
      "primitives": [
        {
          "attributes": {
            "NORMAL": 12,
            "POSITION": 11,
            "TANGENT": 13,
            "TEXCOORD_0": 14,
            "TEXCOORD_1": 15,
            "TEXCOORD_2": 16
          },
          "indices": 19,
          "material": 2,
          "mode": 4,
          "targets": [
            {
              "NORMAL": 18,
              "POSITION": 17
            }
          ]
        }
      ],
      "weights": [
        0.0
      ]
    },
    {
      "name": "Cylinder.001_Brown Fabric_0",
      "primitives": [
        {
          "attributes": {
            "NORMAL": 21,
            "POSITION": 20,
            "TANGENT": 22,
            "TEXCOORD_0": 23,
            "TEXCOORD_1": 24,
            "TEXCOORD_2": 25
          },
          "indices": 26,
          "material": 2,
          "mode": 4
        }
      ]
    },
    {
      "name": "Cylinder.004_Brown Fabric_0",
      "primitives": [
        {
          "attributes": {
            "NORMAL": 28,
            "POSITION": 27,
            "TANGENT": 29,
            "TEXCOORD_0": 30,
            "TEXCOORD_1": 31,
            "TEXCOORD_2": 32
          },
          "indices": 33,
          "material": 2,
          "mode": 4
        }
      ]
    },
    {
      "name": "Cylinder.005_Brown Fabric_0",
      "primitives": [
        {
          "attributes": {
            "NORMAL": 35,
            "POSITION": 34,
            "TANGENT": 36,
            "TEXCOORD_0": 37,
            "TEXCOORD_1": 38,
            "TEXCOORD_2": 39
          },
          "indices": 40,
          "material": 2,
          "mode": 4
        }
      ]
    },
    {
      "name": "Cube.002_Skin Base 02_0",
      "primitives": [
        {
          "attributes": {
            "NORMAL": 42,
            "POSITION": 41,
            "TEXCOORD_0": 43,
            "TEXCOORD_1": 44
          },
          "indices": 45,
          "material": 0,
          "mode": 4
        }
      ]
    },
    {
      "name": "Cube.002_Unha.001_0",
      "primitives": [
        {
          "attributes": {
            "NORMAL": 47,
            "POSITION": 46,
            "TEXCOORD_0": 48
          },
          "indices": 49,
          "material": 3,
          "mode": 4
        }
      ]
    },
    {
      "name": "Cube.003_Skin Base 02_0",
      "primitives": [
        {
          "attributes": {
            "NORMAL": 51,
            "POSITION": 50,
            "TEXCOORD_0": 52,
            "TEXCOORD_1": 53
          },
          "indices": 54,
          "material": 0,
          "mode": 4
        }
      ]
    },
    {
      "name": "Cube.003_Unha.001_0",
      "primitives": [
        {
          "attributes": {
            "NORMAL": 56,
            "POSITION": 55,
            "TEXCOORD_0": 57
          },
          "indices": 58,
          "material": 3,
          "mode": 4
        }
      ]
    }
  ],
  "nodes": [
    {
      "children": [
        1
      ],
      "matrix": [
        0.001294309739023447,
        0.0,
        0.0,
        0.0,
        0.0,
        2.8739449465208167e-19,
        -0.001294309739023447,
        0.0,
        0.0,
        0.001294309739023447,
        2.8739449465208167e-19,
        0.0,
        0.0,
        0.0,
        0.0,
        1.0
      ],
      "name": "Sketchfab_model"
    },
    {
      "children": [
        2
      ],
      "matrix": [
        1.0,
        0.0,
        0.0,
        0.0,
        0.0,
        0.0,
        1.0,
        0.0,
        0.0,
        -1.0,
        0.0,
        0.0,
        0.0,
        0.0,
        0.0,
        1.0
      ],
      "name": "b975caaf99374378bad2f98a548a1356.fbx"
    },
    {
      "children": [
        3
      ],
      "name": "Object_2"
    },
    {
      "children": [
        4,
        8,
        10,
        12,
        14,
        15,
        16,
        17,
        19,
        21,
        24
      ],
      "name": "RootNode"
    },
    {
      "children": [
        5,
        6
      ],
      "name": "Cube",
      "rotation": [
        -0.7058303952217102,
        -0.0424676313996315,
        0.042467620223760605,
        0.7058303356170654
      ],
      "scale": [
        100.00000762939453,
        100.0,
        100.00000762939453
      ],
      "translation": [
        0.06274233758449554,
        -4.175749778747559,
        22.989887237548828
      ]
    },
    {
      "mesh": 0,
      "name": "Cube_Skin Base 02_0"
    },
    {
      "children": [
        7
      ],
      "name": "Sphere",
      "rotation": [
        2.7755565689461563e-17,
        -2.1374448357995273e-18,
        4.510280508144106e-16,
        1.0
      ],
      "scale": [
        1.0000001192092896,
        1.0,
        1.0000001192092896
      ],
      "translation": [
        -0.33683040738105774,
        -0.2767481803894043,
        0.11114749312400818
      ]
    },
    {
      "mesh": 1,
      "name": "Sphere_Eyes_0"
    },
    {
      "children": [
        9
      ],
      "name": "Camera",
      "rotation": [
        0.014646079391241074,
        0.7112129330635071,
        0.014470282942056656,
        0.7026751041412354
      ],
      "scale": [
        100.0,
        100.00000762939453,
        100.00000762939453
      ],
      "translation": [
        -102.97514343261719,
        -157.0014190673828,
        1383.1964111328125
      ]
    },
    {
      "name": "Object_9"
    },
    {
      "children": [
        11
      ],
      "name": "Cylinder",
      "rotation": [
        -0.7071068286895752,
        0.0,
        0.0,
        0.7071067094802856
      ],
      "scale": [
        100.0,
        100.0,
        100.0
      ],
      "translation": [
        1.5239663124084473,
        -58.859806060791016,
        15.405077934265137
      ]
    },
    {
      "mesh": 2,
      "name": "0"
    },
    {
      "children": [
        13
      ],
      "name": "Cylinder.001",
      "rotation": [
        -0.7071055769920349,
        0.0013052161084488034,
        -0.0013052156427875161,
        0.7071055769920349
      ],
      "scale": [
        93.51860809326172,
        97.4018783569336,
        110.5346450805664
      ],
      "translation": [
        4.262066841125488,
        -123.06024932861328,
        10.28425407409668
      ]
    },
    {
      "mesh": 3,
      "name": "Cylinder.001_Brown Fabric_0"
    },
    {
      "name": "Cube.001",
      "rotation": [
        -0.7071068286895752,
        0.0,
        0.0,
        0.7071067094802856
      ],
      "scale": [
        100.0,
        100.0,
        100.0
      ],
      "translation": [
        0.06274233758449554,
        -4.175749778747559,
        22.98988914489746
      ]
    },
    {
      "name": "Cylinder.002",
      "rotation": [
        -0.7070136070251465,
        0.01148531399667263,
        -0.011485306546092033,
        0.7070134878158569
      ],
      "scale": [
        93.15711212158203,
        103.29518127441406,
        21.183006286621094
      ],
      "translation": [
        1.5239663124084473,
        -58.859806060791016,
        15.405077934265137
      ]
    },
    {
      "name": "Cylinder.003",
      "rotation": [
        -0.7071055769920349,
        0.0013052161084488034,
        -0.0013052156427875161,
        0.7071055769920349
      ],
      "scale": [
        93.51860809326172,
        97.4018783569336,
        110.5346450805664
      ],
      "translation": [
        4.262066841125488,
        -123.06024932861328,
        10.28425407409668
      ]
    },
    {
      "children": [
        18
      ],
      "name": "Cylinder.004",
      "rotation": [
        -0.5314799547195435,
        0.8210932612419128,
        0.12680663168430328,
        0.1650916486978531
      ],
      "scale": [
        91.19985961914063,
        96.75837707519531,
        93.42411804199219
      ],
      "translation": [
        103.63894653320313,
        -105.24472045898438,
        56.5856819152832
      ]
    },
    {
      "mesh": 4,
      "name": "Cylinder.004_Brown Fabric_0"
    },
    {
      "children": [
        20
      ],
      "name": "Cylinder.005",
      "rotation": [
        -0.63532954454422,
        0.31041330099105835,
        -0.3104131817817688,
        0.63532954454422
      ],
      "scale": [
        91.19985961914063,
        96.75838470458984,
        93.42412567138672
      ],
      "translation": [
        -111.74977111816406,
        -151.31240844726563,
        6.406853199005127
      ]
    },
    {
      "mesh": 5,
      "name": "Cylinder.005_Brown Fabric_0"
    },
    {
      "children": [
        22,
        23
      ],
      "name": "Cube.002",
      "rotation": [
        0.6730409860610962,
        -0.33151352405548096,
        0.6244609355926514,
        0.2171708196401596
      ],
      "scale": [
        -20.158916473388672,
        -20.158916473388672,
        -10.214322090148926
      ],
      "translation": [
        -115.07095336914063,
        -145.87928771972656,
        3.8014416694641113
      ]
    },
    {
      "mesh": 6,
      "name": "Cube.002_Skin Base 02_0"
    },
    {
      "mesh": 7,
      "name": "Cube.002_Unha.001_0"
    },
    {
      "children": [
        25,
        26
      ],
      "name": "Cube.003",
      "rotation": [
        0.6154674291610718,
        -0.09428181499242783,
        -0.14107009768486023,
        0.7696817517280579
      ],
      "scale": [
        -20.158916473388672,
        -20.158916473388672,
        -10.214322090148926
      ],
      "translation": [
        102.39776611328125,
        -96.5333480834961,
        93.51302337646484
      ]
    },
    {
      "mesh": 8,
      "name": "Cube.003_Skin Base 02_0"
    },
    {
      "mesh": 9,
      "name": "Cube.003_Unha.001_0"
    }
  ],
  "samplers": [
    {
      "magFilter": 9729,
      "minFilter": 9987,
      "wrapS": 10497,
      "wrapT": 10497
    }
  ],
  "scene": 0,
  "scenes": [
    {
      "name": "Sketchfab_Scene",
      "nodes": [
        0
      ]
    }
  ],
  "textures": [
    {
      "sampler": 0,
      "source": 0
    },
    {
      "sampler": 0,
      "source": 1
    },
    {
      "sampler": 0,
      "source": 2
    },
    {
      "sampler": 0,
      "source": 3
    },
    {
      "sampler": 0,
      "source": 4
    },
    {
      "sampler": 0,
      "source": 5
    },
    {
      "sampler": 0,
      "source": 6
    },
    {
      "sampler": 0,
      "source": 7
    }
  ]
}
