{
  "accessors": [
    {
      "bufferView": 1,
      "componentType": 5126,
      "count": 59203,
      "max": [
        26.344825744628906,
        49.99949264526367,
        19.337024688720703
      ],
      "min": [
        2.7701958060788456e-07,
        -4.408644599607214e-06,
        2.263241185573861e-07
      ],
      "type": "VEC3"
    },
    {
      "bufferView": 1,
      "byteOffset": 710436,
      "componentType": 5126,
      "count": 59203,
      "max": [
        1.0,
        0.9999852180480957,
        0.9999926090240479
      ],
      "min": [
        -1.0,
        -0.9999620318412781,
        -0.9999996423721313
      ],
      "type": "VEC3"
    },
    {
      "bufferView": 2,
      "componentType": 5126,
      "count": 59203,
      "max": [
        0.49803921580314636,
        0.49803921580314636,
        0.49803921580314636,
        0.125490203499794
      ],
      "min": [
        0.49803921580314636,
        0.49803921580314636,
        0.49803921580314636,
        0.125490203499794
      ],
      "type": "VEC4"
    },
    {
      "bufferView": 0,
      "componentType": 5125,
      "count": 262131,
      "type": "SCALAR"
    }
  ],
  "asset": {
    "extras": {
      "author": "Nima Heydari (https://sketchfab.com/h3ydari96)",
      "license": "CC-BY-4.0 (http://creativecommons.org/licenses/by/4.0/)",
      "source": "https://sketchfab.com/3d-models/plumbus-keychain-rick-and-morty-3d-printable-424de72d353049e4b6dae7ffffa5fa95",
      "title": "Plumbus (Keychain) Rick and Morty 3d printable"
    },
    "generator": "Sketchfab-12.68.0",
    "version": "2.0"
  },
  "bufferViews": [
    {
      "buffer": 0,
      "byteLength": 1048524,
      "name": "floatBufferViews",
      "target": 34963
    },
    {
      "buffer": 0,
      "byteLength": 1420872,
      "byteOffset": 1048524,
      "byteStride": 12,
      "name": "floatBufferViews",
      "target": 34962
    },
    {
      "buffer": 0,
      "byteLength": 947248,
      "byteOffset": 2469396,
      "byteStride": 16,
      "name": "floatBufferViews",
      "target": 34962
    }
  ],
  "buffers": [
    {
      "byteLength": 3416644,
      "uri": "scene.bin"
    }
  ],
  "materials": [
    {
      "doubleSided": true,
      "name": "Scene_-_Root",
      "pbrMetallicRoughness": {
        "baseColorFactor": [
          0.855605185835103,
          0.16576249044680288,
          0.10116368538450758,
          1.0
        ],
        "metallicFactor": 0.0,
        "roughnessFactor": 0.6
      }
    }
  ],
  "meshes": [
    {
      "name": "Object_0",
      "primitives": [
        {
          "attributes": {
            "COLOR_0": 2,
            "NORMAL": 1,
            "POSITION": 0
          },
          "indices": 3,
          "material": 0,
          "mode": 4
        }
      ]
    }
  ],
  "nodes": [
    {
      "children": [
        1
      ],
      "matrix": [
        -0.9999997615814209,
        4.5313805685524523e-07,
        -0.000673155125696212,
        0.0,
        2.710505431213761e-19,
        0.9999997615814209,
        0.0006731553003194168,
        0.0,
        0.0006731553003191948,
        0.0006731551256964341,
        -0.9999995231628418,
        0.0,
        26.338319778442383,
        -15.33774089813232,
        -15.339199066162113,
        1.0
      ],
      "name": "Sketchfab_model"
    },
    {
      "children": [
        2
      ],
      "name": "plumbus with ring (3dprint).stl.cleaner.materialmerger.gles"
    },
    {
      "mesh": 0,
      "name": "Object_2"
    }
  ],
  "scene": 0,
  "scenes": [
    {
      "name": "Sketchfab_Scene",
      "nodes": [
        0
      ]
    }
  ]
}
