{
  "accessors": [
    {
      "bufferView": 3,
      "componentType": 5126,
      "count": 3767,
      "max": [
        22.150413513183594,
        21.09430694580078,
        43.983665466308594
      ],
      "min": [
        -22.150413513183594,
        -21.090843200683594,
        0.0016269683837890625
      ],
      "type": "VEC3"
    },
    {
      "bufferView": 3,
      "byteOffset": 45204,
      "componentType": 5126,
      "count": 3767,
      "max": [
        0.9999231100082397,
        0.998551607131958,
        0.998490035533905
      ],
      "min": [
        -0.9997491240501404,
        -0.9994986057281494,
        -0.9999929070472717
      ],
      "type": "VEC3"
    },
    {
      "bufferView": 4,
      "componentType": 5126,
      "count": 3767,
      "max": [
        0.9999911189079285,
        0.9995815753936768,
        0.9992843866348267,
        1.0
      ],
      "min": [
        -0.9999518394470215,
        -0.9999945759773254,
        -0.9981897473335266,
        -1.0
      ],
      "type": "VEC4"
    },
    {
      "bufferView": 2,
      "componentType": 5126,
      "count": 3767,
      "max": [
        0.9865610003471375,
        0.9924560189247131
      ],
      "min": [
        0.01398599985986948,
        0.002271000063046813
      ],
      "type": "VEC2"
    },
    {
      "bufferView": 1,
      "componentType": 5125,
      "count": 20904,
      "type": "SCALAR"
    },
    {
      "bufferView": 5,
      "componentType": 5126,
      "count": 21,
      "max": [
        1.0,
        0.4010629951953888,
        0.5008702278137207,
        0.0,
        0.10391473770141602,
        1.0,
        0.3992888033390045,
        0.0,
        0.5008702278137207,
        0.09903297573328018,
        1.0,
        0.0,
        7.65652322769165,
        2.8295705318450928,
        10.297355651855469,
        1.0
      ],
      "min": [
        -0.36224886775016785,
        -0.38496747612953186,
        0.0,
        0.0,
        -0.3335331082344055,
        -0.5008702278137207,
        -0.3780441880226135,
        0.0,
        -0.5006680488586426,
        -0.2834748327732086,
        -0.3612695634365082,
        0.0,
        -13.99874210357666,
        -5.43212890625,
        -10.58056354522705,
        1.0
      ],
      "type": "MAT4"
    },
    {
      "bufferView": 0,
      "componentType": 5123,
      "count": 3767,
      "type": "VEC4"
    },
    {
      "bufferView": 4,
      "byteOffset": 60272,
      "componentType": 5126,
      "count": 3767,
      "max": [
        1.0,
        0.4692927300930023,
        0.31447139382362366,
        0.228733092546463
      ],
      "min": [
        0.2629220485687256,
        0.0,
        0.0,
        0.0
      ],
      "type": "VEC4"
    },
    {
      "bufferView": 6,
      "componentType": 5126,
      "count": 101,
      "max": [
        3.3333332538604736
      ],
      "min": [
        0.0
      ],
      "type": "SCALAR"
    },
    {
      "bufferView": 7,
      "componentType": 5126,
      "count": 101,
      "max": [
        -3.2308177947998047,
        -2.3841917595746054e-07,
        1.5497207641601563e-06
      ],
      "min": [
        -3.2308244705200195,
        -2.0265579223632813e-06,
        -9.5367431640625e-07
      ],
      "type": "VEC3"
    },
    {
      "bufferView": 6,
      "byteOffset": 404,
      "componentType": 5126,
      "count": 101,
      "max": [
        3.3333332538604736
      ],
      "min": [
        0.0
      ],
      "type": "SCALAR"
    },
    {
      "bufferView": 7,
      "byteOffset": 1212,
      "componentType": 5126,
      "count": 101,
      "max": [
        1.0000001192092896,
        1.000000238418579,
        1.000000238418579
      ],
      "min": [
        0.9999998211860657,
        0.9999997615814209,
        0.9999997615814209
      ],
      "type": "VEC3"
    },
    {
      "bufferView": 6,
      "byteOffset": 808,
      "componentType": 5126,
      "count": 101,
      "max": [
        3.3333332538604736
      ],
      "min": [
        0.0
      ],
      "type": "SCALAR"
    },
    {
      "bufferView": 8,
      "componentType": 5126,
      "count": 101,
      "max": [
        0.11538171023130417,
        0.023875463753938675,
        0.0681690201163292,
        0.9999977350234985
      ],
      "min": [
        7.257662895145123e-15,
        -0.060158222913742065,
        1.428877835821761e-14,
        0.9922784566879272
      ],
      "type": "VEC4"
    },
    {
      "bufferView": 6,
      "byteOffset": 1212,
      "componentType": 5126,
      "count": 101,
      "max": [
        3.3333332538604736
      ],
      "min": [
        0.0
      ],
      "type": "SCALAR"
    },
    {
      "bufferView": 7,
      "byteOffset": 2424,
      "componentType": 5126,
      "count": 101,
      "max": [
        3.4354543685913086,
        4.76837158203125e-07,
        2.3841853646899835e-07
      ],
      "min": [
        3.4354515075683594,
        -4.768372718899627e-07,
        -2.384188348969474e-07
      ],
      "type": "VEC3"
    },
    {
      "bufferView": 6,
      "byteOffset": 1616,
      "componentType": 5126,
      "count": 101,
      "max": [
        3.3333332538604736
      ],
      "min": [
        0.0
      ],
      "type": "SCALAR"
    },
    {
      "bufferView": 7,
      "byteOffset": 3636,
      "componentType": 5126,
      "count": 101,
      "max": [
        1.000000238418579,
        1.000000238418579,
        1.0000001192092896
      ],
      "min": [
        0.9999998211860657,
        0.9999997615814209,
        0.9999998211860657
      ],
      "type": "VEC3"
    },
    {
      "bufferView": 6,
      "byteOffset": 2020,
      "componentType": 5126,
      "count": 101,
      "max": [
        3.3333332538604736
      ],
      "min": [
        0.0
      ],
      "type": "SCALAR"
    },
    {
      "bufferView": 8,
      "byteOffset": 1616,
      "componentType": 5126,
      "count": 101,
      "max": [
        4.1443854570388794e-08,
        1.1175866632129328e-07,
        4.470348358154297e-08,
        1.0
      ],
      "min": [
        -4.097821459936313e-08,
        -9.313228588325728e-08,
        -2.9802318834981634e-08,
        1.0
      ],
      "type": "VEC4"
    },
    {
      "bufferView": 6,
      "byteOffset": 2424,
      "componentType": 5126,
      "count": 101,
      "max": [
        3.3333332538604736
      ],
      "min": [
        0.0
      ],
      "type": "SCALAR"
    },
    {
      "bufferView": 7,
      "byteOffset": 4848,
      "componentType": 5126,
      "count": 101,
      "max": [
        1.6163434982299805,
        4.723994255065918,
        -2.3966212272644043
      ],
      "min": [
        -0.07541656494140625,
        3.3548576831817627,
        -2.8524107933044434
      ],
      "type": "VEC3"
    },
    {
      "bufferView": 6,
      "byteOffset": 2828,
      "componentType": 5126,
      "count": 101,
      "max": [
        3.3333332538604736
      ],
      "min": [
        0.0
      ],
      "type": "SCALAR"
    },
    {
      "bufferView": 7,
      "byteOffset": 6060,
      "componentType": 5126,
      "count": 101,
      "max": [
        1.000000238418579,
        1.0000007152557373,
        1.0000004768371582
      ],
      "min": [
        0.9999995827674866,
        0.9999996423721313,
        0.9999995231628418
      ],
      "type": "VEC3"
    },
    {
      "bufferView": 6,
      "byteOffset": 3232,
      "componentType": 5126,
      "count": 101,
      "max": [
        3.3333332538604736
      ],
      "min": [
        0.0
      ],
      "type": "SCALAR"
    },
    {
      "bufferView": 8,
      "byteOffset": 3232,
      "componentType": 5126,
      "count": 101,
      "max": [
        -0.04959166422486305,
        -0.26429417729377747,
        0.34800925850868225,
        0.906650960445404
      ],
      "min": [
        -0.20087513327598572,
        -0.8107302784919739,
        0.1273638904094696,
        0.527868390083313
      ],
      "type": "VEC4"
    },
    {
      "bufferView": 6,
      "byteOffset": 3636,
      "componentType": 5126,
      "count": 101,
      "max": [
        3.3333332538604736
      ],
      "min": [
        0.0
      ],
      "type": "SCALAR"
    },
    {
      "bufferView": 7,
      "byteOffset": 7272,
      "componentType": 5126,
      "count": 101,
      "max": [
        1.137643814086914,
        4.527034759521484,
        3.07515025138855
      ],
      "min": [
        -0.23626895248889923,
        3.597675085067749,
        2.247781753540039
      ],
      "type": "VEC3"
    },
    {
      "bufferView": 6,
      "byteOffset": 4040,
      "componentType": 5126,
      "count": 101,
      "max": [
        3.3333332538604736
      ],
      "min": [
        0.0
      ],
      "type": "SCALAR"
    },
    {
      "bufferView": 7,
      "byteOffset": 8484,
      "componentType": 5126,
      "count": 101,
      "max": [
        1.0000003576278687,
        1.0000005960464478,
        1.0000004768371582
      ],
      "min": [
        0.9999996423721313,
        0.9999996423721313,
        0.999999463558197
      ],
      "type": "VEC3"
    },
    {
      "bufferView": 6,
      "byteOffset": 4444,
      "componentType": 5126,
      "count": 101,
      "max": [
        3.3333332538604736
      ],
      "min": [
        0.0
      ],
      "type": "SCALAR"
    },
    {
      "bufferView": 8,
      "byteOffset": 4848,
      "componentType": 5126,
      "count": 101,
      "max": [
        0.22168780863285065,
        0.713343620300293,
        0.29265379905700684,
        0.9342239499092102
      ],
      "min": [
        -0.03375881165266037,
        0.2763553261756897,
        -0.023822393268346786,
        0.6698097586631775
      ],
      "type": "VEC4"
    },
    {
      "bufferView": 6,
      "byteOffset": 4848,
      "componentType": 5126,
      "count": 101,
      "max": [
        3.3333332538604736
      ],
      "min": [
        0.0
      ],
      "type": "SCALAR"
    },
    {
      "bufferView": 7,
      "byteOffset": 9696,
      "componentType": 5126,
      "count": 101,
      "max": [
        3.4354538917541504,
        2.3841853646899835e-07,
        1.7881393432617188e-07
      ],
      "min": [
        3.435451030731201,
        -4.76837158203125e-07,
        -1.7881393432617188e-07
      ],
      "type": "VEC3"
    },
    {
      "bufferView": 6,
      "byteOffset": 5252,
      "componentType": 5126,
      "count": 101,
      "max": [
        3.3333332538604736
      ],
      "min": [
        0.0
      ],
      "type": "SCALAR"
    },
    {
      "bufferView": 7,
      "byteOffset": 10908,
      "componentType": 5126,
      "count": 101,
      "max": [
        1.000000238418579,
        1.000000238418579,
        1.0000001192092896
      ],
      "min": [
        0.9999998211860657,
        0.9999997615814209,
        0.9999998211860657
      ],
      "type": "VEC3"
    },
    {
      "bufferView": 6,
      "byteOffset": 5656,
      "componentType": 5126,
      "count": 101,
      "max": [
        3.3333332538604736
      ],
      "min": [
        0.0
      ],
      "type": "SCALAR"
    },
    {
      "bufferView": 8,
      "byteOffset": 6464,
      "componentType": 5126,
      "count": 101,
      "max": [
        4.5984105412344434e-08,
        6.70552182668871e-08,
        4.097820038850841e-08,
        1.0
      ],
      "min": [
        -4.103640094399452e-08,
        -1.1920922560193503e-07,
        -2.9802318834981634e-08,
        1.0
      ],
      "type": "VEC4"
    },
    {
      "bufferView": 6,
      "byteOffset": 6060,
      "componentType": 5126,
      "count": 101,
      "max": [
        3.3333332538604736
      ],
      "min": [
        0.0
      ],
      "type": "SCALAR"
    },
    {
      "bufferView": 7,
      "byteOffset": 12120,
      "componentType": 5126,
      "count": 101,
      "max": [
        3.435453414916992,
        1.7881393432617188e-07,
        1.1920922560193503e-07
      ],
      "min": [
        3.4354519844055176,
        -2.384185791015625e-07,
        -1.1920937481590954e-07
      ],
      "type": "VEC3"
    },
    {
      "bufferView": 6,
      "byteOffset": 6464,
      "componentType": 5126,
      "count": 100,
      "max": [
        3.3333332538604736
      ],
      "min": [
        0.0
      ],
      "type": "SCALAR"
    },
    {
      "bufferView": 7,
      "byteOffset": 13332,
      "componentType": 5126,
      "count": 100,
      "max": [
        1.0000001192092896,
        1.000000238418579,
        1.0000001192092896
      ],
      "min": [
        0.9999997615814209,
        0.9999998211860657,
        0.9999998211860657
      ],
      "type": "VEC3"
    },
    {
      "bufferView": 6,
      "byteOffset": 6864,
      "componentType": 5126,
      "count": 101,
      "max": [
        3.3333332538604736
      ],
      "min": [
        0.0
      ],
      "type": "SCALAR"
    },
    {
      "bufferView": 8,
      "byteOffset": 8080,
      "componentType": 5126,
      "count": 101,
      "max": [
        5.8600580388201706e-08,
        1.1920927533992653e-07,
        3.352760913344355e-08,
        1.0
      ],
      "min": [
        -6.193295121192932e-08,
        -9.313225746154785e-08,
        -3.166493200978948e-08,
        1.0
      ],
      "type": "VEC4"
    },
    {
      "bufferView": 6,
      "byteOffset": 7268,
      "componentType": 5126,
      "count": 101,
      "max": [
        3.3333332538604736
      ],
      "min": [
        0.0
      ],
      "type": "SCALAR"
    },
    {
      "bufferView": 7,
      "byteOffset": 14532,
      "componentType": 5126,
      "count": 101,
      "max": [
        0.5881657600402832,
        -1.0584096908569336,
        -0.7766685485839844
      ],
      "min": [
        0.588162899017334,
        -1.0584120750427246,
        -0.776669979095459
      ],
      "type": "VEC3"
    },
    {
      "bufferView": 6,
      "byteOffset": 7672,
      "componentType": 5126,
      "count": 101,
      "max": [
        3.3333332538604736
      ],
      "min": [
        0.0
      ],
      "type": "SCALAR"
    },
    {
      "bufferView": 7,
      "byteOffset": 15744,
      "componentType": 5126,
      "count": 101,
      "max": [
        0.9999998211860657,
        1.0000011920928955,
        1.000000238418579
      ],
      "min": [
        0.4065486490726471,
        1.0000003576278687,
        0.9999997615814209
      ],
      "type": "VEC3"
    },
    {
      "bufferView": 6,
      "byteOffset": 8076,
      "componentType": 5126,
      "count": 101,
      "max": [
        3.3333332538604736
      ],
      "min": [
        0.0
      ],
      "type": "SCALAR"
    },
    {
      "bufferView": 8,
      "byteOffset": 9696,
      "componentType": 5126,
      "count": 101,
      "max": [
        -0.00974306557327509,
        -0.06599175930023193,
        0.9908242225646973,
        -0.11754783987998962
      ],
      "min": [
        -0.009743282571434975,
        -0.06599188596010208,
        0.9908242225646973,
        -0.11754797399044037
      ],
      "type": "VEC4"
    },
    {
      "bufferView": 6,
      "byteOffset": 8480,
      "componentType": 5126,
      "count": 101,
      "max": [
        3.3333332538604736
      ],
      "min": [
        0.0
      ],
      "type": "SCALAR"
    },
    {
      "bufferView": 7,
      "byteOffset": 16956,
      "componentType": 5126,
      "count": 101,
      "max": [
        0.6028504371643066,
        -0.19860172271728516,
        -0.9697673320770264
      ],
      "min": [
        0.6028480529785156,
        -0.19860458374023438,
        -0.9697688817977905
      ],
      "type": "VEC3"
    },
    {
      "bufferView": 6,
      "byteOffset": 8884,
      "componentType": 5126,
      "count": 101,
      "max": [
        3.3333332538604736
      ],
      "min": [
        0.0
      ],
      "type": "SCALAR"
    },
    {
      "bufferView": 7,
      "byteOffset": 18168,
      "componentType": 5126,
      "count": 101,
      "max": [
        1.0000003576278687,
        1.0000004768371582,
        1.000000238418579
      ],
      "min": [
        0.9999998807907104,
        0.9999998211860657,
        0.9999999403953552
      ],
      "type": "VEC3"
    },
    {
      "bufferView": 6,
      "byteOffset": 9288,
      "componentType": 5126,
      "count": 101,
      "max": [
        3.3333332538604736
      ],
      "min": [
        0.0
      ],
      "type": "SCALAR"
    },
    {
      "bufferView": 8,
      "byteOffset": 11312,
      "componentType": 5126,
      "count": 101,
      "max": [
        -0.1055540144443512,
        -0.008974981494247913,
        -0.043656036257743835,
        0.9934142827987671
      ],
      "min": [
        -0.10555415600538254,
        -0.008975223638117313,
        -0.043656136840581894,
        0.9934142827987671
      ],
      "type": "VEC4"
    },
    {
      "bufferView": 6,
      "byteOffset": 9692,
      "componentType": 5126,
      "count": 101,
      "max": [
        3.3333332538604736
      ],
      "min": [
        0.0
      ],
      "type": "SCALAR"
    },
    {
      "bufferView": 7,
      "byteOffset": 19380,
      "componentType": 5126,
      "count": 101,
      "max": [
        -2.147610664367676,
        -0.11331415176391602,
        -0.8214437961578369
      ],
      "min": [
        -2.1476144790649414,
        -0.11331605911254883,
        -0.8214453458786011
      ],
      "type": "VEC3"
    },
    {
      "bufferView": 6,
      "byteOffset": 10096,
      "componentType": 5126,
      "count": 101,
      "max": [
        3.3333332538604736
      ],
      "min": [
        0.0
      ],
      "type": "SCALAR"
    },
    {
      "bufferView": 7,
      "byteOffset": 20592,
      "componentType": 5126,
      "count": 101,
      "max": [
        1.000000238418579,
        1.0000003576278687,
        1.0000001192092896
      ],
      "min": [
        0.9999997019767761,
        0.9999997019767761,
        0.9999998211860657
      ],
      "type": "VEC3"
    },
    {
      "bufferView": 6,
      "byteOffset": 10500,
      "componentType": 5126,
      "count": 101,
      "max": [
        3.3333332538604736
      ],
      "min": [
        0.0
      ],
      "type": "SCALAR"
    },
    {
      "bufferView": 8,
      "byteOffset": 12928,
      "componentType": 5126,
      "count": 101,
      "max": [
        -0.0031124448869377375,
        0.02495458722114563,
        9.594196370699137e-08,
        0.9996837377548218
      ],
      "min": [
        -0.0031125484965741634,
        0.02495431713759899,
        5.615693687843759e-09,
        0.9996837377548218
      ],
      "type": "VEC4"
    },
    {
      "bufferView": 6,
      "byteOffset": 10904,
      "componentType": 5126,
      "count": 101,
      "max": [
        3.3333332538604736
      ],
      "min": [
        0.0
      ],
      "type": "SCALAR"
    },
    {
      "bufferView": 7,
      "byteOffset": 21804,
      "componentType": 5126,
      "count": 101,
      "max": [
        0.4653902053833008,
        -1.0963702201843262,
        0.7633587121963501
      ],
      "min": [
        0.46538782119750977,
        -1.096372127532959,
        0.7633578181266785
      ],
      "type": "VEC3"
    },
    {
      "bufferView": 6,
      "byteOffset": 11308,
      "componentType": 5126,
      "count": 101,
      "max": [
        3.3333332538604736
      ],
      "min": [
        0.0
      ],
      "type": "SCALAR"
    },
    {
      "bufferView": 7,
      "byteOffset": 23016,
      "componentType": 5126,
      "count": 101,
      "max": [
        1.000000238418579,
        1.0000003576278687,
        1.0000001192092896
      ],
      "min": [
        0.3965640366077423,
        0.9999997615814209,
        0.9999997019767761
      ],
      "type": "VEC3"
    },
    {
      "bufferView": 6,
      "byteOffset": 11712,
      "componentType": 5126,
      "count": 101,
      "max": [
        3.3333332538604736
      ],
      "min": [
        0.0
      ],
      "type": "SCALAR"
    },
    {
      "bufferView": 8,
      "byteOffset": 14544,
      "componentType": 5126,
      "count": 101,
      "max": [
        -0.010107585228979588,
        0.21407422423362732,
        0.9739294052124023,
        -0.07437506318092346
      ],
      "min": [
        -0.010107830166816711,
        0.21407409012317657,
        0.9739293456077576,
        -0.07437523454427719
      ],
      "type": "VEC4"
    },
    {
      "bufferView": 6,
      "byteOffset": 12116,
      "componentType": 5126,
      "count": 101,
      "max": [
        3.3333332538604736
      ],
      "min": [
        0.0
      ],
      "type": "SCALAR"
    },
    {
      "bufferView": 7,
      "byteOffset": 24228,
      "componentType": 5126,
      "count": 101,
      "max": [
        0.6514072418212891,
        -0.41544675827026367,
        0.9009393453598022
      ],
      "min": [
        0.6514034271240234,
        -0.4154491424560547,
        0.9009380340576172
      ],
      "type": "VEC3"
    },
    {
      "bufferView": 6,
      "byteOffset": 12520,
      "componentType": 5126,
      "count": 101,
      "max": [
        3.3333332538604736
      ],
      "min": [
        0.0
      ],
      "type": "SCALAR"
    },
    {
      "bufferView": 7,
      "byteOffset": 25440,
      "componentType": 5126,
      "count": 101,
      "max": [
        1.000000238418579,
        1.0000001192092896,
        1.0
      ],
      "min": [
        0.9999998211860657,
        0.9999996423721313,
        0.9999997019767761
      ],
      "type": "VEC3"
    },
    {
      "bufferView": 6,
      "byteOffset": 12924,
      "componentType": 5126,
      "count": 101,
      "max": [
        3.3333332538604736
      ],
      "min": [
        0.0
      ],
      "type": "SCALAR"
    },
    {
      "bufferView": 8,
      "byteOffset": 16160,
      "componentType": 5126,
      "count": 101,
      "max": [
        0.10755757242441177,
        0.013415738940238953,
        5.404942271525215e-08,
        0.9941083192825317
      ],
      "min": [
        0.10755749046802521,
        0.01341550424695015,
        -4.3880788780370494e-08,
        0.9941083192825317
      ],
      "type": "VEC4"
    },
    {
      "bufferView": 6,
      "byteOffset": 13328,
      "componentType": 5126,
      "count": 101,
      "max": [
        3.3333332538604736
      ],
      "min": [
        0.0
      ],
      "type": "SCALAR"
    },
    {
      "bufferView": 7,
      "byteOffset": 26652,
      "componentType": 5126,
      "count": 101,
      "max": [
        -2.0999937057495117,
        -0.10138130187988281,
        0.8852765560150146
      ],
      "min": [
        -2.0999975204467773,
        -0.10138416290283203,
        0.8852749466896057
      ],
      "type": "VEC3"
    },
    {
      "bufferView": 6,
      "byteOffset": 13732,
      "componentType": 5126,
      "count": 101,
      "max": [
        3.3333332538604736
      ],
      "min": [
        0.0
      ],
      "type": "SCALAR"
    },
    {
      "bufferView": 7,
      "byteOffset": 27864,
      "componentType": 5126,
      "count": 101,
      "max": [
        1.000000238418579,
        1.000000238418579,
        1.000000238418579
      ],
      "min": [
        0.9999997615814209,
        0.9999997615814209,
        0.9999998211860657
      ],
      "type": "VEC3"
    },
    {
      "bufferView": 6,
      "byteOffset": 14136,
      "componentType": 5126,
      "count": 101,
      "max": [
        3.3333332538604736
      ],
      "min": [
        0.0
      ],
      "type": "SCALAR"
    },
    {
      "bufferView": 8,
      "byteOffset": 17776,
      "componentType": 5126,
      "count": 101,
      "max": [
        4.703177935994063e-08,
        1.6205012798309326e-07,
        4.470348713425665e-08,
        1.0
      ],
      "min": [
        -4.842877388000488e-08,
        -1.0197982902582226e-07,
        -4.470348713425665e-08,
        1.0
      ],
      "type": "VEC4"
    },
    {
      "bufferView": 6,
      "byteOffset": 14540,
      "componentType": 5126,
      "count": 101,
      "max": [
        3.3333332538604736
      ],
      "min": [
        0.0
      ],
      "type": "SCALAR"
    },
    {
      "bufferView": 7,
      "byteOffset": 29076,
      "componentType": 5126,
      "count": 101,
      "max": [
        5.093656539916992,
        4.519650459289551,
        -0.32832854986190796
      ],
      "min": [
        3.872850179672241,
        4.519646644592285,
        -0.3283300995826721
      ],
      "type": "VEC3"
    },
    {
      "bufferView": 6,
      "byteOffset": 14944,
      "componentType": 5126,
      "count": 101,
      "max": [
        3.3333332538604736
      ],
      "min": [
        0.0
      ],
      "type": "SCALAR"
    },
    {
      "bufferView": 7,
      "byteOffset": 30288,
      "componentType": 5126,
      "count": 101,
      "max": [
        1.000000238418579,
        1.000000238418579,
        1.0000001192092896
      ],
      "min": [
        0.9999998211860657,
        0.9999998211860657,
        0.9999998211860657
      ],
      "type": "VEC3"
    },
    {
      "bufferView": 6,
      "byteOffset": 15348,
      "componentType": 5126,
      "count": 101,
      "max": [
        3.3333332538604736
      ],
      "min": [
        0.0
      ],
      "type": "SCALAR"
    },
    {
      "bufferView": 8,
      "byteOffset": 19392,
      "componentType": 5126,
      "count": 101,
      "max": [
        5.951464387976557e-08,
        1.1851792436345931e-07,
        -0.06200430914759636,
        0.9980759024620056
      ],
      "min": [
        -6.646703099022488e-08,
        -8.551681673907296e-08,
        -0.06200438365340233,
        0.9980759024620056
      ],
      "type": "VEC4"
    },
    {
      "bufferView": 6,
      "byteOffset": 15752,
      "componentType": 5126,
      "count": 101,
      "max": [
        3.3333332538604736
      ],
      "min": [
        0.0
      ],
      "type": "SCALAR"
    },
    {
      "bufferView": 7,
      "byteOffset": 31500,
      "componentType": 5126,
      "count": 101,
      "max": [
        4.348867416381836,
        6.4535088539123535,
        0.612194299697876
      ],
      "min": [
        1.4951059818267822,
        6.4535040855407715,
        -1.2550618648529053
      ],
      "type": "VEC3"
    },
    {
      "bufferView": 6,
      "byteOffset": 16156,
      "componentType": 5126,
      "count": 100,
      "max": [
        3.3333332538604736
      ],
      "min": [
        0.0
      ],
      "type": "SCALAR"
    },
    {
      "bufferView": 7,
      "byteOffset": 32712,
      "componentType": 5126,
      "count": 100,
      "max": [
        1.000000238418579,
        1.000000238418579,
        1.0000001192092896
      ],
      "min": [
        0.9999998211860657,
        0.9999998211860657,
        0.9999998211860657
      ],
      "type": "VEC3"
    },
    {
      "bufferView": 6,
      "byteOffset": 16556,
      "componentType": 5126,
      "count": 101,
      "max": [
        3.3333332538604736
      ],
      "min": [
        0.0
      ],
      "type": "SCALAR"
    },
    {
      "bufferView": 8,
      "byteOffset": 21008,
      "componentType": 5126,
      "count": 101,
      "max": [
        5.8600580388201706e-08,
        1.2665985593685036e-07,
        3.352760913344355e-08,
        1.0
      ],
      "min": [
        -4.7264617109021856e-08,
        -9.313225746154785e-08,
        -3.166493200978948e-08,
        1.0
      ],
      "type": "VEC4"
    },
    {
      "bufferView": 6,
      "byteOffset": 16960,
      "componentType": 5126,
      "count": 101,
      "max": [
        3.3333332538604736
      ],
      "min": [
        0.0
      ],
      "type": "SCALAR"
    },
    {
      "bufferView": 7,
      "byteOffset": 33912,
      "componentType": 5126,
      "count": 101,
      "max": [
        0.1386406421661377,
        -0.7804355621337891,
        -1.386325478553772
      ],
      "min": [
        0.13863873481750488,
        -0.7804372310638428,
        -1.3863269090652466
      ],
      "type": "VEC3"
    },
    {
      "bufferView": 6,
      "byteOffset": 17364,
      "componentType": 5126,
      "count": 100,
      "max": [
        3.3333332538604736
      ],
      "min": [
        0.0
      ],
      "type": "SCALAR"
    },
    {
      "bufferView": 7,
      "byteOffset": 35124,
      "componentType": 5126,
      "count": 100,
      "max": [
        1.000000238418579,
        1.0000001192092896,
        1.0000003576278687
      ],
      "min": [
        0.9999998211860657,
        0.9999995827674866,
        0.9999999403953552
      ],
      "type": "VEC3"
    },
    {
      "bufferView": 6,
      "byteOffset": 17764,
      "componentType": 5126,
      "count": 101,
      "max": [
        3.3333332538604736
      ],
      "min": [
        0.0
      ],
      "type": "SCALAR"
    },
    {
      "bufferView": 8,
      "byteOffset": 22624,
      "componentType": 5126,
      "count": 101,
      "max": [
        -0.4218721091747284,
        -0.05272964760661125,
        0.06553490459918976,
        0.9027450680732727
      ],
      "min": [
        -0.42187216877937317,
        -0.052729830145835876,
        0.065534807741642,
        0.9027450680732727
      ],
      "type": "VEC4"
    },
    {
      "bufferView": 6,
      "byteOffset": 18168,
      "componentType": 5126,
      "count": 101,
      "max": [
        3.3333332538604736
      ],
      "min": [
        0.0
      ],
      "type": "SCALAR"
    },
    {
      "bufferView": 7,
      "byteOffset": 36324,
      "componentType": 5126,
      "count": 101,
      "max": [
        0.09400177001953125,
        -0.6484646797180176,
        1.238876223564148
      ],
      "min": [
        0.09399962425231934,
        -0.6484661102294922,
        1.238874912261963
      ],
      "type": "VEC3"
    },
    {
      "bufferView": 6,
      "byteOffset": 18572,
      "componentType": 5126,
      "count": 101,
      "max": [
        3.3333332538604736
      ],
      "min": [
        0.0
      ],
      "type": "SCALAR"
    },
    {
      "bufferView": 7,
      "byteOffset": 37536,
      "componentType": 5126,
      "count": 101,
      "max": [
        1.000000238418579,
        1.000000238418579,
        1.000000238418579
      ],
      "min": [
        0.9999997615814209,
        0.9999997615814209,
        0.9999997615814209
      ],
      "type": "VEC3"
    },
    {
      "bufferView": 6,
      "byteOffset": 18976,
      "componentType": 5126,
      "count": 101,
      "max": [
        3.3333332538604736
      ],
      "min": [
        0.0
      ],
      "type": "SCALAR"
    },
    {
      "bufferView": 8,
      "byteOffset": 24240,
      "componentType": 5126,
      "count": 101,
      "max": [
        0.44816339015960693,
        0.013309071771800518,
        0.0665382519364357,
        0.8913726806640625
      ],
      "min": [
        0.44816330075263977,
        0.01330890879034996,
        0.06653812527656555,
        0.8913726210594177
      ],
      "type": "VEC4"
    },
    {
      "bufferView": 6,
      "byteOffset": 19380,
      "componentType": 5126,
      "count": 101,
      "max": [
        3.3333332538604736
      ],
      "min": [
        0.0
      ],
      "type": "SCALAR"
    },
    {
      "bufferView": 7,
      "byteOffset": 38748,
      "componentType": 5126,
      "count": 101,
      "max": [
        0.3598574101924896,
        4.465289115905762,
        -0.31830137968063354
      ],
      "min": [
        -0.6038496494293213,
        4.465285778045654,
        -0.3183027505874634
      ],
      "type": "VEC3"
    },
    {
      "bufferView": 6,
      "byteOffset": 19784,
      "componentType": 5126,
      "count": 100,
      "max": [
        3.3333332538604736
      ],
      "min": [
        0.0
      ],
      "type": "SCALAR"
    },
    {
      "bufferView": 7,
      "byteOffset": 39960,
      "componentType": 5126,
      "count": 100,
      "max": [
        1.0000001192092896,
        1.000000238418579,
        1.0000001192092896
      ],
      "min": [
        0.9999997615814209,
        0.9999998211860657,
        0.9999998211860657
      ],
      "type": "VEC3"
    },
    {
      "bufferView": 6,
      "byteOffset": 20184,
      "componentType": 5126,
      "count": 101,
      "max": [
        3.3333332538604736
      ],
      "min": [
        0.0
      ],
      "type": "SCALAR"
    },
    {
      "bufferView": 8,
      "byteOffset": 25856,
      "componentType": 5126,
      "count": 101,
      "max": [
        5.8600580388201706e-08,
        1.1920927533992653e-07,
        3.352760913344355e-08,
        1.0
      ],
      "min": [
        -6.193295121192932e-08,
        -9.313225746154785e-08,
        -3.166493200978948e-08,
        1.0
      ],
      "type": "VEC4"
    },
    {
      "bufferView": 6,
      "byteOffset": 20588,
      "componentType": 5126,
      "count": 2,
      "max": [
        3.3333332538604736
      ],
      "min": [
        0.0
      ],
      "type": "SCALAR"
    },
    {
      "bufferView": 7,
      "byteOffset": 41160,
      "componentType": 5126,
      "count": 2,
      "max": [
        3.435452461242676,
        0.0,
        0.0
      ],
      "min": [
        3.435452461242676,
        0.0,
        0.0
      ],
      "type": "VEC3"
    },
    {
      "bufferView": 6,
      "byteOffset": 20596,
      "componentType": 5126,
      "count": 90,
      "max": [
        3.3333332538604736
      ],
      "min": [
        0.0
      ],
      "type": "SCALAR"
    },
    {
      "bufferView": 7,
      "byteOffset": 41184,
      "componentType": 5126,
      "count": 90,
      "max": [
        1.0000001192092896,
        1.000000238418579,
        1.0000001192092896
      ],
      "min": [
        0.9999998807907104,
        0.9999998211860657,
        0.9999998211860657
      ],
      "type": "VEC3"
    },
    {
      "bufferView": 6,
      "byteOffset": 20956,
      "componentType": 5126,
      "count": 101,
      "max": [
        3.3333332538604736
      ],
      "min": [
        0.0
      ],
      "type": "SCALAR"
    },
    {
      "bufferView": 8,
      "byteOffset": 27472,
      "componentType": 5126,
      "count": 101,
      "max": [
        0.24292047321796417,
        0.08274491876363754,
        0.14755643904209137,
        1.0
      ],
      "min": [
        -0.20671074092388153,
        -0.09419570118188858,
        -0.16313160955905914,
        0.9682378768920898
      ],
      "type": "VEC4"
    },
    {
      "bufferView": 6,
      "byteOffset": 21360,
      "componentType": 5126,
      "count": 2,
      "max": [
        3.3333332538604736
      ],
      "min": [
        0.0
      ],
      "type": "SCALAR"
    },
    {
      "bufferView": 7,
      "byteOffset": 42264,
      "componentType": 5126,
      "count": 2,
      "max": [
        0.0,
        0.0,
        0.0
      ],
      "min": [
        0.0,
        0.0,
        0.0
      ],
      "type": "VEC3"
    },
    {
      "bufferView": 6,
      "byteOffset": 21368,
      "componentType": 5126,
      "count": 2,
      "max": [
        3.3333332538604736
      ],
      "min": [
        0.0
      ],
      "type": "SCALAR"
    },
    {
      "bufferView": 7,
      "byteOffset": 42288,
      "componentType": 5126,
      "count": 2,
      "max": [
        1.0,
        1.0,
        1.0
      ],
      "min": [
        1.0,
        1.0,
        1.0
      ],
      "type": "VEC3"
    },
    {
      "bufferView": 6,
      "byteOffset": 21376,
      "componentType": 5126,
      "count": 2,
      "max": [
        3.3333332538604736
      ],
      "min": [
        0.0
      ],
      "type": "SCALAR"
    },
    {
      "bufferView": 8,
      "byteOffset": 29088,
      "componentType": 5126,
      "count": 2,
      "max": [
        -3.552705631987502e-15,
        3.1271677142317295e-14,
        2.842170943040401e-14,
        1.0
      ],
      "min": [
        -3.552705631987502e-15,
        3.1271677142317295e-14,
        2.842170943040401e-14,
        1.0
      ],
      "type": "VEC4"
    },
    {
      "bufferView": 6,
      "byteOffset": 21384,
      "componentType": 5126,
      "count": 2,
      "max": [
        3.3333332538604736
      ],
      "min": [
        0.0
      ],
      "type": "SCALAR"
    },
    {
      "bufferView": 7,
      "byteOffset": 42312,
      "componentType": 5126,
      "count": 2,
      "max": [
        0.370208740234375,
        0.45395201444625854,
        0.2569318413734436
      ],
      "min": [
        0.370208740234375,
        0.45395201444625854,
        0.2569318413734436
      ],
      "type": "VEC3"
    },
    {
      "bufferView": 6,
      "byteOffset": 21392,
      "componentType": 5126,
      "count": 2,
      "max": [
        3.3333332538604736
      ],
      "min": [
        0.0
      ],
      "type": "SCALAR"
    },
    {
      "bufferView": 7,
      "byteOffset": 42336,
      "componentType": 5126,
      "count": 2,
      "max": [
        1.0,
        1.0,
        1.0
      ],
      "min": [
        1.0,
        1.0,
        1.0
      ],
      "type": "VEC3"
    },
    {
      "bufferView": 6,
      "byteOffset": 21400,
      "componentType": 5126,
      "count": 2,
      "max": [
        3.3333332538604736
      ],
      "min": [
        0.0
      ],
      "type": "SCALAR"
    },
    {
      "bufferView": 8,
      "byteOffset": 29120,
      "componentType": 5126,
      "count": 2,
      "max": [
        0.7071067690849304,
        -4.329780301713277e-17,
        0.7071067690849304,
        4.329780301713277e-17
      ],
      "min": [
        0.7071067690849304,
        -4.329780301713277e-17,
        0.7071067690849304,
        4.329780301713277e-17
      ],
      "type": "VEC4"
    }
  ],
  "animations": [
    {
      "channels": [
        {
          "sampler": 0,
          "target": {
            "node": 14,
            "path": "translation"
          }
        },
        {
          "sampler": 1,
          "target": {
            "node": 14,
            "path": "scale"
          }
        },
        {
          "sampler": 2,
          "target": {
            "node": 14,
            "path": "rotation"
          }
        },
        {
          "sampler": 3,
          "target": {
            "node": 13,
            "path": "translation"
          }
        },
        {
          "sampler": 4,
          "target": {
            "node": 13,
            "path": "scale"
          }
        },
        {
          "sampler": 5,
          "target": {
            "node": 13,
            "path": "rotation"
          }
        },
        {
          "sampler": 6,
          "target": {
            "node": 15,
            "path": "translation"
          }
        },
        {
          "sampler": 7,
          "target": {
            "node": 15,
            "path": "scale"
          }
        },
        {
          "sampler": 8,
          "target": {
            "node": 15,
            "path": "rotation"
          }
        },
        {
          "sampler": 9,
          "target": {
            "node": 16,
            "path": "translation"
          }
        },
        {
          "sampler": 10,
          "target": {
            "node": 16,
            "path": "scale"
          }
        },
        {
          "sampler": 11,
          "target": {
            "node": 16,
            "path": "rotation"
          }
        },
        {
          "sampler": 12,
          "target": {
            "node": 12,
            "path": "translation"
          }
        },
        {
          "sampler": 13,
          "target": {
            "node": 12,
            "path": "scale"
          }
        },
        {
          "sampler": 14,
          "target": {
            "node": 12,
            "path": "rotation"
          }
        },
        {
          "sampler": 15,
          "target": {
            "node": 11,
            "path": "translation"
          }
        },
        {
          "sampler": 16,
          "target": {
            "node": 11,
            "path": "scale"
          }
        },
        {
          "sampler": 17,
          "target": {
            "node": 11,
            "path": "rotation"
          }
        },
        {
          "sampler": 18,
          "target": {
            "node": 20,
            "path": "translation"
          }
        },
        {
          "sampler": 19,
          "target": {
            "node": 20,
            "path": "scale"
          }
        },
        {
          "sampler": 20,
          "target": {
            "node": 20,
            "path": "rotation"
          }
        },
        {
          "sampler": 21,
          "target": {
            "node": 19,
            "path": "translation"
          }
        },
        {
          "sampler": 22,
          "target": {
            "node": 19,
            "path": "scale"
          }
        },
        {
          "sampler": 23,
          "target": {
            "node": 19,
            "path": "rotation"
          }
        },
        {
          "sampler": 24,
          "target": {
            "node": 18,
            "path": "translation"
          }
        },
        {
          "sampler": 25,
          "target": {
            "node": 18,
            "path": "scale"
          }
        },
        {
          "sampler": 26,
          "target": {
            "node": 18,
            "path": "rotation"
          }
        },
        {
          "sampler": 27,
          "target": {
            "node": 23,
            "path": "translation"
          }
        },
        {
          "sampler": 28,
          "target": {
            "node": 23,
            "path": "scale"
          }
        },
        {
          "sampler": 29,
          "target": {
            "node": 23,
            "path": "rotation"
          }
        },
        {
          "sampler": 30,
          "target": {
            "node": 22,
            "path": "translation"
          }
        },
        {
          "sampler": 31,
          "target": {
            "node": 22,
            "path": "scale"
          }
        },
        {
          "sampler": 32,
          "target": {
            "node": 22,
            "path": "rotation"
          }
        },
        {
          "sampler": 33,
          "target": {
            "node": 21,
            "path": "translation"
          }
        },
        {
          "sampler": 34,
          "target": {
            "node": 21,
            "path": "scale"
          }
        },
        {
          "sampler": 35,
          "target": {
            "node": 21,
            "path": "rotation"
          }
        },
        {
          "sampler": 36,
          "target": {
            "node": 17,
            "path": "translation"
          }
        },
        {
          "sampler": 37,
          "target": {
            "node": 17,
            "path": "scale"
          }
        },
        {
          "sampler": 38,
          "target": {
            "node": 17,
            "path": "rotation"
          }
        },
        {
          "sampler": 39,
          "target": {
            "node": 24,
            "path": "translation"
          }
        },
        {
          "sampler": 40,
          "target": {
            "node": 24,
            "path": "scale"
          }
        },
        {
          "sampler": 41,
          "target": {
            "node": 24,
            "path": "rotation"
          }
        },
        {
          "sampler": 42,
          "target": {
            "node": 26,
            "path": "translation"
          }
        },
        {
          "sampler": 43,
          "target": {
            "node": 26,
            "path": "scale"
          }
        },
        {
          "sampler": 44,
          "target": {
            "node": 26,
            "path": "rotation"
          }
        },
        {
          "sampler": 45,
          "target": {
            "node": 27,
            "path": "translation"
          }
        },
        {
          "sampler": 46,
          "target": {
            "node": 27,
            "path": "scale"
          }
        },
        {
          "sampler": 47,
          "target": {
            "node": 27,
            "path": "rotation"
          }
        },
        {
          "sampler": 48,
          "target": {
            "node": 25,
            "path": "translation"
          }
        },
        {
          "sampler": 49,
          "target": {
            "node": 25,
            "path": "scale"
          }
        },
        {
          "sampler": 50,
          "target": {
            "node": 25,
            "path": "rotation"
          }
        },
        {
          "sampler": 51,
          "target": {
            "node": 10,
            "path": "translation"
          }
        },
        {
          "sampler": 52,
          "target": {
            "node": 10,
            "path": "scale"
          }
        },
        {
          "sampler": 53,
          "target": {
            "node": 10,
            "path": "rotation"
          }
        },
        {
          "sampler": 54,
          "target": {
            "node": 9,
            "path": "translation"
          }
        },
        {
          "sampler": 55,
          "target": {
            "node": 9,
            "path": "scale"
          }
        },
        {
          "sampler": 56,
          "target": {
            "node": 9,
            "path": "rotation"
          }
        },
        {
          "sampler": 57,
          "target": {
            "node": 8,
            "path": "translation"
          }
        },
        {
          "sampler": 58,
          "target": {
            "node": 8,
            "path": "scale"
          }
        },
        {
          "sampler": 59,
          "target": {
            "node": 8,
            "path": "rotation"
          }
        }
      ],
      "name": "Attack",
      "samplers": [
        {
          "input": 8,
          "interpolation": "LINEAR",
          "output": 9
        },
        {
          "input": 10,
          "interpolation": "LINEAR",
          "output": 11
        },
        {
          "input": 12,
          "interpolation": "LINEAR",
          "output": 13
        },
        {
          "input": 14,
          "interpolation": "LINEAR",
          "output": 15
        },
        {
          "input": 16,
          "interpolation": "LINEAR",
          "output": 17
        },
        {
          "input": 18,
          "interpolation": "LINEAR",
          "output": 19
        },
        {
          "input": 20,
          "interpolation": "LINEAR",
          "output": 21
        },
        {
          "input": 22,
          "interpolation": "LINEAR",
          "output": 23
        },
        {
          "input": 24,
          "interpolation": "LINEAR",
          "output": 25
        },
        {
          "input": 26,
          "interpolation": "LINEAR",
          "output": 27
        },
        {
          "input": 28,
          "interpolation": "LINEAR",
          "output": 29
        },
        {
          "input": 30,
          "interpolation": "LINEAR",
          "output": 31
        },
        {
          "input": 32,
          "interpolation": "LINEAR",
          "output": 33
        },
        {
          "input": 34,
          "interpolation": "LINEAR",
          "output": 35
        },
        {
          "input": 36,
          "interpolation": "LINEAR",
          "output": 37
        },
        {
          "input": 38,
          "interpolation": "LINEAR",
          "output": 39
        },
        {
          "input": 40,
          "interpolation": "LINEAR",
          "output": 41
        },
        {
          "input": 42,
          "interpolation": "LINEAR",
          "output": 43
        },
        {
          "input": 44,
          "interpolation": "LINEAR",
          "output": 45
        },
        {
          "input": 46,
          "interpolation": "LINEAR",
          "output": 47
        },
        {
          "input": 48,
          "interpolation": "LINEAR",
          "output": 49
        },
        {
          "input": 50,
          "interpolation": "LINEAR",
          "output": 51
        },
        {
          "input": 52,
          "interpolation": "LINEAR",
          "output": 53
        },
        {
          "input": 54,
          "interpolation": "LINEAR",
          "output": 55
        },
        {
          "input": 56,
          "interpolation": "LINEAR",
          "output": 57
        },
        {
          "input": 58,
          "interpolation": "LINEAR",
          "output": 59
        },
        {
          "input": 60,
          "interpolation": "LINEAR",
          "output": 61
        },
        {
          "input": 62,
          "interpolation": "LINEAR",
          "output": 63
        },
        {
          "input": 64,
          "interpolation": "LINEAR",
          "output": 65
        },
        {
          "input": 66,
          "interpolation": "LINEAR",
          "output": 67
        },
        {
          "input": 68,
          "interpolation": "LINEAR",
          "output": 69
        },
        {
          "input": 70,
          "interpolation": "LINEAR",
          "output": 71
        },
        {
          "input": 72,
          "interpolation": "LINEAR",
          "output": 73
        },
        {
          "input": 74,
          "interpolation": "LINEAR",
          "output": 75
        },
        {
          "input": 76,
          "interpolation": "LINEAR",
          "output": 77
        },
        {
          "input": 78,
          "interpolation": "LINEAR",
          "output": 79
        },
        {
          "input": 80,
          "interpolation": "LINEAR",
          "output": 81
        },
        {
          "input": 82,
          "interpolation": "LINEAR",
          "output": 83
        },
        {
          "input": 84,
          "interpolation": "LINEAR",
          "output": 85
        },
        {
          "input": 86,
          "interpolation": "LINEAR",
          "output": 87
        },
        {
          "input": 88,
          "interpolation": "LINEAR",
          "output": 89
        },
        {
          "input": 90,
          "interpolation": "LINEAR",
          "output": 91
        },
        {
          "input": 92,
          "interpolation": "LINEAR",
          "output": 93
        },
        {
          "input": 94,
          "interpolation": "LINEAR",
          "output": 95
        },
        {
          "input": 96,
          "interpolation": "LINEAR",
          "output": 97
        },
        {
          "input": 98,
          "interpolation": "LINEAR",
          "output": 99
        },
        {
          "input": 100,
          "interpolation": "LINEAR",
          "output": 101
        },
        {
          "input": 102,
          "interpolation": "LINEAR",
          "output": 103
        },
        {
          "input": 104,
          "interpolation": "LINEAR",
          "output": 105
        },
        {
          "input": 106,
          "interpolation": "LINEAR",
          "output": 107
        },
        {
          "input": 108,
          "interpolation": "LINEAR",
          "output": 109
        },
        {
          "input": 110,
          "interpolation": "LINEAR",
          "output": 111
        },
        {
          "input": 112,
          "interpolation": "LINEAR",
          "output": 113
        },
        {
          "input": 114,
          "interpolation": "LINEAR",
          "output": 115
        },
        {
          "input": 116,
          "interpolation": "LINEAR",
          "output": 117
        },
        {
          "input": 118,
          "interpolation": "LINEAR",
          "output": 119
        },
        {
          "input": 120,
          "interpolation": "LINEAR",
          "output": 121
        },
        {
          "input": 122,
          "interpolation": "LINEAR",
          "output": 123
        },
        {
          "input": 124,
          "interpolation": "LINEAR",
          "output": 125
        },
        {
          "input": 126,
          "interpolation": "LINEAR",
          "output": 127
        }
      ]
    }
  ],
  "asset": {
    "extras": {
      "author": "Pascal Chaumette (https://sketchfab.com/pakagames)",
      "license": "CC-BY-4.0 (http://creativecommons.org/licenses/by/4.0/)",
      "source": "https://sketchfab.com/3d-models/pc-nightmare-mushroom-2ed510f819b7483198db65f5fcd156cd",
      "title": "PC Nightmare Mushroom"
    },
    "generator": "Sketchfab-12.67.0",
    "version": "2.0"
  },
  "bufferViews": [
    {
      "buffer": 0,
      "byteLength": 30136,
      "byteStride": 8,
      "name": "shortBufferViews",
      "target": 34962
    },
    {
      "buffer": 0,
      "byteLength": 83616,
      "byteOffset": 30136,
      "name": "floatBufferViews",
      "target": 34963
    },
    {
      "buffer": 0,
      "byteLength": 30136,
      "byteOffset": 113752,
      "byteStride": 8,
      "name": "floatBufferViews",
      "target": 34962
    },
    {
      "buffer": 0,
      "byteLength": 90408,
      "byteOffset": 143888,
      "byteStride": 12,
      "name": "floatBufferViews",
      "target": 34962
    },
    {
      "buffer": 0,
      "byteLength": 120544,
      "byteOffset": 234296,
      "byteStride": 16,
      "name": "floatBufferViews",
      "target": 34962
    },
    {
      "buffer": 0,
      "byteLength": 1344,
      "byteOffset": 354840,
      "name": "floatBufferViews"
    },
    {
      "buffer": 0,
      "byteLength": 21408,
      "byteOffset": 356184,
      "name": "floatBufferViews"
    },
    {
      "buffer": 0,
      "byteLength": 42360,
      "byteOffset": 377592,
      "byteStride": 12,
      "name": "floatBufferViews"
    },
    {
      "buffer": 0,
      "byteLength": 29152,
      "byteOffset": 419952,
      "byteStride": 16,
      "name": "floatBufferViews"
    }
  ],
  "buffers": [
    {
      "byteLength": 449104,
      "uri": "scene.bin"
    }
  ],
  "images": [
    {
      "uri": "textures/PC_Nightmare_Mushroom_baseColor.jpeg"
    },
    {
      "uri": "textures/PC_Nightmare_Mushroom_emissive.png"
    },
    {
      "uri": "textures/PC_Nightmare_Mushroom_normal.png"
    }
  ],
  "materials": [
    {
      "doubleSided": true,
      "emissiveFactor": [
        1.0,
        1.0,
        1.0
      ],
      "emissiveTexture": {
        "index": 1
      },
      "name": "PC_Nightmare_Mushroom",
      "normalTexture": {
        "index": 2
      },
      "pbrMetallicRoughness": {
        "baseColorTexture": {
          "index": 0
        },
        "metallicFactor": 0.0,
        "roughnessFactor": 0.6
      }
    }
  ],
  "meshes": [
    {
      "name": "Nightmare_Mushroom_Lowpoly1_PC_Nightmare_Mushroom_0",
      "primitives": [
        {
          "attributes": {
            "JOINTS_0": 6,
            "NORMAL": 1,
            "POSITION": 0,
            "TANGENT": 2,
            "TEXCOORD_0": 3,
            "WEIGHTS_0": 7
          },
          "indices": 4,
          "material": 0,
          "mode": 4
        }
      ]
    }
  ],
  "nodes": [
    {
      "children": [
        1
      ],
      "matrix": [
        1.0,
        0.0,
        0.0,
        0.0,
        0.0,
        -4.440892098500626e-16,
        1.0,
        0.0,
        0.0,
        -1.0,
        -4.440892098500626e-16,
        0.0,
        0.0,
        -23.306673049926758,
        -0.2972368001937918,
        1.0
      ],
      "name": "Sketchfab_model"
    },
    {
      "children": [
        2
      ],
      "matrix": [
        1.0,
        0.0,
        0.0,
        0.0,
        0.0,
        -1.0,
        0.0,
        0.0,
        0.0,
        0.0,
        -1.0,
        0.0,
        0.0,
        0.0,
        0.0,
        1.0
      ],
      "name": "054e306d54044148beb5c2055f28d2a8.fbx"
    },
    {
      "children": [
        3
      ],
      "name": "Object_2"
    },
    {
      "children": [
        4
      ],
      "name": "RootNode"
    },
    {
      "children": [
        5,
        7,
        6,
        28
      ],
      "name": "Object_4"
    },
    {
      "children": [
        8
      ],
      "name": "_rootJoint"
    },
    {
      "matrix": [
        0.5008702278137207,
        0.0,
        -6.162975822039155e-33,
        0.0,
        9.039945454887989e-72,
        0.5008702278137207,
        7.346839692639297e-40,
        0.0,
        6.162975822039155e-33,
        -7.346839692639297e-40,
        0.5008702278137207,
        0.0,
        0.0,
        0.0008678518934175372,
        10.622926712036131,
        1.0
      ],
      "name": "Object_6"
    },
    {
      "mesh": 0,
      "name": "Object_7",
      "skin": 0
    },
    {
      "children": [
        9
      ],
      "name": "CATRigHub001_00",
      "rotation": [
        0.7071068286895752,
        -3.090862676913275e-08,
        0.7071068286895752,
        3.090862676913275e-08
      ],
      "translation": [
        0.370208740234375,
        0.45395201444625854,
        0.2569318413734436
      ]
    },
    {
      "children": [
        10
      ],
      "name": "CATRigTail1_01",
      "rotation": [
        -3.552705631987502e-15,
        3.1271677142317295e-14,
        2.842170943040401e-14,
        1.0
      ]
    },
    {
      "children": [
        11,
        17,
        24,
        25
      ],
      "name": "CATRigTail2_02",
      "rotation": [
        -7.105429051666896e-15,
        -3.388132192913985e-21,
        4.263256414560601e-14,
        1.0
      ],
      "translation": [
        3.435452461242676,
        0.0,
        0.0
      ]
    },
    {
      "children": [
        12
      ],
      "name": "CATRigTail3_03",
      "rotation": [
        -7.105429051666896e-15,
        -2.5410990437112928e-21,
        2.842170943040401e-14,
        1.0
      ],
      "translation": [
        3.435452938079834,
        5.551115123125783e-17,
        0.0
      ]
    },
    {
      "children": [
        13,
        15,
        16
      ],
      "name": "CATRigTail4_04",
      "rotation": [
        -1.0658142730467397e-14,
        -1.6940660964569924e-21,
        2.842170943040401e-14,
        1.0
      ],
      "translation": [
        3.435452461242676,
        0.0,
        0.0
      ]
    },
    {
      "children": [
        14
      ],
      "name": "CATRigTail5_05",
      "rotation": [
        -1.0658142730467397e-14,
        -2.5410992456596845e-21,
        2.842170943040401e-14,
        1.0
      ],
      "translation": [
        3.435452461242676,
        5.551115123125783e-17,
        0.0
      ]
    },
    {
      "name": "CATRig5Bone001_06",
      "rotation": [
        7.257662895145123e-15,
        -0.010625638999044895,
        1.428877835821761e-14,
        0.9999435544013977
      ],
      "translation": [
        -3.230820655822754,
        -1.0728836059570313e-06,
        -5.551115123125783e-17
      ]
    },
    {
      "name": "EyeBrow_1_07",
      "rotation": [
        -0.09202715009450912,
        -0.26429420709609985,
        0.31569546461105347,
        0.9066510796546936
      ],
      "scale": [
        1.0,
        1.0,
        0.9999999403953552
      ],
      "translation": [
        0.2462759017944336,
        3.3548576831817627,
        -2.8524107933044434
      ]
    },
    {
      "name": "Eyebrow_2_08",
      "rotation": [
        -0.02491687424480915,
        0.2763553559780121,
        0.22412602603435516,
        0.9342240691184998
      ],
      "scale": [
        1.0,
        0.9999999403953552,
        0.9999999403953552
      ],
      "translation": [
        0.31910228729248047,
        3.597675085067749,
        2.247781753540039
      ]
    },
    {
      "children": [
        18,
        21
      ],
      "name": "CATRig2Bone001_09",
      "rotation": [
        5.793781565621714e-10,
        -3.6013567128456714e-11,
        -0.062004342675209045,
        0.9980759024620056
      ],
      "translation": [
        4.317807674407959,
        4.519648551940918,
        -0.32832926511764526
      ]
    },
    {
      "children": [
        19
      ],
      "name": "CATRig2Bone001Bone001_010",
      "rotation": [
        -0.003112500999122858,
        0.02495446801185608,
        4.694421917861291e-08,
        0.9996837377548218
      ],
      "scale": [
        1.0,
        0.9999999403953552,
        0.9999999403953552
      ],
      "translation": [
        -2.147613525390625,
        -0.11331510543823242,
        -0.821444571018219
      ]
    },
    {
      "children": [
        20
      ],
      "name": "CATRig2Bone001Bone001Bone001_011",
      "rotation": [
        -0.10555407404899597,
        -0.008975105360150337,
        -0.043656084686517715,
        0.9934142827987671
      ],
      "scale": [
        1.0000001192092896,
        1.0000001192092896,
        1.0
      ],
      "translation": [
        0.6028494834899902,
        -0.19860315322875977,
        -0.9697685241699219
      ]
    },
    {
      "name": "CATRig2Bone001Bone001Bone001Bone001_012",
      "rotation": [
        -0.00974322110414505,
        -0.0659918338060379,
        0.9908242225646973,
        -0.1175478994846344
      ],
      "scale": [
        0.6228485107421875,
        1.0000007152557373,
        0.9999998807907104
      ],
      "translation": [
        0.5881648063659668,
        -1.0584101676940918,
        -0.7766687273979187
      ]
    },
    {
      "children": [
        22
      ],
      "name": "CATRig2Bone001Bone002_013",
      "rotation": [
        -4.602398670505714e-11,
        4.527369767970413e-08,
        3.725290742551124e-09,
        1.0
      ],
      "scale": [
        0.9999999403953552,
        0.9999999403953552,
        1.0
      ],
      "translation": [
        -2.0999956130981445,
        -0.10138273239135742,
        0.8852756023406982
      ]
    },
    {
      "children": [
        23
      ],
      "name": "CATRig2Bone001Bone002Bone001_014",
      "rotation": [
        0.10755755752325058,
        0.013415561988949776,
        -5.510607525849309e-09,
        0.9941084384918213
      ],
      "scale": [
        0.9999999403953552,
        0.9999998211860657,
        0.9999998807907104
      ],
      "translation": [
        0.651404857635498,
        -0.4154481887817383,
        0.9009386301040649
      ]
    },
    {
      "name": "CATRig2Bone001Bone002Bone001Bone001_015",
      "rotation": [
        -0.010107716545462608,
        0.21407417953014374,
        0.9739294648170471,
        -0.07437516003847122
      ],
      "scale": [
        0.6165031790733337,
        0.9999998807907104,
        1.0
      ],
      "translation": [
        0.46538877487182617,
        -1.0963714122772217,
        0.7633581161499023
      ]
    },
    {
      "name": "CATRig2Bone002_016",
      "rotation": [
        -7.105429051666896e-15,
        -2.5410990437112928e-21,
        2.842170943040401e-14,
        1.0
      ],
      "translation": [
        2.90486478805542,
        6.453505992889404,
        -1.2550618648529053
      ]
    },
    {
      "children": [
        26,
        27
      ],
      "name": "CATRig2Bone003_017",
      "rotation": [
        -7.105429051666896e-15,
        -2.5410990437112928e-21,
        2.842170943040401e-14,
        1.0
      ],
      "translation": [
        0.00860738754272461,
        4.465287208557129,
        -0.31830209493637085
      ]
    },
    {
      "name": "CATRig2Bone003Bone001_018",
      "rotation": [
        -0.4218721389770508,
        -0.05272970721125603,
        0.06553486734628677,
        0.9027450680732727
      ],
      "scale": [
        1.0,
        0.9999998807907104,
        1.000000238418579
      ],
      "translation": [
        0.1386396884918213,
        -0.7804367542266846,
        -1.3863260746002197
      ]
    },
    {
      "name": "CATRig2Bone003Bone002_019",
      "rotation": [
        0.44816333055496216,
        0.013309011235833168,
        0.06653817743062973,
        0.8913726210594177
      ],
      "translation": [
        0.09400105476379395,
        -0.648465633392334,
        1.238875150680542
      ]
    },
    {
      "name": "Nightmare_Mushroom_Lowpoly1",
      "scale": [
        0.5008702278137207,
        0.5008702278137207,
        0.5008702278137207
      ],
      "translation": [
        0.0,
        0.0008678518934175372,
        10.622926712036133
      ]
    }
  ],
  "samplers": [
    {
      "magFilter": 9729,
      "minFilter": 9987,
      "wrapS": 10497,
      "wrapT": 10497
    }
  ],
  "scene": 0,
  "scenes": [
    {
      "name": "Sketchfab_Scene",
      "nodes": [
        0
      ]
    }
  ],
  "skins": [
    {
      "inverseBindMatrices": 5,
      "joints": [
        5,
        8,
        9,
        10,
        11,
        12,
        13,
        14,
        15,
        16,
        17,
        18,
        19,
        20,
        21,
        22,
        23,
        24,
        25,
        26,
        27
      ],
      "skeleton": 5
    }
  ],
  "textures": [
    {
      "sampler": 0,
      "source": 0
    },
    {
      "sampler": 0,
      "source": 1
    },
    {
      "sampler": 0,
      "source": 2
    }
  ]
}
