{
  "accessors": [
    {
      "bufferView": 3,
      "componentType": 5126,
      "count": 164,
      "max": [
        -8639.4970703125,
        -10565.298828125,
        205637.0625
      ],
      "min": [
        -28129.77734375,
        -30284.509765625,
        185999.90625
      ],
      "type": "VEC3"
    },
    {
      "bufferView": 3,
      "byteOffset": 1968,
      "componentType": 5126,
      "count": 164,
      "max": [
        0.9825749397277832,
        0.9947935342788696,
        0.9911853671073914
      ],
      "min": [
        -0.9843001961708069,
        -0.9948027729988098,
        -0.9911473393440247
      ],
      "type": "VEC3"
    },
    {
      "bufferView": 2,
      "componentType": 5126,
      "count": 164,
      "max": [
        1.3681999444961548,
        1.3767000436782837
      ],
      "min": [
        -0.3707999885082245,
        -0.384799987077713
      ],
      "type": "VEC2"
    },
    {
      "bufferView": 1,
      "componentType": 5125,
      "count": 864,
      "type": "SCALAR"
    },
    {
      "bufferView": 3,
      "byteOffset": 3936,
      "componentType": 5126,
      "count": 164,
      "max": [
        28129.22265625,
        -10565.3828125,
        205637.0625
      ],
      "min": [
        8639.2802734375,
        -30284.96484375,
        185999.90625
      ],
      "type": "VEC3"
    },
    {
      "bufferView": 3,
      "byteOffset": 5904,
      "componentType": 5126,
      "count": 164,
      "max": [
        0.9842840433120728,
        0.9948124289512634,
        0.9911854267120361
      ],
      "min": [
        -0.9825587272644043,
        -0.994821310043335,
        -0.9911472797393799
      ],
      "type": "VEC3"
    },
    {
      "bufferView": 2,
      "byteOffset": 1312,
      "componentType": 5126,
      "count": 164,
      "max": [
        1.3681999444961548,
        1.3767000436782837
      ],
      "min": [
        -0.3707999885082245,
        -0.384799987077713
      ],
      "type": "VEC2"
    },
    {
      "bufferView": 1,
      "byteOffset": 3456,
      "componentType": 5125,
      "count": 864,
      "type": "SCALAR"
    },
    {
      "bufferView": 3,
      "byteOffset": 7872,
      "componentType": 5126,
      "count": 6806,
      "max": [
        104762.0,
        43696.98828125,
        214441.9375
      ],
      "min": [
        -104762.0,
        -43696.98828125,
        0.0
      ],
      "type": "VEC3"
    },
    {
      "bufferView": 3,
      "byteOffset": 89544,
      "componentType": 5126,
      "count": 6806,
      "max": [
        0.9991938471794128,
        0.9999017715454102,
        0.9996548295021057
      ],
      "min": [
        -0.9991965889930725,
        -1.0,
        -0.9999995827674866
      ],
      "type": "VEC3"
    },
    {
      "bufferView": 2,
      "byteOffset": 2624,
      "componentType": 5126,
      "count": 6806,
      "max": [
        1.9970999956130981,
        0.9983000159263611
      ],
      "min": [
        0.0,
        0.0
      ],
      "type": "VEC2"
    },
    {
      "bufferView": 1,
      "byteOffset": 6912,
      "componentType": 5125,
      "count": 30330,
      "type": "SCALAR"
    },
    {
      "bufferView": 5,
      "componentType": 5126,
      "count": 58,
      "max": [
        1.0,
        0.9229695200920105,
        0.734022319316864,
        0.0,
        0.9997226595878601,
        1.0,
        0.9717633724212646,
        0.0,
        0.5444230437278748,
        1.0,
        1.0,
        0.0,
        110008.8046875,
        74800.0859375,
        132891.375,
        1.0
      ],
      "min": [
        -0.9997868537902832,
        -0.9229695200920105,
        -0.8103326559066772,
        0.0,
        -0.9997607469558716,
        -0.9993760585784912,
        -1.0,
        0.0,
        -0.6659210324287415,
        -0.9977710843086243,
        -0.9227356910705566,
        0.0,
        -66341.8359375,
        -170084.625,
        -20921.74609375,
        1.0
      ],
      "type": "MAT4"
    },
    {
      "bufferView": 0,
      "componentType": 5123,
      "count": 164,
      "type": "VEC4"
    },
    {
      "bufferView": 4,
      "componentType": 5126,
      "count": 164,
      "max": [
        1.0,
        0.014113507233560085,
        0.0,
        0.0
      ],
      "min": [
        0.9858865141868591,
        0.0,
        0.0,
        0.0
      ],
      "type": "VEC4"
    },
    {
      "bufferView": 0,
      "byteOffset": 1312,
      "componentType": 5123,
      "count": 164,
      "type": "VEC4"
    },
    {
      "bufferView": 4,
      "byteOffset": 2624,
      "componentType": 5126,
      "count": 164,
      "max": [
        1.0,
        0.017849883064627647,
        0.0,
        0.0
      ],
      "min": [
        0.982150137424469,
        0.0,
        0.0,
        0.0
      ],
      "type": "VEC4"
    },
    {
      "bufferView": 0,
      "byteOffset": 2624,
      "componentType": 5123,
      "count": 6806,
      "type": "VEC4"
    },
    {
      "bufferView": 4,
      "byteOffset": 5248,
      "componentType": 5126,
      "count": 6806,
      "max": [
        1.0,
        0.49934524297714233,
        0.2913322448730469,
        0.2186441719532013
      ],
      "min": [
        0.2895898222923279,
        0.0,
        0.0,
        0.0
      ],
      "type": "VEC4"
    },
    {
      "bufferView": 6,
      "componentType": 5126,
      "count": 221,
      "max": [
        7.400000095367432
      ],
      "min": [
        0.0
      ],
      "type": "SCALAR"
    },
    {
      "bufferView": 7,
      "componentType": 5126,
      "count": 221,
      "max": [
        1.4551915228366852e-11,
        26665.4375,
        14822.119140625
      ],
      "min": [
        -9.094947017729282e-12,
        26665.4375,
        14822.119140625
      ],
      "type": "VEC3"
    },
    {
      "bufferView": 6,
      "byteOffset": 884,
      "componentType": 5126,
      "count": 223,
      "max": [
        7.400000095367432
      ],
      "min": [
        0.0
      ],
      "type": "SCALAR"
    },
    {
      "bufferView": 8,
      "componentType": 5126,
      "count": 223,
      "max": [
        0.1639428287744522,
        0.1576310396194458,
        0.2018415480852127,
        0.9982724785804749
      ],
      "min": [
        -0.15800565481185913,
        -0.32059332728385925,
        -0.007095754612237215,
        0.9419831037521362
      ],
      "type": "VEC4"
    },
    {
      "bufferView": 6,
      "byteOffset": 1776,
      "componentType": 5126,
      "count": 222,
      "max": [
        7.400000095367432
      ],
      "min": [
        0.0
      ],
      "type": "SCALAR"
    },
    {
      "bufferView": 7,
      "byteOffset": 2652,
      "componentType": 5126,
      "count": 222,
      "max": [
        1.0913936421275139e-11,
        27767.263671875,
        -0.00338958203792572
      ],
      "min": [
        -1.4551915228366852e-11,
        27767.263671875,
        -0.00338958203792572
      ],
      "type": "VEC3"
    },
    {
      "bufferView": 6,
      "byteOffset": 2664,
      "componentType": 5126,
      "count": 223,
      "max": [
        7.400000095367432
      ],
      "min": [
        0.0
      ],
      "type": "SCALAR"
    },
    {
      "bufferView": 8,
      "byteOffset": 3568,
      "componentType": 5126,
      "count": 223,
      "max": [
        0.05978827923536301,
        0.004783024080097675,
        0.05219803750514984,
        0.999990701675415
      ],
      "min": [
        -0.0640399307012558,
        -0.034380603581666946,
        -0.003026891965419054,
        0.9969804286956787
      ],
      "type": "VEC4"
    },
    {
      "bufferView": 6,
      "byteOffset": 3556,
      "componentType": 5126,
      "count": 183,
      "max": [
        7.400000095367432
      ],
      "min": [
        0.0
      ],
      "type": "SCALAR"
    },
    {
      "bufferView": 7,
      "byteOffset": 5316,
      "componentType": 5126,
      "count": 183,
      "max": [
        -194.36012268066406,
        11162.60546875,
        -6.993571878410876e-05
      ],
      "min": [
        -194.36012268066406,
        11162.60546875,
        -6.993576243985444e-05
      ],
      "type": "VEC3"
    },
    {
      "bufferView": 6,
      "byteOffset": 4288,
      "componentType": 5126,
      "count": 223,
      "max": [
        7.400000095367432
      ],
      "min": [
        0.0
      ],
      "type": "SCALAR"
    },
    {
      "bufferView": 8,
      "byteOffset": 7136,
      "componentType": 5126,
      "count": 223,
      "max": [
        -0.04950207099318504,
        0.04202708974480629,
        0.16791217029094696,
        0.9974889755249023
      ],
      "min": [
        -0.3127872943878174,
        -0.04236498847603798,
        -0.04718133807182312,
        0.933918297290802
      ],
      "type": "VEC4"
    },
    {
      "bufferView": 6,
      "byteOffset": 5180,
      "componentType": 5126,
      "count": 144,
      "max": [
        7.400000095367432
      ],
      "min": [
        0.0
      ],
      "type": "SCALAR"
    },
    {
      "bufferView": 7,
      "byteOffset": 7512,
      "componentType": 5126,
      "count": 144,
      "max": [
        -1091.812744140625,
        11477.9052734375,
        0.0005194841069169343
      ],
      "min": [
        -1091.812744140625,
        11477.9052734375,
        0.0005194840487092733
      ],
      "type": "VEC3"
    },
    {
      "bufferView": 6,
      "byteOffset": 5756,
      "componentType": 5126,
      "count": 223,
      "max": [
        7.400000095367432
      ],
      "min": [
        0.0
      ],
      "type": "SCALAR"
    },
    {
      "bufferView": 8,
      "byteOffset": 10704,
      "componentType": 5126,
      "count": 223,
      "max": [
        0.00024576560826972127,
        0.11846254020929337,
        -0.10864382982254028,
        0.9850969910621643
      ],
      "min": [
        -0.06121329590678215,
        0.08394771814346313,
        -0.2256392538547516,
        0.9705872535705566
      ],
      "type": "VEC4"
    },
    {
      "bufferView": 6,
      "byteOffset": 6648,
      "componentType": 5126,
      "count": 1,
      "max": [
        0.0
      ],
      "min": [
        0.0
      ],
      "type": "SCALAR"
    },
    {
      "bufferView": 8,
      "byteOffset": 14272,
      "componentType": 5126,
      "count": 1,
      "max": [
        0.20985391736030579,
        0.12225645780563354,
        0.2969593405723572,
        0.9234879016876221
      ],
      "min": [
        0.20985391736030579,
        0.12225645780563354,
        0.2969593405723572,
        0.9234879016876221
      ],
      "type": "VEC4"
    },
    {
      "bufferView": 6,
      "byteOffset": 6652,
      "componentType": 5126,
      "count": 201,
      "max": [
        7.400000095367432
      ],
      "min": [
        0.0
      ],
      "type": "SCALAR"
    },
    {
      "bufferView": 7,
      "byteOffset": 9240,
      "componentType": 5126,
      "count": 201,
      "max": [
        121.93555450439453,
        9191.9736328125,
        -1.9547718693502247e-05
      ],
      "min": [
        121.93555450439453,
        9191.9736328125,
        -1.9547762349247932e-05
      ],
      "type": "VEC3"
    },
    {
      "bufferView": 6,
      "byteOffset": 7456,
      "componentType": 5126,
      "count": 223,
      "max": [
        7.400000095367432
      ],
      "min": [
        0.0
      ],
      "type": "SCALAR"
    },
    {
      "bufferView": 8,
      "byteOffset": 14288,
      "componentType": 5126,
      "count": 223,
      "max": [
        0.09922254085540771,
        -0.0013099033385515213,
        0.010147156193852425,
        0.9999622106552124
      ],
      "min": [
        -0.01786823943257332,
        -0.003854923415929079,
        -0.00046924190246500075,
        0.9950577020645142
      ],
      "type": "VEC4"
    },
    {
      "bufferView": 6,
      "byteOffset": 8348,
      "componentType": 5126,
      "count": 168,
      "max": [
        7.400000095367432
      ],
      "min": [
        0.0
      ],
      "type": "SCALAR"
    },
    {
      "bufferView": 7,
      "byteOffset": 11652,
      "componentType": 5126,
      "count": 168,
      "max": [
        -361.56890869140625,
        10325.8818359375,
        0.000163806980708614
      ],
      "min": [
        -361.56890869140625,
        10325.8818359375,
        0.0001638069370528683
      ],
      "type": "VEC3"
    },
    {
      "bufferView": 6,
      "byteOffset": 9020,
      "componentType": 5126,
      "count": 223,
      "max": [
        7.400000095367432
      ],
      "min": [
        0.0
      ],
      "type": "SCALAR"
    },
    {
      "bufferView": 8,
      "byteOffset": 17856,
      "componentType": 5126,
      "count": 223,
      "max": [
        0.20833554863929749,
        0.004795412998646498,
        0.020272139459848404,
        0.9989048838615417
      ],
      "min": [
        0.04205775260925293,
        0.0030429859180003405,
        0.004599418491125107,
        0.9780348539352417
      ],
      "type": "VEC4"
    },
    {
      "bufferView": 6,
      "byteOffset": 9912,
      "componentType": 5126,
      "count": 223,
      "max": [
        7.400000095367432
      ],
      "min": [
        0.0
      ],
      "type": "SCALAR"
    },
    {
      "bufferView": 8,
      "byteOffset": 21424,
      "componentType": 5126,
      "count": 223,
      "max": [
        0.3430992662906647,
        0.04559514671564102,
        0.19730767607688904,
        0.996060311794281
      ],
      "min": [
        0.0024962082970887423,
        -0.007025412283837795,
        0.016936231404542923,
        0.938862681388855
      ],
      "type": "VEC4"
    },
    {
      "bufferView": 6,
      "byteOffset": 10804,
      "componentType": 5126,
      "count": 114,
      "max": [
        7.400000095367432
      ],
      "min": [
        0.0
      ],
      "type": "SCALAR"
    },
    {
      "bufferView": 7,
      "byteOffset": 13668,
      "componentType": 5126,
      "count": 114,
      "max": [
        131.4430389404297,
        9823.5498046875,
        -0.00016188097652047873
      ],
      "min": [
        131.4430389404297,
        9823.5498046875,
        -0.00016188100562430918
      ],
      "type": "VEC3"
    },
    {
      "bufferView": 6,
      "byteOffset": 11260,
      "componentType": 5126,
      "count": 223,
      "max": [
        7.400000095367432
      ],
      "min": [
        0.0
      ],
      "type": "SCALAR"
    },
    {
      "bufferView": 8,
      "byteOffset": 24992,
      "componentType": 5126,
      "count": 223,
      "max": [
        0.16161975264549255,
        -0.003740384243428707,
        0.02419975772500038,
        0.9997432827949524
      ],
      "min": [
        -0.013831008225679398,
        -0.009924131445586681,
        -0.0021330316085368395,
        0.9868009090423584
      ],
      "type": "VEC4"
    },
    {
      "bufferView": 6,
      "byteOffset": 12152,
      "componentType": 5126,
      "count": 223,
      "max": [
        7.400000095367432
      ],
      "min": [
        0.0
      ],
      "type": "SCALAR"
    },
    {
      "bufferView": 8,
      "byteOffset": 28560,
      "componentType": 5126,
      "count": 223,
      "max": [
        0.24601078033447266,
        0.01008298248052597,
        0.027716398239135742,
        0.9978687763214111
      ],
      "min": [
        0.05878046900033951,
        0.005880481563508511,
        -0.0011870765592902899,
        0.9692139029502869
      ],
      "type": "VEC4"
    },
    {
      "bufferView": 6,
      "byteOffset": 13044,
      "componentType": 5126,
      "count": 223,
      "max": [
        7.400000095367432
      ],
      "min": [
        0.0
      ],
      "type": "SCALAR"
    },
    {
      "bufferView": 8,
      "byteOffset": 32128,
      "componentType": 5126,
      "count": 223,
      "max": [
        0.41322222352027893,
        -0.005470145959407091,
        0.006417735945433378,
        0.9987253546714783
      ],
      "min": [
        0.045069776475429535,
        -0.021798482164740562,
        -0.044199731200933456,
        0.9095404744148254
      ],
      "type": "VEC4"
    },
    {
      "bufferView": 6,
      "byteOffset": 13936,
      "componentType": 5126,
      "count": 108,
      "max": [
        7.400000095367432
      ],
      "min": [
        0.0
      ],
      "type": "SCALAR"
    },
    {
      "bufferView": 7,
      "byteOffset": 15036,
      "componentType": 5126,
      "count": 108,
      "max": [
        16.397052764892578,
        5617.35400390625,
        6.462959572672844e-05
      ],
      "min": [
        16.397052764892578,
        5617.35400390625,
        6.462956662289798e-05
      ],
      "type": "VEC3"
    },
    {
      "bufferView": 6,
      "byteOffset": 14368,
      "componentType": 5126,
      "count": 223,
      "max": [
        7.400000095367432
      ],
      "min": [
        0.0
      ],
      "type": "SCALAR"
    },
    {
      "bufferView": 8,
      "byteOffset": 35696,
      "componentType": 5126,
      "count": 223,
      "max": [
        0.21858841180801392,
        0.0015442043077200651,
        -0.015179289504885674,
        0.9989888072013855
      ],
      "min": [
        0.042320117354393005,
        -0.00012427131878212094,
        -0.026871806010603905,
        0.9754458665847778
      ],
      "type": "VEC4"
    },
    {
      "bufferView": 6,
      "byteOffset": 15260,
      "componentType": 5126,
      "count": 195,
      "max": [
        7.400000095367432
      ],
      "min": [
        0.0
      ],
      "type": "SCALAR"
    },
    {
      "bufferView": 7,
      "byteOffset": 16332,
      "componentType": 5126,
      "count": 195,
      "max": [
        74.32392883300781,
        5946.1181640625,
        0.00011945005098823458
      ],
      "min": [
        74.32392883300781,
        5946.1181640625,
        0.00011945002188440412
      ],
      "type": "VEC3"
    },
    {
      "bufferView": 6,
      "byteOffset": 16040,
      "componentType": 5126,
      "count": 223,
      "max": [
        7.400000095367432
      ],
      "min": [
        0.0
      ],
      "type": "SCALAR"
    },
    {
      "bufferView": 8,
      "byteOffset": 39264,
      "componentType": 5126,
      "count": 223,
      "max": [
        0.24083328247070313,
        -0.00037112433346919715,
        -0.008532444015145302,
        0.9984191656112671
      ],
      "min": [
        0.055553849786520004,
        -0.0018010754138231277,
        -0.020905429497361183,
        0.9703396558761597
      ],
      "type": "VEC4"
    },
    {
      "bufferView": 6,
      "byteOffset": 16932,
      "componentType": 5126,
      "count": 223,
      "max": [
        7.400000095367432
      ],
      "min": [
        0.0
      ],
      "type": "SCALAR"
    },
    {
      "bufferView": 8,
      "byteOffset": 42832,
      "componentType": 5126,
      "count": 223,
      "max": [
        0.49899232387542725,
        0.04994234815239906,
        -0.036168064922094345,
        0.9972193241119385
      ],
      "min": [
        0.015394296497106552,
        0.02140943892300129,
        -0.0770343691110611,
        0.86325603723526
      ],
      "type": "VEC4"
    },
    {
      "bufferView": 6,
      "byteOffset": 17824,
      "componentType": 5126,
      "count": 203,
      "max": [
        7.400000095367432
      ],
      "min": [
        0.0
      ],
      "type": "SCALAR"
    },
    {
      "bufferView": 7,
      "byteOffset": 18672,
      "componentType": 5126,
      "count": 203,
      "max": [
        0.001894940622150898,
        44953.01171875,
        -3.147161623928696e-05
      ],
      "min": [
        0.001894940622150898,
        44953.01171875,
        -3.1471645343117416e-05
      ],
      "type": "VEC3"
    },
    {
      "bufferView": 6,
      "byteOffset": 18636,
      "componentType": 5126,
      "count": 236,
      "max": [
        7.400000095367432
      ],
      "min": [
        0.0
      ],
      "type": "SCALAR"
    },
    {
      "bufferView": 8,
      "byteOffset": 46400,
      "componentType": 5126,
      "count": 236,
      "max": [
        0.2153548300266266,
        0.2727488577365875,
        0.1910303831100464,
        0.9985657334327698
      ],
      "min": [
        -0.25372207164764404,
        -0.1421939581632614,
        -0.17330412566661835,
        0.9442421793937683
      ],
      "type": "VEC4"
    },
    {
      "bufferView": 6,
      "byteOffset": 19580,
      "componentType": 5126,
      "count": 158,
      "max": [
        7.400000095367432
      ],
      "min": [
        0.0
      ],
      "type": "SCALAR"
    },
    {
      "bufferView": 7,
      "byteOffset": 21108,
      "componentType": 5126,
      "count": 158,
      "max": [
        0.00011293762509012595,
        51594.1875,
        0.001003356883302331
      ],
      "min": [
        0.00011293758871033788,
        51594.1875,
        0.001003356883302331
      ],
      "type": "VEC3"
    },
    {
      "bufferView": 6,
      "byteOffset": 20212,
      "componentType": 5126,
      "count": 223,
      "max": [
        7.400000095367432
      ],
      "min": [
        0.0
      ],
      "type": "SCALAR"
    },
    {
      "bufferView": 8,
      "byteOffset": 50176,
      "componentType": 5126,
      "count": 223,
      "max": [
        -0.01625647582113743,
        -0.11685144901275635,
        0.36882519721984863,
        0.9891766309738159
      ],
      "min": [
        -0.08136731386184692,
        -0.12583933770656586,
        0.07368730753660202,
        0.9185276627540588
      ],
      "type": "VEC4"
    },
    {
      "bufferView": 6,
      "byteOffset": 21104,
      "componentType": 5126,
      "count": 222,
      "max": [
        7.400000095367432
      ],
      "min": [
        0.0
      ],
      "type": "SCALAR"
    },
    {
      "bufferView": 7,
      "byteOffset": 23004,
      "componentType": 5126,
      "count": 222,
      "max": [
        -1.7841375665739179e-06,
        20901.24609375,
        -1.175212673842907e-06
      ],
      "min": [
        -1.784181222319603e-06,
        20901.24609375,
        -1.1752708815038204e-06
      ],
      "type": "VEC3"
    },
    {
      "bufferView": 6,
      "byteOffset": 21992,
      "componentType": 5126,
      "count": 223,
      "max": [
        7.400000095367432
      ],
      "min": [
        0.0
      ],
      "type": "SCALAR"
    },
    {
      "bufferView": 8,
      "byteOffset": 53744,
      "componentType": 5126,
      "count": 223,
      "max": [
        0.4290047585964203,
        0.2619806230068207,
        0.4145898222923279,
        0.9489706754684448
      ],
      "min": [
        0.17528650164604187,
        0.06992494314908981,
        0.009169931523501873,
        0.8448027968406677
      ],
      "type": "VEC4"
    },
    {
      "bufferView": 6,
      "byteOffset": 22884,
      "componentType": 5126,
      "count": 223,
      "max": [
        7.400000095367432
      ],
      "min": [
        0.0
      ],
      "type": "SCALAR"
    },
    {
      "bufferView": 8,
      "byteOffset": 57312,
      "componentType": 5126,
      "count": 223,
      "max": [
        0.7065048813819885,
        0.3913683593273163,
        -0.45605599880218506,
        0.43521934747695923
      ],
      "min": [
        0.6155154705047607,
        0.32475972175598145,
        -0.580375611782074,
        0.3646947741508484
      ],
      "type": "VEC4"
    },
    {
      "bufferView": 6,
      "byteOffset": 23776,
      "componentType": 5126,
      "count": 135,
      "max": [
        7.400000095367432
      ],
      "min": [
        0.0
      ],
      "type": "SCALAR"
    },
    {
      "bufferView": 7,
      "byteOffset": 25668,
      "componentType": 5126,
      "count": 135,
      "max": [
        899.0624389648438,
        8461.2373046875,
        -0.00032952483161352575
      ],
      "min": [
        899.0624389648438,
        8461.2373046875,
        -0.0003295248607173562
      ],
      "type": "VEC3"
    },
    {
      "bufferView": 6,
      "byteOffset": 24316,
      "componentType": 5126,
      "count": 223,
      "max": [
        7.400000095367432
      ],
      "min": [
        0.0
      ],
      "type": "SCALAR"
    },
    {
      "bufferView": 8,
      "byteOffset": 60880,
      "componentType": 5126,
      "count": 223,
      "max": [
        -0.10544700920581818,
        0.09142006188631058,
        0.05919736623764038,
        0.9885444641113281
      ],
      "min": [
        -0.19340232014656067,
        0.06871195882558823,
        -0.00553846824914217,
        0.9786213636398315
      ],
      "type": "VEC4"
    },
    {
      "bufferView": 6,
      "byteOffset": 25208,
      "componentType": 5126,
      "count": 98,
      "max": [
        7.400000095367432
      ],
      "min": [
        0.0
      ],
      "type": "SCALAR"
    },
    {
      "bufferView": 7,
      "byteOffset": 27288,
      "componentType": 5126,
      "count": 98,
      "max": [
        -431.1175231933594,
        7725.99853515625,
        -0.0007705992902629077
      ],
      "min": [
        -431.1175231933594,
        7725.99853515625,
        -0.0007705993484705687
      ],
      "type": "VEC3"
    },
    {
      "bufferView": 6,
      "byteOffset": 25600,
      "componentType": 5126,
      "count": 223,
      "max": [
        7.400000095367432
      ],
      "min": [
        0.0
      ],
      "type": "SCALAR"
    },
    {
      "bufferView": 8,
      "byteOffset": 64448,
      "componentType": 5126,
      "count": 223,
      "max": [
        0.02140096388757229,
        -0.03573491424322128,
        0.4047420918941498,
        0.9301913380622864
      ],
      "min": [
        -0.0038534915074706078,
        -0.05115171894431114,
        0.363473117351532,
        0.9134817123413086
      ],
      "type": "VEC4"
    },
    {
      "bufferView": 6,
      "byteOffset": 26492,
      "componentType": 5126,
      "count": 1,
      "max": [
        0.0
      ],
      "min": [
        0.0
      ],
      "type": "SCALAR"
    },
    {
      "bufferView": 8,
      "byteOffset": 68016,
      "componentType": 5126,
      "count": 1,
      "max": [
        0.21532607078552246,
        -0.09271236509084702,
        -0.34911754727363586,
        0.9072794914245605
      ],
      "min": [
        0.21532607078552246,
        -0.09271236509084702,
        -0.34911754727363586,
        0.9072794914245605
      ],
      "type": "VEC4"
    },
    {
      "bufferView": 6,
      "byteOffset": 26496,
      "componentType": 5126,
      "count": 150,
      "max": [
        7.400000095367432
      ],
      "min": [
        0.0
      ],
      "type": "SCALAR"
    },
    {
      "bufferView": 7,
      "byteOffset": 28464,
      "componentType": 5126,
      "count": 150,
      "max": [
        596.5791625976563,
        9198.751953125,
        -0.00019471516134217381
      ],
      "min": [
        596.5791625976563,
        9198.751953125,
        -0.0001947152049979195
      ],
      "type": "VEC3"
    },
    {
      "bufferView": 6,
      "byteOffset": 27096,
      "componentType": 5126,
      "count": 223,
      "max": [
        7.400000095367432
      ],
      "min": [
        0.0
      ],
      "type": "SCALAR"
    },
    {
      "bufferView": 8,
      "byteOffset": 68032,
      "componentType": 5126,
      "count": 223,
      "max": [
        0.1581481695175171,
        0.0005215272540226579,
        0.013537083752453327,
        0.9999960064888
      ],
      "min": [
        -0.0006162628997117281,
        -0.010225567035377026,
        0.0027433112263679504,
        0.9872696399688721
      ],
      "type": "VEC4"
    },
    {
      "bufferView": 6,
      "byteOffset": 27988,
      "componentType": 5126,
      "count": 223,
      "max": [
        7.400000095367432
      ],
      "min": [
        0.0
      ],
      "type": "SCALAR"
    },
    {
      "bufferView": 8,
      "byteOffset": 71600,
      "componentType": 5126,
      "count": 223,
      "max": [
        0.2696211636066437,
        0.001216648961417377,
        0.10384097695350647,
        0.9957379102706909
      ],
      "min": [
        0.02298441156744957,
        -0.004626283887773752,
        0.08919819444417953,
        0.957350492477417
      ],
      "type": "VEC4"
    },
    {
      "bufferView": 6,
      "byteOffset": 28880,
      "componentType": 5126,
      "count": 223,
      "max": [
        7.400000095367432
      ],
      "min": [
        0.0
      ],
      "type": "SCALAR"
    },
    {
      "bufferView": 8,
      "byteOffset": 75168,
      "componentType": 5126,
      "count": 223,
      "max": [
        0.2868529260158539,
        0.012304184027016163,
        -0.056657273322343826,
        0.995797872543335
      ],
      "min": [
        -0.02369273640215397,
        -0.03096848726272583,
        -0.13918839395046234,
        0.9562186002731323
      ],
      "type": "VEC4"
    },
    {
      "bufferView": 6,
      "byteOffset": 29772,
      "componentType": 5126,
      "count": 198,
      "max": [
        7.400000095367432
      ],
      "min": [
        0.0
      ],
      "type": "SCALAR"
    },
    {
      "bufferView": 7,
      "byteOffset": 30264,
      "componentType": 5126,
      "count": 198,
      "max": [
        136.69522094726563,
        9199.771484375,
        -1.7643251339904964e-05
      ],
      "min": [
        136.69522094726563,
        9199.771484375,
        -1.7643287719693035e-05
      ],
      "type": "VEC3"
    },
    {
      "bufferView": 6,
      "byteOffset": 30564,
      "componentType": 5126,
      "count": 223,
      "max": [
        7.400000095367432
      ],
      "min": [
        0.0
      ],
      "type": "SCALAR"
    },
    {
      "bufferView": 8,
      "byteOffset": 78736,
      "componentType": 5126,
      "count": 223,
      "max": [
        0.25150439143180847,
        3.259194636484608e-05,
        0.04096101224422455,
        0.9956136345863342
      ],
      "min": [
        0.09119434654712677,
        -0.003919604234397411,
        0.02090553566813469,
        0.966981053352356
      ],
      "type": "VEC4"
    },
    {
      "bufferView": 6,
      "byteOffset": 31456,
      "componentType": 5126,
      "count": 139,
      "max": [
        7.400000095367432
      ],
      "min": [
        0.0
      ],
      "type": "SCALAR"
    },
    {
      "bufferView": 7,
      "byteOffset": 32640,
      "componentType": 5126,
      "count": 139,
      "max": [
        -403.1305236816406,
        10707.9033203125,
        -0.00030688950209878385
      ],
      "min": [
        -403.1305236816406,
        10707.9033203125,
        -0.0003068895312026143
      ],
      "type": "VEC3"
    },
    {
      "bufferView": 6,
      "byteOffset": 32012,
      "componentType": 5126,
      "count": 223,
      "max": [
        7.400000095367432
      ],
      "min": [
        0.0
      ],
      "type": "SCALAR"
    },
    {
      "bufferView": 8,
      "byteOffset": 82304,
      "componentType": 5126,
      "count": 223,
      "max": [
        0.2982797622680664,
        0.00044037943007424474,
        0.06307122856378555,
        0.9914072155952454
      ],
      "min": [
        0.12392915785312653,
        -0.0016643444541841745,
        0.04183931648731232,
        0.9523922801017761
      ],
      "type": "VEC4"
    },
    {
      "bufferView": 6,
      "byteOffset": 32904,
      "componentType": 5126,
      "count": 223,
      "max": [
        7.400000095367432
      ],
      "min": [
        0.0
      ],
      "type": "SCALAR"
    },
    {
      "bufferView": 8,
      "byteOffset": 85872,
      "componentType": 5126,
      "count": 223,
      "max": [
        0.3811523914337158,
        0.02460160106420517,
        0.028723595663905144,
        0.9996954798698425
      ],
      "min": [
        -0.03244798257946968,
        -0.0030280794017016888,
        -0.03034166246652603,
        0.9237416386604309
      ],
      "type": "VEC4"
    },
    {
      "bufferView": 6,
      "byteOffset": 33796,
      "componentType": 5126,
      "count": 136,
      "max": [
        7.400000095367432
      ],
      "min": [
        0.0
      ],
      "type": "SCALAR"
    },
    {
      "bufferView": 7,
      "byteOffset": 34308,
      "componentType": 5126,
      "count": 136,
      "max": [
        -425.48541259765625,
        8468.609375,
        -0.00024423678405582905
      ],
      "min": [
        -425.48541259765625,
        8468.609375,
        -0.0002442368131596595
      ],
      "type": "VEC3"
    },
    {
      "bufferView": 6,
      "byteOffset": 34340,
      "componentType": 5126,
      "count": 223,
      "max": [
        7.400000095367432
      ],
      "min": [
        0.0
      ],
      "type": "SCALAR"
    },
    {
      "bufferView": 8,
      "byteOffset": 89440,
      "componentType": 5126,
      "count": 223,
      "max": [
        0.2817949950695038,
        0.008859842084348202,
        0.1070440337061882,
        0.9952335357666016
      ],
      "min": [
        0.08275569975376129,
        0.004524033982306719,
        0.051392775028944016,
        0.9534435868263245
      ],
      "type": "VEC4"
    },
    {
      "bufferView": 6,
      "byteOffset": 35232,
      "componentType": 5126,
      "count": 20,
      "max": [
        7.400000095367432
      ],
      "min": [
        0.0
      ],
      "type": "SCALAR"
    },
    {
      "bufferView": 7,
      "byteOffset": 35940,
      "componentType": 5126,
      "count": 20,
      "max": [
        388.0945739746094,
        8732.4287109375,
        -0.0002065763546852395
      ],
      "min": [
        388.0945739746094,
        8732.4287109375,
        -0.00020657638378906995
      ],
      "type": "VEC3"
    },
    {
      "bufferView": 6,
      "byteOffset": 35312,
      "componentType": 5126,
      "count": 223,
      "max": [
        7.400000095367432
      ],
      "min": [
        0.0
      ],
      "type": "SCALAR"
    },
    {
      "bufferView": 8,
      "byteOffset": 93008,
      "componentType": 5126,
      "count": 223,
      "max": [
        0.31605347990989685,
        0.0003141711058560759,
        0.04469660669565201,
        0.9932284951210022
      ],
      "min": [
        0.11528713256120682,
        -0.00029733814881183207,
        -0.014352399855852127,
        0.9476878643035889
      ],
      "type": "VEC4"
    },
    {
      "bufferView": 6,
      "byteOffset": 36204,
      "componentType": 5126,
      "count": 223,
      "max": [
        7.400000095367432
      ],
      "min": [
        0.0
      ],
      "type": "SCALAR"
    },
    {
      "bufferView": 8,
      "byteOffset": 96576,
      "componentType": 5126,
      "count": 223,
      "max": [
        0.42174533009529114,
        0.06875962764024734,
        0.1508682519197464,
        0.9902946352958679
      ],
      "min": [
        0.06125931814312935,
        0.0532216839492321,
        0.0927959606051445,
        0.8925160765647888
      ],
      "type": "VEC4"
    },
    {
      "bufferView": 6,
      "byteOffset": 37096,
      "componentType": 5126,
      "count": 19,
      "max": [
        7.400000095367432
      ],
      "min": [
        0.0
      ],
      "type": "SCALAR"
    },
    {
      "bufferView": 7,
      "byteOffset": 36180,
      "componentType": 5126,
      "count": 19,
      "max": [
        0.00043081300100311637,
        45966.765625,
        0.0005094424705021083
      ],
      "min": [
        0.00043081300100311637,
        45966.765625,
        0.0005094424122944474
      ],
      "type": "VEC3"
    },
    {
      "bufferView": 6,
      "byteOffset": 37172,
      "componentType": 5126,
      "count": 223,
      "max": [
        7.400000095367432
      ],
      "min": [
        0.0
      ],
      "type": "SCALAR"
    },
    {
      "bufferView": 8,
      "byteOffset": 100144,
      "componentType": 5126,
      "count": 223,
      "max": [
        0.2708781957626343,
        0.2521732449531555,
        0.06814438849687576,
        0.9985659122467041
      ],
      "min": [
        -0.20621950924396515,
        -0.08758221566677094,
        -0.2530580461025238,
        0.9416634440422058
      ],
      "type": "VEC4"
    },
    {
      "bufferView": 6,
      "byteOffset": 38064,
      "componentType": 5126,
      "count": 154,
      "max": [
        7.400000095367432
      ],
      "min": [
        0.0
      ],
      "type": "SCALAR"
    },
    {
      "bufferView": 7,
      "byteOffset": 36408,
      "componentType": 5126,
      "count": 154,
      "max": [
        -0.0004849535471294075,
        51543.58203125,
        -0.0003505847998894751
      ],
      "min": [
        -0.000484953576233238,
        51543.58203125,
        -0.0003505847998894751
      ],
      "type": "VEC3"
    },
    {
      "bufferView": 6,
      "byteOffset": 38680,
      "componentType": 5126,
      "count": 223,
      "max": [
        7.400000095367432
      ],
      "min": [
        0.0
      ],
      "type": "SCALAR"
    },
    {
      "bufferView": 8,
      "byteOffset": 103712,
      "componentType": 5126,
      "count": 223,
      "max": [
        -0.014611689373850822,
        0.125587597489357,
        -0.06714430451393127,
        0.9896999001502991
      ],
      "min": [
        -0.0808543935418129,
        0.11642938107252121,
        -0.37154892086982727,
        0.9175282716751099
      ],
      "type": "VEC4"
    },
    {
      "bufferView": 6,
      "byteOffset": 39572,
      "componentType": 5126,
      "count": 219,
      "max": [
        7.400000095367432
      ],
      "min": [
        0.0
      ],
      "type": "SCALAR"
    },
    {
      "bufferView": 7,
      "byteOffset": 38256,
      "componentType": 5126,
      "count": 219,
      "max": [
        -1.5313125913962722e-06,
        20901.244140625,
        0.00017556414240971208
      ],
      "min": [
        -1.531348971184343e-06,
        20901.244140625,
        0.00017556408420205116
      ],
      "type": "VEC3"
    },
    {
      "bufferView": 6,
      "byteOffset": 40448,
      "componentType": 5126,
      "count": 223,
      "max": [
        7.400000095367432
      ],
      "min": [
        0.0
      ],
      "type": "SCALAR"
    },
    {
      "bufferView": 8,
      "byteOffset": 107280,
      "componentType": 5126,
      "count": 223,
      "max": [
        0.4515349268913269,
        -0.1007319912314415,
        -0.022225702181458473,
        0.9410752654075623
      ],
      "min": [
        0.18907280266284943,
        -0.26328131556510925,
        -0.32034388184547424,
        0.8524205088615417
      ],
      "type": "VEC4"
    },
    {
      "bufferView": 6,
      "byteOffset": 41340,
      "componentType": 5126,
      "count": 223,
      "max": [
        7.400000095367432
      ],
      "min": [
        0.0
      ],
      "type": "SCALAR"
    },
    {
      "bufferView": 8,
      "byteOffset": 110848,
      "componentType": 5126,
      "count": 223,
      "max": [
        0.7038882374763489,
        -0.31213465332984924,
        0.6337208151817322,
        0.4366265833377838
      ],
      "min": [
        0.5892652869224548,
        -0.385580837726593,
        0.4691193699836731,
        0.3158232867717743
      ],
      "type": "VEC4"
    },
    {
      "bufferView": 6,
      "byteOffset": 42232,
      "componentType": 5126,
      "count": 223,
      "max": [
        7.400000095367432
      ],
      "min": [
        0.0
      ],
      "type": "SCALAR"
    },
    {
      "bufferView": 7,
      "byteOffset": 40884,
      "componentType": 5126,
      "count": 223,
      "max": [
        7.275957614183426e-12,
        24682.021484375,
        2.4797525838948786e-05
      ],
      "min": [
        -7.275957614183426e-12,
        24682.021484375,
        2.479749673511833e-05
      ],
      "type": "VEC3"
    },
    {
      "bufferView": 6,
      "byteOffset": 43124,
      "componentType": 5126,
      "count": 223,
      "max": [
        7.400000095367432
      ],
      "min": [
        0.0
      ],
      "type": "SCALAR"
    },
    {
      "bufferView": 8,
      "byteOffset": 114416,
      "componentType": 5126,
      "count": 223,
      "max": [
        0.05635714530944824,
        0.023632070049643517,
        0.016901258379220963,
        0.9999934434890747
      ],
      "min": [
        -0.0005572902737185359,
        -0.005903048440814018,
        -0.019989902153611183,
        0.9981104135513306
      ],
      "type": "VEC4"
    },
    {
      "bufferView": 6,
      "byteOffset": 44016,
      "componentType": 5126,
      "count": 221,
      "max": [
        7.400000095367432
      ],
      "min": [
        0.0
      ],
      "type": "SCALAR"
    },
    {
      "bufferView": 7,
      "byteOffset": 43560,
      "componentType": 5126,
      "count": 221,
      "max": [
        7.275957614183426e-12,
        21596.765625,
        1.697680272627622e-05
      ],
      "min": [
        -7.275957614183426e-12,
        21596.765625,
        1.6976780898403376e-05
      ],
      "type": "VEC3"
    },
    {
      "bufferView": 6,
      "byteOffset": 44900,
      "componentType": 5126,
      "count": 223,
      "max": [
        7.400000095367432
      ],
      "min": [
        0.0
      ],
      "type": "SCALAR"
    },
    {
      "bufferView": 8,
      "byteOffset": 117984,
      "componentType": 5126,
      "count": 223,
      "max": [
        0.05622616037726402,
        0.023802490904927254,
        0.016640013083815575,
        0.999993622303009
      ],
      "min": [
        -0.0006853619124740362,
        -0.00603910256177187,
        -0.01996253803372383,
        0.9981077313423157
      ],
      "type": "VEC4"
    },
    {
      "bufferView": 6,
      "byteOffset": 45792,
      "componentType": 5126,
      "count": 219,
      "max": [
        7.400000095367432
      ],
      "min": [
        0.0
      ],
      "type": "SCALAR"
    },
    {
      "bufferView": 7,
      "byteOffset": 46212,
      "componentType": 5126,
      "count": 219,
      "max": [
        1.8189894035458565e-12,
        18507.4921875,
        -385.974609375
      ],
      "min": [
        -1.8189894035458565e-12,
        18507.4921875,
        -385.974609375
      ],
      "type": "VEC3"
    },
    {
      "bufferView": 6,
      "byteOffset": 46668,
      "componentType": 5126,
      "count": 223,
      "max": [
        7.400000095367432
      ],
      "min": [
        0.0
      ],
      "type": "SCALAR"
    },
    {
      "bufferView": 8,
      "byteOffset": 121552,
      "componentType": 5126,
      "count": 223,
      "max": [
        0.2043512463569641,
        0.08365859091281891,
        0.0660264790058136,
        0.9995058178901672
      ],
      "min": [
        0.013512889854609966,
        -0.028036464005708694,
        -0.12279096245765686,
        0.9756720066070557
      ],
      "type": "VEC4"
    },
    {
      "bufferView": 6,
      "byteOffset": 47560,
      "componentType": 5126,
      "count": 216,
      "max": [
        7.400000095367432
      ],
      "min": [
        0.0
      ],
      "type": "SCALAR"
    },
    {
      "bufferView": 7,
      "byteOffset": 48840,
      "componentType": 5126,
      "count": 216,
      "max": [
        7.094749889802188e-05,
        38181.046875,
        -0.0001986362476600334
      ],
      "min": [
        7.094748434610665e-05,
        38181.046875,
        -0.00019863626221194863
      ],
      "type": "VEC3"
    },
    {
      "bufferView": 6,
      "byteOffset": 48424,
      "componentType": 5126,
      "count": 223,
      "max": [
        7.400000095367432
      ],
      "min": [
        0.0
      ],
      "type": "SCALAR"
    },
    {
      "bufferView": 8,
      "byteOffset": 125120,
      "componentType": 5126,
      "count": 223,
      "max": [
        0.3269680142402649,
        -0.2033715546131134,
        0.07264882326126099,
        0.9529596567153931
      ],
      "min": [
        0.21511611342430115,
        -0.2083030343055725,
        0.04693379998207092,
        0.9200294017791748
      ],
      "type": "VEC4"
    },
    {
      "bufferView": 6,
      "byteOffset": 49316,
      "componentType": 5126,
      "count": 215,
      "max": [
        7.400000095367432
      ],
      "min": [
        0.0
      ],
      "type": "SCALAR"
    },
    {
      "bufferView": 7,
      "byteOffset": 51432,
      "componentType": 5126,
      "count": 215,
      "max": [
        -2.9502381948987022e-05,
        6759.4912109375,
        -9.266124106943607e-05
      ],
      "min": [
        -2.9502389224944636e-05,
        6759.4912109375,
        -9.26612556213513e-05
      ],
      "type": "VEC3"
    },
    {
      "bufferView": 6,
      "byteOffset": 50176,
      "componentType": 5126,
      "count": 223,
      "max": [
        7.400000095367432
      ],
      "min": [
        0.0
      ],
      "type": "SCALAR"
    },
    {
      "bufferView": 8,
      "byteOffset": 128688,
      "componentType": 5126,
      "count": 223,
      "max": [
        0.8219881653785706,
        -0.25439947843551636,
        0.43554356694221497,
        0.7142741084098816
      ],
      "min": [
        0.5667104125022888,
        -0.46766015887260437,
        0.25807449221611023,
        0.22676107287406921
      ],
      "type": "VEC4"
    },
    {
      "bufferView": 6,
      "byteOffset": 51068,
      "componentType": 5126,
      "count": 215,
      "max": [
        7.400000095367432
      ],
      "min": [
        0.0
      ],
      "type": "SCALAR"
    },
    {
      "bufferView": 7,
      "byteOffset": 54012,
      "componentType": 5126,
      "count": 215,
      "max": [
        -8.300296030938625e-06,
        14323.7431640625,
        -1.8725026166066527e-05
      ],
      "min": [
        -8.300310582853854e-06,
        14323.7431640625,
        -1.8725044355960563e-05
      ],
      "type": "VEC3"
    },
    {
      "bufferView": 6,
      "byteOffset": 51928,
      "componentType": 5126,
      "count": 223,
      "max": [
        7.400000095367432
      ],
      "min": [
        0.0
      ],
      "type": "SCALAR"
    },
    {
      "bufferView": 8,
      "byteOffset": 132256,
      "componentType": 5126,
      "count": 223,
      "max": [
        -0.4744713008403778,
        0.47152891755104065,
        0.08540725708007813,
        0.8109880685806274
      ],
      "min": [
        -0.704002320766449,
        0.28405144810676575,
        -0.14319175481796265,
        0.6305727958679199
      ],
      "type": "VEC4"
    },
    {
      "bufferView": 6,
      "byteOffset": 52820,
      "componentType": 5126,
      "count": 223,
      "max": [
        7.400000095367432
      ],
      "min": [
        0.0
      ],
      "type": "SCALAR"
    },
    {
      "bufferView": 8,
      "byteOffset": 135824,
      "componentType": 5126,
      "count": 223,
      "max": [
        0.12639811635017395,
        0.48379266262054443,
        0.9971135854721069,
        0.12749741971492767
      ],
      "min": [
        -0.018833473324775696,
        -0.18318186700344086,
        0.8735373616218567,
        -0.052356693893671036
      ],
      "type": "VEC4"
    },
    {
      "bufferView": 6,
      "byteOffset": 53712,
      "componentType": 5126,
      "count": 4,
      "max": [
        7.400000095367432
      ],
      "min": [
        0.0
      ],
      "type": "SCALAR"
    },
    {
      "bufferView": 7,
      "byteOffset": 56592,
      "componentType": 5126,
      "count": 4,
      "max": [
        -0.0003865844919346273,
        38548.5390625,
        -0.0007960319635458291
      ],
      "min": [
        -0.0003865844919346273,
        38548.5390625,
        -0.0007960319635458291
      ],
      "type": "VEC3"
    },
    {
      "bufferView": 6,
      "byteOffset": 53728,
      "componentType": 5126,
      "count": 223,
      "max": [
        7.400000095367432
      ],
      "min": [
        0.0
      ],
      "type": "SCALAR"
    },
    {
      "bufferView": 8,
      "byteOffset": 139392,
      "componentType": 5126,
      "count": 223,
      "max": [
        0.29921311140060425,
        0.21379821002483368,
        -0.05354509875178337,
        0.9462419748306274
      ],
      "min": [
        0.2367473840713501,
        0.21096041798591614,
        -0.06827131658792496,
        0.9280658960342407
      ],
      "type": "VEC4"
    },
    {
      "bufferView": 6,
      "byteOffset": 54620,
      "componentType": 5126,
      "count": 221,
      "max": [
        7.400000095367432
      ],
      "min": [
        0.0
      ],
      "type": "SCALAR"
    },
    {
      "bufferView": 7,
      "byteOffset": 56640,
      "componentType": 5126,
      "count": 221,
      "max": [
        9.5284020062536e-05,
        6729.4501953125,
        -9.13772419153247e-06
      ],
      "min": [
        9.528400551062077e-05,
        6729.4501953125,
        -9.137733286479488e-06
      ],
      "type": "VEC3"
    },
    {
      "bufferView": 6,
      "byteOffset": 55504,
      "componentType": 5126,
      "count": 223,
      "max": [
        7.400000095367432
      ],
      "min": [
        0.0
      ],
      "type": "SCALAR"
    },
    {
      "bufferView": 8,
      "byteOffset": 142960,
      "componentType": 5126,
      "count": 223,
      "max": [
        0.9280979037284851,
        0.2385292798280716,
        0.2071060836315155,
        0.7440086007118225
      ],
      "min": [
        0.6655459403991699,
        -0.09769994020462036,
        0.010119845159351826,
        0.3559390902519226
      ],
      "type": "VEC4"
    },
    {
      "bufferView": 6,
      "byteOffset": 56396,
      "componentType": 5126,
      "count": 218,
      "max": [
        7.400000095367432
      ],
      "min": [
        0.0
      ],
      "type": "SCALAR"
    },
    {
      "bufferView": 7,
      "byteOffset": 59292,
      "componentType": 5126,
      "count": 218,
      "max": [
        1.7881924577523023e-05,
        14299.662109375,
        2.8098056645831093e-06
      ],
      "min": [
        1.7881910025607795e-05,
        14299.662109375,
        2.8097965696360916e-06
      ],
      "type": "VEC3"
    },
    {
      "bufferView": 6,
      "byteOffset": 57268,
      "componentType": 5126,
      "count": 223,
      "max": [
        7.400000095367432
      ],
      "min": [
        0.0
      ],
      "type": "SCALAR"
    },
    {
      "bufferView": 8,
      "byteOffset": 146528,
      "componentType": 5126,
      "count": 223,
      "max": [
        -0.21344053745269775,
        0.16367308795452118,
        -0.12588708102703094,
        0.9347048997879028
      ],
      "min": [
        -0.6449047327041626,
        -0.06182531267404556,
        -0.3753814101219177,
        0.7130890488624573
      ],
      "type": "VEC4"
    },
    {
      "bufferView": 6,
      "byteOffset": 58160,
      "componentType": 5126,
      "count": 223,
      "max": [
        7.400000095367432
      ],
      "min": [
        0.0
      ],
      "type": "SCALAR"
    },
    {
      "bufferView": 8,
      "byteOffset": 150096,
      "componentType": 5126,
      "count": 223,
      "max": [
        -0.00956437736749649,
        0.23991276323795319,
        0.9974502921104431,
        0.06965573132038116
      ],
      "min": [
        -0.10797295719385147,
        -0.1520964354276657,
        0.9693594574928284,
        -0.09003158658742905
      ],
      "type": "VEC4"
    },
    {
      "bufferView": 6,
      "byteOffset": 59052,
      "componentType": 5126,
      "count": 223,
      "max": [
        7.400000095367432
      ],
      "min": [
        0.0
      ],
      "type": "SCALAR"
    },
    {
      "bufferView": 7,
      "byteOffset": 61908,
      "componentType": 5126,
      "count": 223,
      "max": [
        5921.30419921875,
        47586.8046875,
        1089.6297607421875
      ],
      "min": [
        -2696.48974609375,
        45849.0546875,
        -7656.28662109375
      ],
      "type": "VEC3"
    },
    {
      "bufferView": 6,
      "byteOffset": 59944,
      "componentType": 5126,
      "count": 223,
      "max": [
        7.400000095367432
      ],
      "min": [
        0.0
      ],
      "type": "SCALAR"
    },
    {
      "bufferView": 8,
      "byteOffset": 153664,
      "componentType": 5126,
      "count": 223,
      "max": [
        0.1728023737668991,
        0.19520005583763123,
        0.046812754124403,
        0.99973064661026
      ],
      "min": [
        -0.07021109014749527,
        -0.23265975713729858,
        -0.06879951804876328,
        0.96995609998703
      ],
      "type": "VEC4"
    }
  ],
  "animations": [
    {
      "channels": [
        {
          "sampler": 0,
          "target": {
            "node": 14,
            "path": "translation"
          }
        },
        {
          "sampler": 1,
          "target": {
            "node": 14,
            "path": "rotation"
          }
        },
        {
          "sampler": 2,
          "target": {
            "node": 13,
            "path": "translation"
          }
        },
        {
          "sampler": 3,
          "target": {
            "node": 13,
            "path": "rotation"
          }
        },
        {
          "sampler": 4,
          "target": {
            "node": 22,
            "path": "translation"
          }
        },
        {
          "sampler": 5,
          "target": {
            "node": 22,
            "path": "rotation"
          }
        },
        {
          "sampler": 6,
          "target": {
            "node": 21,
            "path": "translation"
          }
        },
        {
          "sampler": 7,
          "target": {
            "node": 21,
            "path": "rotation"
          }
        },
        {
          "sampler": 8,
          "target": {
            "node": 20,
            "path": "rotation"
          }
        },
        {
          "sampler": 9,
          "target": {
            "node": 26,
            "path": "translation"
          }
        },
        {
          "sampler": 10,
          "target": {
            "node": 26,
            "path": "rotation"
          }
        },
        {
          "sampler": 11,
          "target": {
            "node": 25,
            "path": "translation"
          }
        },
        {
          "sampler": 12,
          "target": {
            "node": 25,
            "path": "rotation"
          }
        },
        {
          "sampler": 13,
          "target": {
            "node": 24,
            "path": "rotation"
          }
        },
        {
          "sampler": 14,
          "target": {
            "node": 30,
            "path": "translation"
          }
        },
        {
          "sampler": 15,
          "target": {
            "node": 30,
            "path": "rotation"
          }
        },
        {
          "sampler": 16,
          "target": {
            "node": 29,
            "path": "rotation"
          }
        },
        {
          "sampler": 17,
          "target": {
            "node": 28,
            "path": "rotation"
          }
        },
        {
          "sampler": 18,
          "target": {
            "node": 34,
            "path": "translation"
          }
        },
        {
          "sampler": 19,
          "target": {
            "node": 34,
            "path": "rotation"
          }
        },
        {
          "sampler": 20,
          "target": {
            "node": 33,
            "path": "translation"
          }
        },
        {
          "sampler": 21,
          "target": {
            "node": 33,
            "path": "rotation"
          }
        },
        {
          "sampler": 22,
          "target": {
            "node": 32,
            "path": "rotation"
          }
        },
        {
          "sampler": 23,
          "target": {
            "node": 19,
            "path": "translation"
          }
        },
        {
          "sampler": 24,
          "target": {
            "node": 19,
            "path": "rotation"
          }
        },
        {
          "sampler": 25,
          "target": {
            "node": 18,
            "path": "translation"
          }
        },
        {
          "sampler": 26,
          "target": {
            "node": 18,
            "path": "rotation"
          }
        },
        {
          "sampler": 27,
          "target": {
            "node": 17,
            "path": "translation"
          }
        },
        {
          "sampler": 28,
          "target": {
            "node": 17,
            "path": "rotation"
          }
        },
        {
          "sampler": 29,
          "target": {
            "node": 16,
            "path": "rotation"
          }
        },
        {
          "sampler": 30,
          "target": {
            "node": 42,
            "path": "translation"
          }
        },
        {
          "sampler": 31,
          "target": {
            "node": 42,
            "path": "rotation"
          }
        },
        {
          "sampler": 32,
          "target": {
            "node": 41,
            "path": "translation"
          }
        },
        {
          "sampler": 33,
          "target": {
            "node": 41,
            "path": "rotation"
          }
        },
        {
          "sampler": 34,
          "target": {
            "node": 40,
            "path": "rotation"
          }
        },
        {
          "sampler": 35,
          "target": {
            "node": 46,
            "path": "translation"
          }
        },
        {
          "sampler": 36,
          "target": {
            "node": 46,
            "path": "rotation"
          }
        },
        {
          "sampler": 37,
          "target": {
            "node": 45,
            "path": "rotation"
          }
        },
        {
          "sampler": 38,
          "target": {
            "node": 44,
            "path": "rotation"
          }
        },
        {
          "sampler": 39,
          "target": {
            "node": 50,
            "path": "translation"
          }
        },
        {
          "sampler": 40,
          "target": {
            "node": 50,
            "path": "rotation"
          }
        },
        {
          "sampler": 41,
          "target": {
            "node": 49,
            "path": "translation"
          }
        },
        {
          "sampler": 42,
          "target": {
            "node": 49,
            "path": "rotation"
          }
        },
        {
          "sampler": 43,
          "target": {
            "node": 48,
            "path": "rotation"
          }
        },
        {
          "sampler": 44,
          "target": {
            "node": 54,
            "path": "translation"
          }
        },
        {
          "sampler": 45,
          "target": {
            "node": 54,
            "path": "rotation"
          }
        },
        {
          "sampler": 46,
          "target": {
            "node": 53,
            "path": "translation"
          }
        },
        {
          "sampler": 47,
          "target": {
            "node": 53,
            "path": "rotation"
          }
        },
        {
          "sampler": 48,
          "target": {
            "node": 52,
            "path": "rotation"
          }
        },
        {
          "sampler": 49,
          "target": {
            "node": 39,
            "path": "translation"
          }
        },
        {
          "sampler": 50,
          "target": {
            "node": 39,
            "path": "rotation"
          }
        },
        {
          "sampler": 51,
          "target": {
            "node": 38,
            "path": "translation"
          }
        },
        {
          "sampler": 52,
          "target": {
            "node": 38,
            "path": "rotation"
          }
        },
        {
          "sampler": 53,
          "target": {
            "node": 37,
            "path": "translation"
          }
        },
        {
          "sampler": 54,
          "target": {
            "node": 37,
            "path": "rotation"
          }
        },
        {
          "sampler": 55,
          "target": {
            "node": 36,
            "path": "rotation"
          }
        },
        {
          "sampler": 56,
          "target": {
            "node": 12,
            "path": "translation"
          }
        },
        {
          "sampler": 57,
          "target": {
            "node": 12,
            "path": "rotation"
          }
        },
        {
          "sampler": 58,
          "target": {
            "node": 11,
            "path": "translation"
          }
        },
        {
          "sampler": 59,
          "target": {
            "node": 11,
            "path": "rotation"
          }
        },
        {
          "sampler": 60,
          "target": {
            "node": 10,
            "path": "translation"
          }
        },
        {
          "sampler": 61,
          "target": {
            "node": 10,
            "path": "rotation"
          }
        },
        {
          "sampler": 62,
          "target": {
            "node": 59,
            "path": "translation"
          }
        },
        {
          "sampler": 63,
          "target": {
            "node": 59,
            "path": "rotation"
          }
        },
        {
          "sampler": 64,
          "target": {
            "node": 58,
            "path": "translation"
          }
        },
        {
          "sampler": 65,
          "target": {
            "node": 58,
            "path": "rotation"
          }
        },
        {
          "sampler": 66,
          "target": {
            "node": 57,
            "path": "translation"
          }
        },
        {
          "sampler": 67,
          "target": {
            "node": 57,
            "path": "rotation"
          }
        },
        {
          "sampler": 68,
          "target": {
            "node": 56,
            "path": "rotation"
          }
        },
        {
          "sampler": 69,
          "target": {
            "node": 64,
            "path": "translation"
          }
        },
        {
          "sampler": 70,
          "target": {
            "node": 64,
            "path": "rotation"
          }
        },
        {
          "sampler": 71,
          "target": {
            "node": 63,
            "path": "translation"
          }
        },
        {
          "sampler": 72,
          "target": {
            "node": 63,
            "path": "rotation"
          }
        },
        {
          "sampler": 73,
          "target": {
            "node": 62,
            "path": "translation"
          }
        },
        {
          "sampler": 74,
          "target": {
            "node": 62,
            "path": "rotation"
          }
        },
        {
          "sampler": 75,
          "target": {
            "node": 61,
            "path": "rotation"
          }
        },
        {
          "sampler": 76,
          "target": {
            "node": 9,
            "path": "translation"
          }
        },
        {
          "sampler": 77,
          "target": {
            "node": 9,
            "path": "rotation"
          }
        }
      ],
      "name": "mixamo.com",
      "samplers": [
        {
          "input": 19,
          "interpolation": "LINEAR",
          "output": 20
        },
        {
          "input": 21,
          "interpolation": "LINEAR",
          "output": 22
        },
        {
          "input": 23,
          "interpolation": "LINEAR",
          "output": 24
        },
        {
          "input": 25,
          "interpolation": "LINEAR",
          "output": 26
        },
        {
          "input": 27,
          "interpolation": "LINEAR",
          "output": 28
        },
        {
          "input": 29,
          "interpolation": "LINEAR",
          "output": 30
        },
        {
          "input": 31,
          "interpolation": "LINEAR",
          "output": 32
        },
        {
          "input": 33,
          "interpolation": "LINEAR",
          "output": 34
        },
        {
          "input": 35,
          "interpolation": "LINEAR",
          "output": 36
        },
        {
          "input": 37,
          "interpolation": "LINEAR",
          "output": 38
        },
        {
          "input": 39,
          "interpolation": "LINEAR",
          "output": 40
        },
        {
          "input": 41,
          "interpolation": "LINEAR",
          "output": 42
        },
        {
          "input": 43,
          "interpolation": "LINEAR",
          "output": 44
        },
        {
          "input": 45,
          "interpolation": "LINEAR",
          "output": 46
        },
        {
          "input": 47,
          "interpolation": "LINEAR",
          "output": 48
        },
        {
          "input": 49,
          "interpolation": "LINEAR",
          "output": 50
        },
        {
          "input": 51,
          "interpolation": "LINEAR",
          "output": 52
        },
        {
          "input": 53,
          "interpolation": "LINEAR",
          "output": 54
        },
        {
          "input": 55,
          "interpolation": "LINEAR",
          "output": 56
        },
        {
          "input": 57,
          "interpolation": "LINEAR",
          "output": 58
        },
        {
          "input": 59,
          "interpolation": "LINEAR",
          "output": 60
        },
        {
          "input": 61,
          "interpolation": "LINEAR",
          "output": 62
        },
        {
          "input": 63,
          "interpolation": "LINEAR",
          "output": 64
        },
        {
          "input": 65,
          "interpolation": "LINEAR",
          "output": 66
        },
        {
          "input": 67,
          "interpolation": "LINEAR",
          "output": 68
        },
        {
          "input": 69,
          "interpolation": "LINEAR",
          "output": 70
        },
        {
          "input": 71,
          "interpolation": "LINEAR",
          "output": 72
        },
        {
          "input": 73,
          "interpolation": "LINEAR",
          "output": 74
        },
        {
          "input": 75,
          "interpolation": "LINEAR",
          "output": 76
        },
        {
          "input": 77,
          "interpolation": "LINEAR",
          "output": 78
        },
        {
          "input": 79,
          "interpolation": "LINEAR",
          "output": 80
        },
        {
          "input": 81,
          "interpolation": "LINEAR",
          "output": 82
        },
        {
          "input": 83,
          "interpolation": "LINEAR",
          "output": 84
        },
        {
          "input": 85,
          "interpolation": "LINEAR",
          "output": 86
        },
        {
          "input": 87,
          "interpolation": "LINEAR",
          "output": 88
        },
        {
          "input": 89,
          "interpolation": "LINEAR",
          "output": 90
        },
        {
          "input": 91,
          "interpolation": "LINEAR",
          "output": 92
        },
        {
          "input": 93,
          "interpolation": "LINEAR",
          "output": 94
        },
        {
          "input": 95,
          "interpolation": "LINEAR",
          "output": 96
        },
        {
          "input": 97,
          "interpolation": "LINEAR",
          "output": 98
        },
        {
          "input": 99,
          "interpolation": "LINEAR",
          "output": 100
        },
        {
          "input": 101,
          "interpolation": "LINEAR",
          "output": 102
        },
        {
          "input": 103,
          "interpolation": "LINEAR",
          "output": 104
        },
        {
          "input": 105,
          "interpolation": "LINEAR",
          "output": 106
        },
        {
          "input": 107,
          "interpolation": "LINEAR",
          "output": 108
        },
        {
          "input": 109,
          "interpolation": "LINEAR",
          "output": 110
        },
        {
          "input": 111,
          "interpolation": "LINEAR",
          "output": 112
        },
        {
          "input": 113,
          "interpolation": "LINEAR",
          "output": 114
        },
        {
          "input": 115,
          "interpolation": "LINEAR",
          "output": 116
        },
        {
          "input": 117,
          "interpolation": "LINEAR",
          "output": 118
        },
        {
          "input": 119,
          "interpolation": "LINEAR",
          "output": 120
        },
        {
          "input": 121,
          "interpolation": "LINEAR",
          "output": 122
        },
        {
          "input": 123,
          "interpolation": "LINEAR",
          "output": 124
        },
        {
          "input": 125,
          "interpolation": "LINEAR",
          "output": 126
        },
        {
          "input": 127,
          "interpolation": "LINEAR",
          "output": 128
        },
        {
          "input": 129,
          "interpolation": "LINEAR",
          "output": 130
        },
        {
          "input": 131,
          "interpolation": "LINEAR",
          "output": 132
        },
        {
          "input": 133,
          "interpolation": "LINEAR",
          "output": 134
        },
        {
          "input": 135,
          "interpolation": "LINEAR",
          "output": 136
        },
        {
          "input": 137,
          "interpolation": "LINEAR",
          "output": 138
        },
        {
          "input": 139,
          "interpolation": "LINEAR",
          "output": 140
        },
        {
          "input": 141,
          "interpolation": "LINEAR",
          "output": 142
        },
        {
          "input": 143,
          "interpolation": "LINEAR",
          "output": 144
        },
        {
          "input": 145,
          "interpolation": "LINEAR",
          "output": 146
        },
        {
          "input": 147,
          "interpolation": "LINEAR",
          "output": 148
        },
        {
          "input": 149,
          "interpolation": "LINEAR",
          "output": 150
        },
        {
          "input": 151,
          "interpolation": "LINEAR",
          "output": 152
        },
        {
          "input": 153,
          "interpolation": "LINEAR",
          "output": 154
        },
        {
          "input": 155,
          "interpolation": "LINEAR",
          "output": 156
        },
        {
          "input": 157,
          "interpolation": "LINEAR",
          "output": 158
        },
        {
          "input": 159,
          "interpolation": "LINEAR",
          "output": 160
        },
        {
          "input": 161,
          "interpolation": "LINEAR",
          "output": 162
        },
        {
          "input": 163,
          "interpolation": "LINEAR",
          "output": 164
        },
        {
          "input": 165,
          "interpolation": "LINEAR",
          "output": 166
        },
        {
          "input": 167,
          "interpolation": "LINEAR",
          "output": 168
        },
        {
          "input": 169,
          "interpolation": "LINEAR",
          "output": 170
        },
        {
          "input": 171,
          "interpolation": "LINEAR",
          "output": 172
        },
        {
          "input": 173,
          "interpolation": "LINEAR",
          "output": 174
        }
      ]
    }
  ],
  "asset": {
    "extras": {
      "author": "3D by Renato (https://sketchfab.com/3dbyrenato)",
      "license": "CC-BY-4.0 (http://creativecommons.org/licenses/by/4.0/)",
      "source": "https://sketchfab.com/3d-models/et-drunk-idle-35dc8aac7a9b4a71852faedad9a4c2b7",
      "title": "E.T. Drunk Idle"
    },
    "generator": "Sketchfab-16.65.0",
    "version": "2.0"
  },
  "bufferViews": [
    {
      "buffer": 0,
      "byteLength": 57072,
      "byteStride": 8,
      "name": "shortBufferViews",
      "target": 34962
    },
    {
      "buffer": 0,
      "byteLength": 128232,
      "byteOffset": 57072,
      "name": "floatBufferViews",
      "target": 34963
    },
    {
      "buffer": 0,
      "byteLength": 57072,
      "byteOffset": 185304,
      "byteStride": 8,
      "name": "floatBufferViews",
      "target": 34962
    },
    {
      "buffer": 0,
      "byteLength": 171216,
      "byteOffset": 242376,
      "byteStride": 12,
      "name": "floatBufferViews",
      "target": 34962
    },
    {
      "buffer": 0,
      "byteLength": 114144,
      "byteOffset": 413592,
      "byteStride": 16,
      "name": "floatBufferViews",
      "target": 34962
    },
    {
      "buffer": 0,
      "byteLength": 3712,
      "byteOffset": 527736,
      "name": "floatBufferViews"
    },
    {
      "buffer": 0,
      "byteLength": 60836,
      "byteOffset": 531448,
      "name": "floatBufferViews"
    },
    {
      "buffer": 0,
      "byteLength": 64584,
      "byteOffset": 592284,
      "byteStride": 12,
      "name": "floatBufferViews"
    },
    {
      "buffer": 0,
      "byteLength": 157232,
      "byteOffset": 656868,
      "byteStride": 16,
      "name": "floatBufferViews"
    }
  ],
  "buffers": [
    {
      "byteLength": 814100,
      "uri": "scene.bin"
    }
  ],
  "images": [
    {
      "uri": "textures/Mat_0mat_baseColor.png"
    },
    {
      "uri": "textures/Mat_1mat_baseColor.png"
    }
  ],
  "materials": [
    {
      "doubleSided": true,
      "name": "Mat_0mat",
      "pbrMetallicRoughness": {
        "baseColorTexture": {
          "index": 0
        },
        "metallicFactor": 0.0
      }
    },
    {
      "doubleSided": true,
      "name": "Mat_1mat",
      "pbrMetallicRoughness": {
        "baseColorTexture": {
          "index": 1
        },
        "metallicFactor": 0.0
      }
    }
  ],
  "meshes": [
    {
      "name": "Object.1_Mat_0mat_0",
      "primitives": [
        {
          "attributes": {
            "JOINTS_0": 13,
            "NORMAL": 1,
            "POSITION": 0,
            "TEXCOORD_0": 2,
            "WEIGHTS_0": 14
          },
          "indices": 3,
          "material": 0,
          "mode": 4
        }
      ]
    },
    {
      "name": "Object.2_Mat_0mat_0",
      "primitives": [
        {
          "attributes": {
            "JOINTS_0": 15,
            "NORMAL": 5,
            "POSITION": 4,
            "TEXCOORD_0": 6,
            "WEIGHTS_0": 16
          },
          "indices": 7,
          "material": 0,
          "mode": 4
        }
      ]
    },
    {
      "name": "Object.3_Mat_1mat_0",
      "primitives": [
        {
          "attributes": {
            "JOINTS_0": 17,
            "NORMAL": 9,
            "POSITION": 8,
            "TEXCOORD_0": 10,
            "WEIGHTS_0": 18
          },
          "indices": 11,
          "material": 1,
          "mode": 4
        }
      ]
    }
  ],
  "nodes": [
    {
      "children": [
        1
      ],
      "matrix": [
        0.0011709369719028473,
        0.0,
        0.0,
        0.0,
        0.0,
        2.600002373182802e-19,
        -0.0011709369719028473,
        0.0,
        0.0,
        0.0011709369719028473,
        2.600002373182802e-19,
        0.0,
        0.0,
        0.0,
        0.0,
        1.0
      ],
      "name": "Sketchfab_model"
    },
    {
      "children": [
        2
      ],
      "matrix": [
        0.009999999776482582,
        0.0,
        0.0,
        0.0,
        0.0,
        0.0,
        0.009999999776482582,
        0.0,
        0.0,
        -0.009999999776482582,
        0.0,
        0.0,
        0.0,
        0.0,
        0.0,
        1.0
      ],
      "name": "798b9f471d444a4d9689ba631a2320e1.fbx"
    },
    {
      "children": [
        3
      ],
      "name": "Object_2"
    },
    {
      "children": [
        4
      ],
      "name": "RootNode"
    },
    {
      "children": [
        5,
        6,
        7,
        8,
        66,
        67,
        68
      ],
      "name": "Object_4"
    },
    {
      "children": [
        9
      ],
      "name": "_rootJoint"
    },
    {
      "mesh": 0,
      "name": "Object_6",
      "skin": 0
    },
    {
      "mesh": 1,
      "name": "Object_7",
      "skin": 0
    },
    {
      "mesh": 2,
      "name": "Object_8",
      "skin": 0
    },
    {
      "children": [
        10,
        56,
        61
      ],
      "name": "mixamorig:Hips_01",
      "translation": [
        -512.8737182617188,
        16254.375,
        50881.7421875
      ]
    },
    {
      "children": [
        11
      ],
      "name": "mixamorig:Spine_02",
      "rotation": [
        -0.010425847955048084,
        -0.0,
        0.0,
        0.9999456405639648
      ],
      "translation": [
        0.0,
        18507.4921875,
        -385.974609375
      ]
    },
    {
      "children": [
        12
      ],
      "name": "mixamorig:Spine1_00",
      "rotation": [
        6.393756279976515e-08,
        0.0,
        0.0,
        1.0
      ],
      "translation": [
        0.0,
        21596.765625,
        1.697678817436099e-05
      ]
    },
    {
      "children": [
        13,
        16,
        36
      ],
      "name": "mixamorig:Spine2_03",
      "rotation": [
        3.469446951953614e-18,
        0.0,
        0.0,
        1.0
      ],
      "translation": [
        0.0,
        24682.021484375,
        2.4797525838948786e-05
      ]
    },
    {
      "children": [
        14
      ],
      "name": "mixamorig:Neck_04",
      "rotation": [
        0.010425783693790436,
        0.0,
        0.0,
        0.9999456405639648
      ],
      "translation": [
        0.0,
        27767.263671875,
        -0.00338958203792572
      ]
    },
    {
      "children": [
        15
      ],
      "name": "mixamorig:Head_05",
      "translation": [
        0.0,
        26665.4375,
        14822.119140625
      ]
    },
    {
      "name": "mixamorig:HeadTop_End_06",
      "translation": [
        0.0,
        41196.53125,
        22899.296875
      ]
    },
    {
      "children": [
        17
      ],
      "name": "mixamorig:LeftShoulder_07",
      "rotation": [
        -0.585162341594696,
        -0.3943019211292267,
        0.5915712118148804,
        -0.3900698721408844
      ],
      "translation": [
        9462.4501953125,
        23779.375,
        -103.89588165283203
      ]
    },
    {
      "children": [
        18
      ],
      "name": "mixamorig:LeftArm_08",
      "rotation": [
        0.21738727390766144,
        0.1967756748199463,
        -0.04479239881038666,
        0.9549952745437622
      ],
      "translation": [
        -1.7841593944467604e-06,
        20901.24609375,
        -1.1752272257581353e-06
      ]
    },
    {
      "children": [
        19
      ],
      "name": "mixamorig:LeftForeArm_09",
      "rotation": [
        -0.06365293264389038,
        -0.1089700385928154,
        0.5003532767295837,
        0.8565748333930969
      ],
      "translation": [
        0.00011293761053821072,
        51594.1875,
        0.001003356883302331
      ]
    },
    {
      "children": [
        20,
        24,
        28,
        32
      ],
      "name": "mixamorig:LeftHand_010",
      "rotation": [
        0.18063929677009583,
        -0.6935756206512451,
        -0.026011094450950623,
        0.6968828439712524
      ],
      "translation": [
        0.001894940622150898,
        44953.01171875,
        -3.147161623928696e-05
      ]
    },
    {
      "children": [
        21
      ],
      "name": "mixamorig:LeftHandThumb1_011",
      "rotation": [
        -0.08677627146244049,
        -0.014104807749390602,
        0.15981541574001312,
        0.9832242727279663
      ],
      "translation": [
        -5768.32958984375,
        12966.166015625,
        -2512.9423828125
      ]
    },
    {
      "children": [
        22
      ],
      "name": "mixamorig:LeftHandThumb2_012",
      "rotation": [
        -0.3073965013027191,
        6.176324699872963e-17,
        3.453576333848927e-17,
        0.9515815377235413
      ],
      "translation": [
        -1091.812744140625,
        11477.9052734375,
        0.0005194841069169343
      ]
    },
    {
      "children": [
        23
      ],
      "name": "mixamorig:LeftHandThumb3_013",
      "rotation": [
        -0.05596908926963806,
        -2.8877159734356914e-17,
        1.9230597628736982e-17,
        0.9984325170516968
      ],
      "translation": [
        -194.36012268066406,
        11162.60546875,
        -6.993574788793921e-05
      ]
    },
    {
      "name": "mixamorig:LeftHandThumb4_014",
      "rotation": [
        -3.5684102894784075e-10,
        1.0408340855860843e-17,
        2.688821387764051e-17,
        1.0
      ],
      "translation": [
        1286.1729736328125,
        9953.2763671875,
        0.00015462480951100588
      ]
    },
    {
      "children": [
        25
      ],
      "name": "mixamorig:LeftHandIndex1_015",
      "rotation": [
        -0.05540406331419945,
        0.0029512890614569187,
        -0.053111203014850616,
        0.997046172618866
      ],
      "translation": [
        -6399.23583984375,
        22428.30859375,
        -762.6083374023438
      ]
    },
    {
      "children": [
        26
      ],
      "name": "mixamorig:LeftHandIndex2_016",
      "rotation": [
        -0.23159894347190857,
        5.335773209026383e-17,
        -4.435963491713239e-17,
        0.9728113412857056
      ],
      "translation": [
        -361.56890869140625,
        10325.8818359375,
        0.00016380695160478354
      ]
    },
    {
      "children": [
        27
      ],
      "name": "mixamorig:LeftHandIndex3_017",
      "rotation": [
        -0.0777105987071991,
        -2.875009155737897e-17,
        1.167891840088312e-17,
        0.9969759583473206
      ],
      "translation": [
        121.93555450439453,
        9191.9736328125,
        -1.954774052137509e-05
      ]
    },
    {
      "name": "mixamorig:LeftHandIndex4_018",
      "rotation": [
        -1.5263246222474436e-09,
        7.413703077613007e-26,
        -4.85722573273506e-17,
        1.0
      ],
      "translation": [
        239.6326141357422,
        7895.54638671875,
        -0.00015407077444251627
      ]
    },
    {
      "children": [
        29
      ],
      "name": "mixamorig:LeftHandMiddle1_019",
      "rotation": [
        0.04915075749158859,
        -0.013348264619708061,
        -0.261744886636734,
        0.9637923240661621
      ],
      "translation": [
        -1746.4715576171875,
        20717.068359375,
        1106.999267578125
      ]
    },
    {
      "children": [
        30
      ],
      "name": "mixamorig:LeftHandMiddle2_020",
      "rotation": [
        -0.19168373942375183,
        -3.2561190572096585e-17,
        2.1920603870010454e-17,
        0.9814567565917969
      ],
      "translation": [
        -657.805908203125,
        11005.7333984375,
        -0.0008691209368407726
      ]
    },
    {
      "children": [
        31
      ],
      "name": "mixamorig:LeftHandMiddle3_021",
      "rotation": [
        -0.11814004927873611,
        8.924169725681858e-17,
        -4.528526656619148e-17,
        0.9929969310760498
      ],
      "translation": [
        131.4430389404297,
        9823.5498046875,
        -0.00016188097652047873
      ]
    },
    {
      "name": "mixamorig:LeftHandMiddle4_022",
      "rotation": [
        1.523571668826662e-08,
        2.1143804329974176e-25,
        1.3877787807814457e-17,
        1.0
      ],
      "translation": [
        526.3635864257813,
        9108.005859375,
        -6.791752821300179e-05
      ]
    },
    {
      "children": [
        33
      ],
      "name": "mixamorig:LeftHandRing1_023",
      "rotation": [
        -0.07121112942695618,
        0.022849535569548607,
        -0.30467158555984497,
        0.949516773223877
      ],
      "translation": [
        8145.705078125,
        15917.830078125,
        -356.9524230957031
      ]
    },
    {
      "children": [
        34
      ],
      "name": "mixamorig:LeftHandRing2_024",
      "rotation": [
        0.0074279531836509705,
        5.571578909735855e-17,
        2.734247500027503e-17,
        0.999972403049469
      ],
      "translation": [
        74.32392883300781,
        5946.1181640625,
        0.00011945003643631935
      ]
    },
    {
      "children": [
        35
      ],
      "name": "mixamorig:LeftHandRing3_025",
      "rotation": [
        0.055502716451883316,
        -4.6215296334567515e-18,
        -8.313837488559811e-17,
        0.9984585642814636
      ],
      "translation": [
        16.397052764892578,
        5617.35400390625,
        6.462959572672844e-05
      ]
    },
    {
      "name": "mixamorig:LeftHandRing4_026",
      "rotation": [
        -1.2309100405616391e-08,
        -3.4164616706845427e-25,
        2.7755575615628914e-17,
        1.0
      ],
      "translation": [
        -90.72061157226563,
        4178.0234375,
        4.099954821867868e-05
      ]
    },
    {
      "children": [
        37
      ],
      "name": "mixamorig:RightShoulder_027",
      "rotation": [
        0.5864580273628235,
        -0.39344295859336853,
        0.5903218388557434,
        0.39088353514671326
      ],
      "translation": [
        -9462.4501953125,
        23778.51171875,
        -62.46348571777344
      ]
    },
    {
      "children": [
        38
      ],
      "name": "mixamorig:RightArm_028",
      "rotation": [
        0.2172713279724121,
        -0.19338154792785645,
        0.04396141692996025,
        0.9557532072067261
      ],
      "translation": [
        -1.5313344192691147e-06,
        20901.244140625,
        0.00017556412785779685
      ]
    },
    {
      "children": [
        39
      ],
      "name": "mixamorig:RightForeArm_029",
      "rotation": [
        -0.06412636488676071,
        0.10832752287387848,
        -0.5053516030311584,
        0.8536818623542786
      ],
      "translation": [
        -0.000484953576233238,
        51543.58203125,
        -0.0003505847998894751
      ]
    },
    {
      "children": [
        40,
        44,
        48,
        52
      ],
      "name": "mixamorig:RightHand_030",
      "rotation": [
        0.02489609085023403,
        -0.5126821994781494,
        -0.1004657968878746,
        0.8523167371749878
      ],
      "translation": [
        0.00043081300100311637,
        45966.765625,
        0.0005094424705021083
      ]
    },
    {
      "children": [
        41
      ],
      "name": "mixamorig:RightHandThumb1_031",
      "rotation": [
        0.14699973165988922,
        -0.053887587040662766,
        -0.3399406671524048,
        0.9273228049278259
      ],
      "translation": [
        5524.5390625,
        7356.3828125,
        2986.77099609375
      ]
    },
    {
      "children": [
        42
      ],
      "name": "mixamorig:RightHandThumb2_032",
      "rotation": [
        0.05184820666909218,
        2.555963277370479e-17,
        -4.3016449112301435e-17,
        0.9986550807952881
      ],
      "translation": [
        -431.1175231933594,
        7725.99853515625,
        -0.0007705993484705687
      ]
    },
    {
      "children": [
        43
      ],
      "name": "mixamorig:RightHandThumb3_033",
      "rotation": [
        -0.035981208086013794,
        1.9973582835460687e-18,
        -5.547520527055872e-17,
        0.9993524551391602
      ],
      "translation": [
        899.0624389648438,
        8461.2373046875,
        -0.00032952483161352575
      ]
    },
    {
      "name": "mixamorig:RightHandThumb4_034",
      "rotation": [
        -1.0605361033810823e-08,
        -5.887158002099614e-25,
        5.551115123125783e-17,
        1.0
      ],
      "translation": [
        -467.9447021484375,
        7328.08203125,
        -0.00010714840027503669
      ]
    },
    {
      "children": [
        45
      ],
      "name": "mixamorig:RightHandIndex1_035",
      "rotation": [
        0.08967282623052597,
        -0.023068057373166084,
        -0.2480652928352356,
        0.9643082022666931
      ],
      "translation": [
        5571.54345703125,
        19660.259765625,
        -857.80126953125
      ]
    },
    {
      "children": [
        46
      ],
      "name": "mixamorig:RightHandIndex2_036",
      "rotation": [
        0.21862627565860748,
        -3.0340490628029055e-18,
        -1.3542065802861847e-17,
        0.9758086800575256
      ],
      "translation": [
        -1180.251220703125,
        10628.73046875,
        -0.0006044748006388545
      ]
    },
    {
      "children": [
        47
      ],
      "name": "mixamorig:RightHandIndex3_037",
      "rotation": [
        0.007093456108123064,
        -5.560819606072255e-17,
        -1.3483672641879891e-17,
        0.9999748468399048
      ],
      "translation": [
        596.5791625976563,
        9198.751953125,
        -0.00019471519044600427
      ]
    },
    {
      "name": "mixamorig:RightHandIndex4_038",
      "rotation": [
        -4.848056400774681e-10,
        -8.326672684688674e-17,
        -6.938893903907228e-18,
        1.0
      ],
      "translation": [
        583.6718139648438,
        8284.3212890625,
        0.00016762013547122478
      ]
    },
    {
      "children": [
        49
      ],
      "name": "mixamorig:RightHandMiddle1_039",
      "rotation": [
        0.02940254658460617,
        8.547427569283172e-05,
        0.002905497793108225,
        0.9995635151863098
      ],
      "translation": [
        -4.234315872192383,
        20998.173828125,
        -399.1227111816406
      ]
    },
    {
      "children": [
        50
      ],
      "name": "mixamorig:RightHandMiddle2_040",
      "rotation": [
        0.2625715732574463,
        6.3992255558459946e-18,
        -1.612378500296539e-17,
        0.9649125337600708
      ],
      "translation": [
        -403.1305236816406,
        10707.9033203125,
        -0.00030688950209878385
      ]
    },
    {
      "children": [
        51
      ],
      "name": "mixamorig:RightHandMiddle3_041",
      "rotation": [
        0.09252796322107315,
        1.9038431991912338e-17,
        1.7394994513975658e-17,
        0.9957100749015808
      ],
      "translation": [
        136.69522094726563,
        9199.771484375,
        -1.7643265891820192e-05
      ]
    },
    {
      "name": "mixamorig:RightHandMiddle4_042",
      "rotation": [
        -2.2013643685703244e-10,
        3.469446951953614e-18,
        8.673617379884035e-18,
        1.0
      ],
      "translation": [
        266.4344787597656,
        7916.98779296875,
        -5.364431126508862e-05
      ]
    },
    {
      "children": [
        53
      ],
      "name": "mixamorig:RightHandRing1_043",
      "rotation": [
        0.23006793856620789,
        0.06539686769247055,
        0.26548290252685547,
        0.9339758157730103
      ],
      "translation": [
        -5567.3095703125,
        22160.142578125,
        -1565.00927734375
      ]
    },
    {
      "children": [
        54
      ],
      "name": "mixamorig:RightHandRing2_044",
      "rotation": [
        0.21427133679389954,
        -8.728002850798172e-17,
        -9.269259385635508e-18,
        0.976774275302887
      ],
      "translation": [
        388.0945739746094,
        8732.4287109375,
        -0.00020657636923715472
      ]
    },
    {
      "children": [
        55
      ],
      "name": "mixamorig:RightHandRing3_045",
      "rotation": [
        -0.11941875517368317,
        -3.4181156386561766e-18,
        2.8418110890336936e-17,
        0.9928439855575562
      ],
      "translation": [
        -425.48541259765625,
        8468.609375,
        -0.0002442368131596595
      ]
    },
    {
      "name": "mixamorig:RightHandRing4_046",
      "rotation": [
        -4.693548660839042e-09,
        -2.7755575615628914e-17,
        -1.3027214476155186e-25,
        1.0
      ],
      "translation": [
        37.389732360839844,
        6730.1591796875,
        -5.1944603910669684e-05
      ]
    },
    {
      "children": [
        57
      ],
      "name": "mixamorig:LeftUpLeg_047",
      "rotation": [
        0.0006834804662503302,
        0.04092482849955559,
        0.9990227818489075,
        -0.016684552654623985
      ],
      "translation": [
        18716.072265625,
        -10286.52734375,
        1351.2265625
      ]
    },
    {
      "children": [
        58
      ],
      "name": "mixamorig:LeftLeg_048",
      "rotation": [
        -0.17742903530597687,
        0.5233771800994873,
        0.11245097219944,
        0.8258026838302612
      ],
      "translation": [
        -8.300306944875047e-06,
        14323.7431640625,
        -1.8725026166066527e-05
      ]
    },
    {
      "children": [
        59
      ],
      "name": "mixamorig:LeftFoot_049",
      "rotation": [
        0.5044285655021667,
        -0.37362292408943176,
        0.25642091035842896,
        0.734987199306488
      ],
      "translation": [
        -2.950238558696583e-05,
        6759.4912109375,
        -9.26612556213513e-05
      ]
    },
    {
      "children": [
        60
      ],
      "name": "mixamorig:LeftToeBase_050",
      "rotation": [
        0.2288653403520584,
        -0.20786286890506744,
        0.05009295791387558,
        0.9496864676475525
      ],
      "translation": [
        7.094749889802188e-05,
        38181.046875,
        -0.00019863626221194863
      ]
    },
    {
      "name": "mixamorig:LeftToe_End_051",
      "rotation": [
        -3.9650355221354516e-10,
        5.26109104198591e-17,
        1.734723475976807e-18,
        1.0
      ],
      "translation": [
        -1.3347478670766577e-05,
        16094.25390625,
        -1.0113250027643517e-05
      ]
    },
    {
      "children": [
        62
      ],
      "name": "mixamorig:RightUpLeg_052",
      "rotation": [
        -0.0004833842976950109,
        0.02889496274292469,
        0.9994425177574158,
        0.016719689592719078
      ],
      "translation": [
        -18716.072265625,
        -10286.52734375,
        1076.9501953125
      ]
    },
    {
      "children": [
        63
      ],
      "name": "mixamorig:RightLeg_053",
      "rotation": [
        -0.04418887570500374,
        0.008574905805289745,
        -0.19030460715293884,
        0.9806926250457764
      ],
      "translation": [
        1.7881920939544216e-05,
        14299.662109375,
        2.8098002076148987e-06
      ]
    },
    {
      "children": [
        64
      ],
      "name": "mixamorig:RightFoot_054",
      "rotation": [
        0.5384653210639954,
        -0.09082822501659393,
        0.058523789048194885,
        0.835691511631012
      ],
      "translation": [
        9.528401278657839e-05,
        6729.4501953125,
        -9.137729648500681e-06
      ]
    },
    {
      "children": [
        65
      ],
      "name": "mixamorig:RightToeBase_055",
      "rotation": [
        0.22589851915836334,
        0.21419021487236023,
        -0.0509885810315609,
        0.9489428997039795
      ],
      "translation": [
        -0.0003865844919346273,
        38548.5390625,
        -0.0007960319635458291
      ]
    },
    {
      "name": "mixamorig:RightToe_End_056",
      "rotation": [
        -4.236298256632409e-10,
        -9.86623976961809e-18,
        3.469446951953614e-18,
        1.0
      ],
      "translation": [
        -1.469100607209839e-05,
        15945.279296875,
        5.225796485319734e-06
      ]
    },
    {
      "name": "Object.1"
    },
    {
      "name": "Object.2"
    },
    {
      "name": "Object.3"
    }
  ],
  "samplers": [
    {
      "magFilter": 9729,
      "minFilter": 9987,
      "wrapS": 10497,
      "wrapT": 10497
    }
  ],
  "scene": 0,
  "scenes": [
    {
      "name": "Sketchfab_Scene",
      "nodes": [
        0
      ]
    }
  ],
  "skins": [
    {
      "inverseBindMatrices": 12,
      "joints": [
        5,
        9,
        10,
        11,
        12,
        13,
        14,
        15,
        16,
        17,
        18,
        19,
        20,
        21,
        22,
        23,
        24,
        25,
        26,
        27,
        28,
        29,
        30,
        31,
        32,
        33,
        34,
        35,
        36,
        37,
        38,
        39,
        40,
        41,
        42,
        43,
        44,
        45,
        46,
        47,
        48,
        49,
        50,
        51,
        52,
        53,
        54,
        55,
        56,
        57,
        58,
        59,
        60,
        61,
        62,
        63,
        64,
        65
      ],
      "skeleton": 5
    }
  ],
  "textures": [
    {
      "sampler": 0,
      "source": 0
    },
    {
      "sampler": 0,
      "source": 1
    }
  ]
}
