{
  "accessors": [
    {
      "bufferView": 3,
      "componentType": 5126,
      "count": 1506,
      "max": [
        5.768736839294434,
        8.599452018737793,
        1.6360005140304565
      ],
      "min": [
        1.3537135124206543,
        3.106283187866211,
        -1.911880612373352
      ],
      "type": "VEC3"
    },
    {
      "bufferView": 3,
      "byteOffset": 18072,
      "componentType": 5126,
      "count": 1506,
      "max": [
        0.9988710880279541,
        0.9998944997787476,
        1.0
      ],
      "min": [
        -0.9988711476325989,
        -0.9995689988136292,
        -1.0
      ],
      "type": "VEC3"
    },
    {
      "bufferView": 2,
      "componentType": 5126,
      "count": 1506,
      "max": [
        0.9980080723762512,
        0.9962751269340515
      ],
      "min": [
        0.00199203216470778,
        0.49858853220939636
      ],
      "type": "VEC2"
    },
    {
      "bufferView": 1,
      "componentType": 5125,
      "count": 2226,
      "type": "SCALAR"
    },
    {
      "bufferView": 3,
      "byteOffset": 36144,
      "componentType": 5126,
      "count": 1482,
      "max": [
        5.5591583251953125,
        11.866332054138184,
        4.544203758239746
      ],
      "min": [
        1.5604429244995117,
        0.49300384521484375,
        -7.206747055053711
      ],
      "type": "VEC3"
    },
    {
      "bufferView": 3,
      "byteOffset": 53928,
      "componentType": 5126,
      "count": 1482,
      "max": [
        0.9954569935798645,
        0.9976771473884583,
        0.973133385181427
      ],
      "min": [
        -0.9954569339752197,
        -0.8877063393592834,
        -0.9738288521766663
      ],
      "type": "VEC3"
    },
    {
      "bufferView": 2,
      "byteOffset": 12048,
      "componentType": 5126,
      "count": 1482,
      "max": [
        0.9919769167900085,
        0.9761344194412231
      ],
      "min": [
        0.022763516753911972,
        0.00199203216470778
      ],
      "type": "VEC2"
    },
    {
      "bufferView": 1,
      "byteOffset": 8904,
      "componentType": 5125,
      "count": 2190,
      "type": "SCALAR"
    },
    {
      "bufferView": 3,
      "byteOffset": 71712,
      "componentType": 5126,
      "count": 160,
      "max": [
        5.385887622833252,
        0.6498937606811523,
        3.1946024894714355
      ],
      "min": [
        1.7337136268615723,
        0.12918615341186523,
        -2.682825803756714
      ],
      "type": "VEC3"
    },
    {
      "bufferView": 3,
      "byteOffset": 73632,
      "componentType": 5126,
      "count": 160,
      "max": [
        0.9976771473884583,
        0.30381137132644653,
        0.9943377375602722
      ],
      "min": [
        -0.997677206993103,
        -0.7549980878829956,
        -0.1358989030122757
      ],
      "type": "VEC3"
    },
    {
      "bufferView": 2,
      "byteOffset": 23904,
      "componentType": 5126,
      "count": 160,
      "max": [
        0.869820237159729,
        0.936375617980957
      ],
      "min": [
        0.1831480711698532,
        0.004445340484380722
      ],
      "type": "VEC2"
    },
    {
      "bufferView": 1,
      "byteOffset": 17664,
      "componentType": 5125,
      "count": 240,
      "type": "SCALAR"
    },
    {
      "bufferView": 3,
      "byteOffset": 75552,
      "componentType": 5126,
      "count": 546,
      "max": [
        5.385887622833252,
        12.736238479614258,
        2.94128155708313
      ],
      "min": [
        1.7337136268615723,
        0.12279367446899414,
        -7.462716102600098
      ],
      "type": "VEC3"
    },
    {
      "bufferView": 3,
      "byteOffset": 82104,
      "componentType": 5126,
      "count": 546,
      "max": [
        0.9994800686836243,
        0.9671167731285095,
        0.9567009210586548
      ],
      "min": [
        -0.9994800686836243,
        -1.0,
        -1.0
      ],
      "type": "VEC3"
    },
    {
      "bufferView": 2,
      "byteOffset": 25184,
      "componentType": 5126,
      "count": 546,
      "max": [
        0.9980080723762512,
        0.9980080723762512
      ],
      "min": [
        0.00199203216470778,
        0.001992062432691455
      ],
      "type": "VEC2"
    },
    {
      "bufferView": 1,
      "byteOffset": 18624,
      "componentType": 5125,
      "count": 822,
      "type": "SCALAR"
    },
    {
      "bufferView": 3,
      "byteOffset": 88656,
      "componentType": 5126,
      "count": 200,
      "max": [
        5.280231475830078,
        10.207262992858887,
        4.58487606048584
      ],
      "min": [
        1.839369773864746,
        3.7563371658325195,
        -7.214020729064941
      ],
      "type": "VEC3"
    },
    {
      "bufferView": 3,
      "byteOffset": 91056,
      "componentType": 5126,
      "count": 200,
      "max": [
        0.9856666922569275,
        0.790163516998291,
        0.9977312088012695
      ],
      "min": [
        -0.9841687083244324,
        -0.9972118735313416,
        -0.6898868083953857
      ],
      "type": "VEC3"
    },
    {
      "bufferView": 2,
      "byteOffset": 29552,
      "componentType": 5126,
      "count": 200,
      "max": [
        0.9980080723762512,
        0.988658607006073
      ],
      "min": [
        0.012056761421263218,
        0.16957439482212067
      ],
      "type": "VEC2"
    },
    {
      "bufferView": 1,
      "byteOffset": 21912,
      "componentType": 5125,
      "count": 276,
      "type": "SCALAR"
    },
    {
      "bufferView": 3,
      "byteOffset": 93456,
      "componentType": 5126,
      "count": 180,
      "max": [
        4.6530232429504395,
        10.367547988891602,
        -6.262255668640137
      ],
      "min": [
        2.4832305908203125,
        10.131999969482422,
        -6.475310325622559
      ],
      "type": "VEC3"
    },
    {
      "bufferView": 3,
      "byteOffset": 95616,
      "componentType": 5126,
      "count": 180,
      "max": [
        0.8090186715126038,
        0.9279548525810242,
        0.9510564804077148
      ],
      "min": [
        -1.0,
        -0.9279590845108032,
        -0.9510564804077148
      ],
      "type": "VEC3"
    },
    {
      "bufferView": 2,
      "byteOffset": 31152,
      "componentType": 5126,
      "count": 180,
      "max": [
        0.49345076084136963,
        0.9866107702255249
      ],
      "min": [
        0.2229059487581253,
        0.9716291427612305
      ],
      "type": "VEC2"
    },
    {
      "bufferView": 1,
      "byteOffset": 23016,
      "componentType": 5125,
      "count": 240,
      "type": "SCALAR"
    },
    {
      "bufferView": 3,
      "byteOffset": 97776,
      "componentType": 5126,
      "count": 308,
      "max": [
        1.0,
        6.100707530975342,
        0.9510565996170044
      ],
      "min": [
        -1.0000001192092896,
        -1.0,
        -0.951056718826294
      ],
      "type": "VEC3"
    },
    {
      "bufferView": 3,
      "byteOffset": 101472,
      "componentType": 5126,
      "count": 308,
      "max": [
        0.9984269738197327,
        1.0,
        1.0
      ],
      "min": [
        -0.998139500617981,
        -1.0,
        -1.0
      ],
      "type": "VEC3"
    },
    {
      "bufferView": 2,
      "byteOffset": 32592,
      "componentType": 5126,
      "count": 308,
      "max": [
        0.65625,
        0.9923526048660278
      ],
      "min": [
        0.34375,
        0.007647395133972168
      ],
      "type": "VEC2"
    },
    {
      "bufferView": 1,
      "byteOffset": 23976,
      "componentType": 5125,
      "count": 1560,
      "type": "SCALAR"
    },
    {
      "bufferView": 3,
      "byteOffset": 105168,
      "componentType": 5126,
      "count": 66,
      "max": [
        0.9276472926139832,
        2.637676239013672,
        7.237524032592773
      ],
      "min": [
        -1.9037188291549683,
        1.0797522068023682,
        4.1569013595581055
      ],
      "type": "VEC3"
    },
    {
      "bufferView": 3,
      "byteOffset": 105960,
      "componentType": 5126,
      "count": 66,
      "max": [
        0.8514363169670105,
        -0.06423401832580566,
        0.9424929618835449
      ],
      "min": [
        -0.9749455451965332,
        -0.9979184865951538,
        -0.8361693620681763
      ],
      "type": "VEC3"
    },
    {
      "bufferView": 2,
      "byteOffset": 35056,
      "componentType": 5126,
      "count": 66,
      "max": [
        1.0,
        1.0
      ],
      "min": [
        0.0,
        0.0
      ],
      "type": "VEC2"
    },
    {
      "bufferView": 1,
      "byteOffset": 30216,
      "componentType": 5125,
      "count": 189,
      "type": "SCALAR"
    },
    {
      "bufferView": 3,
      "byteOffset": 106752,
      "componentType": 5126,
      "count": 66,
      "max": [
        0.9276472926139832,
        2.637676239013672,
        7.237524032592773
      ],
      "min": [
        -1.9037188291549683,
        1.0797522068023682,
        4.1569013595581055
      ],
      "type": "VEC3"
    },
    {
      "bufferView": 3,
      "byteOffset": 107544,
      "componentType": 5126,
      "count": 66,
      "max": [
        0.8514363169670105,
        -0.06423401832580566,
        0.9424929618835449
      ],
      "min": [
        -0.9749455451965332,
        -0.9979184865951538,
        -0.8361693620681763
      ],
      "type": "VEC3"
    },
    {
      "bufferView": 2,
      "byteOffset": 35584,
      "componentType": 5126,
      "count": 66,
      "max": [
        1.0,
        1.0
      ],
      "min": [
        0.0,
        0.0
      ],
      "type": "VEC2"
    },
    {
      "bufferView": 1,
      "byteOffset": 30972,
      "componentType": 5125,
      "count": 189,
      "type": "SCALAR"
    },
    {
      "bufferView": 3,
      "byteOffset": 108336,
      "componentType": 5126,
      "count": 44,
      "max": [
        14.065866470336914,
        5.9262495040893555,
        -4.288869857788086
      ],
      "min": [
        7.148632049560547,
        1.828918218612671,
        -6.507882118225098
      ],
      "type": "VEC3"
    },
    {
      "bufferView": 3,
      "byteOffset": 108864,
      "componentType": 5126,
      "count": 44,
      "max": [
        0.998676598072052,
        0.05527466535568237,
        0.2734229564666748
      ],
      "min": [
        -0.9749455451965332,
        -0.9979184865951538,
        -0.22060450911521912
      ],
      "type": "VEC3"
    },
    {
      "bufferView": 2,
      "byteOffset": 36112,
      "componentType": 5126,
      "count": 44,
      "max": [
        1.0,
        1.0
      ],
      "min": [
        0.0,
        0.0
      ],
      "type": "VEC2"
    },
    {
      "bufferView": 1,
      "byteOffset": 31728,
      "componentType": 5125,
      "count": 126,
      "type": "SCALAR"
    },
    {
      "bufferView": 3,
      "byteOffset": 109392,
      "componentType": 5126,
      "count": 148,
      "max": [
        13.771956443786621,
        6.995068550109863,
        10.520163536071777
      ],
      "min": [
        8.684211730957031,
        0.862572193145752,
        6.513487815856934
      ],
      "type": "VEC3"
    },
    {
      "bufferView": 3,
      "byteOffset": 111168,
      "componentType": 5126,
      "count": 148,
      "max": [
        0.8192890286445618,
        1.0,
        0.8192886710166931
      ],
      "min": [
        -0.8192890882492065,
        -1.0,
        -0.9999999403953552
      ],
      "type": "VEC3"
    },
    {
      "bufferView": 2,
      "byteOffset": 36464,
      "componentType": 5126,
      "count": 148,
      "max": [
        0.9980080127716064,
        0.9980080127716064
      ],
      "min": [
        0.0019920319318771362,
        0.00199203216470778
      ],
      "type": "VEC2"
    },
    {
      "bufferView": 1,
      "byteOffset": 32232,
      "componentType": 5125,
      "count": 258,
      "type": "SCALAR"
    },
    {
      "bufferView": 3,
      "byteOffset": 112944,
      "componentType": 5126,
      "count": 145,
      "max": [
        13.771956443786621,
        6.280369281768799,
        10.520163536071777
      ],
      "min": [
        8.684211730957031,
        0.8185189962387085,
        6.513487815856934
      ],
      "type": "VEC3"
    },
    {
      "bufferView": 3,
      "byteOffset": 114684,
      "componentType": 5126,
      "count": 145,
      "max": [
        0.8192890286445618,
        1.0,
        0.8192886710166931
      ],
      "min": [
        -0.8192890882492065,
        -1.0,
        -0.9999999403953552
      ],
      "type": "VEC3"
    },
    {
      "bufferView": 2,
      "byteOffset": 37648,
      "componentType": 5126,
      "count": 145,
      "max": [
        0.875,
        1.0
      ],
      "min": [
        0.125,
        0.0
      ],
      "type": "VEC2"
    },
    {
      "bufferView": 1,
      "byteOffset": 33264,
      "componentType": 5125,
      "count": 258,
      "type": "SCALAR"
    },
    {
      "bufferView": 3,
      "byteOffset": 116424,
      "componentType": 5126,
      "count": 145,
      "max": [
        13.771956443786621,
        6.2683258056640625,
        10.520163536071777
      ],
      "min": [
        8.684211730957031,
        0.8064753413200378,
        6.513487815856934
      ],
      "type": "VEC3"
    },
    {
      "bufferView": 3,
      "byteOffset": 118164,
      "componentType": 5126,
      "count": 145,
      "max": [
        0.8192890286445618,
        1.0,
        0.8192886710166931
      ],
      "min": [
        -0.8192890882492065,
        -1.0,
        -0.9999999403953552
      ],
      "type": "VEC3"
    },
    {
      "bufferView": 2,
      "byteOffset": 38808,
      "componentType": 5126,
      "count": 145,
      "max": [
        0.875,
        1.0
      ],
      "min": [
        0.125,
        0.0
      ],
      "type": "VEC2"
    },
    {
      "bufferView": 1,
      "byteOffset": 34296,
      "componentType": 5125,
      "count": 258,
      "type": "SCALAR"
    },
    {
      "bufferView": 3,
      "byteOffset": 119904,
      "componentType": 5126,
      "count": 66,
      "max": [
        0.9276472926139832,
        2.637676239013672,
        7.237524032592773
      ],
      "min": [
        -1.9037188291549683,
        1.0797522068023682,
        4.1569013595581055
      ],
      "type": "VEC3"
    },
    {
      "bufferView": 3,
      "byteOffset": 120696,
      "componentType": 5126,
      "count": 66,
      "max": [
        0.8514363169670105,
        -0.06423401832580566,
        0.9424929618835449
      ],
      "min": [
        -0.9749455451965332,
        -0.9979184865951538,
        -0.8361693620681763
      ],
      "type": "VEC3"
    },
    {
      "bufferView": 2,
      "byteOffset": 39968,
      "componentType": 5126,
      "count": 66,
      "max": [
        1.0,
        1.0
      ],
      "min": [
        0.0,
        0.0
      ],
      "type": "VEC2"
    },
    {
      "bufferView": 1,
      "byteOffset": 35328,
      "componentType": 5125,
      "count": 189,
      "type": "SCALAR"
    },
    {
      "bufferView": 5,
      "componentType": 5126,
      "count": 34,
      "max": [
        1.0,
        2.107339902579497e-08,
        1.0,
        0.0,
        0.999763011932373,
        1.0,
        1.2246468525851679e-16,
        0.0,
        0.9340519905090332,
        0.999763011932373,
        1.0,
        0.0,
        11.056370735168457,
        3.6728079319000244,
        4.710249900817871,
        1.0
      ],
      "min": [
        2.1868334327103228e-17,
        -7.307825059784249e-17,
        -1.0,
        0.0,
        -0.999763011932373,
        -1.0,
        -1.968365026527863e-08,
        0.0,
        -0.9340519905090332,
        -0.999763011932373,
        -1.0,
        0.0,
        -7.535522937774658,
        -6.505749225616455,
        -4.811399936676025,
        1.0
      ],
      "type": "MAT4"
    },
    {
      "bufferView": 0,
      "componentType": 5123,
      "count": 1506,
      "type": "VEC4"
    },
    {
      "bufferView": 4,
      "componentType": 5126,
      "count": 1506,
      "max": [
        1.0,
        0.497007817029953,
        0.27601945400238037,
        0.10483267158269882
      ],
      "min": [
        0.3356322646141052,
        0.0,
        0.0,
        0.0
      ],
      "type": "VEC4"
    },
    {
      "bufferView": 0,
      "byteOffset": 12048,
      "componentType": 5123,
      "count": 1482,
      "type": "VEC4"
    },
    {
      "bufferView": 4,
      "byteOffset": 24096,
      "componentType": 5126,
      "count": 1482,
      "max": [
        1.0,
        0.4988047778606415,
        0.3023439645767212,
        0.11184773594141006
      ],
      "min": [
        0.35756537318229675,
        0.0,
        0.0,
        0.0
      ],
      "type": "VEC4"
    },
    {
      "bufferView": 0,
      "byteOffset": 23904,
      "componentType": 5123,
      "count": 160,
      "type": "VEC4"
    },
    {
      "bufferView": 4,
      "byteOffset": 47808,
      "componentType": 5126,
      "count": 160,
      "max": [
        1.0,
        0.19337345659732819,
        0.030286725610494614,
        0.0
      ],
      "min": [
        0.8066264986991882,
        0.0,
        0.0,
        0.0
      ],
      "type": "VEC4"
    },
    {
      "bufferView": 0,
      "byteOffset": 25184,
      "componentType": 5123,
      "count": 546,
      "type": "VEC4"
    },
    {
      "bufferView": 4,
      "byteOffset": 50368,
      "componentType": 5126,
      "count": 546,
      "max": [
        1.0,
        0.22350789606571198,
        0.030286725610494614,
        0.026350919157266617
      ],
      "min": [
        0.7764921188354492,
        0.0,
        0.0,
        0.0
      ],
      "type": "VEC4"
    },
    {
      "bufferView": 0,
      "byteOffset": 29552,
      "componentType": 5123,
      "count": 200,
      "type": "VEC4"
    },
    {
      "bufferView": 4,
      "byteOffset": 59104,
      "componentType": 5126,
      "count": 200,
      "max": [
        1.0,
        0.4988047778606415,
        0.16058962047100067,
        0.04674861207604408
      ],
      "min": [
        0.4579332172870636,
        0.0,
        0.0,
        0.0
      ],
      "type": "VEC4"
    },
    {
      "bufferView": 0,
      "byteOffset": 31152,
      "componentType": 5123,
      "count": 180,
      "type": "VEC4"
    },
    {
      "bufferView": 4,
      "byteOffset": 62304,
      "componentType": 5126,
      "count": 180,
      "max": [
        1.0,
        0.010967040434479713,
        0.0,
        0.0
      ],
      "min": [
        0.9890329837799072,
        0.0,
        0.0,
        0.0
      ],
      "type": "VEC4"
    },
    {
      "bufferView": 6,
      "componentType": 5126,
      "count": 35,
      "max": [
        1.4375
      ],
      "min": [
        0.0416666679084301
      ],
      "type": "SCALAR"
    },
    {
      "bufferView": 8,
      "componentType": 5126,
      "count": 35,
      "max": [
        0.44428741931915283,
        -0.5500987768173218,
        0.44428741931915283,
        0.5500987768173218
      ],
      "min": [
        0.44428741931915283,
        -0.5500987768173218,
        0.44428741931915283,
        0.5500987768173218
      ],
      "type": "VEC4"
    },
    {
      "bufferView": 6,
      "byteOffset": 140,
      "componentType": 5126,
      "count": 36,
      "max": [
        1.4375
      ],
      "min": [
        0.0416666679084301
      ],
      "type": "SCALAR"
    },
    {
      "bufferView": 7,
      "componentType": 5126,
      "count": 36,
      "max": [
        2.5423333644866943,
        8.881784197001252e-16,
        -0.2108575701713562
      ],
      "min": [
        2.5423333644866943,
        -8.881784197001252e-16,
        -0.2108575701713562
      ],
      "type": "VEC3"
    },
    {
      "bufferView": 6,
      "byteOffset": 284,
      "componentType": 5126,
      "count": 44,
      "max": [
        1.4375
      ],
      "min": [
        0.0416666679084301
      ],
      "type": "SCALAR"
    },
    {
      "bufferView": 8,
      "byteOffset": 560,
      "componentType": 5126,
      "count": 44,
      "max": [
        1.4791141972893971e-31,
        2.465190328815662e-32,
        1.3877787807814457e-17,
        1.0
      ],
      "min": [
        -9.860761315262648e-32,
        -6.77927340424307e-32,
        -5.551115123125783e-17,
        1.0
      ],
      "type": "VEC4"
    },
    {
      "bufferView": 6,
      "byteOffset": 460,
      "componentType": 5126,
      "count": 47,
      "max": [
        1.4375
      ],
      "min": [
        0.0416666679084301
      ],
      "type": "SCALAR"
    },
    {
      "bufferView": 8,
      "byteOffset": 1264,
      "componentType": 5126,
      "count": 47,
      "max": [
        1.485514058733014e-31,
        4.2347207498259924e-32,
        0.15401504933834076,
        0.9999921917915344
      ],
      "min": [
        -9.839745239511471e-32,
        -5.443658502676349e-32,
        -0.11856037378311157,
        0.9880685210227966
      ],
      "type": "VEC4"
    },
    {
      "bufferView": 6,
      "byteOffset": 648,
      "componentType": 5126,
      "count": 45,
      "max": [
        1.4375
      ],
      "min": [
        0.0416666679084301
      ],
      "type": "SCALAR"
    },
    {
      "bufferView": 8,
      "byteOffset": 2016,
      "componentType": 5126,
      "count": 45,
      "max": [
        1.4791141972893971e-31,
        2.7733391199176196e-32,
        1.3877787807814457e-17,
        1.0
      ],
      "min": [
        -9.860761315262648e-32,
        -4.3140830754274083e-32,
        -2.7755575615628914e-17,
        1.0
      ],
      "type": "VEC4"
    },
    {
      "bufferView": 6,
      "byteOffset": 828,
      "componentType": 5126,
      "count": 49,
      "max": [
        1.4375
      ],
      "min": [
        0.0416666679084301
      ],
      "type": "SCALAR"
    },
    {
      "bufferView": 8,
      "byteOffset": 2736,
      "componentType": 5126,
      "count": 49,
      "max": [
        0.9950203895568848,
        -0.09967168420553207,
        -9.548791838758002e-18,
        6.205393150087056e-17
      ],
      "min": [
        0.930328369140625,
        -0.3667275309562683,
        -2.5427783492786287e-17,
        5.846798443144498e-17
      ],
      "type": "VEC4"
    },
    {
      "bufferView": 6,
      "byteOffset": 1024,
      "componentType": 5126,
      "count": 38,
      "max": [
        1.4375
      ],
      "min": [
        0.0416666679084301
      ],
      "type": "SCALAR"
    },
    {
      "bufferView": 7,
      "byteOffset": 432,
      "componentType": 5126,
      "count": 38,
      "max": [
        0.11892842501401901,
        0.020304683595895767,
        1.072640061378479
      ],
      "min": [
        0.0025583449751138687,
        -0.030080555006861687,
        1.072640061378479
      ],
      "type": "VEC3"
    },
    {
      "bufferView": 6,
      "byteOffset": 1176,
      "componentType": 5126,
      "count": 45,
      "max": [
        1.4375
      ],
      "min": [
        0.0416666679084301
      ],
      "type": "SCALAR"
    },
    {
      "bufferView": 8,
      "byteOffset": 3520,
      "componentType": 5126,
      "count": 45,
      "max": [
        9.860761315262648e-32,
        3.697785493223493e-32,
        5.551115123125783e-17,
        1.0
      ],
      "min": [
        -7.395570986446986e-32,
        -3.0814879110195774e-32,
        -5.551115123125783e-17,
        1.0
      ],
      "type": "VEC4"
    },
    {
      "bufferView": 6,
      "byteOffset": 1356,
      "componentType": 5126,
      "count": 28,
      "max": [
        1.4375
      ],
      "min": [
        0.0416666679084301
      ],
      "type": "SCALAR"
    },
    {
      "bufferView": 8,
      "byteOffset": 4240,
      "componentType": 5126,
      "count": 28,
      "max": [
        0.44428741931915283,
        -0.5500987768173218,
        0.44428741931915283,
        0.5500987768173218
      ],
      "min": [
        0.44428741931915283,
        -0.5500987768173218,
        0.44428741931915283,
        0.5500987768173218
      ],
      "type": "VEC4"
    },
    {
      "bufferView": 6,
      "byteOffset": 1468,
      "componentType": 5126,
      "count": 44,
      "max": [
        1.4375
      ],
      "min": [
        0.0416666679084301
      ],
      "type": "SCALAR"
    },
    {
      "bufferView": 8,
      "byteOffset": 4688,
      "componentType": 5126,
      "count": 44,
      "max": [
        5.9164567891575885e-31,
        1.6023737137301802e-31,
        1.3877787807814457e-17,
        1.0
      ],
      "min": [
        -1.9721522630525295e-31,
        -1.1093356479670479e-31,
        -2.7755575615628914e-17,
        1.0
      ],
      "type": "VEC4"
    },
    {
      "bufferView": 6,
      "byteOffset": 1644,
      "componentType": 5126,
      "count": 47,
      "max": [
        1.4375
      ],
      "min": [
        0.0416666679084301
      ],
      "type": "SCALAR"
    },
    {
      "bufferView": 8,
      "byteOffset": 5392,
      "componentType": 5126,
      "count": 47,
      "max": [
        4.127242950341609e-31,
        1.7183924200687682e-31,
        0.1594015657901764,
        0.9999994039535522
      ],
      "min": [
        -3.972505105779026e-31,
        -8.731728378656611e-32,
        -0.11856037378311157,
        0.9872138500213623
      ],
      "type": "VEC4"
    },
    {
      "bufferView": 6,
      "byteOffset": 1832,
      "componentType": 5126,
      "count": 45,
      "max": [
        1.4375
      ],
      "min": [
        0.0416666679084301
      ],
      "type": "SCALAR"
    },
    {
      "bufferView": 8,
      "byteOffset": 6144,
      "componentType": 5126,
      "count": 45,
      "max": [
        3.944304526105059e-31,
        1.7102257906158654e-31,
        1.3877787807814457e-17,
        1.0
      ],
      "min": [
        -3.944304526105059e-31,
        -8.628166150854817e-32,
        -2.7755575615628914e-17,
        1.0
      ],
      "type": "VEC4"
    },
    {
      "bufferView": 6,
      "byteOffset": 2012,
      "componentType": 5126,
      "count": 49,
      "max": [
        1.4375
      ],
      "min": [
        0.0416666679084301
      ],
      "type": "SCALAR"
    },
    {
      "bufferView": 8,
      "byteOffset": 6864,
      "componentType": 5126,
      "count": 49,
      "max": [
        0.2582516372203827,
        0.990679919719696,
        1.131716909178208e-15,
        4.457343595918673e-16
      ],
      "min": [
        0.13621029257774353,
        0.9660776853561401,
        1.1185754047597944e-15,
        3.0253028437806577e-16
      ],
      "type": "VEC4"
    },
    {
      "bufferView": 6,
      "byteOffset": 2208,
      "componentType": 5126,
      "count": 45,
      "max": [
        1.4375
      ],
      "min": [
        0.0416666679084301
      ],
      "type": "SCALAR"
    },
    {
      "bufferView": 8,
      "byteOffset": 7648,
      "componentType": 5126,
      "count": 45,
      "max": [
        9.860761315262648e-32,
        3.697785493223493e-32,
        5.551115123125783e-17,
        1.0
      ],
      "min": [
        -7.395570986446986e-32,
        -3.0814879110195774e-32,
        -5.551115123125783e-17,
        1.0
      ],
      "type": "VEC4"
    },
    {
      "bufferView": 6,
      "byteOffset": 2388,
      "componentType": 5126,
      "count": 21,
      "max": [
        1.4375
      ],
      "min": [
        0.0416666679084301
      ],
      "type": "SCALAR"
    },
    {
      "bufferView": 7,
      "byteOffset": 888,
      "componentType": 5126,
      "count": 21,
      "max": [
        0.0,
        0.03240089863538742,
        0.0
      ],
      "min": [
        -0.006253800354897976,
        0.0,
        0.0
      ],
      "type": "VEC3"
    },
    {
      "bufferView": 6,
      "byteOffset": 2472,
      "componentType": 5126,
      "count": 45,
      "max": [
        1.4375
      ],
      "min": [
        0.0416666679084301
      ],
      "type": "SCALAR"
    },
    {
      "bufferView": 8,
      "byteOffset": 8368,
      "componentType": 5126,
      "count": 45,
      "max": [
        6.830775338235647e-32,
        5.442525326122157e-32,
        -0.42496949434280396,
        0.9052076935768127
      ],
      "min": [
        -9.313604547532573e-32,
        -8.653540959658842e-32,
        -0.42496949434280396,
        0.9052076935768127
      ],
      "type": "VEC4"
    },
    {
      "bufferView": 6,
      "byteOffset": 2652,
      "componentType": 5126,
      "count": 44,
      "max": [
        1.4375
      ],
      "min": [
        0.0416666679084301
      ],
      "type": "SCALAR"
    },
    {
      "bufferView": 7,
      "byteOffset": 1140,
      "componentType": 5126,
      "count": 44,
      "max": [
        2.4263622760772705,
        0.18329089879989624,
        0.04967271909117699
      ],
      "min": [
        2.363239049911499,
        -0.08628211915493011,
        0.04967271909117699
      ],
      "type": "VEC3"
    },
    {
      "bufferView": 6,
      "byteOffset": 2828,
      "componentType": 5126,
      "count": 44,
      "max": [
        1.4375
      ],
      "min": [
        0.0416666679084301
      ],
      "type": "SCALAR"
    },
    {
      "bufferView": 8,
      "byteOffset": 9088,
      "componentType": 5126,
      "count": 44,
      "max": [
        4.930380657631324e-32,
        4.930380657631324e-32,
        2.7755575615628914e-17,
        1.0
      ],
      "min": [
        -3.697785493223493e-32,
        -9.860761315262648e-32,
        -2.7755575615628914e-17,
        1.0
      ],
      "type": "VEC4"
    },
    {
      "bufferView": 6,
      "byteOffset": 3004,
      "componentType": 5126,
      "count": 21,
      "max": [
        1.4375
      ],
      "min": [
        0.0416666679084301
      ],
      "type": "SCALAR"
    },
    {
      "bufferView": 7,
      "byteOffset": 1668,
      "componentType": 5126,
      "count": 21,
      "max": [
        0.004891115240752697,
        0.0,
        0.0
      ],
      "min": [
        0.0,
        -0.001522172475233674,
        0.0
      ],
      "type": "VEC3"
    },
    {
      "bufferView": 6,
      "byteOffset": 3088,
      "componentType": 5126,
      "count": 47,
      "max": [
        1.4375
      ],
      "min": [
        0.0416666679084301
      ],
      "type": "SCALAR"
    },
    {
      "bufferView": 8,
      "byteOffset": 9792,
      "componentType": 5126,
      "count": 47,
      "max": [
        0.8175361156463623,
        -0.5758773684501648,
        3.5262315775163995e-17,
        -5.005964718272915e-17
      ],
      "min": [
        0.7196333408355713,
        -0.694354236125946,
        2.9171526844584935e-17,
        -5.694145238948042e-17
      ],
      "type": "VEC4"
    },
    {
      "bufferView": 6,
      "byteOffset": 3276,
      "componentType": 5126,
      "count": 40,
      "max": [
        1.4375
      ],
      "min": [
        0.0416666679084301
      ],
      "type": "SCALAR"
    },
    {
      "bufferView": 7,
      "byteOffset": 1920,
      "componentType": 5126,
      "count": 40,
      "max": [
        2.1825530529022217,
        0.0021834608633071184,
        1.7763568394002505e-15
      ],
      "min": [
        2.147139310836792,
        -0.008837663568556309,
        -8.881784197001252e-16
      ],
      "type": "VEC3"
    },
    {
      "bufferView": 6,
      "byteOffset": 3436,
      "componentType": 5126,
      "count": 44,
      "max": [
        1.4375
      ],
      "min": [
        0.0416666679084301
      ],
      "type": "SCALAR"
    },
    {
      "bufferView": 8,
      "byteOffset": 10544,
      "componentType": 5126,
      "count": 44,
      "max": [
        1.4791141972893971e-31,
        7.395570986446986e-32,
        8.326672684688674e-17,
        1.0
      ],
      "min": [
        -4.930380657631324e-32,
        -6.162975822039155e-32,
        -2.7755575615628914e-17,
        1.0
      ],
      "type": "VEC4"
    },
    {
      "bufferView": 6,
      "byteOffset": 3612,
      "componentType": 5126,
      "count": 45,
      "max": [
        1.4375
      ],
      "min": [
        0.0416666679084301
      ],
      "type": "SCALAR"
    },
    {
      "bufferView": 8,
      "byteOffset": 11248,
      "componentType": 5126,
      "count": 45,
      "max": [
        0.996292233467102,
        0.4681081175804138,
        -9.161090631293173e-18,
        7.884029148321338e-17
      ],
      "min": [
        0.8836711645126343,
        0.08603352308273315,
        -1.9130093529950564e-17,
        6.225131664736042e-17
      ],
      "type": "VEC4"
    },
    {
      "bufferView": 6,
      "byteOffset": 3792,
      "componentType": 5126,
      "count": 43,
      "max": [
        1.4375
      ],
      "min": [
        0.0416666679084301
      ],
      "type": "SCALAR"
    },
    {
      "bufferView": 8,
      "byteOffset": 11968,
      "componentType": 5126,
      "count": 43,
      "max": [
        7.395570986446986e-32,
        3.697785493223493e-32,
        2.7755575615628914e-17,
        1.0
      ],
      "min": [
        -4.930380657631324e-32,
        -4.930380657631324e-32,
        -5.551115123125783e-17,
        1.0
      ],
      "type": "VEC4"
    },
    {
      "bufferView": 6,
      "byteOffset": 3964,
      "componentType": 5126,
      "count": 45,
      "max": [
        1.4375
      ],
      "min": [
        0.0416666679084301
      ],
      "type": "SCALAR"
    },
    {
      "bufferView": 7,
      "byteOffset": 2400,
      "componentType": 5126,
      "count": 45,
      "max": [
        0.07813398540019989,
        0.011318087577819824,
        0.0
      ],
      "min": [
        -0.054693788290023804,
        -0.01616869866847992,
        0.0
      ],
      "type": "VEC3"
    },
    {
      "bufferView": 6,
      "byteOffset": 4144,
      "componentType": 5126,
      "count": 45,
      "max": [
        1.4375
      ],
      "min": [
        0.0416666679084301
      ],
      "type": "SCALAR"
    },
    {
      "bufferView": 8,
      "byteOffset": 12656,
      "componentType": 5126,
      "count": 45,
      "max": [
        7.595546673156049e-32,
        4.226868741436087e-32,
        -0.10489542037248611,
        0.994483232498169
      ],
      "min": [
        -8.040179174596105e-32,
        -3.789279802146158e-32,
        -0.40288031101226807,
        0.915252685546875
      ],
      "type": "VEC4"
    },
    {
      "bufferView": 6,
      "byteOffset": 4324,
      "componentType": 5126,
      "count": 44,
      "max": [
        1.4375
      ],
      "min": [
        0.0416666679084301
      ],
      "type": "SCALAR"
    },
    {
      "bufferView": 7,
      "byteOffset": 2940,
      "componentType": 5126,
      "count": 44,
      "max": [
        0.337505042552948,
        -0.008048915304243565,
        1.1060400009155273
      ],
      "min": [
        -0.19854684174060822,
        -0.1172538474202156,
        1.1060400009155273
      ],
      "type": "VEC3"
    },
    {
      "bufferView": 6,
      "byteOffset": 4500,
      "componentType": 5126,
      "count": 44,
      "max": [
        1.4375
      ],
      "min": [
        0.0416666679084301
      ],
      "type": "SCALAR"
    },
    {
      "bufferView": 8,
      "byteOffset": 13376,
      "componentType": 5126,
      "count": 44,
      "max": [
        1.232595164407831e-31,
        4.0059342843254506e-32,
        2.7755575615628914e-17,
        1.0
      ],
      "min": [
        -7.395570986446986e-32,
        -2.465190328815662e-32,
        -2.7755575615628914e-17,
        1.0
      ],
      "type": "VEC4"
    },
    {
      "bufferView": 6,
      "byteOffset": 4676,
      "componentType": 5126,
      "count": 32,
      "max": [
        1.4375
      ],
      "min": [
        0.0416666679084301
      ],
      "type": "SCALAR"
    },
    {
      "bufferView": 7,
      "byteOffset": 3468,
      "componentType": 5126,
      "count": 32,
      "max": [
        0.007583598606288433,
        1.0624317070551115e-07,
        5.644800182835752e-10
      ],
      "min": [
        -5.683244808096788e-08,
        -0.024275796487927437,
        -8.881784197001252e-16
      ],
      "type": "VEC3"
    },
    {
      "bufferView": 6,
      "byteOffset": 4804,
      "componentType": 5126,
      "count": 45,
      "max": [
        1.4375
      ],
      "min": [
        0.0416666679084301
      ],
      "type": "SCALAR"
    },
    {
      "bufferView": 8,
      "byteOffset": 14080,
      "componentType": 5126,
      "count": 45,
      "max": [
        -0.013195263221859932,
        0.9999129176139832,
        6.402215813760374e-17,
        7.619933539790307e-17
      ],
      "min": [
        -0.23675259947776794,
        0.9715699553489685,
        -5.831670964102128e-17,
        4.9714345599102564e-17
      ],
      "type": "VEC4"
    },
    {
      "bufferView": 6,
      "byteOffset": 4984,
      "componentType": 5126,
      "count": 43,
      "max": [
        1.4375
      ],
      "min": [
        0.0416666679084301
      ],
      "type": "SCALAR"
    },
    {
      "bufferView": 7,
      "byteOffset": 3852,
      "componentType": 5126,
      "count": 43,
      "max": [
        3.854074239730835,
        0.19150269031524658,
        0.0010005953954532743
      ],
      "min": [
        3.697188377380371,
        -0.16952380537986755,
        -8.625540795037523e-05
      ],
      "type": "VEC3"
    },
    {
      "bufferView": 6,
      "byteOffset": 5156,
      "componentType": 5126,
      "count": 43,
      "max": [
        1.4375
      ],
      "min": [
        0.0416666679084301
      ],
      "type": "SCALAR"
    },
    {
      "bufferView": 8,
      "byteOffset": 14800,
      "componentType": 5126,
      "count": 43,
      "max": [
        3.469446951953614e-18,
        1.0842021724855044e-17,
        5.551115123125783e-17,
        1.0
      ],
      "min": [
        -3.469446951953614e-18,
        -1.474514954580286e-17,
        -8.326672684688674e-17,
        1.0
      ],
      "type": "VEC4"
    },
    {
      "bufferView": 6,
      "byteOffset": 5328,
      "componentType": 5126,
      "count": 45,
      "max": [
        1.4375
      ],
      "min": [
        0.0416666679084301
      ],
      "type": "SCALAR"
    },
    {
      "bufferView": 8,
      "byteOffset": 15488,
      "componentType": 5126,
      "count": 45,
      "max": [
        0.024116499349474907,
        0.9998035430908203,
        0.004172221757471561,
        0.027991998940706253
      ],
      "min": [
        -0.07432819902896881,
        0.9968321323394775,
        -2.9665869078598917e-05,
        -0.03884440287947655
      ],
      "type": "VEC4"
    },
    {
      "bufferView": 6,
      "byteOffset": 5508,
      "componentType": 5126,
      "count": 44,
      "max": [
        1.4375
      ],
      "min": [
        0.0416666679084301
      ],
      "type": "SCALAR"
    },
    {
      "bufferView": 8,
      "byteOffset": 16208,
      "componentType": 5126,
      "count": 44,
      "max": [
        1.232595164407831e-31,
        4.0059342843254506e-32,
        2.7755575615628914e-17,
        1.0
      ],
      "min": [
        -7.395570986446986e-32,
        -2.465190328815662e-32,
        -2.7755575615628914e-17,
        1.0
      ],
      "type": "VEC4"
    },
    {
      "bufferView": 6,
      "byteOffset": 5684,
      "componentType": 5126,
      "count": 44,
      "max": [
        1.4375
      ],
      "min": [
        0.0416666679084301
      ],
      "type": "SCALAR"
    },
    {
      "bufferView": 8,
      "byteOffset": 16912,
      "componentType": 5126,
      "count": 44,
      "max": [
        0.8175361156463623,
        -0.5758773684501648,
        -5.8941846958759925e-09,
        8.733892720158565e-09
      ],
      "min": [
        0.8058433532714844,
        -0.5921288132667542,
        -6.067853774993637e-09,
        8.614142288365656e-09
      ],
      "type": "VEC4"
    },
    {
      "bufferView": 6,
      "byteOffset": 5860,
      "componentType": 5126,
      "count": 22,
      "max": [
        1.4375
      ],
      "min": [
        0.0416666679084301
      ],
      "type": "SCALAR"
    },
    {
      "bufferView": 7,
      "byteOffset": 4368,
      "componentType": 5126,
      "count": 22,
      "max": [
        -2.1495182514190674,
        -0.0014428341528400779,
        1.7763568394002505e-15
      ],
      "min": [
        -2.1495182514190674,
        -0.0014428341528400779,
        -8.881784197001252e-16
      ],
      "type": "VEC3"
    },
    {
      "bufferView": 6,
      "byteOffset": 5948,
      "componentType": 5126,
      "count": 44,
      "max": [
        1.4375
      ],
      "min": [
        0.0416666679084301
      ],
      "type": "SCALAR"
    },
    {
      "bufferView": 8,
      "byteOffset": 17616,
      "componentType": 5126,
      "count": 44,
      "max": [
        1.4791141972893971e-31,
        4.930380657631324e-32,
        2.7755575615628914e-17,
        1.0
      ],
      "min": [
        -9.860761315262648e-32,
        -4.930380657631324e-32,
        -5.551115123125783e-17,
        1.0
      ],
      "type": "VEC4"
    },
    {
      "bufferView": 6,
      "byteOffset": 6124,
      "componentType": 5126,
      "count": 45,
      "max": [
        1.4375
      ],
      "min": [
        0.0416666679084301
      ],
      "type": "SCALAR"
    },
    {
      "bufferView": 8,
      "byteOffset": 18320,
      "componentType": 5126,
      "count": 45,
      "max": [
        0.9994497299194336,
        0.44052430987358093,
        1.9138484450084302e-17,
        -6.146769867458688e-17
      ],
      "min": [
        0.8977406620979309,
        0.033170100301504135,
        6.075719354179568e-18,
        -7.735589271292982e-17
      ],
      "type": "VEC4"
    },
    {
      "bufferView": 6,
      "byteOffset": 6304,
      "componentType": 5126,
      "count": 43,
      "max": [
        1.4375
      ],
      "min": [
        0.0416666679084301
      ],
      "type": "SCALAR"
    },
    {
      "bufferView": 8,
      "byteOffset": 19040,
      "componentType": 5126,
      "count": 43,
      "max": [
        7.395570986446986e-32,
        4.930380657631324e-32,
        5.551115123125783e-17,
        1.0
      ],
      "min": [
        -9.860761315262648e-32,
        -6.162975822039155e-32,
        -2.7755575615628914e-17,
        1.0
      ],
      "type": "VEC4"
    },
    {
      "bufferView": 6,
      "byteOffset": 6476,
      "componentType": 5126,
      "count": 30,
      "max": [
        1.4375
      ],
      "min": [
        0.0416666679084301
      ],
      "type": "SCALAR"
    },
    {
      "bufferView": 7,
      "byteOffset": 4632,
      "componentType": 5126,
      "count": 30,
      "max": [
        0.003575496608391404,
        0.010099617764353752,
        0.0
      ],
      "min": [
        -0.007068975362926722,
        -4.440892098500626e-16,
        0.0
      ],
      "type": "VEC3"
    },
    {
      "bufferView": 6,
      "byteOffset": 6596,
      "componentType": 5126,
      "count": 45,
      "max": [
        1.4375
      ],
      "min": [
        0.0416666679084301
      ],
      "type": "SCALAR"
    },
    {
      "bufferView": 8,
      "byteOffset": 19728,
      "componentType": 5126,
      "count": 45,
      "max": [
        4.5750575149893414e-32,
        1.0022797334051746e-31,
        0.9998828172683716,
        0.469057559967041
      ],
      "min": [
        -6.637265458203282e-32,
        -7.737046217889106e-32,
        0.8831676244735718,
        0.01530840341001749
      ],
      "type": "VEC4"
    },
    {
      "bufferView": 6,
      "byteOffset": 6776,
      "componentType": 5126,
      "count": 44,
      "max": [
        1.4375
      ],
      "min": [
        0.0416666679084301
      ],
      "type": "SCALAR"
    },
    {
      "bufferView": 7,
      "byteOffset": 4992,
      "componentType": 5126,
      "count": 44,
      "max": [
        0.16389687359333038,
        0.06131542846560478,
        -1.106040358543396
      ],
      "min": [
        -0.22122184932231903,
        -0.05350290983915329,
        -1.106040358543396
      ],
      "type": "VEC3"
    },
    {
      "bufferView": 6,
      "byteOffset": 6952,
      "componentType": 5126,
      "count": 44,
      "max": [
        1.4375
      ],
      "min": [
        0.0416666679084301
      ],
      "type": "SCALAR"
    },
    {
      "bufferView": 8,
      "byteOffset": 20448,
      "componentType": 5126,
      "count": 44,
      "max": [
        1.232595164407831e-31,
        4.0059342843254506e-32,
        2.7755575615628914e-17,
        1.0
      ],
      "min": [
        -7.395570986446986e-32,
        -2.465190328815662e-32,
        -2.7755575615628914e-17,
        1.0
      ],
      "type": "VEC4"
    },
    {
      "bufferView": 6,
      "byteOffset": 7128,
      "componentType": 5126,
      "count": 47,
      "max": [
        1.4375
      ],
      "min": [
        0.0416666679084301
      ],
      "type": "SCALAR"
    },
    {
      "bufferView": 8,
      "byteOffset": 21152,
      "componentType": 5126,
      "count": 47,
      "max": [
        1.0407266271375191e-31,
        4.4986095337572017e-32,
        -0.49026837944984436,
        0.8715715408325195
      ],
      "min": [
        -6.034548949981592e-32,
        -6.983008909633238e-32,
        -0.49026837944984436,
        0.8715715408325195
      ],
      "type": "VEC4"
    },
    {
      "bufferView": 6,
      "byteOffset": 7316,
      "componentType": 5126,
      "count": 44,
      "max": [
        1.4375
      ],
      "min": [
        0.0416666679084301
      ],
      "type": "SCALAR"
    },
    {
      "bufferView": 8,
      "byteOffset": 21904,
      "componentType": 5126,
      "count": 44,
      "max": [
        4.930380657631324e-32,
        4.930380657631324e-32,
        2.7755575615628914e-17,
        1.0
      ],
      "min": [
        -3.697785493223493e-32,
        -9.860761315262648e-32,
        -2.7755575615628914e-17,
        1.0
      ],
      "type": "VEC4"
    },
    {
      "bufferView": 6,
      "byteOffset": 7492,
      "componentType": 5126,
      "count": 47,
      "max": [
        1.4375
      ],
      "min": [
        0.0416666679084301
      ],
      "type": "SCALAR"
    },
    {
      "bufferView": 7,
      "byteOffset": 5520,
      "componentType": 5126,
      "count": 47,
      "max": [
        5.40820837020874,
        8.96219539642334,
        0.29741743206977844
      ],
      "min": [
        5.40820837020874,
        8.4208984375,
        0.29741743206977844
      ],
      "type": "VEC3"
    },
    {
      "bufferView": 6,
      "byteOffset": 7680,
      "componentType": 5126,
      "count": 47,
      "max": [
        1.4375
      ],
      "min": [
        0.0416666679084301
      ],
      "type": "SCALAR"
    },
    {
      "bufferView": 8,
      "byteOffset": 22608,
      "componentType": 5126,
      "count": 47,
      "max": [
        0.18851709365844727,
        -0.6815139651298523,
        -0.0673094391822815,
        0.7038959264755249
      ],
      "min": [
        0.0673094391822815,
        -0.7038959264755249,
        -0.18851709365844727,
        0.6815139651298523
      ],
      "type": "VEC4"
    }
  ],
  "animations": [
    {
      "channels": [
        {
          "sampler": 0,
          "target": {
            "node": 21,
            "path": "rotation"
          }
        },
        {
          "sampler": 1,
          "target": {
            "node": 20,
            "path": "translation"
          }
        },
        {
          "sampler": 2,
          "target": {
            "node": 20,
            "path": "rotation"
          }
        },
        {
          "sampler": 3,
          "target": {
            "node": 19,
            "path": "rotation"
          }
        },
        {
          "sampler": 4,
          "target": {
            "node": 18,
            "path": "rotation"
          }
        },
        {
          "sampler": 5,
          "target": {
            "node": 17,
            "path": "rotation"
          }
        },
        {
          "sampler": 6,
          "target": {
            "node": 16,
            "path": "translation"
          }
        },
        {
          "sampler": 7,
          "target": {
            "node": 16,
            "path": "rotation"
          }
        },
        {
          "sampler": 8,
          "target": {
            "node": 27,
            "path": "rotation"
          }
        },
        {
          "sampler": 9,
          "target": {
            "node": 26,
            "path": "rotation"
          }
        },
        {
          "sampler": 10,
          "target": {
            "node": 25,
            "path": "rotation"
          }
        },
        {
          "sampler": 11,
          "target": {
            "node": 24,
            "path": "rotation"
          }
        },
        {
          "sampler": 12,
          "target": {
            "node": 23,
            "path": "rotation"
          }
        },
        {
          "sampler": 13,
          "target": {
            "node": 22,
            "path": "rotation"
          }
        },
        {
          "sampler": 14,
          "target": {
            "node": 15,
            "path": "translation"
          }
        },
        {
          "sampler": 15,
          "target": {
            "node": 15,
            "path": "rotation"
          }
        },
        {
          "sampler": 16,
          "target": {
            "node": 14,
            "path": "translation"
          }
        },
        {
          "sampler": 17,
          "target": {
            "node": 14,
            "path": "rotation"
          }
        },
        {
          "sampler": 18,
          "target": {
            "node": 35,
            "path": "translation"
          }
        },
        {
          "sampler": 19,
          "target": {
            "node": 35,
            "path": "rotation"
          }
        },
        {
          "sampler": 20,
          "target": {
            "node": 34,
            "path": "translation"
          }
        },
        {
          "sampler": 21,
          "target": {
            "node": 34,
            "path": "rotation"
          }
        },
        {
          "sampler": 22,
          "target": {
            "node": 33,
            "path": "rotation"
          }
        },
        {
          "sampler": 23,
          "target": {
            "node": 32,
            "path": "rotation"
          }
        },
        {
          "sampler": 24,
          "target": {
            "node": 31,
            "path": "translation"
          }
        },
        {
          "sampler": 25,
          "target": {
            "node": 31,
            "path": "rotation"
          }
        },
        {
          "sampler": 26,
          "target": {
            "node": 30,
            "path": "translation"
          }
        },
        {
          "sampler": 27,
          "target": {
            "node": 30,
            "path": "rotation"
          }
        },
        {
          "sampler": 28,
          "target": {
            "node": 39,
            "path": "translation"
          }
        },
        {
          "sampler": 29,
          "target": {
            "node": 39,
            "path": "rotation"
          }
        },
        {
          "sampler": 30,
          "target": {
            "node": 38,
            "path": "translation"
          }
        },
        {
          "sampler": 31,
          "target": {
            "node": 38,
            "path": "rotation"
          }
        },
        {
          "sampler": 32,
          "target": {
            "node": 37,
            "path": "rotation"
          }
        },
        {
          "sampler": 33,
          "target": {
            "node": 36,
            "path": "rotation"
          }
        },
        {
          "sampler": 34,
          "target": {
            "node": 45,
            "path": "rotation"
          }
        },
        {
          "sampler": 35,
          "target": {
            "node": 44,
            "path": "translation"
          }
        },
        {
          "sampler": 36,
          "target": {
            "node": 44,
            "path": "rotation"
          }
        },
        {
          "sampler": 37,
          "target": {
            "node": 43,
            "path": "rotation"
          }
        },
        {
          "sampler": 38,
          "target": {
            "node": 42,
            "path": "rotation"
          }
        },
        {
          "sampler": 39,
          "target": {
            "node": 41,
            "path": "translation"
          }
        },
        {
          "sampler": 40,
          "target": {
            "node": 41,
            "path": "rotation"
          }
        },
        {
          "sampler": 41,
          "target": {
            "node": 40,
            "path": "translation"
          }
        },
        {
          "sampler": 42,
          "target": {
            "node": 40,
            "path": "rotation"
          }
        },
        {
          "sampler": 43,
          "target": {
            "node": 29,
            "path": "rotation"
          }
        },
        {
          "sampler": 44,
          "target": {
            "node": 28,
            "path": "rotation"
          }
        },
        {
          "sampler": 45,
          "target": {
            "node": 13,
            "path": "translation"
          }
        },
        {
          "sampler": 46,
          "target": {
            "node": 13,
            "path": "rotation"
          }
        }
      ],
      "name": "Take 001",
      "samplers": [
        {
          "input": 69,
          "interpolation": "LINEAR",
          "output": 70
        },
        {
          "input": 71,
          "interpolation": "LINEAR",
          "output": 72
        },
        {
          "input": 73,
          "interpolation": "LINEAR",
          "output": 74
        },
        {
          "input": 75,
          "interpolation": "LINEAR",
          "output": 76
        },
        {
          "input": 77,
          "interpolation": "LINEAR",
          "output": 78
        },
        {
          "input": 79,
          "interpolation": "LINEAR",
          "output": 80
        },
        {
          "input": 81,
          "interpolation": "LINEAR",
          "output": 82
        },
        {
          "input": 83,
          "interpolation": "LINEAR",
          "output": 84
        },
        {
          "input": 85,
          "interpolation": "LINEAR",
          "output": 86
        },
        {
          "input": 87,
          "interpolation": "LINEAR",
          "output": 88
        },
        {
          "input": 89,
          "interpolation": "LINEAR",
          "output": 90
        },
        {
          "input": 91,
          "interpolation": "LINEAR",
          "output": 92
        },
        {
          "input": 93,
          "interpolation": "LINEAR",
          "output": 94
        },
        {
          "input": 95,
          "interpolation": "LINEAR",
          "output": 96
        },
        {
          "input": 97,
          "interpolation": "LINEAR",
          "output": 98
        },
        {
          "input": 99,
          "interpolation": "LINEAR",
          "output": 100
        },
        {
          "input": 101,
          "interpolation": "LINEAR",
          "output": 102
        },
        {
          "input": 103,
          "interpolation": "LINEAR",
          "output": 104
        },
        {
          "input": 105,
          "interpolation": "LINEAR",
          "output": 106
        },
        {
          "input": 107,
          "interpolation": "LINEAR",
          "output": 108
        },
        {
          "input": 109,
          "interpolation": "LINEAR",
          "output": 110
        },
        {
          "input": 111,
          "interpolation": "LINEAR",
          "output": 112
        },
        {
          "input": 113,
          "interpolation": "LINEAR",
          "output": 114
        },
        {
          "input": 115,
          "interpolation": "LINEAR",
          "output": 116
        },
        {
          "input": 117,
          "interpolation": "LINEAR",
          "output": 118
        },
        {
          "input": 119,
          "interpolation": "LINEAR",
          "output": 120
        },
        {
          "input": 121,
          "interpolation": "LINEAR",
          "output": 122
        },
        {
          "input": 123,
          "interpolation": "LINEAR",
          "output": 124
        },
        {
          "input": 125,
          "interpolation": "LINEAR",
          "output": 126
        },
        {
          "input": 127,
          "interpolation": "LINEAR",
          "output": 128
        },
        {
          "input": 129,
          "interpolation": "LINEAR",
          "output": 130
        },
        {
          "input": 131,
          "interpolation": "LINEAR",
          "output": 132
        },
        {
          "input": 133,
          "interpolation": "LINEAR",
          "output": 134
        },
        {
          "input": 135,
          "interpolation": "LINEAR",
          "output": 136
        },
        {
          "input": 137,
          "interpolation": "LINEAR",
          "output": 138
        },
        {
          "input": 139,
          "interpolation": "LINEAR",
          "output": 140
        },
        {
          "input": 141,
          "interpolation": "LINEAR",
          "output": 142
        },
        {
          "input": 143,
          "interpolation": "LINEAR",
          "output": 144
        },
        {
          "input": 145,
          "interpolation": "LINEAR",
          "output": 146
        },
        {
          "input": 147,
          "interpolation": "LINEAR",
          "output": 148
        },
        {
          "input": 149,
          "interpolation": "LINEAR",
          "output": 150
        },
        {
          "input": 151,
          "interpolation": "LINEAR",
          "output": 152
        },
        {
          "input": 153,
          "interpolation": "LINEAR",
          "output": 154
        },
        {
          "input": 155,
          "interpolation": "LINEAR",
          "output": 156
        },
        {
          "input": 157,
          "interpolation": "LINEAR",
          "output": 158
        },
        {
          "input": 159,
          "interpolation": "LINEAR",
          "output": 160
        },
        {
          "input": 161,
          "interpolation": "LINEAR",
          "output": 162
        }
      ]
    }
  ],
  "asset": {
    "extras": {
      "author": "TinyGabe (https://sketchfab.com/TinyGabe)",
      "license": "CC-BY-4.0 (http://creativecommons.org/licenses/by/4.0/)",
      "source": "https://sketchfab.com/3d-models/low-poly-alpaca-4d9326a1d9054bb9852ba32b28b09b4b",
      "title": "Low poly alpaca"
    },
    "generator": "Sketchfab-12.65.0",
    "version": "2.0"
  },
  "bufferViews": [
    {
      "buffer": 0,
      "byteLength": 32592,
      "byteStride": 8,
      "name": "shortBufferViews",
      "target": 34962
    },
    {
      "buffer": 0,
      "byteLength": 36084,
      "byteOffset": 32592,
      "name": "floatBufferViews",
      "target": 34963
    },
    {
      "buffer": 0,
      "byteLength": 40496,
      "byteOffset": 68676,
      "byteStride": 8,
      "name": "floatBufferViews",
      "target": 34962
    },
    {
      "buffer": 0,
      "byteLength": 121488,
      "byteOffset": 109172,
      "byteStride": 12,
      "name": "floatBufferViews",
      "target": 34962
    },
    {
      "buffer": 0,
      "byteLength": 65184,
      "byteOffset": 230660,
      "byteStride": 16,
      "name": "floatBufferViews",
      "target": 34962
    },
    {
      "buffer": 0,
      "byteLength": 2176,
      "byteOffset": 295844,
      "name": "floatBufferViews"
    },
    {
      "buffer": 0,
      "byteLength": 7868,
      "byteOffset": 298020,
      "name": "floatBufferViews"
    },
    {
      "buffer": 0,
      "byteLength": 6084,
      "byteOffset": 305888,
      "byteStride": 12,
      "name": "floatBufferViews"
    },
    {
      "buffer": 0,
      "byteLength": 23360,
      "byteOffset": 311972,
      "byteStride": 16,
      "name": "floatBufferViews"
    }
  ],
  "buffers": [
    {
      "byteLength": 335332,
      "uri": "scene.bin"
    }
  ],
  "images": [
    {
      "uri": "textures/coberta_baseColor.png"
    },
    {
      "uri": "textures/pelo_mat_baseColor.png"
    },
    {
      "uri": "textures/material_escuro_baseColor.png"
    },
    {
      "uri": "textures/unha_mat_baseColor.png"
    },
    {
      "uri": "textures/peloclaro_maat_baseColor.png"
    }
  ],
  "materials": [
    {
      "doubleSided": true,
      "name": "coberta",
      "pbrMetallicRoughness": {
        "baseColorTexture": {
          "index": 0
        },
        "metallicFactor": 0.0,
        "roughnessFactor": 0.7395198171
      }
    },
    {
      "doubleSided": true,
      "name": "pelo_mat",
      "pbrMetallicRoughness": {
        "baseColorTexture": {
          "index": 1
        },
        "metallicFactor": 0.0,
        "roughnessFactor": 0.8
      }
    },
    {
      "doubleSided": true,
      "name": "material_escuro",
      "pbrMetallicRoughness": {
        "baseColorTexture": {
          "index": 2
        },
        "metallicFactor": 0.0,
        "roughnessFactor": 0.5261051829
      }
    },
    {
      "doubleSided": true,
      "name": "unha_mat",
      "pbrMetallicRoughness": {
        "baseColorTexture": {
          "index": 3
        },
        "metallicFactor": 0.0,
        "roughnessFactor": 0.4
      }
    },
    {
      "doubleSided": true,
      "name": "peloclaro_maat",
      "pbrMetallicRoughness": {
        "baseColorTexture": {
          "index": 4
        },
        "metallicFactor": 0.0,
        "roughnessFactor": 0.8
      }
    },
    {
      "doubleSided": true,
      "name": "olho_mat",
      "pbrMetallicRoughness": {
        "baseColorFactor": [
          0.0,
          0.0,
          0.0,
          1.0
        ],
        "metallicFactor": 0.0,
        "roughnessFactor": 0.4
      }
    },
    {
      "doubleSided": true,
      "name": "chao_mat",
      "pbrMetallicRoughness": {
        "baseColorFactor": [
          0.0998156,
          0.2,
          0.037200000000000004,
          1.0
        ],
        "metallicFactor": 0.0,
        "roughnessFactor": 0.9
      }
    },
    {
      "doubleSided": true,
      "emissiveFactor": [
        0.2151830947000001,
        0.53685700885,
        0.05358882459999995
      ],
      "name": "matinho_mat",
      "pbrMetallicRoughness": {
        "baseColorFactor": [
          0.0135636,
          0.054000000000000006,
          0.002916000000000001,
          1.0
        ],
        "metallicFactor": 0.0,
        "roughnessFactor": 0.6
      }
    },
    {
      "doubleSided": true,
      "name": "cerca_mat",
      "pbrMetallicRoughness": {
        "baseColorFactor": [
          0.31,
          0.15271,
          0.06944,
          1.0
        ],
        "metallicFactor": 0.0,
        "roughnessFactor": 0.8
      }
    }
  ],
  "meshes": [
    {
      "name": "pCube2_coberta_0",
      "primitives": [
        {
          "attributes": {
            "JOINTS_0": 57,
            "NORMAL": 1,
            "POSITION": 0,
            "TEXCOORD_0": 2,
            "WEIGHTS_0": 58
          },
          "indices": 3,
          "material": 0,
          "mode": 4
        }
      ]
    },
    {
      "name": "pCube2_pelo_mat_0",
      "primitives": [
        {
          "attributes": {
            "JOINTS_0": 59,
            "NORMAL": 5,
            "POSITION": 4,
            "TEXCOORD_0": 6,
            "TEXCOORD_1": 6,
            "WEIGHTS_0": 60
          },
          "indices": 7,
          "material": 1,
          "mode": 4
        }
      ]
    },
    {
      "name": "pCube2_material_escuro_0",
      "primitives": [
        {
          "attributes": {
            "JOINTS_0": 61,
            "NORMAL": 9,
            "POSITION": 8,
            "TEXCOORD_0": 10,
            "WEIGHTS_0": 62
          },
          "indices": 11,
          "material": 2,
          "mode": 4
        }
      ]
    },
    {
      "name": "pCube2_unha_mat_0",
      "primitives": [
        {
          "attributes": {
            "JOINTS_0": 63,
            "NORMAL": 13,
            "POSITION": 12,
            "TEXCOORD_0": 14,
            "WEIGHTS_0": 64
          },
          "indices": 15,
          "material": 3,
          "mode": 4
        }
      ]
    },
    {
      "name": "pCube2_peloclaro_maat_0",
      "primitives": [
        {
          "attributes": {
            "JOINTS_0": 65,
            "NORMAL": 17,
            "POSITION": 16,
            "TEXCOORD_0": 18,
            "WEIGHTS_0": 66
          },
          "indices": 19,
          "material": 4,
          "mode": 4
        }
      ]
    },
    {
      "name": "pCube2_olho_mat_0",
      "primitives": [
        {
          "attributes": {
            "JOINTS_0": 67,
            "NORMAL": 21,
            "POSITION": 20,
            "TEXCOORD_0": 22,
            "WEIGHTS_0": 68
          },
          "indices": 23,
          "material": 5,
          "mode": 4
        }
      ]
    },
    {
      "name": "pCylinder4_chao_mat_0",
      "primitives": [
        {
          "attributes": {
            "NORMAL": 25,
            "POSITION": 24,
            "TEXCOORD_0": 26
          },
          "indices": 27,
          "material": 6,
          "mode": 4
        }
      ]
    },
    {
      "name": "pPlane7_matinho_mat_0",
      "primitives": [
        {
          "attributes": {
            "NORMAL": 29,
            "POSITION": 28,
            "TEXCOORD_0": 30
          },
          "indices": 31,
          "material": 7,
          "mode": 4
        }
      ]
    },
    {
      "name": "pPlane8_matinho_mat_0",
      "primitives": [
        {
          "attributes": {
            "NORMAL": 33,
            "POSITION": 32,
            "TEXCOORD_0": 34
          },
          "indices": 35,
          "material": 7,
          "mode": 4
        }
      ]
    },
    {
      "name": "pPlane10_matinho_mat_0",
      "primitives": [
        {
          "attributes": {
            "NORMAL": 37,
            "POSITION": 36,
            "TEXCOORD_0": 38
          },
          "indices": 39,
          "material": 7,
          "mode": 4
        }
      ]
    },
    {
      "name": "pCube15_cerca_mat_0",
      "primitives": [
        {
          "attributes": {
            "NORMAL": 41,
            "POSITION": 40,
            "TEXCOORD_0": 42
          },
          "indices": 43,
          "material": 8,
          "mode": 4
        }
      ]
    },
    {
      "name": "pCube16_cerca_mat_0",
      "primitives": [
        {
          "attributes": {
            "NORMAL": 45,
            "POSITION": 44,
            "TEXCOORD_0": 46
          },
          "indices": 47,
          "material": 8,
          "mode": 4
        }
      ]
    },
    {
      "name": "pCube17_cerca_mat_0",
      "primitives": [
        {
          "attributes": {
            "NORMAL": 49,
            "POSITION": 48,
            "TEXCOORD_0": 50
          },
          "indices": 51,
          "material": 8,
          "mode": 4
        }
      ]
    },
    {
      "name": "pPlane11_matinho_mat_0",
      "primitives": [
        {
          "attributes": {
            "NORMAL": 53,
            "POSITION": 52,
            "TEXCOORD_0": 54
          },
          "indices": 55,
          "material": 7,
          "mode": 4
        }
      ]
    }
  ],
  "nodes": [
    {
      "children": [
        1
      ],
      "matrix": [
        0.14547505974769592,
        0.0,
        0.0,
        0.0,
        0.0,
        3.2301952168122466e-17,
        -0.14547505974769592,
        0.0,
        0.0,
        0.14547505974769592,
        3.2301952168122466e-17,
        0.0,
        0.0,
        0.0,
        0.0,
        1.0
      ],
      "name": "Sketchfab_model"
    },
    {
      "children": [
        2
      ],
      "matrix": [
        1.0,
        0.0,
        0.0,
        0.0,
        0.0,
        0.0,
        1.0,
        0.0,
        0.0,
        -1.0,
        0.0,
        0.0,
        0.0,
        0.0,
        0.0,
        1.0
      ],
      "name": "AlpacaModel.fbx"
    },
    {
      "children": [
        3
      ],
      "name": "Object_2"
    },
    {
      "children": [
        4
      ],
      "name": "RootNode"
    },
    {
      "children": [
        5,
        7,
        8,
        9,
        10,
        11,
        12,
        6,
        46,
        48,
        49,
        51,
        53,
        55,
        57,
        58,
        59,
        60,
        62,
        64,
        66,
        68,
        70,
        72,
        74,
        76,
        78,
        80,
        82,
        84,
        86,
        88,
        90,
        92,
        94,
        96,
        98,
        100,
        102,
        104
      ],
      "name": "Object_4"
    },
    {
      "children": [
        13
      ],
      "name": "_rootJoint"
    },
    {
      "matrix": [
        1.0,
        0.0,
        0.0,
        0.0,
        0.0,
        0.9999999999999998,
        -8.830760724983846e-35,
        0.0,
        0.0,
        8.830760724983846e-35,
        0.9999999999999998,
        0.0,
        0.0,
        8.881784197001252e-16,
        3.3306690738754696e-16,
        1.0
      ],
      "name": "Object_6"
    },
    {
      "mesh": 0,
      "name": "Object_7",
      "skin": 0
    },
    {
      "mesh": 1,
      "name": "Object_8",
      "skin": 0
    },
    {
      "mesh": 2,
      "name": "Object_9",
      "skin": 0
    },
    {
      "mesh": 3,
      "name": "Object_10",
      "skin": 0
    },
    {
      "mesh": 4,
      "name": "Object_11",
      "skin": 0
    },
    {
      "mesh": 5,
      "name": "Object_12",
      "skin": 0
    },
    {
      "children": [
        14,
        28
      ],
      "name": "joint1_02",
      "rotation": [
        0.18851709365844727,
        -0.6815139651298523,
        -0.18851709365844727,
        0.6815139651298523
      ],
      "translation": [
        5.40820837020874,
        8.649999618530273,
        0.29741743206977844
      ]
    },
    {
      "children": [
        15
      ],
      "name": "joint2_correct_00",
      "rotation": [
        1.232595164407831e-32,
        0.0,
        2.7755575615628914e-17,
        1.0
      ],
      "translation": [
        2.405789613723755,
        -0.03581203147768974,
        0.04967271909117699
      ]
    },
    {
      "children": [
        16,
        22
      ],
      "name": "joint2_03",
      "rotation": [
        -8.360743261502998e-17,
        -4.3516840443336813e-17,
        -0.42496949434280396,
        0.9052076935768127
      ]
    },
    {
      "children": [
        17
      ],
      "name": "joint3_correct_01",
      "rotation": [
        4.930380657631324e-32,
        2.465190328815662e-32,
        -0.0,
        1.0
      ],
      "translation": [
        0.011625449173152447,
        0.016378862783312798,
        1.072640061378479
      ]
    },
    {
      "children": [
        18
      ],
      "name": "joint3_04",
      "rotation": [
        0.9879774451255798,
        -0.15459813177585602,
        -2.2194714981398276e-17,
        5.850445317029122e-17
      ]
    },
    {
      "children": [
        19
      ],
      "name": "joint4_correct_020",
      "rotation": [
        0.0,
        3.0814879110195774e-32,
        0.0,
        1.0
      ],
      "translation": [
        3.0613057613372803,
        -1.8706583976745605,
        -0.18422608077526093
      ]
    },
    {
      "children": [
        20
      ],
      "name": "joint4_05",
      "rotation": [
        3.6534235853862075e-34,
        3.0597537551568425e-33,
        -0.11856037378311157,
        0.9929468631744385
      ]
    },
    {
      "children": [
        21
      ],
      "name": "joint10_correct_021",
      "rotation": [
        -4.930380657631324e-32,
        3.389636702121535e-32,
        0.0,
        1.0
      ],
      "translation": [
        2.5423333644866943,
        -8.881784197001252e-16,
        -0.2108575701713562
      ]
    },
    {
      "name": "joint10_06",
      "rotation": [
        0.44428741931915283,
        -0.5500987768173218,
        0.44428741931915283,
        0.5500987768173218
      ]
    },
    {
      "children": [
        23
      ],
      "name": "joint12_correct_022",
      "rotation": [
        4.930380657631324e-32,
        2.465190328815662e-32,
        -0.0,
        1.0
      ],
      "translation": [
        0.011622825637459755,
        0.016376202926039696,
        -1.0726430416107178
      ]
    },
    {
      "children": [
        24
      ],
      "name": "joint12_07",
      "rotation": [
        0.15459813177585602,
        0.9879774451255798,
        1.1192672189194643e-15,
        4.2461414891745294e-16
      ]
    },
    {
      "children": [
        25
      ],
      "name": "joint13_correct_023",
      "rotation": [
        0.0,
        -2.465190328815662e-32,
        0.0,
        1.0
      ],
      "translation": [
        -3.061307668685913,
        1.870664119720459,
        0.18422000110149384
      ]
    },
    {
      "children": [
        26
      ],
      "name": "joint13_08",
      "rotation": [
        7.745294661748826e-32,
        -1.8303716576201905e-31,
        -0.11856037378311157,
        0.9929468631744385
      ]
    },
    {
      "children": [
        27
      ],
      "name": "joint14_correct_019",
      "rotation": [
        0.0,
        2.465190328815662e-32,
        0.0,
        1.0
      ],
      "translation": [
        -2.5423333644866943,
        -5.6595531532366294e-06,
        0.2108599990606308
      ]
    },
    {
      "name": "joint14_09",
      "rotation": [
        0.44428741931915283,
        -0.5500987768173218,
        0.44428741931915283,
        0.5500987768173218
      ]
    },
    {
      "children": [
        29
      ],
      "name": "joint5_correct_024",
      "rotation": [
        1.232595164407831e-32,
        0.0,
        2.7755575615628914e-17,
        1.0
      ],
      "translation": [
        -1.8552535772323608,
        -2.0693576335906982,
        0.0
      ]
    },
    {
      "children": [
        30,
        36,
        40
      ],
      "name": "joint5_010",
      "rotation": [
        -6.442449878754953e-17,
        -1.5960267939475907e-17,
        -0.49026837944984436,
        0.8715715408325195
      ]
    },
    {
      "children": [
        31
      ],
      "name": "joint6_correct_025",
      "rotation": [
        -4.930380657631324e-32,
        -6.740754805355325e-33,
        8.673617379884035e-19,
        1.0
      ],
      "translation": [
        -0.19854684174060822,
        -0.008048915304243565,
        1.1060400009155273
      ]
    },
    {
      "children": [
        32
      ],
      "name": "joint6_011",
      "rotation": [
        -4.967827793418294e-32,
        -9.572327841944284e-34,
        -0.10489542037248611,
        0.994483232498169
      ]
    },
    {
      "children": [
        33
      ],
      "name": "joint7_correct_026",
      "rotation": [
        -4.930380657631324e-32,
        -0.0,
        0.0,
        1.0
      ],
      "translation": [
        3.3456156253814697,
        0.5489118695259094,
        -0.1531050056219101
      ]
    },
    {
      "children": [
        34
      ],
      "name": "joint7_012",
      "rotation": [
        0.8836712837219238,
        0.4681081771850586,
        -1.802266081714212e-17,
        7.884029810065828e-17
      ]
    },
    {
      "children": [
        35
      ],
      "name": "joint11_correct_027",
      "rotation": [
        9.860761315262648e-32,
        9.860761315262648e-32,
        -5.551115123125783e-17,
        1.0
      ],
      "translation": [
        2.1495180130004883,
        0.0014432357857003808,
        0.0
      ]
    },
    {
      "name": "joint11_013",
      "rotation": [
        0.8175361156463623,
        -0.5758773684501648,
        3.9337123277885966e-17,
        -3.18791543490115e-16
      ]
    },
    {
      "children": [
        37
      ],
      "name": "joint8_correct_028",
      "rotation": [
        -4.930380657631324e-32,
        -6.740754805355325e-33,
        8.673617379884035e-19,
        1.0
      ],
      "translation": [
        -0.9906514883041382,
        -1.5475834608078003,
        0.0
      ]
    },
    {
      "children": [
        38
      ],
      "name": "joint8_014",
      "rotation": [
        -0.06970728933811188,
        0.9975675940513611,
        -5.682090901317429e-17,
        6.526802448900661e-17
      ]
    },
    {
      "children": [
        39
      ],
      "name": "joint9_correct_029",
      "rotation": [
        0.0,
        -1.8488927466117464e-32,
        0.0,
        1.0
      ],
      "translation": [
        3.7986156940460205,
        0.0,
        8.881784197001252e-16
      ]
    },
    {
      "name": "joint9_015",
      "rotation": [
        -0.19238793849945068,
        0.9813189506530762,
        -4.88343213802972e-17,
        6.918466513244109e-17
      ]
    },
    {
      "children": [
        41
      ],
      "name": "joint15_correct_030",
      "rotation": [
        -4.930380657631324e-32,
        -6.740754805355325e-33,
        8.673617379884035e-19,
        1.0
      ],
      "translation": [
        -0.1985434889793396,
        -0.008050269447267056,
        -1.106040358543396
      ]
    },
    {
      "children": [
        42
      ],
      "name": "joint15_016",
      "rotation": [
        -3.546399747126432e-32,
        9.916212910273987e-32,
        0.9998828172683716,
        0.01530840341001749
      ]
    },
    {
      "children": [
        43
      ],
      "name": "joint16_correct_031",
      "rotation": [
        4.930380657631324e-32,
        8.474091755303838e-33,
        -0.0,
        1.0
      ],
      "translation": [
        -3.3456125259399414,
        -0.5489158630371094,
        0.15310999751091003
      ]
    },
    {
      "children": [
        44
      ],
      "name": "joint16_017",
      "rotation": [
        0.8977406620979309,
        0.44052430987358093,
        1.864412161135321e-17,
        -7.735589271292982e-17
      ]
    },
    {
      "children": [
        45
      ],
      "name": "joint17_correct_032",
      "rotation": [
        -2.465190328815662e-32,
        -4.930380657631324e-32,
        -0.0,
        1.0
      ],
      "translation": [
        -2.1495182514190674,
        -0.0014428341528400779,
        0.0
      ]
    },
    {
      "name": "joint17_018",
      "rotation": [
        0.8175361156463623,
        -0.5758773684501648,
        -6.067853774993637e-09,
        8.614142288365656e-09
      ]
    },
    {
      "children": [
        47
      ],
      "name": "pCylinder2",
      "rotation": [
        0.7071068286895752,
        0.0,
        0.0,
        0.7071068286895752
      ],
      "scale": [
        1.0,
        1.62496817111969,
        1.62496817111969
      ],
      "translation": [
        4.036448955535889,
        6.112422466278076,
        1.4058549404144287
      ]
    },
    {
      "name": "transform4"
    },
    {
      "name": "imagePlane2",
      "rotation": [
        6.123234262925839e-17,
        1.0,
        6.123234262925839e-17,
        6.123234262925839e-17
      ],
      "scale": [
        0.36452698707580566,
        0.36452698707580566,
        1.0
      ],
      "translation": [
        3.854283332824707,
        3.382016658782959,
        0.0
      ]
    },
    {
      "children": [
        50
      ],
      "name": "pSphere1",
      "scale": [
        0.11777368932962418,
        0.11777368932962418,
        0.11777368932962418
      ],
      "translation": [
        4.541013717651367,
        10.249773979187012,
        -6.368782997131348
      ]
    },
    {
      "name": "transform3"
    },
    {
      "children": [
        52
      ],
      "name": "pSphere2",
      "scale": [
        0.11777368932962418,
        0.11777368932962418,
        0.11777368932962418
      ],
      "translation": [
        2.573848247528076,
        10.249773979187012,
        -6.368782997131348
      ]
    },
    {
      "name": "transform2"
    },
    {
      "children": [
        54
      ],
      "name": "pCube1",
      "rotation": [
        0.0,
        -0.0,
        -0.08093492686748505,
        0.9967193603515625
      ],
      "scale": [
        0.5997991561889648,
        0.12476848810911179,
        1.0
      ],
      "translation": [
        3.841719150543213,
        8.489500045776367,
        0.0
      ]
    },
    {
      "name": "transform5"
    },
    {
      "children": [
        56
      ],
      "name": "pCylinder3",
      "rotation": [
        0.14713771641254425,
        0.0,
        0.0,
        0.9891161322593689
      ],
      "scale": [
        0.47784578800201416,
        0.060447316616773605,
        0.47784578800201416
      ],
      "translation": [
        3.52662992477417,
        11.747098922729492,
        -5.212754726409912
      ]
    },
    {
      "name": "transform1",
      "rotation": [
        6.938893903907228e-18,
        0.0,
        0.0,
        1.0
      ]
    },
    {
      "name": "locator1"
    },
    {
      "name": "pCube2"
    },
    {
      "name": "group"
    },
    {
      "children": [
        61
      ],
      "name": "pCylinder4",
      "scale": [
        12.437768936157227,
        0.23537182807922363,
        12.437768936157227
      ],
      "translation": [
        5.4079999923706055,
        1.121235728263855,
        0.296999990940094
      ]
    },
    {
      "mesh": 6,
      "name": "pCylinder4_chao_mat_0"
    },
    {
      "children": [
        63
      ],
      "name": "pPlane2",
      "rotation": [
        0.0,
        0.0,
        0.8337141275405884,
        0.5521963238716125
      ],
      "scale": [
        0.42096853256225586,
        0.42096853256225586,
        0.42096853256225586
      ],
      "translation": [
        -0.18369953334331512,
        1.3230949640274048,
        5.373718738555908
      ]
    },
    {
      "name": "transform6",
      "rotation": [
        0.0,
        0.0,
        2.7755575615628914e-17,
        1.0
      ]
    },
    {
      "children": [
        65
      ],
      "name": "pPlane3",
      "rotation": [
        0.0,
        0.0,
        0.8337141275405884,
        0.5521963238716125
      ],
      "translation": [
        11.234493255615234,
        2.404698610305786,
        -5.437643527984619
      ]
    },
    {
      "name": "transform9"
    },
    {
      "children": [
        67
      ],
      "name": "pPlane4",
      "rotation": [
        0.7118406295776367,
        0.3964042663574219,
        0.5115006566047668,
        0.2729719877243042
      ],
      "scale": [
        0.42096853256225586,
        0.42096853256225586,
        0.42096853256225586
      ],
      "translation": [
        -0.020231863483786583,
        1.4190831184387207,
        5.447135925292969
      ]
    },
    {
      "name": "transform8",
      "rotation": [
        0.0,
        -0.0,
        -2.7755575615628914e-17,
        1.0
      ]
    },
    {
      "children": [
        69
      ],
      "name": "pPlane5",
      "rotation": [
        0.7507917284965515,
        0.5436301231384277,
        -0.2966008484363556,
        -0.22979556024074554
      ],
      "scale": [
        0.42096853256225586,
        0.42096853256225586,
        0.42096853256225586
      ],
      "translation": [
        -0.24607045948505402,
        1.3115729093551636,
        5.251007080078125
      ]
    },
    {
      "name": "transform7",
      "rotation": [
        0.0,
        0.0,
        2.7755575615628914e-17,
        1.0
      ]
    },
    {
      "children": [
        71
      ],
      "name": "pPlane7",
      "rotation": [
        -0.11227667331695557,
        0.005990956909954548,
        -0.052945200353860855,
        0.9922474026679993
      ],
      "translation": [
        -0.3228057622909546,
        -0.9729658365249634,
        0.5458462238311768
      ]
    },
    {
      "mesh": 7,
      "name": "pPlane7_matinho_mat_0"
    },
    {
      "children": [
        73
      ],
      "name": "pPlane8",
      "rotation": [
        0.025808805599808693,
        -0.004648469854146242,
        0.07149886339902878,
        0.9970960021018982
      ],
      "scale": [
        1.3966606855392456,
        1.3966606855392456,
        1.3966606855392456
      ],
      "translation": [
        13.3142728805542,
        0.8130025863647461,
        -9.07958698272705
      ]
    },
    {
      "mesh": 8,
      "name": "pPlane8_matinho_mat_0"
    },
    {
      "children": [
        75
      ],
      "name": "pPlane9",
      "rotation": [
        0.7690819501876831,
        0.6384908556938171,
        0.027794381603598595,
        0.008357253856956959
      ],
      "translation": [
        10.678123474121094,
        2.333750009536743,
        -5.446445465087891
      ]
    },
    {
      "name": "transform10",
      "rotation": [
        1.5798644075051544e-35,
        -6.938893903907228e-18,
        2.2768245622195593e-18,
        1.0
      ]
    },
    {
      "children": [
        77
      ],
      "name": "pPlane10",
      "rotation": [
        0.02922637388110161,
        -0.2928178906440735,
        -0.07112354040145874,
        0.9530712962150574
      ],
      "scale": [
        0.3764462471008301,
        0.3764462471008301,
        0.3764462471008301
      ],
      "translation": [
        -4.887804985046387,
        1.6444532871246338,
        -5.81044864654541
      ]
    },
    {
      "mesh": 9,
      "name": "pPlane10_matinho_mat_0"
    },
    {
      "children": [
        79
      ],
      "name": "pCube3",
      "rotation": [
        0.0,
        0.30059224367141724,
        0.0,
        0.9537527561187744
      ],
      "scale": [
        0.8262708783149719,
        5.107149600982666,
        0.8262708783149719
      ],
      "translation": [
        13.196595191955566,
        4.086792945861816,
        7.088849067687988
      ]
    },
    {
      "name": "transform12",
      "rotation": [
        0.0,
        2.7755575615628914e-17,
        0.0,
        1.0
      ]
    },
    {
      "children": [
        81
      ],
      "name": "pCube4",
      "rotation": [
        0.0,
        0.30059224367141724,
        0.0,
        0.9537527561187744
      ],
      "scale": [
        0.8262708783149719,
        5.107149600982666,
        0.8262708783149719
      ],
      "translation": [
        9.259572982788086,
        3.416146993637085,
        9.944802284240723
      ]
    },
    {
      "name": "transform16",
      "rotation": [
        0.0,
        2.7755575615628914e-17,
        0.0,
        1.0
      ]
    },
    {
      "children": [
        83
      ],
      "name": "pCube5",
      "rotation": [
        0.023193947970867157,
        0.2996961176395416,
        0.07359235733747482,
        0.9509093761444092
      ],
      "scale": [
        4.476207256317139,
        0.8500612378120422,
        0.2916058897972107
      ],
      "translation": [
        11.231454849243164,
        5.372379779815674,
        8.5296630859375
      ]
    },
    {
      "name": "transform11",
      "rotation": [
        1.3877787807814457e-17,
        8.881784197001252e-16,
        2.7755575615628914e-17,
        1.0
      ]
    },
    {
      "children": [
        85
      ],
      "name": "pCube6",
      "rotation": [
        0.023193947970867157,
        0.2996961176395416,
        0.07359235733747482,
        0.9509093761444092
      ],
      "scale": [
        4.431122303009033,
        0.8500612378120422,
        0.2916058897972107
      ],
      "translation": [
        11.231454849243164,
        3.2301061153411865,
        8.5296630859375
      ]
    },
    {
      "name": "transform17",
      "rotation": [
        2.7755575615628914e-17,
        1.7763568394002505e-15,
        -4.930380657631324e-32,
        1.0
      ]
    },
    {
      "children": [
        87
      ],
      "name": "pCube8"
    },
    {
      "name": "transform14"
    },
    {
      "children": [
        89
      ],
      "name": "pCube9",
      "rotation": [
        0.023193947970867157,
        0.2996961176395416,
        0.07359235733747482,
        0.9509093761444092
      ],
      "scale": [
        4.431122303009033,
        0.8500612378120422,
        0.2916058897972107
      ],
      "translation": [
        11.231454849243164,
        3.2301061153411865,
        8.5296630859375
      ]
    },
    {
      "name": "transform13",
      "rotation": [
        2.7755575615628914e-17,
        1.7763568394002505e-15,
        -4.930380657631324e-32,
        1.0
      ]
    },
    {
      "children": [
        91
      ],
      "name": "pCube10"
    },
    {
      "name": "transform19"
    },
    {
      "children": [
        93
      ],
      "name": "pCube11",
      "rotation": [
        0.023193947970867157,
        0.2996961176395416,
        0.07359235733747482,
        0.9509093761444092
      ],
      "scale": [
        4.476207256317139,
        0.8500612378120422,
        0.2916058897972107
      ],
      "translation": [
        11.231454849243164,
        5.372379779815674,
        8.5296630859375
      ]
    },
    {
      "name": "transform15",
      "rotation": [
        1.3877787807814457e-17,
        8.881784197001252e-16,
        2.7755575615628914e-17,
        1.0
      ]
    },
    {
      "children": [
        95
      ],
      "name": "pCube13"
    },
    {
      "name": "transform18"
    },
    {
      "children": [
        97
      ],
      "name": "pCube14"
    },
    {
      "name": "transform20"
    },
    {
      "children": [
        99
      ],
      "name": "pCube15",
      "translation": [
        0.0,
        0.07707696408033371,
        0.0
      ]
    },
    {
      "mesh": 10,
      "name": "pCube15_cerca_mat_0"
    },
    {
      "children": [
        101
      ],
      "name": "pCube16",
      "rotation": [
        0.0,
        -0.5852958559989929,
        0.0,
        0.8108198046684265
      ],
      "translation": [
        3.949308156967163,
        0.4378083050251007,
        -4.968562126159668
      ]
    },
    {
      "mesh": 11,
      "name": "pCube16_cerca_mat_0"
    },
    {
      "children": [
        103
      ],
      "name": "pCube17",
      "rotation": [
        0.0,
        -0.31076595187187195,
        0.0,
        0.9504864811897278
      ],
      "translation": [
        1.3065416812896729,
        0.37142351269721985,
        -3.148388147354126
      ]
    },
    {
      "mesh": 12,
      "name": "pCube17_cerca_mat_0"
    },
    {
      "children": [
        105
      ],
      "name": "pPlane11",
      "rotation": [
        -0.01572803407907486,
        0.0008392301388084888,
        -0.053276464343070984,
        0.9984555840492249
      ],
      "scale": [
        0.3305589556694031,
        0.3305589556694031,
        0.3305589556694031
      ],
      "translation": [
        7.781503200531006,
        6.18650484085083,
        8.649870872497559
      ]
    },
    {
      "mesh": 13,
      "name": "pPlane11_matinho_mat_0"
    }
  ],
  "samplers": [
    {
      "magFilter": 9729,
      "minFilter": 9987,
      "wrapS": 10497,
      "wrapT": 10497
    }
  ],
  "scene": 0,
  "scenes": [
    {
      "name": "Sketchfab_Scene",
      "nodes": [
        0
      ]
    }
  ],
  "skins": [
    {
      "inverseBindMatrices": 56,
      "joints": [
        5,
        13,
        14,
        15,
        16,
        17,
        18,
        19,
        20,
        21,
        22,
        23,
        24,
        25,
        26,
        27,
        28,
        29,
        30,
        31,
        32,
        33,
        34,
        35,
        36,
        37,
        38,
        39,
        40,
        41,
        42,
        43,
        44,
        45
      ],
      "skeleton": 5
    }
  ],
  "textures": [
    {
      "sampler": 0,
      "source": 0
    },
    {
      "sampler": 0,
      "source": 1
    },
    {
      "sampler": 0,
      "source": 2
    },
    {
      "sampler": 0,
      "source": 3
    },
    {
      "sampler": 0,
      "source": 4
    }
  ]
}
