{
  "accessors": [
    {
      "bufferView": 2,
      "componentType": 5126,
      "count": 788,
      "max": [
        1.0294430255889893,
        0.5067566633224487,
        0.7582149505615234
      ],
      "min": [
        -1.0294430255889893,
        -0.8924528360366821,
        -4.964621543884277
      ],
      "type": "VEC3"
    },
    {
      "bufferView": 2,
      "byteOffset": 9456,
      "componentType": 5126,
      "count": 788,
      "max": [
        0.9999334812164307,
        1.0,
        0.8847464919090271
      ],
      "min": [
        -0.9999334812164307,
        -0.9999986290931702,
        -1.0
      ],
      "type": "VEC3"
    },
    {
      "bufferView": 1,
      "componentType": 5126,
      "count": 788,
      "max": [
        1.0000001192092896,
        1.0000001192092896
      ],
      "min": [
        0.0,
        0.0
      ],
      "type": "VEC2"
    },
    {
      "bufferView": 0,
      "componentType": 5125,
      "count": 1182,
      "type": "SCALAR"
    },
    {
      "bufferView": 2,
      "byteOffset": 18912,
      "componentType": 5126,
      "count": 16,
      "max": [
        0.6727409362792969,
        0.4948223829269409,
        -1.8235055208206177
      ],
      "min": [
        -0.6727409362792969,
        0.3821674585342407,
        -2.8637216091156006
      ],
      "type": "VEC3"
    },
    {
      "bufferView": 2,
      "byteOffset": 19104,
      "componentType": 5126,
      "count": 16,
      "max": [
        0.0008632478420622647,
        0.995039165019989,
        -0.09948065131902695
      ],
      "min": [
        -0.0008632478420622647,
        0.9940107464790344,
        -0.10928251594305038
      ],
      "type": "VEC3"
    },
    {
      "bufferView": 1,
      "byteOffset": 6304,
      "componentType": 5126,
      "count": 16,
      "max": [
        0.0,
        0.0
      ],
      "min": [
        0.0,
        0.0
      ],
      "type": "VEC2"
    },
    {
      "bufferView": 0,
      "byteOffset": 4728,
      "componentType": 5125,
      "count": 24,
      "type": "SCALAR"
    },
    {
      "bufferView": 2,
      "byteOffset": 19296,
      "componentType": 5126,
      "count": 8,
      "max": [
        0.6316843628883362,
        0.5067566633224487,
        -1.6412229537963867
      ],
      "min": [
        -0.6316843628883362,
        0.4845726490020752,
        -1.7124378681182861
      ],
      "type": "VEC3"
    },
    {
      "bufferView": 2,
      "byteOffset": 19392,
      "componentType": 5126,
      "count": 8,
      "max": [
        0.00011449216981418431,
        0.9545044898986816,
        0.2981967628002167
      ],
      "min": [
        -0.00011449216981418431,
        0.9545044898986816,
        0.2981967628002167
      ],
      "type": "VEC3"
    },
    {
      "bufferView": 1,
      "byteOffset": 6432,
      "componentType": 5126,
      "count": 8,
      "max": [
        0.1311594843864441,
        0.1311594843864441
      ],
      "min": [
        0.0,
        0.0
      ],
      "type": "VEC2"
    },
    {
      "bufferView": 0,
      "byteOffset": 4824,
      "componentType": 5125,
      "count": 12,
      "type": "SCALAR"
    },
    {
      "bufferView": 2,
      "byteOffset": 19488,
      "componentType": 5126,
      "count": 160,
      "max": [
        0.9372320771217346,
        0.5067566633224487,
        0.030690670013427734
      ],
      "min": [
        -0.9372320771217346,
        -0.08759140968322754,
        -3.061100482940674
      ],
      "type": "VEC3"
    },
    {
      "bufferView": 2,
      "byteOffset": 21408,
      "componentType": 5126,
      "count": 160,
      "max": [
        0.9375803470611572,
        0.9949632883071899,
        0.33375564217567444
      ],
      "min": [
        -0.9375803470611572,
        -0.3475533723831177,
        -1.0
      ],
      "type": "VEC3"
    },
    {
      "bufferView": 1,
      "byteOffset": 6496,
      "componentType": 5126,
      "count": 160,
      "max": [
        1.0,
        1.0
      ],
      "min": [
        0.0,
        0.0
      ],
      "type": "VEC2"
    },
    {
      "bufferView": 0,
      "byteOffset": 4872,
      "componentType": 5125,
      "count": 240,
      "type": "SCALAR"
    },
    {
      "bufferView": 2,
      "byteOffset": 23328,
      "componentType": 5126,
      "count": 40,
      "max": [
        0.9299173355102539,
        0.3923426866531372,
        -0.11886227130889893
      ],
      "min": [
        -0.9299173355102539,
        -0.063343346118927,
        -3.0610899925231934
      ],
      "type": "VEC3"
    },
    {
      "bufferView": 2,
      "byteOffset": 23808,
      "componentType": 5126,
      "count": 40,
      "max": [
        0.9393784999847412,
        0.9549260139465332,
        0.3273330330848694
      ],
      "min": [
        -0.9393784999847412,
        0.00012428444460965693,
        -0.9999998807907104
      ],
      "type": "VEC3"
    },
    {
      "bufferView": 1,
      "byteOffset": 7776,
      "componentType": 5126,
      "count": 40,
      "max": [
        0.0,
        0.0
      ],
      "min": [
        0.0,
        0.0
      ],
      "type": "VEC2"
    },
    {
      "bufferView": 0,
      "byteOffset": 5832,
      "componentType": 5125,
      "count": 60,
      "type": "SCALAR"
    },
    {
      "bufferView": 2,
      "byteOffset": 24288,
      "componentType": 5126,
      "count": 144,
      "max": [
        0.9302871227264404,
        0.45117273926734924,
        -0.7737126350402832
      ],
      "min": [
        -0.9302871227264404,
        -0.051737744361162186,
        -1.9814205169677734
      ],
      "type": "VEC3"
    },
    {
      "bufferView": 2,
      "byteOffset": 26016,
      "componentType": 5126,
      "count": 144,
      "max": [
        0.9389479160308838,
        0.9200380444526672,
        0.9750741720199585
      ],
      "min": [
        -0.9389479160308838,
        -0.9300599694252014,
        -0.9834502935409546
      ],
      "type": "VEC3"
    },
    {
      "bufferView": 1,
      "byteOffset": 8096,
      "componentType": 5126,
      "count": 144,
      "max": [
        0.0,
        0.0
      ],
      "min": [
        0.0,
        0.0
      ],
      "type": "VEC2"
    },
    {
      "bufferView": 0,
      "byteOffset": 6072,
      "componentType": 5125,
      "count": 216,
      "type": "SCALAR"
    },
    {
      "bufferView": 2,
      "byteOffset": 27744,
      "componentType": 5126,
      "count": 32,
      "max": [
        0.9119778275489807,
        0.4045983552932739,
        -0.8358551859855652
      ],
      "min": [
        -0.9119778275489807,
        -0.0022407532669603825,
        -1.9242161512374878
      ],
      "type": "VEC3"
    },
    {
      "bufferView": 2,
      "byteOffset": 28128,
      "componentType": 5126,
      "count": 32,
      "max": [
        0.9320590496063232,
        0.3724806606769562,
        0.017191166058182716
      ],
      "min": [
        -0.9320590496063232,
        -0.3724798858165741,
        -0.017189539968967438
      ],
      "type": "VEC3"
    },
    {
      "bufferView": 1,
      "byteOffset": 9248,
      "componentType": 5126,
      "count": 32,
      "max": [
        0.0,
        0.0
      ],
      "min": [
        0.0,
        0.0
      ],
      "type": "VEC2"
    },
    {
      "bufferView": 0,
      "byteOffset": 6936,
      "componentType": 5125,
      "count": 48,
      "type": "SCALAR"
    },
    {
      "bufferView": 2,
      "byteOffset": 28512,
      "componentType": 5126,
      "count": 96,
      "max": [
        0.9251931309700012,
        0.4151045083999634,
        -1.9045755863189697
      ],
      "min": [
        -0.9251931309700012,
        0.020254679024219513,
        -2.976165771484375
      ],
      "type": "VEC3"
    },
    {
      "bufferView": 2,
      "byteOffset": 29664,
      "componentType": 5126,
      "count": 96,
      "max": [
        0.9277312159538269,
        0.9213972091674805,
        0.983478844165802
      ],
      "min": [
        -0.9277312159538269,
        -0.9262972474098206,
        -0.987676203250885
      ],
      "type": "VEC3"
    },
    {
      "bufferView": 1,
      "byteOffset": 9504,
      "componentType": 5126,
      "count": 96,
      "max": [
        0.0,
        0.0
      ],
      "min": [
        0.0,
        0.0
      ],
      "type": "VEC2"
    },
    {
      "bufferView": 0,
      "byteOffset": 7128,
      "componentType": 5125,
      "count": 144,
      "type": "SCALAR"
    },
    {
      "bufferView": 2,
      "byteOffset": 30816,
      "componentType": 5126,
      "count": 16,
      "max": [
        0.90804123878479,
        0.36897534132003784,
        -1.9591455459594727
      ],
      "min": [
        -0.90804123878479,
        0.06501423567533493,
        -2.9238975048065186
      ],
      "type": "VEC3"
    },
    {
      "bufferView": 2,
      "byteOffset": 31008,
      "componentType": 5126,
      "count": 16,
      "max": [
        0.9277307391166687,
        0.37297505140304565,
        0.014327630400657654
      ],
      "min": [
        -0.9277307391166687,
        -0.37297508120536804,
        -0.014327630400657654
      ],
      "type": "VEC3"
    },
    {
      "bufferView": 1,
      "byteOffset": 10272,
      "componentType": 5126,
      "count": 16,
      "max": [
        0.0,
        0.0
      ],
      "min": [
        0.0,
        0.0
      ],
      "type": "VEC2"
    },
    {
      "bufferView": 0,
      "byteOffset": 7704,
      "componentType": 5125,
      "count": 24,
      "type": "SCALAR"
    },
    {
      "bufferView": 2,
      "byteOffset": 31200,
      "componentType": 5126,
      "count": 56,
      "max": [
        0.9660871028900146,
        0.07409815490245819,
        -4.799409866333008
      ],
      "min": [
        -0.9660871028900146,
        -0.5844708681106567,
        -4.964622497558594
      ],
      "type": "VEC3"
    },
    {
      "bufferView": 2,
      "byteOffset": 31872,
      "componentType": 5126,
      "count": 56,
      "max": [
        0.7280064225196838,
        0.9886766672134399,
        0.9987391829490662
      ],
      "min": [
        -0.7280064225196838,
        -0.1708662509918213,
        -0.9859578609466553
      ],
      "type": "VEC3"
    },
    {
      "bufferView": 1,
      "byteOffset": 10400,
      "componentType": 5126,
      "count": 56,
      "max": [
        1.0,
        1.0
      ],
      "min": [
        0.0,
        0.0
      ],
      "type": "VEC2"
    },
    {
      "bufferView": 0,
      "byteOffset": 7800,
      "componentType": 5125,
      "count": 84,
      "type": "SCALAR"
    },
    {
      "bufferView": 2,
      "byteOffset": 32544,
      "componentType": 5126,
      "count": 24,
      "max": [
        0.9660871028900146,
        0.05775611102581024,
        -4.950687408447266
      ],
      "min": [
        -0.9660871028900146,
        -0.02854866161942482,
        -4.964622497558594
      ],
      "type": "VEC3"
    },
    {
      "bufferView": 2,
      "byteOffset": 32832,
      "componentType": 5126,
      "count": 24,
      "max": [
        5.117399837217818e-07,
        -0.15938453376293182,
        -0.9872149229049683
      ],
      "min": [
        -5.117399837217818e-07,
        -0.1593952178955078,
        -0.987216591835022
      ],
      "type": "VEC3"
    },
    {
      "bufferView": 1,
      "byteOffset": 10848,
      "componentType": 5126,
      "count": 24,
      "max": [
        1.0,
        1.0
      ],
      "min": [
        0.0,
        0.0
      ],
      "type": "VEC2"
    },
    {
      "bufferView": 0,
      "byteOffset": 8136,
      "componentType": 5125,
      "count": 36,
      "type": "SCALAR"
    },
    {
      "bufferView": 2,
      "byteOffset": 33120,
      "componentType": 5126,
      "count": 8,
      "max": [
        0.9534409642219543,
        0.045877132564783096,
        -4.952605247497559
      ],
      "min": [
        -0.9534409642219543,
        -0.016669681295752525,
        -4.962704658508301
      ],
      "type": "VEC3"
    },
    {
      "bufferView": 2,
      "byteOffset": 33216,
      "componentType": 5126,
      "count": 8,
      "max": [
        5.125369284542103e-07,
        -0.15939737856388092,
        -0.9872145652770996
      ],
      "min": [
        -5.125369284542103e-07,
        -0.15939737856388092,
        -0.9872145652770996
      ],
      "type": "VEC3"
    },
    {
      "bufferView": 1,
      "byteOffset": 11040,
      "componentType": 5126,
      "count": 8,
      "max": [
        0.9875125288963318,
        0.9875125288963318
      ],
      "min": [
        0.012473048642277718,
        0.012473048642277718
      ],
      "type": "VEC2"
    },
    {
      "bufferView": 0,
      "byteOffset": 8280,
      "componentType": 5125,
      "count": 12,
      "type": "SCALAR"
    },
    {
      "bufferView": 2,
      "byteOffset": 33312,
      "componentType": 5126,
      "count": 222,
      "max": [
        1.033818006515503,
        -0.6491792798042297,
        0.7156362533569336
      ],
      "min": [
        -1.033818006515503,
        -0.8196980953216553,
        0.16626358032226563
      ],
      "type": "VEC3"
    },
    {
      "bufferView": 2,
      "byteOffset": 35976,
      "componentType": 5126,
      "count": 222,
      "max": [
        0.9999999403953552,
        0.9960889220237732,
        0.9989359974861145
      ],
      "min": [
        -0.9999999403953552,
        -1.0,
        -0.9993882179260254
      ],
      "type": "VEC3"
    },
    {
      "bufferView": 1,
      "byteOffset": 11104,
      "componentType": 5126,
      "count": 222,
      "max": [
        0.0,
        0.0
      ],
      "min": [
        0.0,
        0.0
      ],
      "type": "VEC2"
    },
    {
      "bufferView": 0,
      "byteOffset": 8328,
      "componentType": 5125,
      "count": 336,
      "type": "SCALAR"
    },
    {
      "bufferView": 2,
      "byteOffset": 38640,
      "componentType": 5126,
      "count": 493,
      "max": [
        1.0585089921951294,
        -0.2482454776763916,
        0.4342615604400635
      ],
      "min": [
        -1.0585089921951294,
        -1.004096508026123,
        -0.7960373163223267
      ],
      "type": "VEC3"
    },
    {
      "bufferView": 2,
      "byteOffset": 44556,
      "componentType": 5126,
      "count": 493,
      "max": [
        1.0,
        0.8786329030990601,
        0.9994462132453918
      ],
      "min": [
        -1.0,
        -1.0,
        -0.8652793169021606
      ],
      "type": "VEC3"
    },
    {
      "bufferView": 1,
      "byteOffset": 12880,
      "componentType": 5126,
      "count": 493,
      "max": [
        0.0,
        0.0
      ],
      "min": [
        0.0,
        0.0
      ],
      "type": "VEC2"
    },
    {
      "bufferView": 0,
      "byteOffset": 9672,
      "componentType": 5125,
      "count": 768,
      "type": "SCALAR"
    },
    {
      "bufferView": 2,
      "byteOffset": 50472,
      "componentType": 5126,
      "count": 24,
      "max": [
        0.952397346496582,
        -0.22895203530788422,
        0.7369540929794312
      ],
      "min": [
        -0.952397346496582,
        -0.33168214559555054,
        0.451365202665329
      ],
      "type": "VEC3"
    },
    {
      "bufferView": 2,
      "byteOffset": 50760,
      "componentType": 5126,
      "count": 24,
      "max": [
        0.6042604446411133,
        -0.06620749086141586,
        0.975899338722229
      ],
      "min": [
        -0.6042604446411133,
        -0.23574888706207275,
        0.7940313816070557
      ],
      "type": "VEC3"
    },
    {
      "bufferView": 1,
      "byteOffset": 16824,
      "componentType": 5126,
      "count": 24,
      "max": [
        0.8219530582427979,
        0.8219512701034546
      ],
      "min": [
        0.001012083375826478,
        0.0
      ],
      "type": "VEC2"
    },
    {
      "bufferView": 0,
      "byteOffset": 12744,
      "componentType": 5125,
      "count": 36,
      "type": "SCALAR"
    },
    {
      "bufferView": 2,
      "byteOffset": 51048,
      "componentType": 5126,
      "count": 56,
      "max": [
        0.9660871028900146,
        -0.2127612829208374,
        0.7390899658203125
      ],
      "min": [
        -0.9660871028900146,
        -0.3407909870147705,
        0.44166135787963867
      ],
      "type": "VEC3"
    },
    {
      "bufferView": 2,
      "byteOffset": 51720,
      "componentType": 5126,
      "count": 56,
      "max": [
        0.6142833828926086,
        -0.03029211424291134,
        0.9797607660293579
      ],
      "min": [
        -0.6142833828926086,
        -0.23272792994976044,
        0.7819964289665222
      ],
      "type": "VEC3"
    },
    {
      "bufferView": 1,
      "byteOffset": 17016,
      "componentType": 5126,
      "count": 56,
      "max": [
        1.0,
        1.0
      ],
      "min": [
        0.0,
        0.0
      ],
      "type": "VEC2"
    },
    {
      "bufferView": 0,
      "byteOffset": 12888,
      "componentType": 5125,
      "count": 84,
      "type": "SCALAR"
    },
    {
      "bufferView": 2,
      "byteOffset": 52392,
      "componentType": 5126,
      "count": 16,
      "max": [
        1.0,
        0.0,
        1.0
      ],
      "min": [
        -1.0,
        -1.8144512176513672,
        -1.3741281032562256
      ],
      "type": "VEC3"
    },
    {
      "bufferView": 2,
      "byteOffset": 52584,
      "componentType": 5126,
      "count": 16,
      "max": [
        0.0,
        1.0,
        -0.0
      ],
      "min": [
        0.0,
        -0.7569939494132996,
        -0.9292479753494263
      ],
      "type": "VEC3"
    },
    {
      "bufferView": 1,
      "byteOffset": 17464,
      "componentType": 5126,
      "count": 16,
      "max": [
        1.0,
        1.0
      ],
      "min": [
        0.0,
        0.0
      ],
      "type": "VEC2"
    },
    {
      "bufferView": 0,
      "byteOffset": 13224,
      "componentType": 5125,
      "count": 24,
      "type": "SCALAR"
    },
    {
      "bufferView": 2,
      "byteOffset": 52776,
      "componentType": 5126,
      "count": 240,
      "max": [
        1.0246330499649048,
        -0.580467164516449,
        -4.390373229980469
      ],
      "min": [
        -1.0246330499649048,
        -0.975307285785675,
        -4.899168491363525
      ],
      "type": "VEC3"
    },
    {
      "bufferView": 2,
      "byteOffset": 55656,
      "componentType": 5126,
      "count": 240,
      "max": [
        0.9999703168869019,
        0.9483299255371094,
        0.9999482035636902
      ],
      "min": [
        -0.9999703168869019,
        -0.9991977214813232,
        -1.0
      ],
      "type": "VEC3"
    },
    {
      "bufferView": 1,
      "byteOffset": 17592,
      "componentType": 5126,
      "count": 240,
      "max": [
        0.0,
        0.0
      ],
      "min": [
        0.0,
        0.0
      ],
      "type": "VEC2"
    },
    {
      "bufferView": 0,
      "byteOffset": 13320,
      "componentType": 5125,
      "count": 366,
      "type": "SCALAR"
    },
    {
      "bufferView": 2,
      "byteOffset": 58536,
      "componentType": 5126,
      "count": 412,
      "max": [
        1.0509129762649536,
        -0.2241993397474289,
        -0.6760352849960327
      ],
      "min": [
        -1.0509129762649536,
        -1.004096508026123,
        -4.47758674621582
      ],
      "type": "VEC3"
    },
    {
      "bufferView": 2,
      "byteOffset": 63480,
      "componentType": 5126,
      "count": 412,
      "max": [
        1.0,
        0.9996083378791809,
        0.9000411033630371
      ],
      "min": [
        -1.0,
        -0.9999862313270569,
        -0.999975860118866
      ],
      "type": "VEC3"
    },
    {
      "bufferView": 1,
      "byteOffset": 19512,
      "componentType": 5126,
      "count": 412,
      "max": [
        0.7200003266334534,
        0.7200003266334534
      ],
      "min": [
        0.0,
        0.0
      ],
      "type": "VEC2"
    },
    {
      "bufferView": 0,
      "byteOffset": 14784,
      "componentType": 5125,
      "count": 660,
      "type": "SCALAR"
    },
    {
      "bufferView": 2,
      "byteOffset": 68424,
      "componentType": 5126,
      "count": 308,
      "max": [
        -0.0679284930229187,
        0.2781152129173279,
        2.702247381210327
      ],
      "min": [
        -1.4984091520309448,
        -0.016459189355373383,
        -0.12552963197231293
      ],
      "type": "VEC3"
    },
    {
      "bufferView": 2,
      "byteOffset": 72120,
      "componentType": 5126,
      "count": 308,
      "max": [
        0.1375056505203247,
        0.9989871978759766,
        0.9982691407203674
      ],
      "min": [
        -0.13750502467155457,
        -0.05881159380078316,
        -0.22071339190006256
      ],
      "type": "VEC3"
    },
    {
      "bufferView": 1,
      "byteOffset": 22808,
      "componentType": 5126,
      "count": 308,
      "max": [
        1.0,
        1.0
      ],
      "min": [
        0.0,
        0.0
      ],
      "type": "VEC2"
    },
    {
      "bufferView": 0,
      "byteOffset": 17424,
      "componentType": 5125,
      "count": 462,
      "type": "SCALAR"
    },
    {
      "bufferView": 2,
      "byteOffset": 75816,
      "componentType": 5126,
      "count": 2488,
      "max": [
        5.910925388336182,
        0.5735145211219788,
        5.965811252593994
      ],
      "min": [
        -5.937639236450195,
        -3.447322130203247,
        -5.882750511169434
      ],
      "type": "VEC3"
    },
    {
      "bufferView": 2,
      "byteOffset": 105672,
      "componentType": 5126,
      "count": 2488,
      "max": [
        0.9982002377510071,
        1.0,
        0.9982004761695862
      ],
      "min": [
        -0.9982003569602966,
        -0.9975686073303223,
        -0.9982002377510071
      ],
      "type": "VEC3"
    },
    {
      "bufferView": 1,
      "byteOffset": 25272,
      "componentType": 5126,
      "count": 2488,
      "max": [
        0.0,
        0.0
      ],
      "min": [
        0.0,
        0.0
      ],
      "type": "VEC2"
    },
    {
      "bufferView": 0,
      "byteOffset": 19272,
      "componentType": 5125,
      "count": 3744,
      "type": "SCALAR"
    },
    {
      "bufferView": 2,
      "byteOffset": 135528,
      "componentType": 5126,
      "count": 255,
      "max": [
        4.536074638366699,
        0.6925078630447388,
        4.543253421783447
      ],
      "min": [
        -4.490164279937744,
        -0.5546574592590332,
        -4.287240982055664
      ],
      "type": "VEC3"
    },
    {
      "bufferView": 2,
      "byteOffset": 138588,
      "componentType": 5126,
      "count": 255,
      "max": [
        0.9719017744064331,
        1.0,
        0.9609101414680481
      ],
      "min": [
        -0.9720481634140015,
        0.22733661532402039,
        -0.9342795610427856
      ],
      "type": "VEC3"
    },
    {
      "bufferView": 1,
      "byteOffset": 45176,
      "componentType": 5126,
      "count": 255,
      "max": [
        0.0,
        0.0
      ],
      "min": [
        0.0,
        0.0
      ],
      "type": "VEC2"
    },
    {
      "bufferView": 0,
      "byteOffset": 34248,
      "componentType": 5125,
      "count": 396,
      "type": "SCALAR"
    },
    {
      "bufferView": 2,
      "byteOffset": 141648,
      "componentType": 5126,
      "count": 2488,
      "max": [
        5.910925388336182,
        0.5735145211219788,
        5.965811252593994
      ],
      "min": [
        -5.937639236450195,
        -3.447322130203247,
        -5.882750511169434
      ],
      "type": "VEC3"
    },
    {
      "bufferView": 2,
      "byteOffset": 171504,
      "componentType": 5126,
      "count": 2488,
      "max": [
        0.9982002377510071,
        1.0,
        0.9982004761695862
      ],
      "min": [
        -0.9982003569602966,
        -0.9975686073303223,
        -0.9982002377510071
      ],
      "type": "VEC3"
    },
    {
      "bufferView": 1,
      "byteOffset": 47216,
      "componentType": 5126,
      "count": 2488,
      "max": [
        0.0,
        0.0
      ],
      "min": [
        0.0,
        0.0
      ],
      "type": "VEC2"
    },
    {
      "bufferView": 0,
      "byteOffset": 35832,
      "componentType": 5125,
      "count": 3744,
      "type": "SCALAR"
    },
    {
      "bufferView": 2,
      "byteOffset": 201360,
      "componentType": 5126,
      "count": 255,
      "max": [
        4.536074638366699,
        0.6925078630447388,
        4.543253421783447
      ],
      "min": [
        -4.490164279937744,
        -0.5546574592590332,
        -4.287240982055664
      ],
      "type": "VEC3"
    },
    {
      "bufferView": 2,
      "byteOffset": 204420,
      "componentType": 5126,
      "count": 255,
      "max": [
        0.9719017744064331,
        1.0,
        0.9609101414680481
      ],
      "min": [
        -0.9720481634140015,
        0.22733661532402039,
        -0.9342795610427856
      ],
      "type": "VEC3"
    },
    {
      "bufferView": 1,
      "byteOffset": 67120,
      "componentType": 5126,
      "count": 255,
      "max": [
        0.0,
        0.0
      ],
      "min": [
        0.0,
        0.0
      ],
      "type": "VEC2"
    },
    {
      "bufferView": 0,
      "byteOffset": 50808,
      "componentType": 5125,
      "count": 396,
      "type": "SCALAR"
    },
    {
      "bufferView": 2,
      "byteOffset": 207480,
      "componentType": 5126,
      "count": 2488,
      "max": [
        5.910925388336182,
        0.5735145211219788,
        5.965811252593994
      ],
      "min": [
        -5.937639236450195,
        -3.447322130203247,
        -5.882750511169434
      ],
      "type": "VEC3"
    },
    {
      "bufferView": 2,
      "byteOffset": 237336,
      "componentType": 5126,
      "count": 2488,
      "max": [
        0.9982002377510071,
        1.0,
        0.9982004761695862
      ],
      "min": [
        -0.9982003569602966,
        -0.9975686073303223,
        -0.9982002377510071
      ],
      "type": "VEC3"
    },
    {
      "bufferView": 1,
      "byteOffset": 69160,
      "componentType": 5126,
      "count": 2488,
      "max": [
        0.0,
        0.0
      ],
      "min": [
        0.0,
        0.0
      ],
      "type": "VEC2"
    },
    {
      "bufferView": 0,
      "byteOffset": 52392,
      "componentType": 5125,
      "count": 3744,
      "type": "SCALAR"
    },
    {
      "bufferView": 2,
      "byteOffset": 267192,
      "componentType": 5126,
      "count": 255,
      "max": [
        4.536074638366699,
        0.6925078630447388,
        4.543253421783447
      ],
      "min": [
        -4.490164279937744,
        -0.5546574592590332,
        -4.287240982055664
      ],
      "type": "VEC3"
    },
    {
      "bufferView": 2,
      "byteOffset": 270252,
      "componentType": 5126,
      "count": 255,
      "max": [
        0.9719017744064331,
        1.0,
        0.9609101414680481
      ],
      "min": [
        -0.9720481634140015,
        0.22733661532402039,
        -0.9342795610427856
      ],
      "type": "VEC3"
    },
    {
      "bufferView": 1,
      "byteOffset": 89064,
      "componentType": 5126,
      "count": 255,
      "max": [
        0.0,
        0.0
      ],
      "min": [
        0.0,
        0.0
      ],
      "type": "VEC2"
    },
    {
      "bufferView": 0,
      "byteOffset": 67368,
      "componentType": 5125,
      "count": 396,
      "type": "SCALAR"
    },
    {
      "bufferView": 2,
      "byteOffset": 273312,
      "componentType": 5126,
      "count": 2488,
      "max": [
        5.910925388336182,
        0.5735145211219788,
        5.965811252593994
      ],
      "min": [
        -5.937639236450195,
        -3.447322130203247,
        -5.882750511169434
      ],
      "type": "VEC3"
    },
    {
      "bufferView": 2,
      "byteOffset": 303168,
      "componentType": 5126,
      "count": 2488,
      "max": [
        0.9982002377510071,
        1.0,
        0.9982004761695862
      ],
      "min": [
        -0.9982003569602966,
        -0.9975686073303223,
        -0.9982002377510071
      ],
      "type": "VEC3"
    },
    {
      "bufferView": 1,
      "byteOffset": 91104,
      "componentType": 5126,
      "count": 2488,
      "max": [
        0.0,
        0.0
      ],
      "min": [
        0.0,
        0.0
      ],
      "type": "VEC2"
    },
    {
      "bufferView": 0,
      "byteOffset": 68952,
      "componentType": 5125,
      "count": 3744,
      "type": "SCALAR"
    },
    {
      "bufferView": 2,
      "byteOffset": 333024,
      "componentType": 5126,
      "count": 255,
      "max": [
        4.536074638366699,
        0.6925078630447388,
        4.543253421783447
      ],
      "min": [
        -4.490164279937744,
        -0.5546574592590332,
        -4.287240982055664
      ],
      "type": "VEC3"
    },
    {
      "bufferView": 2,
      "byteOffset": 336084,
      "componentType": 5126,
      "count": 255,
      "max": [
        0.9719017744064331,
        1.0,
        0.9609101414680481
      ],
      "min": [
        -0.9720481634140015,
        0.22733661532402039,
        -0.9342795610427856
      ],
      "type": "VEC3"
    },
    {
      "bufferView": 1,
      "byteOffset": 111008,
      "componentType": 5126,
      "count": 255,
      "max": [
        0.0,
        0.0
      ],
      "min": [
        0.0,
        0.0
      ],
      "type": "VEC2"
    },
    {
      "bufferView": 0,
      "byteOffset": 83928,
      "componentType": 5125,
      "count": 396,
      "type": "SCALAR"
    },
    {
      "bufferView": 2,
      "byteOffset": 339144,
      "componentType": 5126,
      "count": 184,
      "max": [
        1.3932725191116333,
        39.228675842285156,
        1.4649745225906372
      ],
      "min": [
        -1.393274188041687,
        0.0,
        -1.464974284172058
      ],
      "type": "VEC3"
    },
    {
      "bufferView": 2,
      "byteOffset": 341352,
      "componentType": 5126,
      "count": 184,
      "max": [
        1.0,
        1.0,
        0.9510566592216492
      ],
      "min": [
        -1.0,
        -0.07410696148872375,
        -0.9510565996170044
      ],
      "type": "VEC3"
    },
    {
      "bufferView": 1,
      "byteOffset": 113048,
      "componentType": 5126,
      "count": 184,
      "max": [
        0.0,
        0.0
      ],
      "min": [
        0.0,
        0.0
      ],
      "type": "VEC2"
    },
    {
      "bufferView": 0,
      "byteOffset": 85512,
      "componentType": 5125,
      "count": 300,
      "type": "SCALAR"
    },
    {
      "bufferView": 2,
      "byteOffset": 343560,
      "componentType": 5126,
      "count": 184,
      "max": [
        1.3932725191116333,
        39.228675842285156,
        1.4649745225906372
      ],
      "min": [
        -1.393274188041687,
        0.0,
        -1.464974284172058
      ],
      "type": "VEC3"
    },
    {
      "bufferView": 2,
      "byteOffset": 345768,
      "componentType": 5126,
      "count": 184,
      "max": [
        1.0,
        1.0,
        0.9510566592216492
      ],
      "min": [
        -1.0,
        -0.07410696148872375,
        -0.9510565996170044
      ],
      "type": "VEC3"
    },
    {
      "bufferView": 1,
      "byteOffset": 114520,
      "componentType": 5126,
      "count": 184,
      "max": [
        0.0,
        0.0
      ],
      "min": [
        0.0,
        0.0
      ],
      "type": "VEC2"
    },
    {
      "bufferView": 0,
      "byteOffset": 86712,
      "componentType": 5125,
      "count": 300,
      "type": "SCALAR"
    },
    {
      "bufferView": 2,
      "byteOffset": 347976,
      "componentType": 5126,
      "count": 965,
      "max": [
        5.282000541687012,
        0.0,
        0.009000000543892384
      ],
      "min": [
        0.07700000703334808,
        0.0,
        -0.6914074420928955
      ],
      "type": "VEC3"
    },
    {
      "bufferView": 2,
      "byteOffset": 359556,
      "componentType": 5126,
      "count": 965,
      "max": [
        0.0,
        1.0,
        0.0
      ],
      "min": [
        0.0,
        0.9999999403953552,
        0.0
      ],
      "type": "VEC3"
    },
    {
      "bufferView": 1,
      "byteOffset": 115992,
      "componentType": 5126,
      "count": 965,
      "max": [
        1.0,
        0.0
      ],
      "min": [
        0.0,
        0.0
      ],
      "type": "VEC2"
    },
    {
      "bufferView": 0,
      "byteOffset": 87912,
      "componentType": 5125,
      "count": 2847,
      "type": "SCALAR"
    },
    {
      "bufferView": 3,
      "componentType": 5126,
      "count": 60,
      "max": [
        2.5
      ],
      "min": [
        0.0416666679084301
      ],
      "type": "SCALAR"
    },
    {
      "bufferView": 4,
      "componentType": 5126,
      "count": 60,
      "max": [
        3.0817737579345703,
        1.3599419593811035,
        -2.69619083404541
      ],
      "min": [
        0.8021032810211182,
        1.3599419593811035,
        -2.69619083404541
      ],
      "type": "VEC3"
    },
    {
      "bufferView": 3,
      "byteOffset": 240,
      "componentType": 5126,
      "count": 60,
      "max": [
        2.5
      ],
      "min": [
        0.0416666679084301
      ],
      "type": "SCALAR"
    },
    {
      "bufferView": 4,
      "byteOffset": 720,
      "componentType": 5126,
      "count": 60,
      "max": [
        3.0817737579345703,
        1.3599419593811035,
        -2.69619083404541
      ],
      "min": [
        0.8021032810211182,
        1.3599419593811035,
        -2.69619083404541
      ],
      "type": "VEC3"
    }
  ],
  "animations": [
    {
      "channels": [
        {
          "sampler": 0,
          "target": {
            "node": 33,
            "path": "translation"
          }
        }
      ],
      "name": "Action",
      "samplers": [
        {
          "input": 124,
          "interpolation": "LINEAR",
          "output": 125
        }
      ]
    },
    {
      "channels": [
        {
          "sampler": 0,
          "target": {
            "node": 33,
            "path": "translation"
          }
        }
      ],
      "name": "gordynAction",
      "samplers": [
        {
          "input": 126,
          "interpolation": "LINEAR",
          "output": 127
        }
      ]
    }
  ],
  "asset": {
    "extras": {
      "author": "rifdanzz (https://sketchfab.com/rifdanzz)",
      "license": "CC-BY-4.0 (http://creativecommons.org/licenses/by/4.0/)",
      "source": "https://sketchfab.com/3d-models/tesla-cybertruck-low-poly-a686ae619cc342879d45c2021aa2e303",
      "title": "Tesla Cybertruck Low Poly"
    },
    "generator": "Sketchfab-12.60.0",
    "version": "2.0"
  },
  "bufferViews": [
    {
      "buffer": 0,
      "byteLength": 99300,
      "name": "floatBufferViews",
      "target": 34963
    },
    {
      "buffer": 0,
      "byteLength": 123712,
      "byteOffset": 99300,
      "byteStride": 8,
      "name": "floatBufferViews",
      "target": 34962
    },
    {
      "buffer": 0,
      "byteLength": 371136,
      "byteOffset": 223012,
      "byteStride": 12,
      "name": "floatBufferViews",
      "target": 34962
    },
    {
      "buffer": 0,
      "byteLength": 480,
      "byteOffset": 594148,
      "name": "floatBufferViews"
    },
    {
      "buffer": 0,
      "byteLength": 1440,
      "byteOffset": 594628,
      "byteStride": 12,
      "name": "floatBufferViews"
    }
  ],
  "buffers": [
    {
      "byteLength": 596068,
      "uri": "scene.bin"
    }
  ],
  "materials": [
    {
      "doubleSided": true,
      "name": "material_0",
      "pbrMetallicRoughness": {
        "baseColorFactor": [
          0.0,
          0.0,
          0.0,
          1.0
        ],
        "metallicFactor": 0.0,
        "roughnessFactor": 0.6
      }
    },
    {
      "doubleSided": true,
      "name": "body",
      "pbrMetallicRoughness": {
        "baseColorFactor": [
          0.7769461582346614,
          0.6443078360118095,
          0.6443078360118095,
          1.0
        ],
        "roughnessFactor": 0.365288
      }
    },
    {
      "doubleSided": true,
      "name": "panoramic",
      "pbrMetallicRoughness": {
        "baseColorFactor": [
          0.07634375382127633,
          0.07634375382127633,
          0.07634375382127633,
          1.0
        ],
        "roughnessFactor": 0.30895627629143363
      }
    },
    {
      "doubleSided": true,
      "emissiveFactor": [
        1.0,
        1.0,
        1.0
      ],
      "name": "headlight"
    },
    {
      "doubleSided": true,
      "name": "blackglossy",
      "pbrMetallicRoughness": {
        "baseColorFactor": [
          0.0,
          0.0,
          0.0,
          1.0
        ],
        "metallicFactor": 0.156364,
        "roughnessFactor": 0.0
      }
    },
    {
      "doubleSided": true,
      "name": "kaca",
      "pbrMetallicRoughness": {
        "baseColorFactor": [
          0.061563921154370045,
          0.061563921154370045,
          0.061563921154370045,
          1.0
        ],
        "roughnessFactor": 0.40536388767235215
      }
    },
    {
      "doubleSided": true,
      "name": "black",
      "pbrMetallicRoughness": {
        "baseColorFactor": [
          0.015167343925829217,
          0.015054612583420541,
          0.015054612583420541,
          1.0
        ],
        "metallicFactor": 0.0
      }
    },
    {
      "doubleSided": true,
      "emissiveFactor": [
        1.0,
        0.00475122,
        0.00425451
      ],
      "name": "redlight"
    },
    {
      "doubleSided": true,
      "name": "bankaret",
      "pbrMetallicRoughness": {
        "baseColorFactor": [
          0.00655454,
          0.00655454,
          0.00655454,
          1.0
        ],
        "metallicFactor": 0.0,
        "roughnessFactor": 0.536697
      }
    },
    {
      "doubleSided": true,
      "name": "velg",
      "pbrMetallicRoughness": {
        "baseColorFactor": [
          0.055790711926786696,
          0.0533736893942387,
          0.0533736893942387,
          1.0
        ]
      }
    }
  ],
  "meshes": [
    {
      "name": "Object_0",
      "primitives": [
        {
          "attributes": {
            "NORMAL": 1,
            "POSITION": 0,
            "TEXCOORD_0": 2
          },
          "indices": 3,
          "material": 1,
          "mode": 4
        }
      ]
    },
    {
      "name": "Object_1",
      "primitives": [
        {
          "attributes": {
            "NORMAL": 5,
            "POSITION": 4,
            "TEXCOORD_0": 6
          },
          "indices": 7,
          "material": 2,
          "mode": 4
        }
      ]
    },
    {
      "name": "Object_2",
      "primitives": [
        {
          "attributes": {
            "NORMAL": 9,
            "POSITION": 8,
            "TEXCOORD_0": 10
          },
          "indices": 11,
          "material": 3,
          "mode": 4
        }
      ]
    },
    {
      "name": "Object_3",
      "primitives": [
        {
          "attributes": {
            "NORMAL": 13,
            "POSITION": 12,
            "TEXCOORD_0": 14
          },
          "indices": 15,
          "material": 4,
          "mode": 4
        }
      ]
    },
    {
      "name": "Object_4",
      "primitives": [
        {
          "attributes": {
            "NORMAL": 17,
            "POSITION": 16,
            "TEXCOORD_0": 18
          },
          "indices": 19,
          "material": 5,
          "mode": 4
        }
      ]
    },
    {
      "name": "Object_5",
      "primitives": [
        {
          "attributes": {
            "NORMAL": 21,
            "POSITION": 20,
            "TEXCOORD_0": 22
          },
          "indices": 23,
          "material": 4,
          "mode": 4
        }
      ]
    },
    {
      "name": "Object_6",
      "primitives": [
        {
          "attributes": {
            "NORMAL": 25,
            "POSITION": 24,
            "TEXCOORD_0": 26
          },
          "indices": 27,
          "material": 5,
          "mode": 4
        }
      ]
    },
    {
      "name": "Object_7",
      "primitives": [
        {
          "attributes": {
            "NORMAL": 29,
            "POSITION": 28,
            "TEXCOORD_0": 30
          },
          "indices": 31,
          "material": 4,
          "mode": 4
        }
      ]
    },
    {
      "name": "Object_8",
      "primitives": [
        {
          "attributes": {
            "NORMAL": 33,
            "POSITION": 32,
            "TEXCOORD_0": 34
          },
          "indices": 35,
          "material": 5,
          "mode": 4
        }
      ]
    },
    {
      "name": "Object_9",
      "primitives": [
        {
          "attributes": {
            "NORMAL": 37,
            "POSITION": 36,
            "TEXCOORD_0": 38
          },
          "indices": 39,
          "material": 1,
          "mode": 4
        }
      ]
    },
    {
      "name": "Object_10",
      "primitives": [
        {
          "attributes": {
            "NORMAL": 41,
            "POSITION": 40,
            "TEXCOORD_0": 42
          },
          "indices": 43,
          "material": 6,
          "mode": 4
        }
      ]
    },
    {
      "name": "Object_11",
      "primitives": [
        {
          "attributes": {
            "NORMAL": 45,
            "POSITION": 44,
            "TEXCOORD_0": 46
          },
          "indices": 47,
          "material": 7,
          "mode": 4
        }
      ]
    },
    {
      "name": "Object_12",
      "primitives": [
        {
          "attributes": {
            "NORMAL": 49,
            "POSITION": 48,
            "TEXCOORD_0": 50
          },
          "indices": 51,
          "material": 6,
          "mode": 4
        }
      ]
    },
    {
      "name": "Object_13",
      "primitives": [
        {
          "attributes": {
            "NORMAL": 53,
            "POSITION": 52,
            "TEXCOORD_0": 54
          },
          "indices": 55,
          "material": 6,
          "mode": 4
        }
      ]
    },
    {
      "name": "Object_14",
      "primitives": [
        {
          "attributes": {
            "NORMAL": 57,
            "POSITION": 56,
            "TEXCOORD_0": 58
          },
          "indices": 59,
          "material": 3,
          "mode": 4
        }
      ]
    },
    {
      "name": "Object_15",
      "primitives": [
        {
          "attributes": {
            "NORMAL": 61,
            "POSITION": 60,
            "TEXCOORD_0": 62
          },
          "indices": 63,
          "material": 6,
          "mode": 4
        }
      ]
    },
    {
      "name": "Object_16",
      "primitives": [
        {
          "attributes": {
            "NORMAL": 65,
            "POSITION": 64,
            "TEXCOORD_0": 66
          },
          "indices": 67,
          "material": 0,
          "mode": 4
        }
      ]
    },
    {
      "name": "Object_17",
      "primitives": [
        {
          "attributes": {
            "NORMAL": 69,
            "POSITION": 68,
            "TEXCOORD_0": 70
          },
          "indices": 71,
          "material": 6,
          "mode": 4
        }
      ]
    },
    {
      "name": "Object_18",
      "primitives": [
        {
          "attributes": {
            "NORMAL": 73,
            "POSITION": 72,
            "TEXCOORD_0": 74
          },
          "indices": 75,
          "material": 6,
          "mode": 4
        }
      ]
    },
    {
      "name": "Object_19",
      "primitives": [
        {
          "attributes": {
            "NORMAL": 77,
            "POSITION": 76,
            "TEXCOORD_0": 78
          },
          "indices": 79,
          "material": 4,
          "mode": 4
        }
      ]
    },
    {
      "name": "Object_20",
      "primitives": [
        {
          "attributes": {
            "NORMAL": 81,
            "POSITION": 80,
            "TEXCOORD_0": 82
          },
          "indices": 83,
          "material": 8,
          "mode": 4
        }
      ]
    },
    {
      "name": "Object_21",
      "primitives": [
        {
          "attributes": {
            "NORMAL": 85,
            "POSITION": 84,
            "TEXCOORD_0": 86
          },
          "indices": 87,
          "material": 9,
          "mode": 4
        }
      ]
    },
    {
      "name": "Object_22",
      "primitives": [
        {
          "attributes": {
            "NORMAL": 89,
            "POSITION": 88,
            "TEXCOORD_0": 90
          },
          "indices": 91,
          "material": 8,
          "mode": 4
        }
      ]
    },
    {
      "name": "Object_23",
      "primitives": [
        {
          "attributes": {
            "NORMAL": 93,
            "POSITION": 92,
            "TEXCOORD_0": 94
          },
          "indices": 95,
          "material": 9,
          "mode": 4
        }
      ]
    },
    {
      "name": "Object_24",
      "primitives": [
        {
          "attributes": {
            "NORMAL": 97,
            "POSITION": 96,
            "TEXCOORD_0": 98
          },
          "indices": 99,
          "material": 8,
          "mode": 4
        }
      ]
    },
    {
      "name": "Object_25",
      "primitives": [
        {
          "attributes": {
            "NORMAL": 101,
            "POSITION": 100,
            "TEXCOORD_0": 102
          },
          "indices": 103,
          "material": 9,
          "mode": 4
        }
      ]
    },
    {
      "name": "Object_26",
      "primitives": [
        {
          "attributes": {
            "NORMAL": 105,
            "POSITION": 104,
            "TEXCOORD_0": 106
          },
          "indices": 107,
          "material": 8,
          "mode": 4
        }
      ]
    },
    {
      "name": "Object_27",
      "primitives": [
        {
          "attributes": {
            "NORMAL": 109,
            "POSITION": 108,
            "TEXCOORD_0": 110
          },
          "indices": 111,
          "material": 9,
          "mode": 4
        }
      ]
    },
    {
      "name": "Object_28",
      "primitives": [
        {
          "attributes": {
            "NORMAL": 113,
            "POSITION": 112,
            "TEXCOORD_0": 114
          },
          "indices": 115,
          "material": 0,
          "mode": 4
        }
      ]
    },
    {
      "name": "Object_29",
      "primitives": [
        {
          "attributes": {
            "NORMAL": 117,
            "POSITION": 116,
            "TEXCOORD_0": 118
          },
          "indices": 119,
          "material": 0,
          "mode": 4
        }
      ]
    },
    {
      "name": "Object_30",
      "primitives": [
        {
          "attributes": {
            "NORMAL": 121,
            "POSITION": 120,
            "TEXCOORD_0": 122
          },
          "indices": 123,
          "material": 0,
          "mode": 4
        }
      ]
    }
  ],
  "nodes": [
    {
      "children": [
        1
      ],
      "matrix": [
        1.0,
        0.0,
        0.0,
        0.0,
        0.0,
        2.220446049250313e-16,
        -1.0,
        0.0,
        0.0,
        1.0,
        2.220446049250313e-16,
        0.0,
        0.0,
        0.0,
        0.0,
        1.0
      ],
      "name": "Sketchfab_model"
    },
    {
      "children": [
        2
      ],
      "name": "root"
    },
    {
      "children": [
        3,
        9,
        12,
        15,
        20,
        22,
        24,
        27,
        29,
        31,
        33,
        35,
        38,
        41,
        44,
        47,
        49,
        51
      ],
      "matrix": [
        1.0,
        0.0,
        0.0,
        0.0,
        0.0,
        2.220446049250313e-16,
        1.0,
        0.0,
        0.0,
        -1.0,
        2.220446049250313e-16,
        0.0,
        0.0,
        0.0,
        0.0,
        1.0
      ],
      "name": "GLTF_SceneRootNode"
    },
    {
      "children": [
        4,
        5,
        6,
        7,
        8
      ],
      "matrix": [
        1.0,
        0.0,
        0.0,
        0.0,
        0.0,
        1.0,
        0.0,
        0.0,
        0.0,
        0.0,
        1.0,
        0.0,
        0.0,
        1.333183765411377,
        2.1137030124664307,
        1.0
      ],
      "name": "Body_0"
    },
    {
      "mesh": 0,
      "name": "Object_4"
    },
    {
      "mesh": 1,
      "name": "Object_5"
    },
    {
      "mesh": 2,
      "name": "Object_6"
    },
    {
      "mesh": 3,
      "name": "Object_7"
    },
    {
      "mesh": 4,
      "name": "Object_8"
    },
    {
      "children": [
        10,
        11
      ],
      "matrix": [
        1.0,
        0.0,
        0.0,
        0.0,
        0.0,
        1.0,
        0.0,
        0.0,
        0.0,
        0.0,
        1.0,
        0.0,
        0.0,
        1.333183765411377,
        2.1137030124664307,
        1.0
      ],
      "name": "Body.001_1"
    },
    {
      "mesh": 5,
      "name": "Object_10"
    },
    {
      "mesh": 6,
      "name": "Object_11"
    },
    {
      "children": [
        13,
        14
      ],
      "matrix": [
        1.0,
        0.0,
        0.0,
        0.0,
        0.0,
        1.0,
        0.0,
        0.0,
        0.0,
        0.0,
        1.0,
        0.0,
        0.0,
        1.333183765411377,
        2.1137030124664307,
        1.0
      ],
      "name": "Body.002_2"
    },
    {
      "mesh": 7,
      "name": "Object_13"
    },
    {
      "mesh": 8,
      "name": "Object_14"
    },
    {
      "children": [
        16
      ],
      "matrix": [
        0.10703789442777634,
        0.0,
        0.0,
        0.0,
        0.0,
        0.10703789442777634,
        0.0,
        0.0,
        0.0,
        0.0,
        0.10703789442777634,
        0.0,
        0.0,
        0.7543394565582275,
        -2.7438111305236816,
        1.0
      ],
      "name": "Empty_4"
    },
    {
      "children": [
        17,
        18,
        19
      ],
      "matrix": [
        9.342487335205078,
        0.0,
        0.0,
        0.0,
        0.0,
        9.342487335205078,
        0.0,
        0.0,
        0.0,
        0.0,
        9.342487335205078,
        0.0,
        0.0,
        5.407844543457031,
        45.38125991821289,
        1.0
      ],
      "name": "tailgate_3"
    },
    {
      "mesh": 9,
      "name": "Object_17"
    },
    {
      "mesh": 10,
      "name": "Object_18"
    },
    {
      "mesh": 11,
      "name": "Object_19"
    },
    {
      "children": [
        21
      ],
      "matrix": [
        1.0,
        0.0,
        0.0,
        0.0,
        0.0,
        1.0,
        0.0,
        0.0,
        0.0,
        0.0,
        1.0,
        0.0,
        0.0,
        1.333183765411377,
        2.1137030124664307,
        1.0
      ],
      "name": "Frontbumper_5"
    },
    {
      "mesh": 12,
      "name": "Object_21"
    },
    {
      "children": [
        23
      ],
      "matrix": [
        1.0,
        0.0,
        0.0,
        0.0,
        0.0,
        1.0,
        0.0,
        0.0,
        0.0,
        0.0,
        1.0,
        0.0,
        0.0,
        1.333183765411377,
        2.1137030124664307,
        1.0
      ],
      "name": "Frontfender_6"
    },
    {
      "mesh": 13,
      "name": "Object_23"
    },
    {
      "children": [
        25,
        26
      ],
      "matrix": [
        1.0,
        0.0,
        0.0,
        0.0,
        0.0,
        1.0,
        0.0,
        0.0,
        0.0,
        0.0,
        1.0,
        0.0,
        0.0,
        1.333183765411377,
        2.1137030124664307,
        1.0
      ],
      "name": "headlamp_7"
    },
    {
      "mesh": 14,
      "name": "Object_25"
    },
    {
      "mesh": 15,
      "name": "Object_26"
    },
    {
      "children": [
        28
      ],
      "matrix": [
        0.8951922059059143,
        0.0,
        0.0,
        0.0,
        0.0,
        0.3993380069732666,
        0.0,
        0.0,
        0.0,
        0.0,
        0.3993380069732666,
        0.0,
        0.0,
        1.3201416730880737,
        1.5847761631011963,
        1.0
      ],
      "name": "Plane_8"
    },
    {
      "mesh": 16,
      "name": "Object_28"
    },
    {
      "children": [
        30
      ],
      "matrix": [
        1.0,
        0.0,
        0.0,
        0.0,
        0.0,
        1.0,
        0.0,
        0.0,
        0.0,
        0.0,
        1.0,
        0.0,
        0.0,
        1.333183765411377,
        2.1137030124664307,
        1.0
      ],
      "name": "Rearbumper_9"
    },
    {
      "mesh": 17,
      "name": "Object_30"
    },
    {
      "children": [
        32
      ],
      "matrix": [
        1.0,
        0.0,
        0.0,
        0.0,
        0.0,
        1.0,
        0.0,
        0.0,
        0.0,
        0.0,
        1.0,
        0.0,
        0.0,
        1.333183765411377,
        2.1137030124664307,
        1.0
      ],
      "name": "Rearfender_10"
    },
    {
      "mesh": 18,
      "name": "Object_32"
    },
    {
      "children": [
        34
      ],
      "name": "gordyn_12",
      "scale": [
        1.0,
        1.0,
        0.6388872861862183
      ],
      "translation": [
        0.8021032810211182,
        1.3599419593811035,
        -2.69619083404541
      ]
    },
    {
      "mesh": 19,
      "name": "Object_34"
    },
    {
      "children": [
        36,
        37
      ],
      "matrix": [
        6.451457615769997e-09,
        -0.07653547078371022,
        0.0,
        0.0,
        0.07653547078371022,
        6.451457615769997e-09,
        0.0,
        0.0,
        0.0,
        0.0,
        0.07653547078371048,
        0.0,
        1.0137336254119873,
        0.45204755663871765,
        1.9825761318206787,
        1.0
      ],
      "name": "Circle_13"
    },
    {
      "mesh": 20,
      "name": "Object_36"
    },
    {
      "mesh": 21,
      "name": "Object_37"
    },
    {
      "children": [
        39,
        40
      ],
      "matrix": [
        6.451457615769997e-09,
        -0.07653547078371022,
        -0.0,
        0.0,
        0.07653547078371022,
        6.451457615769997e-09,
        0.0,
        0.0,
        0.0,
        0.0,
        0.07653547078371048,
        0.0,
        1.0137336254119873,
        0.45204755663871765,
        -1.7597177028656006,
        1.0
      ],
      "name": "Circle.001_14"
    },
    {
      "mesh": 22,
      "name": "Object_39"
    },
    {
      "mesh": 23,
      "name": "Object_40"
    },
    {
      "children": [
        42,
        43
      ],
      "matrix": [
        6.451458635427299e-09,
        -0.0765354707837092,
        1.2469210233388323e-08,
        0.0,
        -0.0765354707837092,
        -6.451456604609839e-09,
        1.2469211284464172e-08,
        0.0,
        -1.2469210233388323e-08,
        -1.2469211284464172e-08,
        -0.07653547078370844,
        0.0,
        -0.9882761836051941,
        0.45204755663871765,
        1.9825761318206787,
        1.0
      ],
      "name": "Circle.002_15"
    },
    {
      "mesh": 24,
      "name": "Object_42"
    },
    {
      "mesh": 25,
      "name": "Object_43"
    },
    {
      "children": [
        45,
        46
      ],
      "matrix": [
        6.451458635427299e-09,
        -0.0765354707837092,
        1.2469210233388323e-08,
        0.0,
        -0.0765354707837092,
        -6.451456604609839e-09,
        1.2469211284464172e-08,
        0.0,
        -1.2469210233388323e-08,
        -1.2469211284464172e-08,
        -0.07653547078370844,
        0.0,
        -0.9882761836051941,
        0.45204755663871765,
        -1.7597177028656006,
        1.0
      ],
      "name": "Circle.003_16"
    },
    {
      "mesh": 26,
      "name": "Object_45"
    },
    {
      "mesh": 27,
      "name": "Object_46"
    },
    {
      "children": [
        48
      ],
      "matrix": [
        -1.3923311392716187e-09,
        1.3923311807663202e-09,
        -0.046718880534172016,
        0.0,
        0.046718880534172016,
        -1.3923311392716187e-09,
        -1.3923311807663202e-09,
        0.0,
        -1.3923311807663202e-09,
        -0.046718880534172016,
        -1.3923311392716187e-09,
        0.0,
        -0.9611563086509705,
        0.44764986634254456,
        1.98543381690979,
        1.0
      ],
      "name": "Circle.004_17"
    },
    {
      "mesh": 28,
      "name": "Object_48"
    },
    {
      "children": [
        50
      ],
      "matrix": [
        -1.3923311392716187e-09,
        1.3923311807663202e-09,
        -0.046718880534172016,
        0.0,
        0.046718880534172016,
        -1.3923311392716187e-09,
        -1.3923311807663202e-09,
        0.0,
        -1.3923311807663202e-09,
        -0.046718880534172016,
        -1.3923311392716187e-09,
        0.0,
        -0.9611563086509705,
        0.44764986634254456,
        -1.7722885608673096,
        1.0
      ],
      "name": "Circle.005_18"
    },
    {
      "mesh": 29,
      "name": "Object_50"
    },
    {
      "children": [
        52
      ],
      "matrix": [
        0.24450886249542236,
        0.0,
        0.0,
        0.0,
        0.0,
        0.0,
        0.24450886249542236,
        0.0,
        0.0,
        -0.24450886249542236,
        0.0,
        0.0,
        -0.6255679726600647,
        1.0845022201538086,
        0.0,
        1.0
      ],
      "name": "Text.001_21"
    },
    {
      "mesh": 30,
      "name": "Object_52"
    }
  ],
  "scene": 0,
  "scenes": [
    {
      "name": "Sketchfab_Scene",
      "nodes": [
        0
      ]
    }
  ]
}
