{
  "accessors": [
    {
      "bufferView": 1,
      "componentType": 5126,
      "count": 65532,
      "max": [
        28.178699493408203,
        12.964338302612305,
        28.996906280517578
      ],
      "min": [
        -18.39269256591797,
        -33.49443817138672,
        0.0
      ],
      "type": "VEC3"
    },
    {
      "bufferView": 1,
      "byteOffset": 786384,
      "componentType": 5126,
      "count": 65532,
      "max": [
        0.9999971985816956,
        0.9999629855155945,
        1.0
      ],
      "min": [
        -0.9999904036521912,
        -0.9999760389328003,
        -1.0
      ],
      "type": "VEC3"
    },
    {
      "bufferView": 0,
      "componentType": 5125,
      "count": 343536,
      "type": "SCALAR"
    },
    {
      "bufferView": 1,
      "byteOffset": 1572768,
      "componentType": 5126,
      "count": 65532,
      "max": [
        27.017486572265625,
        7.104030609130859,
        9.982427597045898
      ],
      "min": [
        -18.390953063964844,
        -33.60664367675781,
        0.0001220703125
      ],
      "type": "VEC3"
    },
    {
      "bufferView": 1,
      "byteOffset": 2359152,
      "componentType": 5126,
      "count": 65532,
      "max": [
        0.9997475743293762,
        0.9997809529304504,
        1.0
      ],
      "min": [
        -0.9999417662620544,
        -0.9999952912330627,
        -1.0
      ],
      "type": "VEC3"
    },
    {
      "bufferView": 0,
      "byteOffset": 1374144,
      "componentType": 5125,
      "count": 337605,
      "type": "SCALAR"
    },
    {
      "bufferView": 1,
      "byteOffset": 3145536,
      "componentType": 5126,
      "count": 65532,
      "max": [
        28.142013549804688,
        12.964338302612305,
        72.3264389038086
      ],
      "min": [
        -18.868701934814453,
        -39.41674041748047,
        0.000583648681640625
      ],
      "type": "VEC3"
    },
    {
      "bufferView": 1,
      "byteOffset": 3931920,
      "componentType": 5126,
      "count": 65532,
      "max": [
        0.9999759793281555,
        0.999993085861206,
        0.9999995827674866
      ],
      "min": [
        -0.9999861121177673,
        -0.9998319745063782,
        -1.0
      ],
      "type": "VEC3"
    },
    {
      "bufferView": 0,
      "byteOffset": 2724564,
      "componentType": 5125,
      "count": 305865,
      "type": "SCALAR"
    },
    {
      "bufferView": 1,
      "byteOffset": 4718304,
      "componentType": 5126,
      "count": 65532,
      "max": [
        12.328242301940918,
        -0.21401023864746094,
        74.5279769897461
      ],
      "min": [
        -18.868701934814453,
        -39.41674041748047,
        30.0399112701416
      ],
      "type": "VEC3"
    },
    {
      "bufferView": 1,
      "byteOffset": 5504688,
      "componentType": 5126,
      "count": 65532,
      "max": [
        0.9999985098838806,
        0.9999918341636658,
        0.9999892711639404
      ],
      "min": [
        -0.9999967813491821,
        -0.999939501285553,
        -0.9999696016311646
      ],
      "type": "VEC3"
    },
    {
      "bufferView": 0,
      "byteOffset": 3948024,
      "componentType": 5125,
      "count": 348060,
      "type": "SCALAR"
    },
    {
      "bufferView": 1,
      "byteOffset": 6291072,
      "componentType": 5126,
      "count": 65532,
      "max": [
        17.924598693847656,
        0.39273643493652344,
        74.47073364257813
      ],
      "min": [
        -6.182534217834473,
        -34.12785339355469,
        22.194076538085938
      ],
      "type": "VEC3"
    },
    {
      "bufferView": 1,
      "byteOffset": 7077456,
      "componentType": 5126,
      "count": 65532,
      "max": [
        0.9999926686286926,
        0.999755322933197,
        0.9999585151672363
      ],
      "min": [
        -0.9999980926513672,
        -0.9999766945838928,
        -0.9999893307685852
      ],
      "type": "VEC3"
    },
    {
      "bufferView": 0,
      "byteOffset": 5340264,
      "componentType": 5125,
      "count": 329472,
      "type": "SCALAR"
    },
    {
      "bufferView": 1,
      "byteOffset": 7863840,
      "componentType": 5126,
      "count": 65532,
      "max": [
        17.361324310302734,
        8.773927688598633,
        66.10002899169922
      ],
      "min": [
        -9.344958305358887,
        -37.53825378417969,
        7.632240295410156
      ],
      "type": "VEC3"
    },
    {
      "bufferView": 1,
      "byteOffset": 8650224,
      "componentType": 5126,
      "count": 65532,
      "max": [
        0.9999489188194275,
        0.9999963045120239,
        0.9999915957450867
      ],
      "min": [
        -0.9999989867210388,
        -0.9999925494194031,
        -0.9999138116836548
      ],
      "type": "VEC3"
    },
    {
      "bufferView": 0,
      "byteOffset": 6658152,
      "componentType": 5125,
      "count": 331557,
      "type": "SCALAR"
    },
    {
      "bufferView": 1,
      "byteOffset": 9436608,
      "componentType": 5126,
      "count": 65532,
      "max": [
        20.470722198486328,
        0.5704517364501953,
        73.1202392578125
      ],
      "min": [
        2.3447258472442627,
        -32.143821716308594,
        13.993785858154297
      ],
      "type": "VEC3"
    },
    {
      "bufferView": 1,
      "byteOffset": 10222992,
      "componentType": 5126,
      "count": 65532,
      "max": [
        0.9999924898147583,
        0.9999295473098755,
        0.9998958706855774
      ],
      "min": [
        -0.9996603727340698,
        -0.9995694756507874,
        -0.9997506141662598
      ],
      "type": "VEC3"
    },
    {
      "bufferView": 0,
      "byteOffset": 7984380,
      "componentType": 5125,
      "count": 339087,
      "type": "SCALAR"
    },
    {
      "bufferView": 1,
      "byteOffset": 11009376,
      "componentType": 5126,
      "count": 65533,
      "max": [
        29.378704071044922,
        10.083456039428711,
        74.40219116210938
      ],
      "min": [
        -18.784160614013672,
        -39.34333419799805,
        7.548952102661133
      ],
      "type": "VEC3"
    },
    {
      "bufferView": 1,
      "byteOffset": 11795772,
      "componentType": 5126,
      "count": 65533,
      "max": [
        0.9999784231185913,
        0.9999980330467224,
        0.999972939491272
      ],
      "min": [
        -0.9999892711639404,
        -0.9999925494194031,
        -0.999990701675415
      ],
      "type": "VEC3"
    },
    {
      "bufferView": 0,
      "byteOffset": 9340728,
      "componentType": 5125,
      "count": 313428,
      "type": "SCALAR"
    },
    {
      "bufferView": 1,
      "byteOffset": 12582168,
      "componentType": 5126,
      "count": 16611,
      "max": [
        29.088180541992188,
        10.048456192016602,
        73.1202392578125
      ],
      "min": [
        -16.63705825805664,
        -38.932106018066406,
        7.548366546630859
      ],
      "type": "VEC3"
    },
    {
      "bufferView": 1,
      "byteOffset": 12781500,
      "componentType": 5126,
      "count": 16611,
      "max": [
        0.9999750852584839,
        0.9999215006828308,
        0.9998301267623901
      ],
      "min": [
        -0.9997166991233826,
        -0.9999760389328003,
        -0.9998859167098999
      ],
      "type": "VEC3"
    },
    {
      "bufferView": 0,
      "byteOffset": 10594440,
      "componentType": 5125,
      "count": 20454,
      "type": "SCALAR"
    }
  ],
  "asset": {
    "extras": {
      "author": "TheSurrealFactory (https://sketchfab.com/TheSurrealFactory)",
      "license": "CC-BY-4.0 (http://creativecommons.org/licenses/by/4.0/)",
      "source": "https://sketchfab.com/3d-models/cthulhu-free-3d-printable-miniature-f91243fac5ac48578844dd3b588bd434",
      "title": "Cthulhu Free 3D Printable Miniature"
    },
    "generator": "Sketchfab-14.38.0",
    "version": "2.0"
  },
  "bufferViews": [
    {
      "buffer": 0,
      "byteLength": 10676256,
      "name": "floatBufferViews",
      "target": 34963
    },
    {
      "buffer": 0,
      "byteLength": 12980832,
      "byteOffset": 10676256,
      "byteStride": 12,
      "name": "floatBufferViews",
      "target": 34962
    }
  ],
  "buffers": [
    {
      "byteLength": 23657088,
      "uri": "scene.bin"
    }
  ],
  "materials": [
    {
      "name": "Scene_-_Root",
      "pbrMetallicRoughness": {
        "metallicFactor": 0.0,
        "roughnessFactor": 0.6
      }
    }
  ],
  "meshes": [
    {
      "name": "Object_0",
      "primitives": [
        {
          "attributes": {
            "NORMAL": 1,
            "POSITION": 0
          },
          "indices": 2,
          "material": 0,
          "mode": 4
        }
      ]
    },
    {
      "name": "Object_1",
      "primitives": [
        {
          "attributes": {
            "NORMAL": 4,
            "POSITION": 3
          },
          "indices": 5,
          "material": 0,
          "mode": 4
        }
      ]
    },
    {
      "name": "Object_2",
      "primitives": [
        {
          "attributes": {
            "NORMAL": 7,
            "POSITION": 6
          },
          "indices": 8,
          "material": 0,
          "mode": 4
        }
      ]
    },
    {
      "name": "Object_3",
      "primitives": [
        {
          "attributes": {
            "NORMAL": 10,
            "POSITION": 9
          },
          "indices": 11,
          "material": 0,
          "mode": 4
        }
      ]
    },
    {
      "name": "Object_4",
      "primitives": [
        {
          "attributes": {
            "NORMAL": 13,
            "POSITION": 12
          },
          "indices": 14,
          "material": 0,
          "mode": 4
        }
      ]
    },
    {
      "name": "Object_5",
      "primitives": [
        {
          "attributes": {
            "NORMAL": 16,
            "POSITION": 15
          },
          "indices": 17,
          "material": 0,
          "mode": 4
        }
      ]
    },
    {
      "name": "Object_6",
      "primitives": [
        {
          "attributes": {
            "NORMAL": 19,
            "POSITION": 18
          },
          "indices": 20,
          "material": 0,
          "mode": 4
        }
      ]
    },
    {
      "name": "Object_7",
      "primitives": [
        {
          "attributes": {
            "NORMAL": 22,
            "POSITION": 21
          },
          "indices": 23,
          "material": 0,
          "mode": 4
        }
      ]
    },
    {
      "name": "Object_8",
      "primitives": [
        {
          "attributes": {
            "NORMAL": 25,
            "POSITION": 24
          },
          "indices": 26,
          "material": 0,
          "mode": 4
        }
      ]
    }
  ],
  "nodes": [
    {
      "children": [
        1
      ],
      "matrix": [
        1.0,
        0.0,
        0.0,
        0.0,
        0.0,
        2.220446049250313e-16,
        -1.0,
        0.0,
        0.0,
        1.0,
        2.220446049250313e-16,
        0.0,
        0.0,
        0.0,
        0.0,
        1.0
      ],
      "name": "Sketchfab_model"
    },
    {
      "children": [
        2,
        3,
        4,
        5,
        6,
        7,
        8,
        9,
        10
      ],
      "name": "great old one standing.merged.stl.cleaner.materialmerger.gles"
    },
    {
      "mesh": 0,
      "name": "Object_2"
    },
    {
      "mesh": 1,
      "name": "Object_3"
    },
    {
      "mesh": 2,
      "name": "Object_4"
    },
    {
      "mesh": 3,
      "name": "Object_5"
    },
    {
      "mesh": 4,
      "name": "Object_6"
    },
    {
      "mesh": 5,
      "name": "Object_7"
    },
    {
      "mesh": 6,
      "name": "Object_8"
    },
    {
      "mesh": 7,
      "name": "Object_9"
    },
    {
      "mesh": 8,
      "name": "Object_10"
    }
  ],
  "scene": 0,
  "scenes": [
    {
      "name": "Sketchfab_Scene",
      "nodes": [
        0
      ]
    }
  ]
}
