{
  "accessors": [
    {
      "bufferView": 3,
      "componentType": 5126,
      "count": 11238,
      "max": [
        2.6975901126861572,
        4.220708847045898,
        0.6276400089263916
      ],
      "min": [
        -2.6975901126861572,
        -0.012420999817550182,
        -1.7754600048065186
      ],
      "type": "VEC3"
    },
    {
      "bufferView": 3,
      "byteOffset": 134856,
      "componentType": 5126,
      "count": 11238,
      "max": [
        1.0,
        1.0,
        1.0
      ],
      "min": [
        -1.0,
        -1.0,
        -1.0
      ],
      "type": "VEC3"
    },
    {
      "bufferView": 4,
      "componentType": 5126,
      "count": 11238,
      "max": [
        1.0,
        0.9999933242797852,
        0.9999700784683228,
        1.0
      ],
      "min": [
        -1.0,
        -0.9999831914901733,
        -0.9999998211860657,
        -1.0
      ],
      "type": "VEC4"
    },
    {
      "bufferView": 2,
      "componentType": 5126,
      "count": 11238,
      "max": [
        0.995169997215271,
        0.9808719754219055
      ],
      "min": [
        0.009759999811649323,
        0.00976600032299757
      ],
      "type": "VEC2"
    },
    {
      "bufferView": 1,
      "componentType": 5125,
      "count": 47934,
      "type": "SCALAR"
    },
    {
      "bufferView": 5,
      "componentType": 5126,
      "count": 50,
      "max": [
        1.0,
        0.999856173992157,
        0.29914042353630066,
        0.0,
        0.13205353915691376,
        1.0,
        0.9982610940933228,
        0.0,
        0.9999761581420898,
        0.9927947521209717,
        1.0,
        0.0,
        1.669993281364441,
        1.472015142440796,
        3.1730053424835205,
        1.0
      ],
      "min": [
        -0.9996639490127563,
        -0.9996979832649231,
        -0.2991766035556793,
        0.0,
        -0.13204605877399445,
        -0.9912165403366089,
        -0.9990291595458984,
        0.0,
        -0.999987006187439,
        -0.16744427382946014,
        -0.2795693576335907,
        0.0,
        -1.6425423622131348,
        -3.3207569122314453,
        -0.11964750289916992,
        1.0
      ],
      "type": "MAT4"
    },
    {
      "bufferView": 0,
      "componentType": 5123,
      "count": 11238,
      "type": "VEC4"
    },
    {
      "bufferView": 4,
      "byteOffset": 179808,
      "componentType": 5126,
      "count": 11238,
      "max": [
        1.0,
        0.499043345451355,
        0.32894474267959595,
        0.13451923429965973
      ],
      "min": [
        0.3332665264606476,
        0.0,
        0.0,
        0.0
      ],
      "type": "VEC4"
    },
    {
      "bufferView": 6,
      "componentType": 5126,
      "count": 60,
      "max": [
        1.0166666507720947
      ],
      "min": [
        0.0
      ],
      "type": "SCALAR"
    },
    {
      "bufferView": 7,
      "componentType": 5126,
      "count": 60,
      "max": [
        1.3877787807814457e-17,
        0.3403451442718506,
        0.030964992940425873
      ],
      "min": [
        -2.7755575615628914e-17,
        0.3403451442718506,
        0.030964992940425873
      ],
      "type": "VEC3"
    },
    {
      "bufferView": 6,
      "byteOffset": 240,
      "componentType": 5126,
      "count": 62,
      "max": [
        1.0166666507720947
      ],
      "min": [
        0.0
      ],
      "type": "SCALAR"
    },
    {
      "bufferView": 8,
      "componentType": 5126,
      "count": 62,
      "max": [
        0.026389071717858315,
        0.007940679788589478,
        0.03747273236513138,
        0.9997985363006592
      ],
      "min": [
        -0.005271703936159611,
        -0.026805317029356956,
        -0.006915018428117037,
        0.9992361664772034
      ],
      "type": "VEC4"
    },
    {
      "bufferView": 6,
      "byteOffset": 488,
      "componentType": 5126,
      "count": 61,
      "max": [
        1.0166666507720947
      ],
      "min": [
        0.0
      ],
      "type": "SCALAR"
    },
    {
      "bufferView": 7,
      "byteOffset": 720,
      "componentType": 5126,
      "count": 61,
      "max": [
        2.7755575615628914e-17,
        0.39622318744659424,
        -5.830143035012725e-09
      ],
      "min": [
        -2.7755575615628914e-17,
        0.39622318744659424,
        -5.830143035012725e-09
      ],
      "type": "VEC3"
    },
    {
      "bufferView": 6,
      "byteOffset": 732,
      "componentType": 5126,
      "count": 62,
      "max": [
        1.0166666507720947
      ],
      "min": [
        0.0
      ],
      "type": "SCALAR"
    },
    {
      "bufferView": 8,
      "byteOffset": 992,
      "componentType": 5126,
      "count": 62,
      "max": [
        0.03182515129446983,
        0.011725985445082188,
        0.04411478713154793,
        0.9999759793281555
      ],
      "min": [
        -0.016677189618349075,
        -0.019201794639229774,
        -0.027583511546254158,
        0.9987592697143555
      ],
      "type": "VEC4"
    },
    {
      "bufferView": 6,
      "byteOffset": 980,
      "componentType": 5126,
      "count": 1,
      "max": [
        0.0
      ],
      "min": [
        0.0
      ],
      "type": "SCALAR"
    },
    {
      "bufferView": 7,
      "byteOffset": 1452,
      "componentType": 5126,
      "count": 1,
      "max": [
        -0.026663988828659058,
        0.11001665145158768,
        4.440892098500626e-16
      ],
      "min": [
        -0.026663988828659058,
        0.11001665145158768,
        4.440892098500626e-16
      ],
      "type": "VEC3"
    },
    {
      "bufferView": 6,
      "byteOffset": 984,
      "componentType": 5126,
      "count": 1,
      "max": [
        0.0
      ],
      "min": [
        0.0
      ],
      "type": "SCALAR"
    },
    {
      "bufferView": 8,
      "byteOffset": 1984,
      "componentType": 5126,
      "count": 1,
      "max": [
        -0.0026381174102425575,
        0.01711469702422619,
        0.08504678308963776,
        0.9962264895439148
      ],
      "min": [
        -0.0026381174102425575,
        0.01711469702422619,
        0.08504678308963776,
        0.9962264895439148
      ],
      "type": "VEC4"
    },
    {
      "bufferView": 6,
      "byteOffset": 988,
      "componentType": 5126,
      "count": 1,
      "max": [
        0.0
      ],
      "min": [
        0.0
      ],
      "type": "SCALAR"
    },
    {
      "bufferView": 8,
      "byteOffset": 2000,
      "componentType": 5126,
      "count": 1,
      "max": [
        0.0007072402513585985,
        -0.00036609647213481367,
        -0.300714373588562,
        0.9537138938903809
      ],
      "min": [
        0.0007072402513585985,
        -0.00036609647213481367,
        -0.300714373588562,
        0.9537138938903809
      ],
      "type": "VEC4"
    },
    {
      "bufferView": 6,
      "byteOffset": 992,
      "componentType": 5126,
      "count": 1,
      "max": [
        0.0
      ],
      "min": [
        0.0
      ],
      "type": "SCALAR"
    },
    {
      "bufferView": 8,
      "byteOffset": 2016,
      "componentType": 5126,
      "count": 1,
      "max": [
        0.2716688811779022,
        -0.019326452165842056,
        0.2394719123840332,
        0.9319204688072205
      ],
      "min": [
        0.2716688811779022,
        -0.019326452165842056,
        0.2394719123840332,
        0.9319204688072205
      ],
      "type": "VEC4"
    },
    {
      "bufferView": 6,
      "byteOffset": 996,
      "componentType": 5126,
      "count": 1,
      "max": [
        0.0
      ],
      "min": [
        0.0
      ],
      "type": "SCALAR"
    },
    {
      "bufferView": 7,
      "byteOffset": 1464,
      "componentType": 5126,
      "count": 1,
      "max": [
        0.00023757926828693599,
        0.13758617639541626,
        1.1102230246251565e-16
      ],
      "min": [
        0.00023757926828693599,
        0.13758617639541626,
        1.1102230246251565e-16
      ],
      "type": "VEC3"
    },
    {
      "bufferView": 6,
      "byteOffset": 1000,
      "componentType": 5126,
      "count": 1,
      "max": [
        0.0
      ],
      "min": [
        0.0
      ],
      "type": "SCALAR"
    },
    {
      "bufferView": 8,
      "byteOffset": 2032,
      "componentType": 5126,
      "count": 1,
      "max": [
        3.1246059961631545e-07,
        2.5714134608278982e-05,
        -0.0017661834135651588,
        0.9999984502792358
      ],
      "min": [
        3.1246059961631545e-07,
        2.5714134608278982e-05,
        -0.0017661834135651588,
        0.9999984502792358
      ],
      "type": "VEC4"
    },
    {
      "bufferView": 6,
      "byteOffset": 1004,
      "componentType": 5126,
      "count": 57,
      "max": [
        1.0166666507720947
      ],
      "min": [
        0.0
      ],
      "type": "SCALAR"
    },
    {
      "bufferView": 7,
      "byteOffset": 1476,
      "componentType": 5126,
      "count": 57,
      "max": [
        -7.756560808047652e-05,
        0.14657723903656006,
        4.440892098500626e-16
      ],
      "min": [
        -7.756560808047652e-05,
        0.14657723903656006,
        -4.440892098500626e-16
      ],
      "type": "VEC3"
    },
    {
      "bufferView": 6,
      "byteOffset": 1232,
      "componentType": 5126,
      "count": 62,
      "max": [
        1.0166666507720947
      ],
      "min": [
        0.0
      ],
      "type": "SCALAR"
    },
    {
      "bufferView": 8,
      "byteOffset": 2048,
      "componentType": 5126,
      "count": 62,
      "max": [
        0.6548296809196472,
        -0.009670330211520195,
        0.06764049082994461,
        0.8630093336105347
      ],
      "min": [
        0.503058671951294,
        -0.013790200464427471,
        0.045314185321331024,
        0.7526172399520874
      ],
      "type": "VEC4"
    },
    {
      "bufferView": 6,
      "byteOffset": 1480,
      "componentType": 5126,
      "count": 62,
      "max": [
        1.0166666507720947
      ],
      "min": [
        0.0
      ],
      "type": "SCALAR"
    },
    {
      "bufferView": 8,
      "byteOffset": 3040,
      "componentType": 5126,
      "count": 62,
      "max": [
        0.36601021885871887,
        -0.01139652356505394,
        -0.02284231409430504,
        0.9590984582901001
      ],
      "min": [
        0.2805043160915375,
        -0.025550778955221176,
        -0.04098975658416748,
        0.9293565154075623
      ],
      "type": "VEC4"
    },
    {
      "bufferView": 6,
      "byteOffset": 1728,
      "componentType": 5126,
      "count": 1,
      "max": [
        0.0
      ],
      "min": [
        0.0
      ],
      "type": "SCALAR"
    },
    {
      "bufferView": 7,
      "byteOffset": 2160,
      "componentType": 5126,
      "count": 1,
      "max": [
        0.0013058774638921022,
        0.1381751298904419,
        0.0
      ],
      "min": [
        0.0013058774638921022,
        0.1381751298904419,
        0.0
      ],
      "type": "VEC3"
    },
    {
      "bufferView": 6,
      "byteOffset": 1732,
      "componentType": 5126,
      "count": 1,
      "max": [
        0.0
      ],
      "min": [
        0.0
      ],
      "type": "SCALAR"
    },
    {
      "bufferView": 8,
      "byteOffset": 4032,
      "componentType": 5126,
      "count": 1,
      "max": [
        3.793186635903112e-07,
        -0.0001203611827804707,
        -0.008617974817752838,
        0.9999628663063049
      ],
      "min": [
        3.793186635903112e-07,
        -0.0001203611827804707,
        -0.008617974817752838,
        0.9999628663063049
      ],
      "type": "VEC4"
    },
    {
      "bufferView": 6,
      "byteOffset": 1736,
      "componentType": 5126,
      "count": 58,
      "max": [
        1.0166666507720947
      ],
      "min": [
        0.0
      ],
      "type": "SCALAR"
    },
    {
      "bufferView": 7,
      "byteOffset": 2172,
      "componentType": 5126,
      "count": 58,
      "max": [
        -0.0005782860680483282,
        0.14402641355991364,
        0.0
      ],
      "min": [
        -0.0005782860680483282,
        0.14402641355991364,
        -5.551115123125783e-16
      ],
      "type": "VEC3"
    },
    {
      "bufferView": 6,
      "byteOffset": 1968,
      "componentType": 5126,
      "count": 62,
      "max": [
        1.0166666507720947
      ],
      "min": [
        0.0
      ],
      "type": "SCALAR"
    },
    {
      "bufferView": 8,
      "byteOffset": 4048,
      "componentType": 5126,
      "count": 62,
      "max": [
        0.7766766548156738,
        -0.0061239758506417274,
        0.08393821865320206,
        0.760107696056366
      ],
      "min": [
        0.6460050940513611,
        -0.00740599911659956,
        0.06982945650815964,
        0.6242382526397705
      ],
      "type": "VEC4"
    },
    {
      "bufferView": 6,
      "byteOffset": 2216,
      "componentType": 5126,
      "count": 62,
      "max": [
        1.0166666507720947
      ],
      "min": [
        0.0
      ],
      "type": "SCALAR"
    },
    {
      "bufferView": 8,
      "byteOffset": 5040,
      "componentType": 5126,
      "count": 62,
      "max": [
        0.5177913904190063,
        -0.06269203126430511,
        0.015567896887660027,
        0.8955725431442261
      ],
      "min": [
        0.4400274455547333,
        -0.07618352025747299,
        0.0011301812482997775,
        0.8520998358726501
      ],
      "type": "VEC4"
    },
    {
      "bufferView": 6,
      "byteOffset": 2464,
      "componentType": 5126,
      "count": 62,
      "max": [
        1.0166666507720947
      ],
      "min": [
        0.0
      ],
      "type": "SCALAR"
    },
    {
      "bufferView": 7,
      "byteOffset": 2868,
      "componentType": 5126,
      "count": 62,
      "max": [
        4.440892098500626e-16,
        0.7916116714477539,
        6.661338147750939e-16
      ],
      "min": [
        -2.220446049250313e-16,
        0.7916116714477539,
        2.220446049250313e-16
      ],
      "type": "VEC3"
    },
    {
      "bufferView": 6,
      "byteOffset": 2712,
      "componentType": 5126,
      "count": 62,
      "max": [
        1.0166666507720947
      ],
      "min": [
        0.0
      ],
      "type": "SCALAR"
    },
    {
      "bufferView": 8,
      "byteOffset": 6032,
      "componentType": 5126,
      "count": 62,
      "max": [
        0.041298605501651764,
        0.21961171925067902,
        0.21366895735263824,
        0.9927868843078613
      ],
      "min": [
        -0.14455042779445648,
        0.08974429965019226,
        -0.030368641018867493,
        0.9539050459861755
      ],
      "type": "VEC4"
    },
    {
      "bufferView": 6,
      "byteOffset": 2960,
      "componentType": 5126,
      "count": 61,
      "max": [
        1.0166666507720947
      ],
      "min": [
        0.0
      ],
      "type": "SCALAR"
    },
    {
      "bufferView": 7,
      "byteOffset": 3612,
      "componentType": 5126,
      "count": 61,
      "max": [
        2.220446049250313e-16,
        0.5701979994773865,
        4.440892098500626e-16
      ],
      "min": [
        -1.1102230246251565e-16,
        0.5701979994773865,
        -4.440892098500626e-16
      ],
      "type": "VEC3"
    },
    {
      "bufferView": 6,
      "byteOffset": 3204,
      "componentType": 5126,
      "count": 62,
      "max": [
        1.0166666507720947
      ],
      "min": [
        0.0
      ],
      "type": "SCALAR"
    },
    {
      "bufferView": 8,
      "byteOffset": 7024,
      "componentType": 5126,
      "count": 62,
      "max": [
        0.09529703855514526,
        0.1854483038187027,
        0.4860250949859619,
        0.9606767892837524
      ],
      "min": [
        0.034112557768821716,
        0.11066070944070816,
        0.20698603987693787,
        0.865333616733551
      ],
      "type": "VEC4"
    },
    {
      "bufferView": 6,
      "byteOffset": 3452,
      "componentType": 5126,
      "count": 61,
      "max": [
        1.0166666507720947
      ],
      "min": [
        0.0
      ],
      "type": "SCALAR"
    },
    {
      "bufferView": 7,
      "byteOffset": 4344,
      "componentType": 5126,
      "count": 61,
      "max": [
        5.551115123125783e-17,
        0.3611511290073395,
        8.881784197001252e-16
      ],
      "min": [
        -5.551115123125783e-17,
        0.3611511290073395,
        -4.440892098500626e-16
      ],
      "type": "VEC3"
    },
    {
      "bufferView": 6,
      "byteOffset": 3696,
      "componentType": 5126,
      "count": 62,
      "max": [
        1.0166666507720947
      ],
      "min": [
        0.0
      ],
      "type": "SCALAR"
    },
    {
      "bufferView": 8,
      "byteOffset": 8016,
      "componentType": 5126,
      "count": 62,
      "max": [
        0.3716423213481903,
        -0.029524417594075203,
        0.0528181754052639,
        0.9700451493263245
      ],
      "min": [
        0.2329602986574173,
        -0.07555539906024933,
        -0.2739332914352417,
        0.8933605551719666
      ],
      "type": "VEC4"
    },
    {
      "bufferView": 6,
      "byteOffset": 3944,
      "componentType": 5126,
      "count": 62,
      "max": [
        1.0166666507720947
      ],
      "min": [
        0.0
      ],
      "type": "SCALAR"
    },
    {
      "bufferView": 8,
      "byteOffset": 9008,
      "componentType": 5126,
      "count": 62,
      "max": [
        0.7144448161125183,
        0.3179847300052643,
        -0.5162666440010071,
        0.38732990622520447
      ],
      "min": [
        0.6782243847846985,
        0.2722926437854767,
        -0.5484389662742615,
        0.3649887442588806
      ],
      "type": "VEC4"
    },
    {
      "bufferView": 6,
      "byteOffset": 4192,
      "componentType": 5126,
      "count": 1,
      "max": [
        0.0
      ],
      "min": [
        0.0
      ],
      "type": "SCALAR"
    },
    {
      "bufferView": 8,
      "byteOffset": 10000,
      "componentType": 5126,
      "count": 1,
      "max": [
        -0.0002688269014470279,
        -0.0015458841808140278,
        -0.12453347444534302,
        0.9922141432762146
      ],
      "min": [
        -0.0002688269014470279,
        -0.0015458841808140278,
        -0.12453347444534302,
        0.9922141432762146
      ],
      "type": "VEC4"
    },
    {
      "bufferView": 6,
      "byteOffset": 4196,
      "componentType": 5126,
      "count": 53,
      "max": [
        1.0166666507720947
      ],
      "min": [
        0.0
      ],
      "type": "SCALAR"
    },
    {
      "bufferView": 7,
      "byteOffset": 5076,
      "componentType": 5126,
      "count": 53,
      "max": [
        -0.039011940360069275,
        0.12371337413787842,
        4.440892098500626e-16
      ],
      "min": [
        -0.039011940360069275,
        0.12371337413787842,
        -8.881784197001252e-16
      ],
      "type": "VEC3"
    },
    {
      "bufferView": 6,
      "byteOffset": 4408,
      "componentType": 5126,
      "count": 62,
      "max": [
        1.0166666507720947
      ],
      "min": [
        0.0
      ],
      "type": "SCALAR"
    },
    {
      "bufferView": 8,
      "byteOffset": 10016,
      "componentType": 5126,
      "count": 62,
      "max": [
        0.1434485763311386,
        -0.1547454297542572,
        0.4225395619869232,
        0.9095787405967712
      ],
      "min": [
        0.08651318401098251,
        -0.20727360248565674,
        0.35531923174858093,
        0.8767812848091125
      ],
      "type": "VEC4"
    },
    {
      "bufferView": 6,
      "byteOffset": 4656,
      "componentType": 5126,
      "count": 62,
      "max": [
        1.0166666507720947
      ],
      "min": [
        0.0
      ],
      "type": "SCALAR"
    },
    {
      "bufferView": 8,
      "byteOffset": 11008,
      "componentType": 5126,
      "count": 62,
      "max": [
        0.22424548864364624,
        0.04139786958694458,
        -0.274128794670105,
        0.9489268660545349
      ],
      "min": [
        0.13183000683784485,
        0.01094604842364788,
        -0.3315346837043762,
        0.920353353023529
      ],
      "type": "VEC4"
    },
    {
      "bufferView": 6,
      "byteOffset": 4904,
      "componentType": 5126,
      "count": 1,
      "max": [
        0.0
      ],
      "min": [
        0.0
      ],
      "type": "SCALAR"
    },
    {
      "bufferView": 7,
      "byteOffset": 5712,
      "componentType": 5126,
      "count": 1,
      "max": [
        -0.00020759318431373686,
        0.13951721787452698,
        1.1102230246251565e-16
      ],
      "min": [
        -0.00020759318431373686,
        0.13951721787452698,
        1.1102230246251565e-16
      ],
      "type": "VEC3"
    },
    {
      "bufferView": 6,
      "byteOffset": 4908,
      "componentType": 5126,
      "count": 1,
      "max": [
        0.0
      ],
      "min": [
        0.0
      ],
      "type": "SCALAR"
    },
    {
      "bufferView": 8,
      "byteOffset": 12000,
      "componentType": 5126,
      "count": 1,
      "max": [
        -2.200226276727335e-07,
        1.3862806554243434e-05,
        0.0012359957909211516,
        0.9999992251396179
      ],
      "min": [
        -2.200226276727335e-07,
        1.3862806554243434e-05,
        0.0012359957909211516,
        0.9999992251396179
      ],
      "type": "VEC4"
    },
    {
      "bufferView": 6,
      "byteOffset": 4912,
      "componentType": 5126,
      "count": 53,
      "max": [
        1.0166666507720947
      ],
      "min": [
        0.0
      ],
      "type": "SCALAR"
    },
    {
      "bufferView": 7,
      "byteOffset": 5724,
      "componentType": 5126,
      "count": 53,
      "max": [
        8.275667642010376e-05,
        0.14709137380123138,
        -2.220446049250313e-16
      ],
      "min": [
        8.275667642010376e-05,
        0.14709137380123138,
        -6.661338147750939e-16
      ],
      "type": "VEC3"
    },
    {
      "bufferView": 6,
      "byteOffset": 5124,
      "componentType": 5126,
      "count": 62,
      "max": [
        1.0166666507720947
      ],
      "min": [
        0.0
      ],
      "type": "SCALAR"
    },
    {
      "bufferView": 8,
      "byteOffset": 12016,
      "componentType": 5126,
      "count": 62,
      "max": [
        0.624565839767456,
        0.029585866257548332,
        -0.03402479365468025,
        0.8611068725585938
      ],
      "min": [
        0.5066190361976624,
        0.02596932463347912,
        -0.050842128694057465,
        0.7787564992904663
      ],
      "type": "VEC4"
    },
    {
      "bufferView": 6,
      "byteOffset": 5372,
      "componentType": 5126,
      "count": 62,
      "max": [
        1.0166666507720947
      ],
      "min": [
        0.0
      ],
      "type": "SCALAR"
    },
    {
      "bufferView": 8,
      "byteOffset": 13008,
      "componentType": 5126,
      "count": 62,
      "max": [
        0.4492509961128235,
        0.06013520061969757,
        0.0911269411444664,
        0.956321656703949
      ],
      "min": [
        0.27506008744239807,
        0.03855825215578079,
        0.06507611274719238,
        0.8889965415000916
      ],
      "type": "VEC4"
    },
    {
      "bufferView": 6,
      "byteOffset": 5620,
      "componentType": 5126,
      "count": 1,
      "max": [
        0.0
      ],
      "min": [
        0.0
      ],
      "type": "SCALAR"
    },
    {
      "bufferView": 8,
      "byteOffset": 14000,
      "componentType": 5126,
      "count": 1,
      "max": [
        -9.135998197962181e-07,
        0.00019701666315086186,
        0.003048803424462676,
        0.9999953508377075
      ],
      "min": [
        -9.135998197962181e-07,
        0.00019701666315086186,
        0.003048803424462676,
        0.9999953508377075
      ],
      "type": "VEC4"
    },
    {
      "bufferView": 6,
      "byteOffset": 5624,
      "componentType": 5126,
      "count": 58,
      "max": [
        1.0166666507720947
      ],
      "min": [
        0.0
      ],
      "type": "SCALAR"
    },
    {
      "bufferView": 7,
      "byteOffset": 6360,
      "componentType": 5126,
      "count": 58,
      "max": [
        0.0007977263303473592,
        0.14217790961265564,
        4.440892098500626e-16
      ],
      "min": [
        0.0007977263303473592,
        0.14217790961265564,
        -2.220446049250313e-16
      ],
      "type": "VEC3"
    },
    {
      "bufferView": 6,
      "byteOffset": 5856,
      "componentType": 5126,
      "count": 62,
      "max": [
        1.0166666507720947
      ],
      "min": [
        0.0
      ],
      "type": "SCALAR"
    },
    {
      "bufferView": 8,
      "byteOffset": 14016,
      "componentType": 5126,
      "count": 62,
      "max": [
        0.6634843945503235,
        0.035061392933130264,
        -0.042951878160238266,
        0.8356881737709045
      ],
      "min": [
        0.546509861946106,
        0.033272884786129,
        -0.05733560770750046,
        0.7451662421226501
      ],
      "type": "VEC4"
    },
    {
      "bufferView": 6,
      "byteOffset": 6104,
      "componentType": 5126,
      "count": 62,
      "max": [
        1.0166666507720947
      ],
      "min": [
        0.0
      ],
      "type": "SCALAR"
    },
    {
      "bufferView": 8,
      "byteOffset": 15008,
      "componentType": 5126,
      "count": 62,
      "max": [
        0.5002894401550293,
        0.08523803949356079,
        0.07509543001651764,
        0.9263755083084106
      ],
      "min": [
        0.3623218834400177,
        0.07007297873497009,
        0.051811665296554565,
        0.8600925803184509
      ],
      "type": "VEC4"
    },
    {
      "bufferView": 6,
      "byteOffset": 6352,
      "componentType": 5126,
      "count": 61,
      "max": [
        1.0166666507720947
      ],
      "min": [
        0.0
      ],
      "type": "SCALAR"
    },
    {
      "bufferView": 7,
      "byteOffset": 7056,
      "componentType": 5126,
      "count": 61,
      "max": [
        2.220446049250313e-16,
        0.7916157245635986,
        8.881784197001252e-16
      ],
      "min": [
        -2.220446049250313e-16,
        0.7916157245635986,
        0.0
      ],
      "type": "VEC3"
    },
    {
      "bufferView": 6,
      "byteOffset": 6596,
      "componentType": 5126,
      "count": 62,
      "max": [
        1.0166666507720947
      ],
      "min": [
        0.0
      ],
      "type": "SCALAR"
    },
    {
      "bufferView": 8,
      "byteOffset": 16000,
      "componentType": 5126,
      "count": 62,
      "max": [
        0.029127031564712524,
        -0.057590220123529434,
        -0.004778395872563124,
        0.9956652522087097
      ],
      "min": [
        -0.18760071694850922,
        -0.2224418967962265,
        -0.23325863480567932,
        0.957274317741394
      ],
      "type": "VEC4"
    },
    {
      "bufferView": 6,
      "byteOffset": 6844,
      "componentType": 5126,
      "count": 61,
      "max": [
        1.0166666507720947
      ],
      "min": [
        0.0
      ],
      "type": "SCALAR"
    },
    {
      "bufferView": 7,
      "byteOffset": 7788,
      "componentType": 5126,
      "count": 61,
      "max": [
        4.440892098500626e-16,
        0.570099949836731,
        6.661338147750939e-16
      ],
      "min": [
        -4.440892098500626e-16,
        0.570099949836731,
        2.220446049250313e-16
      ],
      "type": "VEC3"
    },
    {
      "bufferView": 6,
      "byteOffset": 7088,
      "componentType": 5126,
      "count": 62,
      "max": [
        1.0166666507720947
      ],
      "min": [
        0.0
      ],
      "type": "SCALAR"
    },
    {
      "bufferView": 8,
      "byteOffset": 16992,
      "componentType": 5126,
      "count": 62,
      "max": [
        0.1391710638999939,
        -0.05658147484064102,
        -0.1227564811706543,
        0.9814439415931702
      ],
      "min": [
        -0.04743979498744011,
        -0.19643370807170868,
        -0.4620584547519684,
        0.8823884725570679
      ],
      "type": "VEC4"
    },
    {
      "bufferView": 6,
      "byteOffset": 7336,
      "componentType": 5126,
      "count": 61,
      "max": [
        1.0166666507720947
      ],
      "min": [
        0.0
      ],
      "type": "SCALAR"
    },
    {
      "bufferView": 7,
      "byteOffset": 8520,
      "componentType": 5126,
      "count": 61,
      "max": [
        1.1102230246251565e-16,
        0.3611511290073395,
        8.881784197001252e-16
      ],
      "min": [
        -8.326672684688674e-17,
        0.3611511290073395,
        -8.881784197001252e-16
      ],
      "type": "VEC3"
    },
    {
      "bufferView": 6,
      "byteOffset": 7580,
      "componentType": 5126,
      "count": 62,
      "max": [
        1.0166666507720947
      ],
      "min": [
        0.0
      ],
      "type": "SCALAR"
    },
    {
      "bufferView": 8,
      "byteOffset": 17984,
      "componentType": 5126,
      "count": 62,
      "max": [
        0.3998650908470154,
        0.1460849791765213,
        0.2548271715641022,
        0.9415382146835327
      ],
      "min": [
        0.3037618398666382,
        -0.04250817373394966,
        -0.11141949146986008,
        0.9008628129959106
      ],
      "type": "VEC4"
    },
    {
      "bufferView": 6,
      "byteOffset": 7828,
      "componentType": 5126,
      "count": 62,
      "max": [
        1.0166666507720947
      ],
      "min": [
        0.0
      ],
      "type": "SCALAR"
    },
    {
      "bufferView": 8,
      "byteOffset": 18976,
      "componentType": 5126,
      "count": 62,
      "max": [
        0.6686992049217224,
        -0.30763480067253113,
        0.6146257519721985,
        0.3885762095451355
      ],
      "min": [
        0.6499478816986084,
        -0.34398749470710754,
        0.5445365905761719,
        0.3081760108470917
      ],
      "type": "VEC4"
    },
    {
      "bufferView": 6,
      "byteOffset": 8076,
      "componentType": 5126,
      "count": 62,
      "max": [
        1.0166666507720947
      ],
      "min": [
        0.0
      ],
      "type": "SCALAR"
    },
    {
      "bufferView": 7,
      "byteOffset": 9252,
      "componentType": 5126,
      "count": 62,
      "max": [
        2.0816681711721685e-17,
        0.35219886898994446,
        2.7755575615628914e-17
      ],
      "min": [
        -2.7755575615628914e-17,
        0.35219886898994446,
        -2.7755575615628914e-17
      ],
      "type": "VEC3"
    },
    {
      "bufferView": 6,
      "byteOffset": 8324,
      "componentType": 5126,
      "count": 62,
      "max": [
        1.0166666507720947
      ],
      "min": [
        0.0
      ],
      "type": "SCALAR"
    },
    {
      "bufferView": 8,
      "byteOffset": 19968,
      "componentType": 5126,
      "count": 62,
      "max": [
        0.008469847030937672,
        0.040804672986269,
        0.014281552284955978,
        0.9999881982803345
      ],
      "min": [
        -0.00589870335534215,
        -0.030627770349383354,
        -0.017218636348843575,
        0.9990912079811096
      ],
      "type": "VEC4"
    },
    {
      "bufferView": 6,
      "byteOffset": 8572,
      "componentType": 5126,
      "count": 62,
      "max": [
        1.0166666507720947
      ],
      "min": [
        0.0
      ],
      "type": "SCALAR"
    },
    {
      "bufferView": 7,
      "byteOffset": 9996,
      "componentType": 5126,
      "count": 62,
      "max": [
        1.3877787807814457e-17,
        0.30817365646362305,
        2.7755575615628914e-17
      ],
      "min": [
        -2.0816681711721685e-17,
        0.30817365646362305,
        -1.3877787807814457e-17
      ],
      "type": "VEC3"
    },
    {
      "bufferView": 6,
      "byteOffset": 8820,
      "componentType": 5126,
      "count": 62,
      "max": [
        1.0166666507720947
      ],
      "min": [
        0.0
      ],
      "type": "SCALAR"
    },
    {
      "bufferView": 8,
      "byteOffset": 20960,
      "componentType": 5126,
      "count": 62,
      "max": [
        0.008469846099615097,
        0.040804676711559296,
        0.014281555078923702,
        0.9999881982803345
      ],
      "min": [
        -0.005898701958358288,
        -0.030627788975834846,
        -0.017218641936779022,
        0.9990912079811096
      ],
      "type": "VEC4"
    },
    {
      "bufferView": 6,
      "byteOffset": 9068,
      "componentType": 5126,
      "count": 55,
      "max": [
        1.0166666507720947
      ],
      "min": [
        0.0
      ],
      "type": "SCALAR"
    },
    {
      "bufferView": 7,
      "byteOffset": 10740,
      "componentType": 5126,
      "count": 55,
      "max": [
        1.3877787807814457e-17,
        0.2641472816467285,
        -0.0009819157421588898
      ],
      "min": [
        -1.3877787807814457e-17,
        0.2641472816467285,
        -0.0009819157421588898
      ],
      "type": "VEC3"
    },
    {
      "bufferView": 6,
      "byteOffset": 9288,
      "componentType": 5126,
      "count": 62,
      "max": [
        1.0166666507720947
      ],
      "min": [
        0.0
      ],
      "type": "SCALAR"
    },
    {
      "bufferView": 8,
      "byteOffset": 21952,
      "componentType": 5126,
      "count": 62,
      "max": [
        0.0024179681204259396,
        0.02229010872542858,
        0.008984996937215328,
        0.9999858140945435
      ],
      "min": [
        -0.004787403158843517,
        -0.016656706109642982,
        -0.007629907224327326,
        0.9997321367263794
      ],
      "type": "VEC4"
    },
    {
      "bufferView": 6,
      "byteOffset": 9536,
      "componentType": 5126,
      "count": 62,
      "max": [
        1.0166666507720947
      ],
      "min": [
        0.0
      ],
      "type": "SCALAR"
    },
    {
      "bufferView": 7,
      "byteOffset": 11400,
      "componentType": 5126,
      "count": 62,
      "max": [
        1.1102230246251565e-16,
        0.486225962638855,
        1.1102230246251565e-16
      ],
      "min": [
        -1.1102230246251565e-16,
        0.486225962638855,
        -1.1102230246251565e-16
      ],
      "type": "VEC3"
    },
    {
      "bufferView": 6,
      "byteOffset": 9784,
      "componentType": 5126,
      "count": 62,
      "max": [
        1.0166666507720947
      ],
      "min": [
        0.0
      ],
      "type": "SCALAR"
    },
    {
      "bufferView": 8,
      "byteOffset": 22944,
      "componentType": 5126,
      "count": 62,
      "max": [
        0.627062201499939,
        -0.005221177823841572,
        0.09837324917316437,
        0.978219747543335
      ],
      "min": [
        0.1962617039680481,
        -0.2664726674556732,
        0.02017299272119999,
        0.7270987629890442
      ],
      "type": "VEC4"
    },
    {
      "bufferView": 6,
      "byteOffset": 10032,
      "componentType": 5126,
      "count": 61,
      "max": [
        1.0166666507720947
      ],
      "min": [
        0.0
      ],
      "type": "SCALAR"
    },
    {
      "bufferView": 7,
      "byteOffset": 12144,
      "componentType": 5126,
      "count": 61,
      "max": [
        5.551115123125783e-17,
        0.5891669988632202,
        2.220446049250313e-16
      ],
      "min": [
        -1.1102230246251565e-16,
        0.5891669988632202,
        -1.1102230246251565e-16
      ],
      "type": "VEC3"
    },
    {
      "bufferView": 6,
      "byteOffset": 10276,
      "componentType": 5126,
      "count": 62,
      "max": [
        1.0166666507720947
      ],
      "min": [
        0.0
      ],
      "type": "SCALAR"
    },
    {
      "bufferView": 8,
      "byteOffset": 23936,
      "componentType": 5126,
      "count": 62,
      "max": [
        0.7991668581962585,
        0.04261656105518341,
        0.14330679178237915,
        0.8192222714424133
      ],
      "min": [
        0.5692105293273926,
        -0.021806420758366585,
        0.04135221242904663,
        0.5904503464698792
      ],
      "type": "VEC4"
    },
    {
      "bufferView": 6,
      "byteOffset": 10524,
      "componentType": 5126,
      "count": 61,
      "max": [
        1.0166666507720947
      ],
      "min": [
        0.0
      ],
      "type": "SCALAR"
    },
    {
      "bufferView": 7,
      "byteOffset": 12876,
      "componentType": 5126,
      "count": 61,
      "max": [
        0.0,
        0.7558643817901611,
        1.1102230246251565e-16
      ],
      "min": [
        -2.220446049250313e-16,
        0.7558643817901611,
        -1.1102230246251565e-16
      ],
      "type": "VEC3"
    },
    {
      "bufferView": 6,
      "byteOffset": 10768,
      "componentType": 5126,
      "count": 62,
      "max": [
        1.0166666507720947
      ],
      "min": [
        0.0
      ],
      "type": "SCALAR"
    },
    {
      "bufferView": 8,
      "byteOffset": 24928,
      "componentType": 5126,
      "count": 62,
      "max": [
        -0.19781136512756348,
        0.19165682792663574,
        -0.009850509464740753,
        0.9709779620170593
      ],
      "min": [
        -0.6671320199966431,
        -0.04127036780118942,
        -0.08750294893980026,
        0.7437922358512878
      ],
      "type": "VEC4"
    },
    {
      "bufferView": 6,
      "byteOffset": 11016,
      "componentType": 5126,
      "count": 62,
      "max": [
        1.0166666507720947
      ],
      "min": [
        0.0
      ],
      "type": "SCALAR"
    },
    {
      "bufferView": 8,
      "byteOffset": 25920,
      "componentType": 5126,
      "count": 62,
      "max": [
        0.11063694208860397,
        0.39340874552726746,
        0.9951323866844177,
        -0.013266057707369328
      ],
      "min": [
        0.04459578916430473,
        -0.12412761151790619,
        0.9165311455726624,
        -0.10229966789484024
      ],
      "type": "VEC4"
    },
    {
      "bufferView": 6,
      "byteOffset": 11264,
      "componentType": 5126,
      "count": 62,
      "max": [
        1.0166666507720947
      ],
      "min": [
        0.0
      ],
      "type": "SCALAR"
    },
    {
      "bufferView": 7,
      "byteOffset": 13608,
      "componentType": 5126,
      "count": 62,
      "max": [
        8.326672684688674e-17,
        0.47387462854385376,
        1.1102230246251565e-16
      ],
      "min": [
        -5.551115123125783e-17,
        0.47387462854385376,
        -1.1102230246251565e-16
      ],
      "type": "VEC3"
    },
    {
      "bufferView": 6,
      "byteOffset": 11512,
      "componentType": 5126,
      "count": 62,
      "max": [
        1.0166666507720947
      ],
      "min": [
        0.0
      ],
      "type": "SCALAR"
    },
    {
      "bufferView": 8,
      "byteOffset": 26912,
      "componentType": 5126,
      "count": 62,
      "max": [
        0.6429054737091064,
        0.3277295231819153,
        0.0028570685535669327,
        0.9805944561958313
      ],
      "min": [
        0.1931457668542862,
        0.003800069447606802,
        -0.06332992762327194,
        0.7407112121582031
      ],
      "type": "VEC4"
    },
    {
      "bufferView": 6,
      "byteOffset": 11760,
      "componentType": 5126,
      "count": 61,
      "max": [
        1.0166666507720947
      ],
      "min": [
        0.0
      ],
      "type": "SCALAR"
    },
    {
      "bufferView": 7,
      "byteOffset": 14352,
      "componentType": 5126,
      "count": 61,
      "max": [
        1.1102230246251565e-16,
        0.589184045791626,
        1.1102230246251565e-16
      ],
      "min": [
        0.0,
        0.589184045791626,
        -1.6653345369377348e-16
      ],
      "type": "VEC3"
    },
    {
      "bufferView": 6,
      "byteOffset": 12004,
      "componentType": 5126,
      "count": 62,
      "max": [
        1.0166666507720947
      ],
      "min": [
        0.0
      ],
      "type": "SCALAR"
    },
    {
      "bufferView": 8,
      "byteOffset": 27904,
      "componentType": 5126,
      "count": 62,
      "max": [
        0.7812265157699585,
        0.02373911254107952,
        -0.03682619333267212,
        0.8434028625488281
      ],
      "min": [
        0.5326465368270874,
        -0.04291513189673424,
        -0.11851106584072113,
        0.6159330606460571
      ],
      "type": "VEC4"
    },
    {
      "bufferView": 6,
      "byteOffset": 12252,
      "componentType": 5126,
      "count": 62,
      "max": [
        1.0166666507720947
      ],
      "min": [
        0.0
      ],
      "type": "SCALAR"
    },
    {
      "bufferView": 7,
      "byteOffset": 15084,
      "componentType": 5126,
      "count": 62,
      "max": [
        1.1102230246251565e-16,
        0.7558432221412659,
        2.220446049250313e-16
      ],
      "min": [
        -5.551115123125783e-17,
        0.7558432221412659,
        -2.220446049250313e-16
      ],
      "type": "VEC3"
    },
    {
      "bufferView": 6,
      "byteOffset": 12500,
      "componentType": 5126,
      "count": 62,
      "max": [
        1.0166666507720947
      ],
      "min": [
        0.0
      ],
      "type": "SCALAR"
    },
    {
      "bufferView": 8,
      "byteOffset": 28896,
      "componentType": 5126,
      "count": 62,
      "max": [
        -0.24453778564929962,
        0.046831563115119934,
        0.09426245838403702,
        0.9685288071632385
      ],
      "min": [
        -0.6484017968177795,
        -0.1264323890209198,
        -0.01751151867210865,
        0.7603939175605774
      ],
      "type": "VEC4"
    },
    {
      "bufferView": 6,
      "byteOffset": 12748,
      "componentType": 5126,
      "count": 62,
      "max": [
        1.0166666507720947
      ],
      "min": [
        0.0
      ],
      "type": "SCALAR"
    },
    {
      "bufferView": 8,
      "byteOffset": 29888,
      "componentType": 5126,
      "count": 62,
      "max": [
        -0.049793023616075516,
        0.4249420762062073,
        0.9953604936599731,
        0.08170872926712036
      ],
      "min": [
        -0.10692392289638519,
        -0.13789582252502441,
        0.9021004438400269,
        -0.014738879166543484
      ],
      "type": "VEC4"
    },
    {
      "bufferView": 6,
      "byteOffset": 12996,
      "componentType": 5126,
      "count": 62,
      "max": [
        1.0166666507720947
      ],
      "min": [
        0.0
      ],
      "type": "SCALAR"
    },
    {
      "bufferView": 7,
      "byteOffset": 15828,
      "componentType": 5126,
      "count": 62,
      "max": [
        0.06148740276694298,
        1.6371350288391113,
        -0.006213030312210321
      ],
      "min": [
        0.001511025708168745,
        1.4914906024932861,
        -0.03505661338567734
      ],
      "type": "VEC3"
    },
    {
      "bufferView": 6,
      "byteOffset": 13244,
      "componentType": 5126,
      "count": 62,
      "max": [
        1.0166666507720947
      ],
      "min": [
        0.0
      ],
      "type": "SCALAR"
    },
    {
      "bufferView": 8,
      "byteOffset": 30880,
      "componentType": 5126,
      "count": 62,
      "max": [
        0.028435027226805687,
        0.07504315674304962,
        0.010248824022710323,
        0.9999216794967651
      ],
      "min": [
        0.005209111608564854,
        -0.039239708334207535,
        -0.02275030128657818,
        0.9969006776809692
      ],
      "type": "VEC4"
    }
  ],
  "animations": [
    {
      "channels": [
        {
          "sampler": 0,
          "target": {
            "node": 13,
            "path": "translation"
          }
        },
        {
          "sampler": 1,
          "target": {
            "node": 13,
            "path": "rotation"
          }
        },
        {
          "sampler": 2,
          "target": {
            "node": 12,
            "path": "translation"
          }
        },
        {
          "sampler": 3,
          "target": {
            "node": 12,
            "path": "rotation"
          }
        },
        {
          "sampler": 4,
          "target": {
            "node": 21,
            "path": "translation"
          }
        },
        {
          "sampler": 5,
          "target": {
            "node": 21,
            "path": "rotation"
          }
        },
        {
          "sampler": 6,
          "target": {
            "node": 20,
            "path": "rotation"
          }
        },
        {
          "sampler": 7,
          "target": {
            "node": 19,
            "path": "rotation"
          }
        },
        {
          "sampler": 8,
          "target": {
            "node": 25,
            "path": "translation"
          }
        },
        {
          "sampler": 9,
          "target": {
            "node": 25,
            "path": "rotation"
          }
        },
        {
          "sampler": 10,
          "target": {
            "node": 24,
            "path": "translation"
          }
        },
        {
          "sampler": 11,
          "target": {
            "node": 24,
            "path": "rotation"
          }
        },
        {
          "sampler": 12,
          "target": {
            "node": 23,
            "path": "rotation"
          }
        },
        {
          "sampler": 13,
          "target": {
            "node": 29,
            "path": "translation"
          }
        },
        {
          "sampler": 14,
          "target": {
            "node": 29,
            "path": "rotation"
          }
        },
        {
          "sampler": 15,
          "target": {
            "node": 28,
            "path": "translation"
          }
        },
        {
          "sampler": 16,
          "target": {
            "node": 28,
            "path": "rotation"
          }
        },
        {
          "sampler": 17,
          "target": {
            "node": 27,
            "path": "rotation"
          }
        },
        {
          "sampler": 18,
          "target": {
            "node": 18,
            "path": "translation"
          }
        },
        {
          "sampler": 19,
          "target": {
            "node": 18,
            "path": "rotation"
          }
        },
        {
          "sampler": 20,
          "target": {
            "node": 17,
            "path": "translation"
          }
        },
        {
          "sampler": 21,
          "target": {
            "node": 17,
            "path": "rotation"
          }
        },
        {
          "sampler": 22,
          "target": {
            "node": 16,
            "path": "translation"
          }
        },
        {
          "sampler": 23,
          "target": {
            "node": 16,
            "path": "rotation"
          }
        },
        {
          "sampler": 24,
          "target": {
            "node": 15,
            "path": "rotation"
          }
        },
        {
          "sampler": 25,
          "target": {
            "node": 37,
            "path": "rotation"
          }
        },
        {
          "sampler": 26,
          "target": {
            "node": 36,
            "path": "translation"
          }
        },
        {
          "sampler": 27,
          "target": {
            "node": 36,
            "path": "rotation"
          }
        },
        {
          "sampler": 28,
          "target": {
            "node": 35,
            "path": "rotation"
          }
        },
        {
          "sampler": 29,
          "target": {
            "node": 41,
            "path": "translation"
          }
        },
        {
          "sampler": 30,
          "target": {
            "node": 41,
            "path": "rotation"
          }
        },
        {
          "sampler": 31,
          "target": {
            "node": 40,
            "path": "translation"
          }
        },
        {
          "sampler": 32,
          "target": {
            "node": 40,
            "path": "rotation"
          }
        },
        {
          "sampler": 33,
          "target": {
            "node": 39,
            "path": "rotation"
          }
        },
        {
          "sampler": 34,
          "target": {
            "node": 45,
            "path": "rotation"
          }
        },
        {
          "sampler": 35,
          "target": {
            "node": 44,
            "path": "translation"
          }
        },
        {
          "sampler": 36,
          "target": {
            "node": 44,
            "path": "rotation"
          }
        },
        {
          "sampler": 37,
          "target": {
            "node": 43,
            "path": "rotation"
          }
        },
        {
          "sampler": 38,
          "target": {
            "node": 34,
            "path": "translation"
          }
        },
        {
          "sampler": 39,
          "target": {
            "node": 34,
            "path": "rotation"
          }
        },
        {
          "sampler": 40,
          "target": {
            "node": 33,
            "path": "translation"
          }
        },
        {
          "sampler": 41,
          "target": {
            "node": 33,
            "path": "rotation"
          }
        },
        {
          "sampler": 42,
          "target": {
            "node": 32,
            "path": "translation"
          }
        },
        {
          "sampler": 43,
          "target": {
            "node": 32,
            "path": "rotation"
          }
        },
        {
          "sampler": 44,
          "target": {
            "node": 31,
            "path": "rotation"
          }
        },
        {
          "sampler": 45,
          "target": {
            "node": 11,
            "path": "translation"
          }
        },
        {
          "sampler": 46,
          "target": {
            "node": 11,
            "path": "rotation"
          }
        },
        {
          "sampler": 47,
          "target": {
            "node": 10,
            "path": "translation"
          }
        },
        {
          "sampler": 48,
          "target": {
            "node": 10,
            "path": "rotation"
          }
        },
        {
          "sampler": 49,
          "target": {
            "node": 9,
            "path": "translation"
          }
        },
        {
          "sampler": 50,
          "target": {
            "node": 9,
            "path": "rotation"
          }
        },
        {
          "sampler": 51,
          "target": {
            "node": 50,
            "path": "translation"
          }
        },
        {
          "sampler": 52,
          "target": {
            "node": 50,
            "path": "rotation"
          }
        },
        {
          "sampler": 53,
          "target": {
            "node": 49,
            "path": "translation"
          }
        },
        {
          "sampler": 54,
          "target": {
            "node": 49,
            "path": "rotation"
          }
        },
        {
          "sampler": 55,
          "target": {
            "node": 48,
            "path": "translation"
          }
        },
        {
          "sampler": 56,
          "target": {
            "node": 48,
            "path": "rotation"
          }
        },
        {
          "sampler": 57,
          "target": {
            "node": 47,
            "path": "rotation"
          }
        },
        {
          "sampler": 58,
          "target": {
            "node": 55,
            "path": "translation"
          }
        },
        {
          "sampler": 59,
          "target": {
            "node": 55,
            "path": "rotation"
          }
        },
        {
          "sampler": 60,
          "target": {
            "node": 54,
            "path": "translation"
          }
        },
        {
          "sampler": 61,
          "target": {
            "node": 54,
            "path": "rotation"
          }
        },
        {
          "sampler": 62,
          "target": {
            "node": 53,
            "path": "translation"
          }
        },
        {
          "sampler": 63,
          "target": {
            "node": 53,
            "path": "rotation"
          }
        },
        {
          "sampler": 64,
          "target": {
            "node": 52,
            "path": "rotation"
          }
        },
        {
          "sampler": 65,
          "target": {
            "node": 8,
            "path": "translation"
          }
        },
        {
          "sampler": 66,
          "target": {
            "node": 8,
            "path": "rotation"
          }
        }
      ],
      "name": "mixamo.com",
      "samplers": [
        {
          "input": 8,
          "interpolation": "LINEAR",
          "output": 9
        },
        {
          "input": 10,
          "interpolation": "LINEAR",
          "output": 11
        },
        {
          "input": 12,
          "interpolation": "LINEAR",
          "output": 13
        },
        {
          "input": 14,
          "interpolation": "LINEAR",
          "output": 15
        },
        {
          "input": 16,
          "interpolation": "LINEAR",
          "output": 17
        },
        {
          "input": 18,
          "interpolation": "LINEAR",
          "output": 19
        },
        {
          "input": 20,
          "interpolation": "LINEAR",
          "output": 21
        },
        {
          "input": 22,
          "interpolation": "LINEAR",
          "output": 23
        },
        {
          "input": 24,
          "interpolation": "LINEAR",
          "output": 25
        },
        {
          "input": 26,
          "interpolation": "LINEAR",
          "output": 27
        },
        {
          "input": 28,
          "interpolation": "LINEAR",
          "output": 29
        },
        {
          "input": 30,
          "interpolation": "LINEAR",
          "output": 31
        },
        {
          "input": 32,
          "interpolation": "LINEAR",
          "output": 33
        },
        {
          "input": 34,
          "interpolation": "LINEAR",
          "output": 35
        },
        {
          "input": 36,
          "interpolation": "LINEAR",
          "output": 37
        },
        {
          "input": 38,
          "interpolation": "LINEAR",
          "output": 39
        },
        {
          "input": 40,
          "interpolation": "LINEAR",
          "output": 41
        },
        {
          "input": 42,
          "interpolation": "LINEAR",
          "output": 43
        },
        {
          "input": 44,
          "interpolation": "LINEAR",
          "output": 45
        },
        {
          "input": 46,
          "interpolation": "LINEAR",
          "output": 47
        },
        {
          "input": 48,
          "interpolation": "LINEAR",
          "output": 49
        },
        {
          "input": 50,
          "interpolation": "LINEAR",
          "output": 51
        },
        {
          "input": 52,
          "interpolation": "LINEAR",
          "output": 53
        },
        {
          "input": 54,
          "interpolation": "LINEAR",
          "output": 55
        },
        {
          "input": 56,
          "interpolation": "LINEAR",
          "output": 57
        },
        {
          "input": 58,
          "interpolation": "LINEAR",
          "output": 59
        },
        {
          "input": 60,
          "interpolation": "LINEAR",
          "output": 61
        },
        {
          "input": 62,
          "interpolation": "LINEAR",
          "output": 63
        },
        {
          "input": 64,
          "interpolation": "LINEAR",
          "output": 65
        },
        {
          "input": 66,
          "interpolation": "LINEAR",
          "output": 67
        },
        {
          "input": 68,
          "interpolation": "LINEAR",
          "output": 69
        },
        {
          "input": 70,
          "interpolation": "LINEAR",
          "output": 71
        },
        {
          "input": 72,
          "interpolation": "LINEAR",
          "output": 73
        },
        {
          "input": 74,
          "interpolation": "LINEAR",
          "output": 75
        },
        {
          "input": 76,
          "interpolation": "LINEAR",
          "output": 77
        },
        {
          "input": 78,
          "interpolation": "LINEAR",
          "output": 79
        },
        {
          "input": 80,
          "interpolation": "LINEAR",
          "output": 81
        },
        {
          "input": 82,
          "interpolation": "LINEAR",
          "output": 83
        },
        {
          "input": 84,
          "interpolation": "LINEAR",
          "output": 85
        },
        {
          "input": 86,
          "interpolation": "LINEAR",
          "output": 87
        },
        {
          "input": 88,
          "interpolation": "LINEAR",
          "output": 89
        },
        {
          "input": 90,
          "interpolation": "LINEAR",
          "output": 91
        },
        {
          "input": 92,
          "interpolation": "LINEAR",
          "output": 93
        },
        {
          "input": 94,
          "interpolation": "LINEAR",
          "output": 95
        },
        {
          "input": 96,
          "interpolation": "LINEAR",
          "output": 97
        },
        {
          "input": 98,
          "interpolation": "LINEAR",
          "output": 99
        },
        {
          "input": 100,
          "interpolation": "LINEAR",
          "output": 101
        },
        {
          "input": 102,
          "interpolation": "LINEAR",
          "output": 103
        },
        {
          "input": 104,
          "interpolation": "LINEAR",
          "output": 105
        },
        {
          "input": 106,
          "interpolation": "LINEAR",
          "output": 107
        },
        {
          "input": 108,
          "interpolation": "LINEAR",
          "output": 109
        },
        {
          "input": 110,
          "interpolation": "LINEAR",
          "output": 111
        },
        {
          "input": 112,
          "interpolation": "LINEAR",
          "output": 113
        },
        {
          "input": 114,
          "interpolation": "LINEAR",
          "output": 115
        },
        {
          "input": 116,
          "interpolation": "LINEAR",
          "output": 117
        },
        {
          "input": 118,
          "interpolation": "LINEAR",
          "output": 119
        },
        {
          "input": 120,
          "interpolation": "LINEAR",
          "output": 121
        },
        {
          "input": 122,
          "interpolation": "LINEAR",
          "output": 123
        },
        {
          "input": 124,
          "interpolation": "LINEAR",
          "output": 125
        },
        {
          "input": 126,
          "interpolation": "LINEAR",
          "output": 127
        },
        {
          "input": 128,
          "interpolation": "LINEAR",
          "output": 129
        },
        {
          "input": 130,
          "interpolation": "LINEAR",
          "output": 131
        },
        {
          "input": 132,
          "interpolation": "LINEAR",
          "output": 133
        },
        {
          "input": 134,
          "interpolation": "LINEAR",
          "output": 135
        },
        {
          "input": 136,
          "interpolation": "LINEAR",
          "output": 137
        },
        {
          "input": 138,
          "interpolation": "LINEAR",
          "output": 139
        },
        {
          "input": 140,
          "interpolation": "LINEAR",
          "output": 141
        }
      ]
    }
  ],
  "asset": {
    "extras": {
      "author": "Michel.K (https://sketchfab.com/klingler32)",
      "license": "CC-BY-4.0 (http://creativecommons.org/licenses/by/4.0/)",
      "source": "https://sketchfab.com/3d-models/space-lizard-53575e36986c4c639a651eccbf028141",
      "title": "Space Lizard"
    },
    "generator": "Sketchfab-16.16.0",
    "version": "2.0"
  },
  "bufferViews": [
    {
      "buffer": 0,
      "byteLength": 89904,
      "byteStride": 8,
      "name": "shortBufferViews",
      "target": 34962
    },
    {
      "buffer": 0,
      "byteLength": 191736,
      "byteOffset": 89904,
      "name": "floatBufferViews",
      "target": 34963
    },
    {
      "buffer": 0,
      "byteLength": 89904,
      "byteOffset": 281640,
      "byteStride": 8,
      "name": "floatBufferViews",
      "target": 34962
    },
    {
      "buffer": 0,
      "byteLength": 269712,
      "byteOffset": 371544,
      "byteStride": 12,
      "name": "floatBufferViews",
      "target": 34962
    },
    {
      "buffer": 0,
      "byteLength": 359616,
      "byteOffset": 641256,
      "byteStride": 16,
      "name": "floatBufferViews",
      "target": 34962
    },
    {
      "buffer": 0,
      "byteLength": 3200,
      "byteOffset": 1000872,
      "name": "floatBufferViews"
    },
    {
      "buffer": 0,
      "byteLength": 13492,
      "byteOffset": 1004072,
      "name": "floatBufferViews"
    },
    {
      "buffer": 0,
      "byteLength": 16572,
      "byteOffset": 1017564,
      "byteStride": 12,
      "name": "floatBufferViews"
    },
    {
      "buffer": 0,
      "byteLength": 31872,
      "byteOffset": 1034136,
      "byteStride": 16,
      "name": "floatBufferViews"
    }
  ],
  "buffers": [
    {
      "byteLength": 1066008,
      "uri": "scene.bin"
    }
  ],
  "images": [
    {
      "uri": "textures/RootNode_baseColor.jpeg"
    },
    {
      "uri": "textures/RootNode_metallicRoughness.png"
    },
    {
      "uri": "textures/RootNode_normal.png"
    }
  ],
  "materials": [
    {
      "doubleSided": true,
      "name": "RootNode",
      "normalTexture": {
        "index": 2
      },
      "occlusionTexture": {
        "index": 1
      },
      "pbrMetallicRoughness": {
        "baseColorTexture": {
          "index": 0
        },
        "metallicRoughnessTexture": {
          "index": 1
        }
      }
    }
  ],
  "meshes": [
    {
      "name": "Lizard__0",
      "primitives": [
        {
          "attributes": {
            "JOINTS_0": 6,
            "NORMAL": 1,
            "POSITION": 0,
            "TANGENT": 2,
            "TEXCOORD_0": 3,
            "WEIGHTS_0": 7
          },
          "indices": 4,
          "material": 0,
          "mode": 4
        }
      ]
    }
  ],
  "nodes": [
    {
      "children": [
        1
      ],
      "matrix": [
        1.0,
        0.0,
        0.0,
        0.0,
        0.0,
        2.220446049250313e-16,
        -1.0,
        0.0,
        0.0,
        1.0,
        2.220446049250313e-16,
        0.0,
        0.0,
        0.0,
        0.0,
        1.0
      ],
      "name": "Sketchfab_model"
    },
    {
      "children": [
        2
      ],
      "matrix": [
        1.0,
        0.0,
        0.0,
        0.0,
        0.0,
        0.0,
        1.0,
        0.0,
        0.0,
        -1.0,
        0.0,
        0.0,
        0.0,
        0.0,
        0.0,
        1.0
      ],
      "name": "b6bfd96e16ae49ecb73791e1cf00f29c.fbx"
    },
    {
      "children": [
        3
      ],
      "name": "Object_2"
    },
    {
      "children": [
        4
      ],
      "name": "RootNode"
    },
    {
      "children": [
        5,
        7,
        6,
        57
      ],
      "name": "Object_4"
    },
    {
      "children": [
        8
      ],
      "name": "_rootJoint"
    },
    {
      "matrix": [
        1.0,
        -5.550512598715489e-17,
        -7.242321532834796e-20,
        0.0,
        5.5505125987154915e-17,
        1.0000000000000004,
        0.0,
        0.0,
        7.242321532834796e-20,
        -4.019859691194801e-36,
        1.0,
        0.0,
        0.0,
        0.0,
        0.0,
        1.0
      ],
      "name": "Object_6"
    },
    {
      "mesh": 0,
      "name": "Object_7",
      "skin": 0
    },
    {
      "children": [
        9,
        47,
        52
      ],
      "name": "mixamorig:Hips_02",
      "translation": [
        0.0,
        1.6596760749816895,
        -0.055531855672597885
      ]
    },
    {
      "children": [
        10
      ],
      "name": "mixamorig:Spine_046",
      "rotation": [
        -0.0018586432561278343,
        -0.0,
        0.0,
        0.9999982714653015
      ],
      "translation": [
        0.0,
        0.2641472816467285,
        -0.0009819157421588898
      ]
    },
    {
      "children": [
        11
      ],
      "name": "mixamorig:Spine1_047",
      "rotation": [
        8.38073699327424e-09,
        0.0,
        0.0,
        1.0
      ],
      "translation": [
        0.0,
        0.30817365646362305,
        1.3877787807814457e-17
      ]
    },
    {
      "children": [
        12,
        15,
        31
      ],
      "name": "mixamorig:Spine2_048",
      "translation": [
        0.0,
        0.35219886898994446,
        -6.938893903907228e-18
      ]
    },
    {
      "children": [
        13
      ],
      "name": "mixamorig:Neck_024",
      "rotation": [
        0.0018586348742246628,
        0.0,
        0.0,
        0.9999982714653015
      ],
      "translation": [
        0.0,
        0.39622318744659424,
        -5.830143035012725e-09
      ]
    },
    {
      "children": [
        14
      ],
      "name": "mixamorig:Head_00",
      "translation": [
        0.0,
        0.3403451442718506,
        0.030964992940425873
      ]
    },
    {
      "name": "mixamorig:HeadTop_End_01",
      "translation": [
        0.0,
        0.7729487419128418,
        0.07032378017902374
      ]
    },
    {
      "children": [
        16
      ],
      "name": "mixamorig:LeftShoulder_020",
      "rotation": [
        0.5709020495414734,
        0.417844295501709,
        -0.5689113736152649,
        0.4193054139614105
      ],
      "translation": [
        0.1722927689552307,
        0.3423081636428833,
        0.0006020542932674289
      ]
    },
    {
      "children": [
        17
      ],
      "name": "mixamorig:LeftArm_03",
      "rotation": [
        -0.10258316248655319,
        0.0016075882595032454,
        -0.01558646559715271,
        0.9946010112762451
      ],
      "translation": [
        -6.938893903907228e-18,
        0.3611511290073395,
        0.0
      ]
    },
    {
      "children": [
        18
      ],
      "name": "mixamorig:LeftForeArm_05",
      "rotation": [
        -0.027165688574314117,
        -0.0005474739009514451,
        0.020141610875725746,
        0.9994279742240906
      ],
      "translation": [
        0.0,
        0.5701979994773865,
        0.0
      ]
    },
    {
      "children": [
        19,
        23,
        27
      ],
      "name": "mixamorig:LeftHand_06",
      "rotation": [
        -0.027867361903190613,
        0.03301383554935455,
        -0.013455566018819809,
        0.9989756941795349
      ],
      "translation": [
        0.0,
        0.7916116714477539,
        4.440892098500626e-16
      ]
    },
    {
      "children": [
        20
      ],
      "name": "mixamorig:LeftHandThumb1_015",
      "rotation": [
        0.07581678777933121,
        0.03376390412449837,
        0.40541452169418335,
        0.9103575348854065
      ],
      "translation": [
        -0.0920814648270607,
        0.1369161307811737,
        0.026842765510082245
      ]
    },
    {
      "children": [
        21
      ],
      "name": "mixamorig:LeftHandThumb2_016",
      "rotation": [
        0.06298402696847916,
        3.2944946128039536e-17,
        8.135325294925967e-17,
        0.9980146288871765
      ],
      "translation": [
        0.032130151987075806,
        0.12981854379177094,
        0.0
      ]
    },
    {
      "children": [
        22
      ],
      "name": "mixamorig:LeftHandThumb3_017",
      "rotation": [
        -0.11254044622182846,
        2.7579248833173435e-17,
        3.123624864926579e-18,
        0.9936471581459045
      ],
      "translation": [
        -0.026663988828659058,
        0.11001665145158768,
        0.0
      ]
    },
    {
      "name": "mixamorig:LeftHandThumb4_018",
      "rotation": [
        -3.469446951953614e-17,
        6.938893903907228e-18,
        8.326672684688674e-17,
        1.0
      ],
      "translation": [
        -0.005466165021061897,
        0.08100287616252899,
        8.881784197001252e-16
      ]
    },
    {
      "children": [
        24
      ],
      "name": "mixamorig:LeftHandIndex1_07",
      "rotation": [
        0.03357915207743645,
        0.0026979204267263412,
        0.08004157245159149,
        0.9962221384048462
      ],
      "translation": [
        -0.07458847016096115,
        0.44719094038009644,
        2.1101492109210085e-07
      ]
    },
    {
      "children": [
        25
      ],
      "name": "mixamorig:LeftHandIndex2_08",
      "rotation": [
        0.04543279483914375,
        -1.3863457730882588e-17,
        6.3050668629360475e-19,
        0.9989674091339111
      ],
      "translation": [
        -7.756560808047652e-05,
        0.14657723903656006,
        4.440892098500626e-16
      ]
    },
    {
      "children": [
        26
      ],
      "name": "mixamorig:LeftHandIndex3_09",
      "rotation": [
        -0.08176852762699127,
        -8.05042446947026e-18,
        1.3263932939335792e-17,
        0.9966513514518738
      ],
      "translation": [
        0.00023757926828693599,
        0.13758617639541626,
        0.0
      ]
    },
    {
      "name": "mixamorig:LeftHandIndex4_010",
      "rotation": [
        -1.9081958235744878e-17,
        -6.938893903907228e-18,
        2.7755575615628914e-17,
        1.0
      ],
      "translation": [
        -0.00016001366020645946,
        0.09622105956077576,
        0.0
      ]
    },
    {
      "children": [
        28
      ],
      "name": "mixamorig:LeftHandMiddle1_011",
      "rotation": [
        -0.015312773175537586,
        0.0007806342910043895,
        -0.050907187163829803,
        0.9985857009887695
      ],
      "translation": [
        0.07458847016096115,
        0.4378494918346405,
        2.1241172021291277e-07
      ]
    },
    {
      "children": [
        29
      ],
      "name": "mixamorig:LeftHandMiddle2_012",
      "rotation": [
        0.12119582295417786,
        1.2093559226537576e-17,
        -1.5457419882021246e-17,
        0.9926286339759827
      ],
      "translation": [
        -0.0005782860680483282,
        0.14402641355991364,
        -4.440892098500626e-16
      ]
    },
    {
      "children": [
        30
      ],
      "name": "mixamorig:LeftHandMiddle3_013",
      "rotation": [
        -0.15084980428218842,
        3.4297449708880597e-18,
        5.233653936696379e-19,
        0.9885566830635071
      ],
      "translation": [
        0.0013058774638921022,
        0.1381751298904419,
        -4.440892098500626e-16
      ]
    },
    {
      "name": "mixamorig:LeftHandMiddle4_014",
      "rotation": [
        -1.6132928326584306e-16,
        -1.3877787807814457e-17,
        -2.0816681711721685e-17,
        1.0
      ],
      "translation": [
        -0.0007275913958437741,
        0.08944429457187653,
        0.0
      ]
    },
    {
      "children": [
        32
      ],
      "name": "mixamorig:RightShoulder_042",
      "rotation": [
        0.5682389736175537,
        -0.41980233788490295,
        0.571556806564331,
        0.4173646569252014
      ],
      "translation": [
        -0.1722927689552307,
        0.34231412410736084,
        -0.0010028828401118517
      ]
    },
    {
      "children": [
        33
      ],
      "name": "mixamorig:RightArm_025",
      "rotation": [
        -0.10261065512895584,
        -0.0007322545279748738,
        0.007098392117768526,
        0.9946960210800171
      ],
      "translation": [
        -6.938893903907228e-18,
        0.3611511290073395,
        4.440892098500626e-16
      ]
    },
    {
      "children": [
        34
      ],
      "name": "mixamorig:RightForeArm_027",
      "rotation": [
        -0.02708323486149311,
        0.0004532911698333919,
        -0.016728481277823448,
        0.9994931221008301
      ],
      "translation": [
        -1.3877787807814457e-17,
        0.570099949836731,
        0.0
      ]
    },
    {
      "children": [
        35,
        39,
        43
      ],
      "name": "mixamorig:RightHand_028",
      "rotation": [
        -0.02805904857814312,
        -0.03465733304619789,
        0.018255535513162613,
        0.998838484287262
      ],
      "translation": [
        -1.3877787807814457e-17,
        0.7916157245635986,
        4.440892098500626e-16
      ]
    },
    {
      "children": [
        36
      ],
      "name": "mixamorig:RightHandThumb1_037",
      "rotation": [
        0.079329714179039,
        -0.036355920135974884,
        -0.41503196954727173,
        0.9056122303009033
      ],
      "translation": [
        0.08351831883192062,
        0.13635943830013275,
        0.02688632346689701
      ]
    },
    {
      "children": [
        37
      ],
      "name": "mixamorig:RightHandThumb2_038",
      "rotation": [
        0.059617117047309875,
        2.9360914808912626e-17,
        2.6051499181347196e-17,
        0.9982213377952576
      ],
      "translation": [
        -0.039011940360069275,
        0.12371337413787842,
        0.0
      ]
    },
    {
      "children": [
        38
      ],
      "name": "mixamorig:RightHandThumb3_039",
      "rotation": [
        -0.00907792430371046,
        1.488506880077743e-17,
        -1.1089174689207518e-16,
        0.9999588131904602
      ],
      "translation": [
        0.0346594862639904,
        0.11326970905065536,
        4.440892098500626e-16
      ]
    },
    {
      "name": "mixamorig:RightHandThumb4_040",
      "rotation": [
        6.938893903907228e-17,
        2.7755575615628914e-17,
        -5.551115123125783e-17,
        1.0
      ],
      "translation": [
        0.004352454096078873,
        0.09261439740657806,
        4.440892098500626e-16
      ]
    },
    {
      "children": [
        40
      ],
      "name": "mixamorig:RightHandIndex1_029",
      "rotation": [
        0.032366782426834106,
        -0.0028135371394455433,
        -0.0865544006228447,
        0.9957172274589539
      ],
      "translation": [
        0.07752424478530884,
        0.4442705810070038,
        1.7382884465177995e-08
      ]
    },
    {
      "children": [
        41
      ],
      "name": "mixamorig:RightHandIndex2_030",
      "rotation": [
        0.04677572846412659,
        -1.3213453415274131e-17,
        1.4511740683636322e-17,
        0.9989054203033447
      ],
      "translation": [
        8.275667642010376e-05,
        0.14709137380123138,
        -4.440892098500626e-16
      ]
    },
    {
      "children": [
        42
      ],
      "name": "mixamorig:RightHandIndex3_031",
      "rotation": [
        -0.0700499415397644,
        -7.893986417663006e-18,
        1.3357627687319674e-17,
        0.9975435137748718
      ],
      "translation": [
        -0.00020759318431373686,
        0.13951721787452698,
        0.0
      ]
    },
    {
      "name": "mixamorig:RightHandIndex4_032",
      "rotation": [
        7.28583859910259e-17,
        1.3877787807814457e-17,
        4.163336342344337e-17,
        1.0
      ],
      "translation": [
        0.0001248365151695907,
        0.09629696607589722,
        -4.440892098500626e-16
      ]
    },
    {
      "children": [
        44
      ],
      "name": "mixamorig:RightHandMiddle1_033",
      "rotation": [
        -0.012703187763690948,
        -0.0002981203724630177,
        0.023459801450371742,
        0.9996440410614014
      ],
      "translation": [
        -0.07752424478530884,
        0.4513590931892395,
        1.756037448785719e-08
      ]
    },
    {
      "children": [
        45
      ],
      "name": "mixamorig:RightHandMiddle2_034",
      "rotation": [
        0.11988107115030289,
        -8.318420337987054e-19,
        -6.888852371979914e-18,
        0.9927882552146912
      ],
      "translation": [
        0.0007977263303473592,
        0.14217790961265564,
        0.0
      ]
    },
    {
      "children": [
        46
      ],
      "name": "mixamorig:RightHandMiddle3_035",
      "rotation": [
        -0.06447780132293701,
        1.1281492030956505e-17,
        -1.3177802758053708e-17,
        0.9979191422462463
      ],
      "translation": [
        -0.0008103598956950009,
        0.13121989369392395,
        0.0
      ]
    },
    {
      "name": "mixamorig:RightHandMiddle4_036",
      "rotation": [
        -1.0408340855860843e-16,
        -3.469446951953614e-18,
        1.3877787807814457e-17,
        1.0
      ],
      "translation": [
        1.2633583537535742e-05,
        0.08240116387605667,
        0.0
      ]
    },
    {
      "children": [
        48
      ],
      "name": "mixamorig:LeftUpLeg_023",
      "rotation": [
        0.00034482390037737787,
        0.005199630744755268,
        0.9977946877479553,
        -0.06617075204849243
      ],
      "translation": [
        0.21661962568759918,
        -0.14619874954223633,
        0.009189043194055557
      ]
    },
    {
      "children": [
        49
      ],
      "name": "mixamorig:LeftLeg_019",
      "rotation": [
        -0.0890066996216774,
        0.0047440603375434875,
        -0.05301263928413391,
        0.9946079254150391
      ],
      "translation": [
        -5.551115123125783e-17,
        0.7558643817901611,
        3.469446951953614e-18
      ]
    },
    {
      "children": [
        50
      ],
      "name": "mixamorig:LeftFoot_04",
      "rotation": [
        0.6357637643814087,
        -0.02481512725353241,
        0.020456798374652863,
        0.7712134718894958
      ],
      "translation": [
        0.0,
        0.5891669988632202,
        0.0
      ]
    },
    {
      "children": [
        51
      ],
      "name": "mixamorig:LeftToeBase_021",
      "rotation": [
        0.16917119920253754,
        0.004918079823255539,
        0.02864013984799385,
        0.9851582050323486
      ],
      "translation": [
        5.551115123125783e-17,
        0.486225962638855,
        2.7755575615628914e-17
      ]
    },
    {
      "name": "mixamorig:LeftToe_End_022",
      "rotation": [
        2.0816681711721685e-17,
        -9.974659986866641e-18,
        2.0816681711721685e-17,
        1.0
      ],
      "translation": [
        1.1102230246251565e-16,
        0.19012853503227234,
        1.734723475976807e-18
      ]
    },
    {
      "children": [
        53
      ],
      "name": "mixamorig:RightUpLeg_045",
      "rotation": [
        -0.00023772033455315977,
        0.0035845045931637287,
        0.9978017210960388,
        0.06617309153079987
      ],
      "translation": [
        -0.21661962568759918,
        -0.14619874954223633,
        0.012056823819875717
      ]
    },
    {
      "children": [
        54
      ],
      "name": "mixamorig:RightLeg_041",
      "rotation": [
        -0.08747294545173645,
        -0.004663093946874142,
        0.05302876606583595,
        0.9947435259819031
      ],
      "translation": [
        5.551115123125783e-17,
        0.7558432221412659,
        -6.938893903907228e-18
      ]
    },
    {
      "children": [
        55
      ],
      "name": "mixamorig:RightFoot_026",
      "rotation": [
        0.6320251226425171,
        0.025647202506661415,
        -0.020936230197548866,
        0.7742404937744141
      ],
      "translation": [
        5.551115123125783e-17,
        0.589184045791626,
        0.0
      ]
    },
    {
      "children": [
        56
      ],
      "name": "mixamorig:RightToeBase_043",
      "rotation": [
        0.173798069357872,
        -0.005116537678986788,
        -0.028978576883673668,
        0.984341561794281
      ],
      "translation": [
        0.0,
        0.47387462854385376,
        1.3877787807814457e-17
      ]
    },
    {
      "name": "mixamorig:RightToe_End_044",
      "rotation": [
        1.7062535601055668e-33,
        8.196568423990414e-17,
        -2.0816681711721685e-17,
        1.0
      ],
      "translation": [
        5.551115123125783e-17,
        0.1865292340517044,
        0.0
      ]
    },
    {
      "name": "Lizard"
    }
  ],
  "samplers": [
    {
      "magFilter": 9729,
      "minFilter": 9987,
      "wrapS": 10497,
      "wrapT": 10497
    }
  ],
  "scene": 0,
  "scenes": [
    {
      "name": "Sketchfab_Scene",
      "nodes": [
        0
      ]
    }
  ],
  "skins": [
    {
      "inverseBindMatrices": 5,
      "joints": [
        5,
        8,
        9,
        10,
        11,
        12,
        13,
        14,
        15,
        16,
        17,
        18,
        19,
        20,
        21,
        22,
        23,
        24,
        25,
        26,
        27,
        28,
        29,
        30,
        31,
        32,
        33,
        34,
        35,
        36,
        37,
        38,
        39,
        40,
        41,
        42,
        43,
        44,
        45,
        46,
        47,
        48,
        49,
        50,
        51,
        52,
        53,
        54,
        55,
        56
      ],
      "skeleton": 5
    }
  ],
  "textures": [
    {
      "sampler": 0,
      "source": 0
    },
    {
      "sampler": 0,
      "source": 1
    },
    {
      "sampler": 0,
      "source": 2
    }
  ]
}
